%TF.GenerationSoftware,KiCad,Pcbnew,7.0.6*%
%TF.CreationDate,2023-08-07T22:53:39+02:00*%
%TF.ProjectId,attiny85_time_switch,61747469-6e79-4383-955f-74696d655f73,1.0*%
%TF.SameCoordinates,Original*%
%TF.FileFunction,Drillmap*%
%TF.FilePolarity,Positive*%
%FSLAX45Y45*%
G04 Gerber Fmt 4.5, Leading zero omitted, Abs format (unit mm)*
G04 Created by KiCad (PCBNEW 7.0.6) date 2023-08-07 22:53:39*
%MOMM*%
%LPD*%
G01*
G04 APERTURE LIST*
%ADD10C,0.200000*%
%ADD11C,0.040000*%
%ADD12C,0.070000*%
%ADD13C,0.080000*%
%ADD14C,0.090000*%
%ADD15C,0.100000*%
%ADD16C,0.110000*%
%ADD17C,0.130000*%
G04 APERTURE END LIST*
D10*
D11*
X15345000Y-9815000D02*
X15385000Y-9855000D01*
X15385000Y-9815000D02*
X15345000Y-9855000D01*
X15590000Y-9820000D02*
X15630000Y-9860000D01*
X15630000Y-9820000D02*
X15590000Y-9860000D01*
D12*
X12444000Y-8765000D02*
G75*
G03*
X12444000Y-8765000I-35000J0D01*
G01*
X13206000Y-8765000D02*
G75*
G03*
X13206000Y-8765000I-35000J0D01*
G01*
X14864000Y-11070000D02*
G75*
G03*
X14864000Y-11070000I-35000J0D01*
G01*
X15626000Y-11070000D02*
G75*
G03*
X15626000Y-11070000I-35000J0D01*
G01*
X16340000Y-9791000D02*
G75*
G03*
X16340000Y-9791000I-35000J0D01*
G01*
X16734000Y-11110000D02*
G75*
G03*
X16734000Y-11110000I-35000J0D01*
G01*
X17055000Y-10079000D02*
G75*
G03*
X17055000Y-10079000I-35000J0D01*
G01*
X17055000Y-10841000D02*
G75*
G03*
X17055000Y-10841000I-35000J0D01*
G01*
X17102000Y-9791000D02*
G75*
G03*
X17102000Y-9791000I-35000J0D01*
G01*
X17315000Y-10079000D02*
G75*
G03*
X17315000Y-10079000I-35000J0D01*
G01*
X17315000Y-10841000D02*
G75*
G03*
X17315000Y-10841000I-35000J0D01*
G01*
X17496000Y-11110000D02*
G75*
G03*
X17496000Y-11110000I-35000J0D01*
G01*
X17575000Y-10079000D02*
G75*
G03*
X17575000Y-10079000I-35000J0D01*
G01*
X17575000Y-10841000D02*
G75*
G03*
X17575000Y-10841000I-35000J0D01*
G01*
D13*
X14435000Y-8830000D02*
X14435000Y-8910000D01*
X14395000Y-8870000D02*
X14475000Y-8870000D01*
X14435000Y-9930000D02*
X14435000Y-10010000D01*
X14395000Y-9970000D02*
X14475000Y-9970000D01*
X14685000Y-8830000D02*
X14685000Y-8910000D01*
X14645000Y-8870000D02*
X14725000Y-8870000D01*
X14685000Y-9930000D02*
X14685000Y-10010000D01*
X14645000Y-9970000D02*
X14725000Y-9970000D01*
X15108000Y-9520000D02*
X15108000Y-9600000D01*
X15068000Y-9560000D02*
X15148000Y-9560000D01*
X15108000Y-10282000D02*
X15108000Y-10362000D01*
X15068000Y-10322000D02*
X15148000Y-10322000D01*
X15362000Y-9520000D02*
X15362000Y-9600000D01*
X15322000Y-9560000D02*
X15402000Y-9560000D01*
X15362000Y-10282000D02*
X15362000Y-10362000D01*
X15322000Y-10322000D02*
X15402000Y-10322000D01*
X15440000Y-10610000D02*
X15440000Y-10690000D01*
X15400000Y-10650000D02*
X15480000Y-10650000D01*
X15616000Y-9520000D02*
X15616000Y-9600000D01*
X15576000Y-9560000D02*
X15656000Y-9560000D01*
X15616000Y-10282000D02*
X15616000Y-10362000D01*
X15576000Y-10322000D02*
X15656000Y-10322000D01*
X15870000Y-9520000D02*
X15870000Y-9600000D01*
X15830000Y-9560000D02*
X15910000Y-9560000D01*
X15870000Y-10282000D02*
X15870000Y-10362000D01*
X15830000Y-10322000D02*
X15910000Y-10322000D01*
X15890000Y-10925000D02*
X15890000Y-11005000D01*
X15850000Y-10965000D02*
X15930000Y-10965000D01*
X15890000Y-11175000D02*
X15890000Y-11255000D01*
X15850000Y-11215000D02*
X15930000Y-11215000D01*
X15940000Y-10610000D02*
X15940000Y-10690000D01*
X15900000Y-10650000D02*
X15980000Y-10650000D01*
X16315000Y-9451000D02*
X16315000Y-9531000D01*
X16275000Y-9491000D02*
X16355000Y-9491000D01*
X16360000Y-10049000D02*
X16360000Y-10129000D01*
X16320000Y-10089000D02*
X16400000Y-10089000D01*
X16360000Y-10549000D02*
X16360000Y-10629000D01*
X16320000Y-10589000D02*
X16400000Y-10589000D01*
X16720000Y-10049000D02*
X16720000Y-10129000D01*
X16680000Y-10089000D02*
X16760000Y-10089000D01*
X16720000Y-10549000D02*
X16720000Y-10629000D01*
X16680000Y-10589000D02*
X16760000Y-10589000D01*
X16815000Y-9451000D02*
X16815000Y-9531000D01*
X16775000Y-9491000D02*
X16855000Y-9491000D01*
D14*
X13042820Y-8271820D02*
X13042820Y-8208180D01*
X12979180Y-8208180D01*
X12979180Y-8271820D01*
X13042820Y-8271820D01*
X13296820Y-8271820D02*
X13296820Y-8208180D01*
X13233180Y-8208180D01*
X13233180Y-8271820D01*
X13296820Y-8271820D01*
X14521820Y-10370820D02*
X14521820Y-10307180D01*
X14458180Y-10307180D01*
X14458180Y-10370820D01*
X14521820Y-10370820D01*
X14521820Y-11132820D02*
X14521820Y-11069180D01*
X14458180Y-11069180D01*
X14458180Y-11132820D01*
X14521820Y-11132820D01*
D15*
X12566500Y-10629000D02*
X12616500Y-10579000D01*
X12566500Y-10529000D01*
X12516500Y-10579000D01*
X12566500Y-10629000D01*
X12566500Y-10883000D02*
X12616500Y-10833000D01*
X12566500Y-10783000D01*
X12516500Y-10833000D01*
X12566500Y-10883000D01*
X12570000Y-9309000D02*
X12620000Y-9259000D01*
X12570000Y-9209000D01*
X12520000Y-9259000D01*
X12570000Y-9309000D01*
X12570000Y-9563000D02*
X12620000Y-9513000D01*
X12570000Y-9463000D01*
X12520000Y-9513000D01*
X12570000Y-9563000D01*
X15191001Y-8935999D02*
X15241001Y-8885999D01*
X15191001Y-8835999D01*
X15141001Y-8885999D01*
X15191001Y-8935999D01*
X15191001Y-9189999D02*
X15241001Y-9139999D01*
X15191001Y-9089999D01*
X15141001Y-9139999D01*
X15191001Y-9189999D01*
X15445001Y-8935999D02*
X15495001Y-8885999D01*
X15445001Y-8835999D01*
X15395001Y-8885999D01*
X15445001Y-8935999D01*
X15445001Y-9189999D02*
X15495001Y-9139999D01*
X15445001Y-9089999D01*
X15395001Y-9139999D01*
X15445001Y-9189999D01*
X15699001Y-8935999D02*
X15749001Y-8885999D01*
X15699001Y-8835999D01*
X15649001Y-8885999D01*
X15699001Y-8935999D01*
X15699001Y-9189999D02*
X15749001Y-9139999D01*
X15699001Y-9089999D01*
X15649001Y-9139999D01*
X15699001Y-9189999D01*
X16286000Y-8939000D02*
X16336000Y-8889000D01*
X16286000Y-8839000D01*
X16236000Y-8889000D01*
X16286000Y-8939000D01*
X16540000Y-8939000D02*
X16590000Y-8889000D01*
X16540000Y-8839000D01*
X16490000Y-8889000D01*
X16540000Y-8939000D01*
X16794000Y-8939000D02*
X16844000Y-8889000D01*
X16794000Y-8839000D01*
X16744000Y-8889000D01*
X16794000Y-8939000D01*
X17240000Y-8936000D02*
X17290000Y-8886000D01*
X17240000Y-8836000D01*
X17190000Y-8886000D01*
X17240000Y-8936000D01*
X17240000Y-9190000D02*
X17290000Y-9140000D01*
X17240000Y-9090000D01*
X17190000Y-9140000D01*
X17240000Y-9190000D01*
X17240000Y-9444000D02*
X17290000Y-9394000D01*
X17240000Y-9344000D01*
X17190000Y-9394000D01*
X17240000Y-9444000D01*
X17640000Y-8936000D02*
X17690000Y-8886000D01*
X17640000Y-8836000D01*
X17590000Y-8886000D01*
X17640000Y-8936000D01*
X17640000Y-9190000D02*
X17690000Y-9140000D01*
X17640000Y-9090000D01*
X17590000Y-9140000D01*
X17640000Y-9190000D01*
X17640000Y-9444000D02*
X17690000Y-9394000D01*
X17640000Y-9344000D01*
X17590000Y-9394000D01*
X17640000Y-9444000D01*
D16*
X11860000Y-7960000D02*
X11970000Y-8070000D01*
X11970000Y-7960000D02*
X11860000Y-8070000D01*
X11970000Y-8015000D02*
G75*
G03*
X11970000Y-8015000I-55000J0D01*
G01*
X11860000Y-8410000D02*
X11970000Y-8520000D01*
X11970000Y-8410000D02*
X11860000Y-8520000D01*
X11970000Y-8465000D02*
G75*
G03*
X11970000Y-8465000I-55000J0D01*
G01*
X12510000Y-7960000D02*
X12620000Y-8070000D01*
X12620000Y-7960000D02*
X12510000Y-8070000D01*
X12620000Y-8015000D02*
G75*
G03*
X12620000Y-8015000I-55000J0D01*
G01*
X12510000Y-8410000D02*
X12620000Y-8520000D01*
X12620000Y-8410000D02*
X12510000Y-8520000D01*
X12620000Y-8465000D02*
G75*
G03*
X12620000Y-8465000I-55000J0D01*
G01*
X13635000Y-7960000D02*
X13745000Y-8070000D01*
X13745000Y-7960000D02*
X13635000Y-8070000D01*
X13745000Y-8015000D02*
G75*
G03*
X13745000Y-8015000I-55000J0D01*
G01*
X13635000Y-8410000D02*
X13745000Y-8520000D01*
X13745000Y-8410000D02*
X13635000Y-8520000D01*
X13745000Y-8465000D02*
G75*
G03*
X13745000Y-8465000I-55000J0D01*
G01*
X14285000Y-7960000D02*
X14395000Y-8070000D01*
X14395000Y-7960000D02*
X14285000Y-8070000D01*
X14395000Y-8015000D02*
G75*
G03*
X14395000Y-8015000I-55000J0D01*
G01*
X14285000Y-8410000D02*
X14395000Y-8520000D01*
X14395000Y-8410000D02*
X14285000Y-8520000D01*
X14395000Y-8465000D02*
G75*
G03*
X14395000Y-8465000I-55000J0D01*
G01*
D17*
X12811751Y-9146249D02*
X12941751Y-9276249D01*
X12941751Y-9146249D02*
X12811751Y-9276249D01*
X12876751Y-9146249D02*
X12876751Y-9276249D01*
X12811751Y-9211249D02*
X12941751Y-9211249D01*
X12811751Y-9496249D02*
X12941751Y-9626249D01*
X12941751Y-9496249D02*
X12811751Y-9626249D01*
X12876751Y-9496249D02*
X12876751Y-9626249D01*
X12811751Y-9561249D02*
X12941751Y-9561249D01*
X12811751Y-10461249D02*
X12941751Y-10591249D01*
X12941751Y-10461249D02*
X12811751Y-10591249D01*
X12876751Y-10461249D02*
X12876751Y-10591249D01*
X12811751Y-10526249D02*
X12941751Y-10526249D01*
X12811751Y-10811249D02*
X12941751Y-10941249D01*
X12941751Y-10811249D02*
X12811751Y-10941249D01*
X12876751Y-10811249D02*
X12876751Y-10941249D01*
X12811751Y-10876249D02*
X12941751Y-10876249D01*
X13415000Y-9080000D02*
X13545000Y-9210000D01*
X13545000Y-9080000D02*
X13415000Y-9210000D01*
X13480000Y-9080000D02*
X13480000Y-9210000D01*
X13415000Y-9145000D02*
X13545000Y-9145000D01*
X13415000Y-10770000D02*
X13545000Y-10900000D01*
X13545000Y-10770000D02*
X13415000Y-10900000D01*
X13480000Y-10770000D02*
X13480000Y-10900000D01*
X13415000Y-10835000D02*
X13545000Y-10835000D01*
X13915000Y-9080000D02*
X14045000Y-9210000D01*
X14045000Y-9080000D02*
X13915000Y-9210000D01*
X13980000Y-9080000D02*
X13980000Y-9210000D01*
X13915000Y-9145000D02*
X14045000Y-9145000D01*
X13915000Y-10770000D02*
X14045000Y-10900000D01*
X14045000Y-10770000D02*
X13915000Y-10900000D01*
X13980000Y-10770000D02*
X13980000Y-10900000D01*
X13915000Y-10835000D02*
X14045000Y-10835000D01*
D10*
X11120777Y-13731484D02*
X11120777Y-13531484D01*
X11120777Y-13531484D02*
X11168396Y-13531484D01*
X11168396Y-13531484D02*
X11196967Y-13541008D01*
X11196967Y-13541008D02*
X11216015Y-13560055D01*
X11216015Y-13560055D02*
X11225539Y-13579103D01*
X11225539Y-13579103D02*
X11235062Y-13617198D01*
X11235062Y-13617198D02*
X11235062Y-13645769D01*
X11235062Y-13645769D02*
X11225539Y-13683865D01*
X11225539Y-13683865D02*
X11216015Y-13702912D01*
X11216015Y-13702912D02*
X11196967Y-13721960D01*
X11196967Y-13721960D02*
X11168396Y-13731484D01*
X11168396Y-13731484D02*
X11120777Y-13731484D01*
X11320777Y-13731484D02*
X11320777Y-13598150D01*
X11320777Y-13636246D02*
X11330301Y-13617198D01*
X11330301Y-13617198D02*
X11339824Y-13607674D01*
X11339824Y-13607674D02*
X11358872Y-13598150D01*
X11358872Y-13598150D02*
X11377920Y-13598150D01*
X11444586Y-13731484D02*
X11444586Y-13598150D01*
X11444586Y-13531484D02*
X11435062Y-13541008D01*
X11435062Y-13541008D02*
X11444586Y-13550531D01*
X11444586Y-13550531D02*
X11454110Y-13541008D01*
X11454110Y-13541008D02*
X11444586Y-13531484D01*
X11444586Y-13531484D02*
X11444586Y-13550531D01*
X11568396Y-13731484D02*
X11549348Y-13721960D01*
X11549348Y-13721960D02*
X11539824Y-13702912D01*
X11539824Y-13702912D02*
X11539824Y-13531484D01*
X11673158Y-13731484D02*
X11654110Y-13721960D01*
X11654110Y-13721960D02*
X11644586Y-13702912D01*
X11644586Y-13702912D02*
X11644586Y-13531484D01*
X11901729Y-13731484D02*
X11901729Y-13531484D01*
X11901729Y-13531484D02*
X11968396Y-13674341D01*
X11968396Y-13674341D02*
X12035062Y-13531484D01*
X12035062Y-13531484D02*
X12035062Y-13731484D01*
X12216015Y-13731484D02*
X12216015Y-13626722D01*
X12216015Y-13626722D02*
X12206491Y-13607674D01*
X12206491Y-13607674D02*
X12187443Y-13598150D01*
X12187443Y-13598150D02*
X12149348Y-13598150D01*
X12149348Y-13598150D02*
X12130301Y-13607674D01*
X12216015Y-13721960D02*
X12196967Y-13731484D01*
X12196967Y-13731484D02*
X12149348Y-13731484D01*
X12149348Y-13731484D02*
X12130301Y-13721960D01*
X12130301Y-13721960D02*
X12120777Y-13702912D01*
X12120777Y-13702912D02*
X12120777Y-13683865D01*
X12120777Y-13683865D02*
X12130301Y-13664817D01*
X12130301Y-13664817D02*
X12149348Y-13655293D01*
X12149348Y-13655293D02*
X12196967Y-13655293D01*
X12196967Y-13655293D02*
X12216015Y-13645769D01*
X12311253Y-13598150D02*
X12311253Y-13798150D01*
X12311253Y-13607674D02*
X12330301Y-13598150D01*
X12330301Y-13598150D02*
X12368396Y-13598150D01*
X12368396Y-13598150D02*
X12387443Y-13607674D01*
X12387443Y-13607674D02*
X12396967Y-13617198D01*
X12396967Y-13617198D02*
X12406491Y-13636246D01*
X12406491Y-13636246D02*
X12406491Y-13693388D01*
X12406491Y-13693388D02*
X12396967Y-13712436D01*
X12396967Y-13712436D02*
X12387443Y-13721960D01*
X12387443Y-13721960D02*
X12368396Y-13731484D01*
X12368396Y-13731484D02*
X12330301Y-13731484D01*
X12330301Y-13731484D02*
X12311253Y-13721960D01*
X12492205Y-13712436D02*
X12501729Y-13721960D01*
X12501729Y-13721960D02*
X12492205Y-13731484D01*
X12492205Y-13731484D02*
X12482682Y-13721960D01*
X12482682Y-13721960D02*
X12492205Y-13712436D01*
X12492205Y-13712436D02*
X12492205Y-13731484D01*
X12492205Y-13607674D02*
X12501729Y-13617198D01*
X12501729Y-13617198D02*
X12492205Y-13626722D01*
X12492205Y-13626722D02*
X12482682Y-13617198D01*
X12482682Y-13617198D02*
X12492205Y-13607674D01*
X12492205Y-13607674D02*
X12492205Y-13626722D01*
D11*
X10820000Y-14040000D02*
X10860000Y-14080000D01*
X10860000Y-14040000D02*
X10820000Y-14080000D01*
D10*
X11158872Y-13951484D02*
X11177920Y-13951484D01*
X11177920Y-13951484D02*
X11196967Y-13961008D01*
X11196967Y-13961008D02*
X11206491Y-13970531D01*
X11206491Y-13970531D02*
X11216015Y-13989579D01*
X11216015Y-13989579D02*
X11225539Y-14027674D01*
X11225539Y-14027674D02*
X11225539Y-14075293D01*
X11225539Y-14075293D02*
X11216015Y-14113388D01*
X11216015Y-14113388D02*
X11206491Y-14132436D01*
X11206491Y-14132436D02*
X11196967Y-14141960D01*
X11196967Y-14141960D02*
X11177920Y-14151484D01*
X11177920Y-14151484D02*
X11158872Y-14151484D01*
X11158872Y-14151484D02*
X11139824Y-14141960D01*
X11139824Y-14141960D02*
X11130301Y-14132436D01*
X11130301Y-14132436D02*
X11120777Y-14113388D01*
X11120777Y-14113388D02*
X11111253Y-14075293D01*
X11111253Y-14075293D02*
X11111253Y-14027674D01*
X11111253Y-14027674D02*
X11120777Y-13989579D01*
X11120777Y-13989579D02*
X11130301Y-13970531D01*
X11130301Y-13970531D02*
X11139824Y-13961008D01*
X11139824Y-13961008D02*
X11158872Y-13951484D01*
X11311253Y-14132436D02*
X11320777Y-14141960D01*
X11320777Y-14141960D02*
X11311253Y-14151484D01*
X11311253Y-14151484D02*
X11301729Y-14141960D01*
X11301729Y-14141960D02*
X11311253Y-14132436D01*
X11311253Y-14132436D02*
X11311253Y-14151484D01*
X11492205Y-14018150D02*
X11492205Y-14151484D01*
X11444586Y-13941960D02*
X11396967Y-14084817D01*
X11396967Y-14084817D02*
X11520777Y-14084817D01*
X11635062Y-13951484D02*
X11654110Y-13951484D01*
X11654110Y-13951484D02*
X11673158Y-13961008D01*
X11673158Y-13961008D02*
X11682682Y-13970531D01*
X11682682Y-13970531D02*
X11692205Y-13989579D01*
X11692205Y-13989579D02*
X11701729Y-14027674D01*
X11701729Y-14027674D02*
X11701729Y-14075293D01*
X11701729Y-14075293D02*
X11692205Y-14113388D01*
X11692205Y-14113388D02*
X11682682Y-14132436D01*
X11682682Y-14132436D02*
X11673158Y-14141960D01*
X11673158Y-14141960D02*
X11654110Y-14151484D01*
X11654110Y-14151484D02*
X11635062Y-14151484D01*
X11635062Y-14151484D02*
X11616015Y-14141960D01*
X11616015Y-14141960D02*
X11606491Y-14132436D01*
X11606491Y-14132436D02*
X11596967Y-14113388D01*
X11596967Y-14113388D02*
X11587443Y-14075293D01*
X11587443Y-14075293D02*
X11587443Y-14027674D01*
X11587443Y-14027674D02*
X11596967Y-13989579D01*
X11596967Y-13989579D02*
X11606491Y-13970531D01*
X11606491Y-13970531D02*
X11616015Y-13961008D01*
X11616015Y-13961008D02*
X11635062Y-13951484D01*
X11825539Y-13951484D02*
X11844586Y-13951484D01*
X11844586Y-13951484D02*
X11863634Y-13961008D01*
X11863634Y-13961008D02*
X11873158Y-13970531D01*
X11873158Y-13970531D02*
X11882682Y-13989579D01*
X11882682Y-13989579D02*
X11892205Y-14027674D01*
X11892205Y-14027674D02*
X11892205Y-14075293D01*
X11892205Y-14075293D02*
X11882682Y-14113388D01*
X11882682Y-14113388D02*
X11873158Y-14132436D01*
X11873158Y-14132436D02*
X11863634Y-14141960D01*
X11863634Y-14141960D02*
X11844586Y-14151484D01*
X11844586Y-14151484D02*
X11825539Y-14151484D01*
X11825539Y-14151484D02*
X11806491Y-14141960D01*
X11806491Y-14141960D02*
X11796967Y-14132436D01*
X11796967Y-14132436D02*
X11787443Y-14113388D01*
X11787443Y-14113388D02*
X11777920Y-14075293D01*
X11777920Y-14075293D02*
X11777920Y-14027674D01*
X11777920Y-14027674D02*
X11787443Y-13989579D01*
X11787443Y-13989579D02*
X11796967Y-13970531D01*
X11796967Y-13970531D02*
X11806491Y-13961008D01*
X11806491Y-13961008D02*
X11825539Y-13951484D01*
X11977920Y-14151484D02*
X11977920Y-14018150D01*
X11977920Y-14037198D02*
X11987443Y-14027674D01*
X11987443Y-14027674D02*
X12006491Y-14018150D01*
X12006491Y-14018150D02*
X12035063Y-14018150D01*
X12035063Y-14018150D02*
X12054110Y-14027674D01*
X12054110Y-14027674D02*
X12063634Y-14046722D01*
X12063634Y-14046722D02*
X12063634Y-14151484D01*
X12063634Y-14046722D02*
X12073158Y-14027674D01*
X12073158Y-14027674D02*
X12092205Y-14018150D01*
X12092205Y-14018150D02*
X12120777Y-14018150D01*
X12120777Y-14018150D02*
X12139824Y-14027674D01*
X12139824Y-14027674D02*
X12149348Y-14046722D01*
X12149348Y-14046722D02*
X12149348Y-14151484D01*
X12244586Y-14151484D02*
X12244586Y-14018150D01*
X12244586Y-14037198D02*
X12254110Y-14027674D01*
X12254110Y-14027674D02*
X12273158Y-14018150D01*
X12273158Y-14018150D02*
X12301729Y-14018150D01*
X12301729Y-14018150D02*
X12320777Y-14027674D01*
X12320777Y-14027674D02*
X12330301Y-14046722D01*
X12330301Y-14046722D02*
X12330301Y-14151484D01*
X12330301Y-14046722D02*
X12339824Y-14027674D01*
X12339824Y-14027674D02*
X12358872Y-14018150D01*
X12358872Y-14018150D02*
X12387443Y-14018150D01*
X12387443Y-14018150D02*
X12406491Y-14027674D01*
X12406491Y-14027674D02*
X12416015Y-14046722D01*
X12416015Y-14046722D02*
X12416015Y-14151484D01*
X12806491Y-13941960D02*
X12635063Y-14199103D01*
X13063634Y-13951484D02*
X13082682Y-13951484D01*
X13082682Y-13951484D02*
X13101729Y-13961008D01*
X13101729Y-13961008D02*
X13111253Y-13970531D01*
X13111253Y-13970531D02*
X13120777Y-13989579D01*
X13120777Y-13989579D02*
X13130301Y-14027674D01*
X13130301Y-14027674D02*
X13130301Y-14075293D01*
X13130301Y-14075293D02*
X13120777Y-14113388D01*
X13120777Y-14113388D02*
X13111253Y-14132436D01*
X13111253Y-14132436D02*
X13101729Y-14141960D01*
X13101729Y-14141960D02*
X13082682Y-14151484D01*
X13082682Y-14151484D02*
X13063634Y-14151484D01*
X13063634Y-14151484D02*
X13044586Y-14141960D01*
X13044586Y-14141960D02*
X13035063Y-14132436D01*
X13035063Y-14132436D02*
X13025539Y-14113388D01*
X13025539Y-14113388D02*
X13016015Y-14075293D01*
X13016015Y-14075293D02*
X13016015Y-14027674D01*
X13016015Y-14027674D02*
X13025539Y-13989579D01*
X13025539Y-13989579D02*
X13035063Y-13970531D01*
X13035063Y-13970531D02*
X13044586Y-13961008D01*
X13044586Y-13961008D02*
X13063634Y-13951484D01*
X13216015Y-14132436D02*
X13225539Y-14141960D01*
X13225539Y-14141960D02*
X13216015Y-14151484D01*
X13216015Y-14151484D02*
X13206491Y-14141960D01*
X13206491Y-14141960D02*
X13216015Y-14132436D01*
X13216015Y-14132436D02*
X13216015Y-14151484D01*
X13349348Y-13951484D02*
X13368396Y-13951484D01*
X13368396Y-13951484D02*
X13387444Y-13961008D01*
X13387444Y-13961008D02*
X13396967Y-13970531D01*
X13396967Y-13970531D02*
X13406491Y-13989579D01*
X13406491Y-13989579D02*
X13416015Y-14027674D01*
X13416015Y-14027674D02*
X13416015Y-14075293D01*
X13416015Y-14075293D02*
X13406491Y-14113388D01*
X13406491Y-14113388D02*
X13396967Y-14132436D01*
X13396967Y-14132436D02*
X13387444Y-14141960D01*
X13387444Y-14141960D02*
X13368396Y-14151484D01*
X13368396Y-14151484D02*
X13349348Y-14151484D01*
X13349348Y-14151484D02*
X13330301Y-14141960D01*
X13330301Y-14141960D02*
X13320777Y-14132436D01*
X13320777Y-14132436D02*
X13311253Y-14113388D01*
X13311253Y-14113388D02*
X13301729Y-14075293D01*
X13301729Y-14075293D02*
X13301729Y-14027674D01*
X13301729Y-14027674D02*
X13311253Y-13989579D01*
X13311253Y-13989579D02*
X13320777Y-13970531D01*
X13320777Y-13970531D02*
X13330301Y-13961008D01*
X13330301Y-13961008D02*
X13349348Y-13951484D01*
X13606491Y-14151484D02*
X13492206Y-14151484D01*
X13549348Y-14151484D02*
X13549348Y-13951484D01*
X13549348Y-13951484D02*
X13530301Y-13980055D01*
X13530301Y-13980055D02*
X13511253Y-13999103D01*
X13511253Y-13999103D02*
X13492206Y-14008627D01*
X13787444Y-13951484D02*
X13692206Y-13951484D01*
X13692206Y-13951484D02*
X13682682Y-14046722D01*
X13682682Y-14046722D02*
X13692206Y-14037198D01*
X13692206Y-14037198D02*
X13711253Y-14027674D01*
X13711253Y-14027674D02*
X13758872Y-14027674D01*
X13758872Y-14027674D02*
X13777920Y-14037198D01*
X13777920Y-14037198D02*
X13787444Y-14046722D01*
X13787444Y-14046722D02*
X13796967Y-14065769D01*
X13796967Y-14065769D02*
X13796967Y-14113388D01*
X13796967Y-14113388D02*
X13787444Y-14132436D01*
X13787444Y-14132436D02*
X13777920Y-14141960D01*
X13777920Y-14141960D02*
X13758872Y-14151484D01*
X13758872Y-14151484D02*
X13711253Y-14151484D01*
X13711253Y-14151484D02*
X13692206Y-14141960D01*
X13692206Y-14141960D02*
X13682682Y-14132436D01*
X13863634Y-13951484D02*
X13996967Y-13951484D01*
X13996967Y-13951484D02*
X13911253Y-14151484D01*
X14063634Y-13951484D02*
X14063634Y-13989579D01*
X14139825Y-13951484D02*
X14139825Y-13989579D01*
X14435063Y-14227674D02*
X14425539Y-14218150D01*
X14425539Y-14218150D02*
X14406491Y-14189579D01*
X14406491Y-14189579D02*
X14396968Y-14170531D01*
X14396968Y-14170531D02*
X14387444Y-14141960D01*
X14387444Y-14141960D02*
X14377920Y-14094341D01*
X14377920Y-14094341D02*
X14377920Y-14056246D01*
X14377920Y-14056246D02*
X14387444Y-14008627D01*
X14387444Y-14008627D02*
X14396968Y-13980055D01*
X14396968Y-13980055D02*
X14406491Y-13961008D01*
X14406491Y-13961008D02*
X14425539Y-13932436D01*
X14425539Y-13932436D02*
X14435063Y-13922912D01*
X14501729Y-13970531D02*
X14511253Y-13961008D01*
X14511253Y-13961008D02*
X14530301Y-13951484D01*
X14530301Y-13951484D02*
X14577920Y-13951484D01*
X14577920Y-13951484D02*
X14596968Y-13961008D01*
X14596968Y-13961008D02*
X14606491Y-13970531D01*
X14606491Y-13970531D02*
X14616015Y-13989579D01*
X14616015Y-13989579D02*
X14616015Y-14008627D01*
X14616015Y-14008627D02*
X14606491Y-14037198D01*
X14606491Y-14037198D02*
X14492206Y-14151484D01*
X14492206Y-14151484D02*
X14616015Y-14151484D01*
X14854110Y-14151484D02*
X14854110Y-13951484D01*
X14939825Y-14151484D02*
X14939825Y-14046722D01*
X14939825Y-14046722D02*
X14930301Y-14027674D01*
X14930301Y-14027674D02*
X14911253Y-14018150D01*
X14911253Y-14018150D02*
X14882682Y-14018150D01*
X14882682Y-14018150D02*
X14863634Y-14027674D01*
X14863634Y-14027674D02*
X14854110Y-14037198D01*
X15063634Y-14151484D02*
X15044587Y-14141960D01*
X15044587Y-14141960D02*
X15035063Y-14132436D01*
X15035063Y-14132436D02*
X15025539Y-14113388D01*
X15025539Y-14113388D02*
X15025539Y-14056246D01*
X15025539Y-14056246D02*
X15035063Y-14037198D01*
X15035063Y-14037198D02*
X15044587Y-14027674D01*
X15044587Y-14027674D02*
X15063634Y-14018150D01*
X15063634Y-14018150D02*
X15092206Y-14018150D01*
X15092206Y-14018150D02*
X15111253Y-14027674D01*
X15111253Y-14027674D02*
X15120777Y-14037198D01*
X15120777Y-14037198D02*
X15130301Y-14056246D01*
X15130301Y-14056246D02*
X15130301Y-14113388D01*
X15130301Y-14113388D02*
X15120777Y-14132436D01*
X15120777Y-14132436D02*
X15111253Y-14141960D01*
X15111253Y-14141960D02*
X15092206Y-14151484D01*
X15092206Y-14151484D02*
X15063634Y-14151484D01*
X15244587Y-14151484D02*
X15225539Y-14141960D01*
X15225539Y-14141960D02*
X15216015Y-14122912D01*
X15216015Y-14122912D02*
X15216015Y-13951484D01*
X15396968Y-14141960D02*
X15377920Y-14151484D01*
X15377920Y-14151484D02*
X15339825Y-14151484D01*
X15339825Y-14151484D02*
X15320777Y-14141960D01*
X15320777Y-14141960D02*
X15311253Y-14122912D01*
X15311253Y-14122912D02*
X15311253Y-14046722D01*
X15311253Y-14046722D02*
X15320777Y-14027674D01*
X15320777Y-14027674D02*
X15339825Y-14018150D01*
X15339825Y-14018150D02*
X15377920Y-14018150D01*
X15377920Y-14018150D02*
X15396968Y-14027674D01*
X15396968Y-14027674D02*
X15406491Y-14046722D01*
X15406491Y-14046722D02*
X15406491Y-14065769D01*
X15406491Y-14065769D02*
X15311253Y-14084817D01*
X15482682Y-14141960D02*
X15501730Y-14151484D01*
X15501730Y-14151484D02*
X15539825Y-14151484D01*
X15539825Y-14151484D02*
X15558872Y-14141960D01*
X15558872Y-14141960D02*
X15568396Y-14122912D01*
X15568396Y-14122912D02*
X15568396Y-14113388D01*
X15568396Y-14113388D02*
X15558872Y-14094341D01*
X15558872Y-14094341D02*
X15539825Y-14084817D01*
X15539825Y-14084817D02*
X15511253Y-14084817D01*
X15511253Y-14084817D02*
X15492206Y-14075293D01*
X15492206Y-14075293D02*
X15482682Y-14056246D01*
X15482682Y-14056246D02*
X15482682Y-14046722D01*
X15482682Y-14046722D02*
X15492206Y-14027674D01*
X15492206Y-14027674D02*
X15511253Y-14018150D01*
X15511253Y-14018150D02*
X15539825Y-14018150D01*
X15539825Y-14018150D02*
X15558872Y-14027674D01*
X15635063Y-14227674D02*
X15644587Y-14218150D01*
X15644587Y-14218150D02*
X15663634Y-14189579D01*
X15663634Y-14189579D02*
X15673158Y-14170531D01*
X15673158Y-14170531D02*
X15682682Y-14141960D01*
X15682682Y-14141960D02*
X15692206Y-14094341D01*
X15692206Y-14094341D02*
X15692206Y-14056246D01*
X15692206Y-14056246D02*
X15682682Y-14008627D01*
X15682682Y-14008627D02*
X15673158Y-13980055D01*
X15673158Y-13980055D02*
X15663634Y-13961008D01*
X15663634Y-13961008D02*
X15644587Y-13932436D01*
X15644587Y-13932436D02*
X15635063Y-13922912D01*
D12*
X10860000Y-14324000D02*
G75*
G03*
X10860000Y-14324000I-35000J0D01*
G01*
D10*
X11158872Y-14215484D02*
X11177920Y-14215484D01*
X11177920Y-14215484D02*
X11196967Y-14225008D01*
X11196967Y-14225008D02*
X11206491Y-14234531D01*
X11206491Y-14234531D02*
X11216015Y-14253579D01*
X11216015Y-14253579D02*
X11225539Y-14291674D01*
X11225539Y-14291674D02*
X11225539Y-14339293D01*
X11225539Y-14339293D02*
X11216015Y-14377388D01*
X11216015Y-14377388D02*
X11206491Y-14396436D01*
X11206491Y-14396436D02*
X11196967Y-14405960D01*
X11196967Y-14405960D02*
X11177920Y-14415484D01*
X11177920Y-14415484D02*
X11158872Y-14415484D01*
X11158872Y-14415484D02*
X11139824Y-14405960D01*
X11139824Y-14405960D02*
X11130301Y-14396436D01*
X11130301Y-14396436D02*
X11120777Y-14377388D01*
X11120777Y-14377388D02*
X11111253Y-14339293D01*
X11111253Y-14339293D02*
X11111253Y-14291674D01*
X11111253Y-14291674D02*
X11120777Y-14253579D01*
X11120777Y-14253579D02*
X11130301Y-14234531D01*
X11130301Y-14234531D02*
X11139824Y-14225008D01*
X11139824Y-14225008D02*
X11158872Y-14215484D01*
X11311253Y-14396436D02*
X11320777Y-14405960D01*
X11320777Y-14405960D02*
X11311253Y-14415484D01*
X11311253Y-14415484D02*
X11301729Y-14405960D01*
X11301729Y-14405960D02*
X11311253Y-14396436D01*
X11311253Y-14396436D02*
X11311253Y-14415484D01*
X11387443Y-14215484D02*
X11520777Y-14215484D01*
X11520777Y-14215484D02*
X11435062Y-14415484D01*
X11635062Y-14215484D02*
X11654110Y-14215484D01*
X11654110Y-14215484D02*
X11673158Y-14225008D01*
X11673158Y-14225008D02*
X11682682Y-14234531D01*
X11682682Y-14234531D02*
X11692205Y-14253579D01*
X11692205Y-14253579D02*
X11701729Y-14291674D01*
X11701729Y-14291674D02*
X11701729Y-14339293D01*
X11701729Y-14339293D02*
X11692205Y-14377388D01*
X11692205Y-14377388D02*
X11682682Y-14396436D01*
X11682682Y-14396436D02*
X11673158Y-14405960D01*
X11673158Y-14405960D02*
X11654110Y-14415484D01*
X11654110Y-14415484D02*
X11635062Y-14415484D01*
X11635062Y-14415484D02*
X11616015Y-14405960D01*
X11616015Y-14405960D02*
X11606491Y-14396436D01*
X11606491Y-14396436D02*
X11596967Y-14377388D01*
X11596967Y-14377388D02*
X11587443Y-14339293D01*
X11587443Y-14339293D02*
X11587443Y-14291674D01*
X11587443Y-14291674D02*
X11596967Y-14253579D01*
X11596967Y-14253579D02*
X11606491Y-14234531D01*
X11606491Y-14234531D02*
X11616015Y-14225008D01*
X11616015Y-14225008D02*
X11635062Y-14215484D01*
X11825539Y-14215484D02*
X11844586Y-14215484D01*
X11844586Y-14215484D02*
X11863634Y-14225008D01*
X11863634Y-14225008D02*
X11873158Y-14234531D01*
X11873158Y-14234531D02*
X11882682Y-14253579D01*
X11882682Y-14253579D02*
X11892205Y-14291674D01*
X11892205Y-14291674D02*
X11892205Y-14339293D01*
X11892205Y-14339293D02*
X11882682Y-14377388D01*
X11882682Y-14377388D02*
X11873158Y-14396436D01*
X11873158Y-14396436D02*
X11863634Y-14405960D01*
X11863634Y-14405960D02*
X11844586Y-14415484D01*
X11844586Y-14415484D02*
X11825539Y-14415484D01*
X11825539Y-14415484D02*
X11806491Y-14405960D01*
X11806491Y-14405960D02*
X11796967Y-14396436D01*
X11796967Y-14396436D02*
X11787443Y-14377388D01*
X11787443Y-14377388D02*
X11777920Y-14339293D01*
X11777920Y-14339293D02*
X11777920Y-14291674D01*
X11777920Y-14291674D02*
X11787443Y-14253579D01*
X11787443Y-14253579D02*
X11796967Y-14234531D01*
X11796967Y-14234531D02*
X11806491Y-14225008D01*
X11806491Y-14225008D02*
X11825539Y-14215484D01*
X11977920Y-14415484D02*
X11977920Y-14282150D01*
X11977920Y-14301198D02*
X11987443Y-14291674D01*
X11987443Y-14291674D02*
X12006491Y-14282150D01*
X12006491Y-14282150D02*
X12035063Y-14282150D01*
X12035063Y-14282150D02*
X12054110Y-14291674D01*
X12054110Y-14291674D02*
X12063634Y-14310722D01*
X12063634Y-14310722D02*
X12063634Y-14415484D01*
X12063634Y-14310722D02*
X12073158Y-14291674D01*
X12073158Y-14291674D02*
X12092205Y-14282150D01*
X12092205Y-14282150D02*
X12120777Y-14282150D01*
X12120777Y-14282150D02*
X12139824Y-14291674D01*
X12139824Y-14291674D02*
X12149348Y-14310722D01*
X12149348Y-14310722D02*
X12149348Y-14415484D01*
X12244586Y-14415484D02*
X12244586Y-14282150D01*
X12244586Y-14301198D02*
X12254110Y-14291674D01*
X12254110Y-14291674D02*
X12273158Y-14282150D01*
X12273158Y-14282150D02*
X12301729Y-14282150D01*
X12301729Y-14282150D02*
X12320777Y-14291674D01*
X12320777Y-14291674D02*
X12330301Y-14310722D01*
X12330301Y-14310722D02*
X12330301Y-14415484D01*
X12330301Y-14310722D02*
X12339824Y-14291674D01*
X12339824Y-14291674D02*
X12358872Y-14282150D01*
X12358872Y-14282150D02*
X12387443Y-14282150D01*
X12387443Y-14282150D02*
X12406491Y-14291674D01*
X12406491Y-14291674D02*
X12416015Y-14310722D01*
X12416015Y-14310722D02*
X12416015Y-14415484D01*
X12806491Y-14205960D02*
X12635063Y-14463103D01*
X13063634Y-14215484D02*
X13082682Y-14215484D01*
X13082682Y-14215484D02*
X13101729Y-14225008D01*
X13101729Y-14225008D02*
X13111253Y-14234531D01*
X13111253Y-14234531D02*
X13120777Y-14253579D01*
X13120777Y-14253579D02*
X13130301Y-14291674D01*
X13130301Y-14291674D02*
X13130301Y-14339293D01*
X13130301Y-14339293D02*
X13120777Y-14377388D01*
X13120777Y-14377388D02*
X13111253Y-14396436D01*
X13111253Y-14396436D02*
X13101729Y-14405960D01*
X13101729Y-14405960D02*
X13082682Y-14415484D01*
X13082682Y-14415484D02*
X13063634Y-14415484D01*
X13063634Y-14415484D02*
X13044586Y-14405960D01*
X13044586Y-14405960D02*
X13035063Y-14396436D01*
X13035063Y-14396436D02*
X13025539Y-14377388D01*
X13025539Y-14377388D02*
X13016015Y-14339293D01*
X13016015Y-14339293D02*
X13016015Y-14291674D01*
X13016015Y-14291674D02*
X13025539Y-14253579D01*
X13025539Y-14253579D02*
X13035063Y-14234531D01*
X13035063Y-14234531D02*
X13044586Y-14225008D01*
X13044586Y-14225008D02*
X13063634Y-14215484D01*
X13216015Y-14396436D02*
X13225539Y-14405960D01*
X13225539Y-14405960D02*
X13216015Y-14415484D01*
X13216015Y-14415484D02*
X13206491Y-14405960D01*
X13206491Y-14405960D02*
X13216015Y-14396436D01*
X13216015Y-14396436D02*
X13216015Y-14415484D01*
X13349348Y-14215484D02*
X13368396Y-14215484D01*
X13368396Y-14215484D02*
X13387444Y-14225008D01*
X13387444Y-14225008D02*
X13396967Y-14234531D01*
X13396967Y-14234531D02*
X13406491Y-14253579D01*
X13406491Y-14253579D02*
X13416015Y-14291674D01*
X13416015Y-14291674D02*
X13416015Y-14339293D01*
X13416015Y-14339293D02*
X13406491Y-14377388D01*
X13406491Y-14377388D02*
X13396967Y-14396436D01*
X13396967Y-14396436D02*
X13387444Y-14405960D01*
X13387444Y-14405960D02*
X13368396Y-14415484D01*
X13368396Y-14415484D02*
X13349348Y-14415484D01*
X13349348Y-14415484D02*
X13330301Y-14405960D01*
X13330301Y-14405960D02*
X13320777Y-14396436D01*
X13320777Y-14396436D02*
X13311253Y-14377388D01*
X13311253Y-14377388D02*
X13301729Y-14339293D01*
X13301729Y-14339293D02*
X13301729Y-14291674D01*
X13301729Y-14291674D02*
X13311253Y-14253579D01*
X13311253Y-14253579D02*
X13320777Y-14234531D01*
X13320777Y-14234531D02*
X13330301Y-14225008D01*
X13330301Y-14225008D02*
X13349348Y-14215484D01*
X13492206Y-14234531D02*
X13501729Y-14225008D01*
X13501729Y-14225008D02*
X13520777Y-14215484D01*
X13520777Y-14215484D02*
X13568396Y-14215484D01*
X13568396Y-14215484D02*
X13587444Y-14225008D01*
X13587444Y-14225008D02*
X13596967Y-14234531D01*
X13596967Y-14234531D02*
X13606491Y-14253579D01*
X13606491Y-14253579D02*
X13606491Y-14272627D01*
X13606491Y-14272627D02*
X13596967Y-14301198D01*
X13596967Y-14301198D02*
X13482682Y-14415484D01*
X13482682Y-14415484D02*
X13606491Y-14415484D01*
X13673158Y-14215484D02*
X13806491Y-14215484D01*
X13806491Y-14215484D02*
X13720777Y-14415484D01*
X13968396Y-14215484D02*
X13930301Y-14215484D01*
X13930301Y-14215484D02*
X13911253Y-14225008D01*
X13911253Y-14225008D02*
X13901729Y-14234531D01*
X13901729Y-14234531D02*
X13882682Y-14263103D01*
X13882682Y-14263103D02*
X13873158Y-14301198D01*
X13873158Y-14301198D02*
X13873158Y-14377388D01*
X13873158Y-14377388D02*
X13882682Y-14396436D01*
X13882682Y-14396436D02*
X13892206Y-14405960D01*
X13892206Y-14405960D02*
X13911253Y-14415484D01*
X13911253Y-14415484D02*
X13949348Y-14415484D01*
X13949348Y-14415484D02*
X13968396Y-14405960D01*
X13968396Y-14405960D02*
X13977920Y-14396436D01*
X13977920Y-14396436D02*
X13987444Y-14377388D01*
X13987444Y-14377388D02*
X13987444Y-14329769D01*
X13987444Y-14329769D02*
X13977920Y-14310722D01*
X13977920Y-14310722D02*
X13968396Y-14301198D01*
X13968396Y-14301198D02*
X13949348Y-14291674D01*
X13949348Y-14291674D02*
X13911253Y-14291674D01*
X13911253Y-14291674D02*
X13892206Y-14301198D01*
X13892206Y-14301198D02*
X13882682Y-14310722D01*
X13882682Y-14310722D02*
X13873158Y-14329769D01*
X14063634Y-14215484D02*
X14063634Y-14253579D01*
X14139825Y-14215484D02*
X14139825Y-14253579D01*
X14435063Y-14491674D02*
X14425539Y-14482150D01*
X14425539Y-14482150D02*
X14406491Y-14453579D01*
X14406491Y-14453579D02*
X14396968Y-14434531D01*
X14396968Y-14434531D02*
X14387444Y-14405960D01*
X14387444Y-14405960D02*
X14377920Y-14358341D01*
X14377920Y-14358341D02*
X14377920Y-14320246D01*
X14377920Y-14320246D02*
X14387444Y-14272627D01*
X14387444Y-14272627D02*
X14396968Y-14244055D01*
X14396968Y-14244055D02*
X14406491Y-14225008D01*
X14406491Y-14225008D02*
X14425539Y-14196436D01*
X14425539Y-14196436D02*
X14435063Y-14186912D01*
X14616015Y-14415484D02*
X14501729Y-14415484D01*
X14558872Y-14415484D02*
X14558872Y-14215484D01*
X14558872Y-14215484D02*
X14539825Y-14244055D01*
X14539825Y-14244055D02*
X14520777Y-14263103D01*
X14520777Y-14263103D02*
X14501729Y-14272627D01*
X14787444Y-14282150D02*
X14787444Y-14415484D01*
X14739825Y-14205960D02*
X14692206Y-14348817D01*
X14692206Y-14348817D02*
X14816015Y-14348817D01*
X15044587Y-14415484D02*
X15044587Y-14215484D01*
X15130301Y-14415484D02*
X15130301Y-14310722D01*
X15130301Y-14310722D02*
X15120777Y-14291674D01*
X15120777Y-14291674D02*
X15101730Y-14282150D01*
X15101730Y-14282150D02*
X15073158Y-14282150D01*
X15073158Y-14282150D02*
X15054110Y-14291674D01*
X15054110Y-14291674D02*
X15044587Y-14301198D01*
X15254110Y-14415484D02*
X15235063Y-14405960D01*
X15235063Y-14405960D02*
X15225539Y-14396436D01*
X15225539Y-14396436D02*
X15216015Y-14377388D01*
X15216015Y-14377388D02*
X15216015Y-14320246D01*
X15216015Y-14320246D02*
X15225539Y-14301198D01*
X15225539Y-14301198D02*
X15235063Y-14291674D01*
X15235063Y-14291674D02*
X15254110Y-14282150D01*
X15254110Y-14282150D02*
X15282682Y-14282150D01*
X15282682Y-14282150D02*
X15301730Y-14291674D01*
X15301730Y-14291674D02*
X15311253Y-14301198D01*
X15311253Y-14301198D02*
X15320777Y-14320246D01*
X15320777Y-14320246D02*
X15320777Y-14377388D01*
X15320777Y-14377388D02*
X15311253Y-14396436D01*
X15311253Y-14396436D02*
X15301730Y-14405960D01*
X15301730Y-14405960D02*
X15282682Y-14415484D01*
X15282682Y-14415484D02*
X15254110Y-14415484D01*
X15435063Y-14415484D02*
X15416015Y-14405960D01*
X15416015Y-14405960D02*
X15406491Y-14386912D01*
X15406491Y-14386912D02*
X15406491Y-14215484D01*
X15587444Y-14405960D02*
X15568396Y-14415484D01*
X15568396Y-14415484D02*
X15530301Y-14415484D01*
X15530301Y-14415484D02*
X15511253Y-14405960D01*
X15511253Y-14405960D02*
X15501730Y-14386912D01*
X15501730Y-14386912D02*
X15501730Y-14310722D01*
X15501730Y-14310722D02*
X15511253Y-14291674D01*
X15511253Y-14291674D02*
X15530301Y-14282150D01*
X15530301Y-14282150D02*
X15568396Y-14282150D01*
X15568396Y-14282150D02*
X15587444Y-14291674D01*
X15587444Y-14291674D02*
X15596968Y-14310722D01*
X15596968Y-14310722D02*
X15596968Y-14329769D01*
X15596968Y-14329769D02*
X15501730Y-14348817D01*
X15673158Y-14405960D02*
X15692206Y-14415484D01*
X15692206Y-14415484D02*
X15730301Y-14415484D01*
X15730301Y-14415484D02*
X15749349Y-14405960D01*
X15749349Y-14405960D02*
X15758872Y-14386912D01*
X15758872Y-14386912D02*
X15758872Y-14377388D01*
X15758872Y-14377388D02*
X15749349Y-14358341D01*
X15749349Y-14358341D02*
X15730301Y-14348817D01*
X15730301Y-14348817D02*
X15701730Y-14348817D01*
X15701730Y-14348817D02*
X15682682Y-14339293D01*
X15682682Y-14339293D02*
X15673158Y-14320246D01*
X15673158Y-14320246D02*
X15673158Y-14310722D01*
X15673158Y-14310722D02*
X15682682Y-14291674D01*
X15682682Y-14291674D02*
X15701730Y-14282150D01*
X15701730Y-14282150D02*
X15730301Y-14282150D01*
X15730301Y-14282150D02*
X15749349Y-14291674D01*
X15825539Y-14491674D02*
X15835063Y-14482150D01*
X15835063Y-14482150D02*
X15854111Y-14453579D01*
X15854111Y-14453579D02*
X15863634Y-14434531D01*
X15863634Y-14434531D02*
X15873158Y-14405960D01*
X15873158Y-14405960D02*
X15882682Y-14358341D01*
X15882682Y-14358341D02*
X15882682Y-14320246D01*
X15882682Y-14320246D02*
X15873158Y-14272627D01*
X15873158Y-14272627D02*
X15863634Y-14244055D01*
X15863634Y-14244055D02*
X15854111Y-14225008D01*
X15854111Y-14225008D02*
X15835063Y-14196436D01*
X15835063Y-14196436D02*
X15825539Y-14186912D01*
D13*
X10820000Y-14548000D02*
X10820000Y-14628000D01*
X10780000Y-14588000D02*
X10860000Y-14588000D01*
D10*
X11158872Y-14479484D02*
X11177920Y-14479484D01*
X11177920Y-14479484D02*
X11196967Y-14489008D01*
X11196967Y-14489008D02*
X11206491Y-14498531D01*
X11206491Y-14498531D02*
X11216015Y-14517579D01*
X11216015Y-14517579D02*
X11225539Y-14555674D01*
X11225539Y-14555674D02*
X11225539Y-14603293D01*
X11225539Y-14603293D02*
X11216015Y-14641388D01*
X11216015Y-14641388D02*
X11206491Y-14660436D01*
X11206491Y-14660436D02*
X11196967Y-14669960D01*
X11196967Y-14669960D02*
X11177920Y-14679484D01*
X11177920Y-14679484D02*
X11158872Y-14679484D01*
X11158872Y-14679484D02*
X11139824Y-14669960D01*
X11139824Y-14669960D02*
X11130301Y-14660436D01*
X11130301Y-14660436D02*
X11120777Y-14641388D01*
X11120777Y-14641388D02*
X11111253Y-14603293D01*
X11111253Y-14603293D02*
X11111253Y-14555674D01*
X11111253Y-14555674D02*
X11120777Y-14517579D01*
X11120777Y-14517579D02*
X11130301Y-14498531D01*
X11130301Y-14498531D02*
X11139824Y-14489008D01*
X11139824Y-14489008D02*
X11158872Y-14479484D01*
X11311253Y-14660436D02*
X11320777Y-14669960D01*
X11320777Y-14669960D02*
X11311253Y-14679484D01*
X11311253Y-14679484D02*
X11301729Y-14669960D01*
X11301729Y-14669960D02*
X11311253Y-14660436D01*
X11311253Y-14660436D02*
X11311253Y-14679484D01*
X11435062Y-14565198D02*
X11416015Y-14555674D01*
X11416015Y-14555674D02*
X11406491Y-14546150D01*
X11406491Y-14546150D02*
X11396967Y-14527103D01*
X11396967Y-14527103D02*
X11396967Y-14517579D01*
X11396967Y-14517579D02*
X11406491Y-14498531D01*
X11406491Y-14498531D02*
X11416015Y-14489008D01*
X11416015Y-14489008D02*
X11435062Y-14479484D01*
X11435062Y-14479484D02*
X11473158Y-14479484D01*
X11473158Y-14479484D02*
X11492205Y-14489008D01*
X11492205Y-14489008D02*
X11501729Y-14498531D01*
X11501729Y-14498531D02*
X11511253Y-14517579D01*
X11511253Y-14517579D02*
X11511253Y-14527103D01*
X11511253Y-14527103D02*
X11501729Y-14546150D01*
X11501729Y-14546150D02*
X11492205Y-14555674D01*
X11492205Y-14555674D02*
X11473158Y-14565198D01*
X11473158Y-14565198D02*
X11435062Y-14565198D01*
X11435062Y-14565198D02*
X11416015Y-14574722D01*
X11416015Y-14574722D02*
X11406491Y-14584246D01*
X11406491Y-14584246D02*
X11396967Y-14603293D01*
X11396967Y-14603293D02*
X11396967Y-14641388D01*
X11396967Y-14641388D02*
X11406491Y-14660436D01*
X11406491Y-14660436D02*
X11416015Y-14669960D01*
X11416015Y-14669960D02*
X11435062Y-14679484D01*
X11435062Y-14679484D02*
X11473158Y-14679484D01*
X11473158Y-14679484D02*
X11492205Y-14669960D01*
X11492205Y-14669960D02*
X11501729Y-14660436D01*
X11501729Y-14660436D02*
X11511253Y-14641388D01*
X11511253Y-14641388D02*
X11511253Y-14603293D01*
X11511253Y-14603293D02*
X11501729Y-14584246D01*
X11501729Y-14584246D02*
X11492205Y-14574722D01*
X11492205Y-14574722D02*
X11473158Y-14565198D01*
X11635062Y-14479484D02*
X11654110Y-14479484D01*
X11654110Y-14479484D02*
X11673158Y-14489008D01*
X11673158Y-14489008D02*
X11682682Y-14498531D01*
X11682682Y-14498531D02*
X11692205Y-14517579D01*
X11692205Y-14517579D02*
X11701729Y-14555674D01*
X11701729Y-14555674D02*
X11701729Y-14603293D01*
X11701729Y-14603293D02*
X11692205Y-14641388D01*
X11692205Y-14641388D02*
X11682682Y-14660436D01*
X11682682Y-14660436D02*
X11673158Y-14669960D01*
X11673158Y-14669960D02*
X11654110Y-14679484D01*
X11654110Y-14679484D02*
X11635062Y-14679484D01*
X11635062Y-14679484D02*
X11616015Y-14669960D01*
X11616015Y-14669960D02*
X11606491Y-14660436D01*
X11606491Y-14660436D02*
X11596967Y-14641388D01*
X11596967Y-14641388D02*
X11587443Y-14603293D01*
X11587443Y-14603293D02*
X11587443Y-14555674D01*
X11587443Y-14555674D02*
X11596967Y-14517579D01*
X11596967Y-14517579D02*
X11606491Y-14498531D01*
X11606491Y-14498531D02*
X11616015Y-14489008D01*
X11616015Y-14489008D02*
X11635062Y-14479484D01*
X11825539Y-14479484D02*
X11844586Y-14479484D01*
X11844586Y-14479484D02*
X11863634Y-14489008D01*
X11863634Y-14489008D02*
X11873158Y-14498531D01*
X11873158Y-14498531D02*
X11882682Y-14517579D01*
X11882682Y-14517579D02*
X11892205Y-14555674D01*
X11892205Y-14555674D02*
X11892205Y-14603293D01*
X11892205Y-14603293D02*
X11882682Y-14641388D01*
X11882682Y-14641388D02*
X11873158Y-14660436D01*
X11873158Y-14660436D02*
X11863634Y-14669960D01*
X11863634Y-14669960D02*
X11844586Y-14679484D01*
X11844586Y-14679484D02*
X11825539Y-14679484D01*
X11825539Y-14679484D02*
X11806491Y-14669960D01*
X11806491Y-14669960D02*
X11796967Y-14660436D01*
X11796967Y-14660436D02*
X11787443Y-14641388D01*
X11787443Y-14641388D02*
X11777920Y-14603293D01*
X11777920Y-14603293D02*
X11777920Y-14555674D01*
X11777920Y-14555674D02*
X11787443Y-14517579D01*
X11787443Y-14517579D02*
X11796967Y-14498531D01*
X11796967Y-14498531D02*
X11806491Y-14489008D01*
X11806491Y-14489008D02*
X11825539Y-14479484D01*
X11977920Y-14679484D02*
X11977920Y-14546150D01*
X11977920Y-14565198D02*
X11987443Y-14555674D01*
X11987443Y-14555674D02*
X12006491Y-14546150D01*
X12006491Y-14546150D02*
X12035063Y-14546150D01*
X12035063Y-14546150D02*
X12054110Y-14555674D01*
X12054110Y-14555674D02*
X12063634Y-14574722D01*
X12063634Y-14574722D02*
X12063634Y-14679484D01*
X12063634Y-14574722D02*
X12073158Y-14555674D01*
X12073158Y-14555674D02*
X12092205Y-14546150D01*
X12092205Y-14546150D02*
X12120777Y-14546150D01*
X12120777Y-14546150D02*
X12139824Y-14555674D01*
X12139824Y-14555674D02*
X12149348Y-14574722D01*
X12149348Y-14574722D02*
X12149348Y-14679484D01*
X12244586Y-14679484D02*
X12244586Y-14546150D01*
X12244586Y-14565198D02*
X12254110Y-14555674D01*
X12254110Y-14555674D02*
X12273158Y-14546150D01*
X12273158Y-14546150D02*
X12301729Y-14546150D01*
X12301729Y-14546150D02*
X12320777Y-14555674D01*
X12320777Y-14555674D02*
X12330301Y-14574722D01*
X12330301Y-14574722D02*
X12330301Y-14679484D01*
X12330301Y-14574722D02*
X12339824Y-14555674D01*
X12339824Y-14555674D02*
X12358872Y-14546150D01*
X12358872Y-14546150D02*
X12387443Y-14546150D01*
X12387443Y-14546150D02*
X12406491Y-14555674D01*
X12406491Y-14555674D02*
X12416015Y-14574722D01*
X12416015Y-14574722D02*
X12416015Y-14679484D01*
X12806491Y-14469960D02*
X12635063Y-14727103D01*
X13063634Y-14479484D02*
X13082682Y-14479484D01*
X13082682Y-14479484D02*
X13101729Y-14489008D01*
X13101729Y-14489008D02*
X13111253Y-14498531D01*
X13111253Y-14498531D02*
X13120777Y-14517579D01*
X13120777Y-14517579D02*
X13130301Y-14555674D01*
X13130301Y-14555674D02*
X13130301Y-14603293D01*
X13130301Y-14603293D02*
X13120777Y-14641388D01*
X13120777Y-14641388D02*
X13111253Y-14660436D01*
X13111253Y-14660436D02*
X13101729Y-14669960D01*
X13101729Y-14669960D02*
X13082682Y-14679484D01*
X13082682Y-14679484D02*
X13063634Y-14679484D01*
X13063634Y-14679484D02*
X13044586Y-14669960D01*
X13044586Y-14669960D02*
X13035063Y-14660436D01*
X13035063Y-14660436D02*
X13025539Y-14641388D01*
X13025539Y-14641388D02*
X13016015Y-14603293D01*
X13016015Y-14603293D02*
X13016015Y-14555674D01*
X13016015Y-14555674D02*
X13025539Y-14517579D01*
X13025539Y-14517579D02*
X13035063Y-14498531D01*
X13035063Y-14498531D02*
X13044586Y-14489008D01*
X13044586Y-14489008D02*
X13063634Y-14479484D01*
X13216015Y-14660436D02*
X13225539Y-14669960D01*
X13225539Y-14669960D02*
X13216015Y-14679484D01*
X13216015Y-14679484D02*
X13206491Y-14669960D01*
X13206491Y-14669960D02*
X13216015Y-14660436D01*
X13216015Y-14660436D02*
X13216015Y-14679484D01*
X13349348Y-14479484D02*
X13368396Y-14479484D01*
X13368396Y-14479484D02*
X13387444Y-14489008D01*
X13387444Y-14489008D02*
X13396967Y-14498531D01*
X13396967Y-14498531D02*
X13406491Y-14517579D01*
X13406491Y-14517579D02*
X13416015Y-14555674D01*
X13416015Y-14555674D02*
X13416015Y-14603293D01*
X13416015Y-14603293D02*
X13406491Y-14641388D01*
X13406491Y-14641388D02*
X13396967Y-14660436D01*
X13396967Y-14660436D02*
X13387444Y-14669960D01*
X13387444Y-14669960D02*
X13368396Y-14679484D01*
X13368396Y-14679484D02*
X13349348Y-14679484D01*
X13349348Y-14679484D02*
X13330301Y-14669960D01*
X13330301Y-14669960D02*
X13320777Y-14660436D01*
X13320777Y-14660436D02*
X13311253Y-14641388D01*
X13311253Y-14641388D02*
X13301729Y-14603293D01*
X13301729Y-14603293D02*
X13301729Y-14555674D01*
X13301729Y-14555674D02*
X13311253Y-14517579D01*
X13311253Y-14517579D02*
X13320777Y-14498531D01*
X13320777Y-14498531D02*
X13330301Y-14489008D01*
X13330301Y-14489008D02*
X13349348Y-14479484D01*
X13482682Y-14479484D02*
X13606491Y-14479484D01*
X13606491Y-14479484D02*
X13539825Y-14555674D01*
X13539825Y-14555674D02*
X13568396Y-14555674D01*
X13568396Y-14555674D02*
X13587444Y-14565198D01*
X13587444Y-14565198D02*
X13596967Y-14574722D01*
X13596967Y-14574722D02*
X13606491Y-14593769D01*
X13606491Y-14593769D02*
X13606491Y-14641388D01*
X13606491Y-14641388D02*
X13596967Y-14660436D01*
X13596967Y-14660436D02*
X13587444Y-14669960D01*
X13587444Y-14669960D02*
X13568396Y-14679484D01*
X13568396Y-14679484D02*
X13511253Y-14679484D01*
X13511253Y-14679484D02*
X13492206Y-14669960D01*
X13492206Y-14669960D02*
X13482682Y-14660436D01*
X13796967Y-14679484D02*
X13682682Y-14679484D01*
X13739825Y-14679484D02*
X13739825Y-14479484D01*
X13739825Y-14479484D02*
X13720777Y-14508055D01*
X13720777Y-14508055D02*
X13701729Y-14527103D01*
X13701729Y-14527103D02*
X13682682Y-14536627D01*
X13977920Y-14479484D02*
X13882682Y-14479484D01*
X13882682Y-14479484D02*
X13873158Y-14574722D01*
X13873158Y-14574722D02*
X13882682Y-14565198D01*
X13882682Y-14565198D02*
X13901729Y-14555674D01*
X13901729Y-14555674D02*
X13949348Y-14555674D01*
X13949348Y-14555674D02*
X13968396Y-14565198D01*
X13968396Y-14565198D02*
X13977920Y-14574722D01*
X13977920Y-14574722D02*
X13987444Y-14593769D01*
X13987444Y-14593769D02*
X13987444Y-14641388D01*
X13987444Y-14641388D02*
X13977920Y-14660436D01*
X13977920Y-14660436D02*
X13968396Y-14669960D01*
X13968396Y-14669960D02*
X13949348Y-14679484D01*
X13949348Y-14679484D02*
X13901729Y-14679484D01*
X13901729Y-14679484D02*
X13882682Y-14669960D01*
X13882682Y-14669960D02*
X13873158Y-14660436D01*
X14063634Y-14479484D02*
X14063634Y-14517579D01*
X14139825Y-14479484D02*
X14139825Y-14517579D01*
X14435063Y-14755674D02*
X14425539Y-14746150D01*
X14425539Y-14746150D02*
X14406491Y-14717579D01*
X14406491Y-14717579D02*
X14396968Y-14698531D01*
X14396968Y-14698531D02*
X14387444Y-14669960D01*
X14387444Y-14669960D02*
X14377920Y-14622341D01*
X14377920Y-14622341D02*
X14377920Y-14584246D01*
X14377920Y-14584246D02*
X14387444Y-14536627D01*
X14387444Y-14536627D02*
X14396968Y-14508055D01*
X14396968Y-14508055D02*
X14406491Y-14489008D01*
X14406491Y-14489008D02*
X14425539Y-14460436D01*
X14425539Y-14460436D02*
X14435063Y-14450912D01*
X14501729Y-14498531D02*
X14511253Y-14489008D01*
X14511253Y-14489008D02*
X14530301Y-14479484D01*
X14530301Y-14479484D02*
X14577920Y-14479484D01*
X14577920Y-14479484D02*
X14596968Y-14489008D01*
X14596968Y-14489008D02*
X14606491Y-14498531D01*
X14606491Y-14498531D02*
X14616015Y-14517579D01*
X14616015Y-14517579D02*
X14616015Y-14536627D01*
X14616015Y-14536627D02*
X14606491Y-14565198D01*
X14606491Y-14565198D02*
X14492206Y-14679484D01*
X14492206Y-14679484D02*
X14616015Y-14679484D01*
X14692206Y-14498531D02*
X14701729Y-14489008D01*
X14701729Y-14489008D02*
X14720777Y-14479484D01*
X14720777Y-14479484D02*
X14768396Y-14479484D01*
X14768396Y-14479484D02*
X14787444Y-14489008D01*
X14787444Y-14489008D02*
X14796968Y-14498531D01*
X14796968Y-14498531D02*
X14806491Y-14517579D01*
X14806491Y-14517579D02*
X14806491Y-14536627D01*
X14806491Y-14536627D02*
X14796968Y-14565198D01*
X14796968Y-14565198D02*
X14682682Y-14679484D01*
X14682682Y-14679484D02*
X14806491Y-14679484D01*
X15044587Y-14679484D02*
X15044587Y-14479484D01*
X15130301Y-14679484D02*
X15130301Y-14574722D01*
X15130301Y-14574722D02*
X15120777Y-14555674D01*
X15120777Y-14555674D02*
X15101730Y-14546150D01*
X15101730Y-14546150D02*
X15073158Y-14546150D01*
X15073158Y-14546150D02*
X15054110Y-14555674D01*
X15054110Y-14555674D02*
X15044587Y-14565198D01*
X15254110Y-14679484D02*
X15235063Y-14669960D01*
X15235063Y-14669960D02*
X15225539Y-14660436D01*
X15225539Y-14660436D02*
X15216015Y-14641388D01*
X15216015Y-14641388D02*
X15216015Y-14584246D01*
X15216015Y-14584246D02*
X15225539Y-14565198D01*
X15225539Y-14565198D02*
X15235063Y-14555674D01*
X15235063Y-14555674D02*
X15254110Y-14546150D01*
X15254110Y-14546150D02*
X15282682Y-14546150D01*
X15282682Y-14546150D02*
X15301730Y-14555674D01*
X15301730Y-14555674D02*
X15311253Y-14565198D01*
X15311253Y-14565198D02*
X15320777Y-14584246D01*
X15320777Y-14584246D02*
X15320777Y-14641388D01*
X15320777Y-14641388D02*
X15311253Y-14660436D01*
X15311253Y-14660436D02*
X15301730Y-14669960D01*
X15301730Y-14669960D02*
X15282682Y-14679484D01*
X15282682Y-14679484D02*
X15254110Y-14679484D01*
X15435063Y-14679484D02*
X15416015Y-14669960D01*
X15416015Y-14669960D02*
X15406491Y-14650912D01*
X15406491Y-14650912D02*
X15406491Y-14479484D01*
X15587444Y-14669960D02*
X15568396Y-14679484D01*
X15568396Y-14679484D02*
X15530301Y-14679484D01*
X15530301Y-14679484D02*
X15511253Y-14669960D01*
X15511253Y-14669960D02*
X15501730Y-14650912D01*
X15501730Y-14650912D02*
X15501730Y-14574722D01*
X15501730Y-14574722D02*
X15511253Y-14555674D01*
X15511253Y-14555674D02*
X15530301Y-14546150D01*
X15530301Y-14546150D02*
X15568396Y-14546150D01*
X15568396Y-14546150D02*
X15587444Y-14555674D01*
X15587444Y-14555674D02*
X15596968Y-14574722D01*
X15596968Y-14574722D02*
X15596968Y-14593769D01*
X15596968Y-14593769D02*
X15501730Y-14612817D01*
X15673158Y-14669960D02*
X15692206Y-14679484D01*
X15692206Y-14679484D02*
X15730301Y-14679484D01*
X15730301Y-14679484D02*
X15749349Y-14669960D01*
X15749349Y-14669960D02*
X15758872Y-14650912D01*
X15758872Y-14650912D02*
X15758872Y-14641388D01*
X15758872Y-14641388D02*
X15749349Y-14622341D01*
X15749349Y-14622341D02*
X15730301Y-14612817D01*
X15730301Y-14612817D02*
X15701730Y-14612817D01*
X15701730Y-14612817D02*
X15682682Y-14603293D01*
X15682682Y-14603293D02*
X15673158Y-14584246D01*
X15673158Y-14584246D02*
X15673158Y-14574722D01*
X15673158Y-14574722D02*
X15682682Y-14555674D01*
X15682682Y-14555674D02*
X15701730Y-14546150D01*
X15701730Y-14546150D02*
X15730301Y-14546150D01*
X15730301Y-14546150D02*
X15749349Y-14555674D01*
X15825539Y-14755674D02*
X15835063Y-14746150D01*
X15835063Y-14746150D02*
X15854111Y-14717579D01*
X15854111Y-14717579D02*
X15863634Y-14698531D01*
X15863634Y-14698531D02*
X15873158Y-14669960D01*
X15873158Y-14669960D02*
X15882682Y-14622341D01*
X15882682Y-14622341D02*
X15882682Y-14584246D01*
X15882682Y-14584246D02*
X15873158Y-14536627D01*
X15873158Y-14536627D02*
X15863634Y-14508055D01*
X15863634Y-14508055D02*
X15854111Y-14489008D01*
X15854111Y-14489008D02*
X15835063Y-14460436D01*
X15835063Y-14460436D02*
X15825539Y-14450912D01*
D14*
X10846820Y-14883820D02*
X10846820Y-14820180D01*
X10783180Y-14820180D01*
X10783180Y-14883820D01*
X10846820Y-14883820D01*
D10*
X11158872Y-14743484D02*
X11177920Y-14743484D01*
X11177920Y-14743484D02*
X11196967Y-14753008D01*
X11196967Y-14753008D02*
X11206491Y-14762531D01*
X11206491Y-14762531D02*
X11216015Y-14781579D01*
X11216015Y-14781579D02*
X11225539Y-14819674D01*
X11225539Y-14819674D02*
X11225539Y-14867293D01*
X11225539Y-14867293D02*
X11216015Y-14905388D01*
X11216015Y-14905388D02*
X11206491Y-14924436D01*
X11206491Y-14924436D02*
X11196967Y-14933960D01*
X11196967Y-14933960D02*
X11177920Y-14943484D01*
X11177920Y-14943484D02*
X11158872Y-14943484D01*
X11158872Y-14943484D02*
X11139824Y-14933960D01*
X11139824Y-14933960D02*
X11130301Y-14924436D01*
X11130301Y-14924436D02*
X11120777Y-14905388D01*
X11120777Y-14905388D02*
X11111253Y-14867293D01*
X11111253Y-14867293D02*
X11111253Y-14819674D01*
X11111253Y-14819674D02*
X11120777Y-14781579D01*
X11120777Y-14781579D02*
X11130301Y-14762531D01*
X11130301Y-14762531D02*
X11139824Y-14753008D01*
X11139824Y-14753008D02*
X11158872Y-14743484D01*
X11311253Y-14924436D02*
X11320777Y-14933960D01*
X11320777Y-14933960D02*
X11311253Y-14943484D01*
X11311253Y-14943484D02*
X11301729Y-14933960D01*
X11301729Y-14933960D02*
X11311253Y-14924436D01*
X11311253Y-14924436D02*
X11311253Y-14943484D01*
X11416015Y-14943484D02*
X11454110Y-14943484D01*
X11454110Y-14943484D02*
X11473158Y-14933960D01*
X11473158Y-14933960D02*
X11482682Y-14924436D01*
X11482682Y-14924436D02*
X11501729Y-14895865D01*
X11501729Y-14895865D02*
X11511253Y-14857769D01*
X11511253Y-14857769D02*
X11511253Y-14781579D01*
X11511253Y-14781579D02*
X11501729Y-14762531D01*
X11501729Y-14762531D02*
X11492205Y-14753008D01*
X11492205Y-14753008D02*
X11473158Y-14743484D01*
X11473158Y-14743484D02*
X11435062Y-14743484D01*
X11435062Y-14743484D02*
X11416015Y-14753008D01*
X11416015Y-14753008D02*
X11406491Y-14762531D01*
X11406491Y-14762531D02*
X11396967Y-14781579D01*
X11396967Y-14781579D02*
X11396967Y-14829198D01*
X11396967Y-14829198D02*
X11406491Y-14848246D01*
X11406491Y-14848246D02*
X11416015Y-14857769D01*
X11416015Y-14857769D02*
X11435062Y-14867293D01*
X11435062Y-14867293D02*
X11473158Y-14867293D01*
X11473158Y-14867293D02*
X11492205Y-14857769D01*
X11492205Y-14857769D02*
X11501729Y-14848246D01*
X11501729Y-14848246D02*
X11511253Y-14829198D01*
X11635062Y-14743484D02*
X11654110Y-14743484D01*
X11654110Y-14743484D02*
X11673158Y-14753008D01*
X11673158Y-14753008D02*
X11682682Y-14762531D01*
X11682682Y-14762531D02*
X11692205Y-14781579D01*
X11692205Y-14781579D02*
X11701729Y-14819674D01*
X11701729Y-14819674D02*
X11701729Y-14867293D01*
X11701729Y-14867293D02*
X11692205Y-14905388D01*
X11692205Y-14905388D02*
X11682682Y-14924436D01*
X11682682Y-14924436D02*
X11673158Y-14933960D01*
X11673158Y-14933960D02*
X11654110Y-14943484D01*
X11654110Y-14943484D02*
X11635062Y-14943484D01*
X11635062Y-14943484D02*
X11616015Y-14933960D01*
X11616015Y-14933960D02*
X11606491Y-14924436D01*
X11606491Y-14924436D02*
X11596967Y-14905388D01*
X11596967Y-14905388D02*
X11587443Y-14867293D01*
X11587443Y-14867293D02*
X11587443Y-14819674D01*
X11587443Y-14819674D02*
X11596967Y-14781579D01*
X11596967Y-14781579D02*
X11606491Y-14762531D01*
X11606491Y-14762531D02*
X11616015Y-14753008D01*
X11616015Y-14753008D02*
X11635062Y-14743484D01*
X11825539Y-14743484D02*
X11844586Y-14743484D01*
X11844586Y-14743484D02*
X11863634Y-14753008D01*
X11863634Y-14753008D02*
X11873158Y-14762531D01*
X11873158Y-14762531D02*
X11882682Y-14781579D01*
X11882682Y-14781579D02*
X11892205Y-14819674D01*
X11892205Y-14819674D02*
X11892205Y-14867293D01*
X11892205Y-14867293D02*
X11882682Y-14905388D01*
X11882682Y-14905388D02*
X11873158Y-14924436D01*
X11873158Y-14924436D02*
X11863634Y-14933960D01*
X11863634Y-14933960D02*
X11844586Y-14943484D01*
X11844586Y-14943484D02*
X11825539Y-14943484D01*
X11825539Y-14943484D02*
X11806491Y-14933960D01*
X11806491Y-14933960D02*
X11796967Y-14924436D01*
X11796967Y-14924436D02*
X11787443Y-14905388D01*
X11787443Y-14905388D02*
X11777920Y-14867293D01*
X11777920Y-14867293D02*
X11777920Y-14819674D01*
X11777920Y-14819674D02*
X11787443Y-14781579D01*
X11787443Y-14781579D02*
X11796967Y-14762531D01*
X11796967Y-14762531D02*
X11806491Y-14753008D01*
X11806491Y-14753008D02*
X11825539Y-14743484D01*
X11977920Y-14943484D02*
X11977920Y-14810150D01*
X11977920Y-14829198D02*
X11987443Y-14819674D01*
X11987443Y-14819674D02*
X12006491Y-14810150D01*
X12006491Y-14810150D02*
X12035063Y-14810150D01*
X12035063Y-14810150D02*
X12054110Y-14819674D01*
X12054110Y-14819674D02*
X12063634Y-14838722D01*
X12063634Y-14838722D02*
X12063634Y-14943484D01*
X12063634Y-14838722D02*
X12073158Y-14819674D01*
X12073158Y-14819674D02*
X12092205Y-14810150D01*
X12092205Y-14810150D02*
X12120777Y-14810150D01*
X12120777Y-14810150D02*
X12139824Y-14819674D01*
X12139824Y-14819674D02*
X12149348Y-14838722D01*
X12149348Y-14838722D02*
X12149348Y-14943484D01*
X12244586Y-14943484D02*
X12244586Y-14810150D01*
X12244586Y-14829198D02*
X12254110Y-14819674D01*
X12254110Y-14819674D02*
X12273158Y-14810150D01*
X12273158Y-14810150D02*
X12301729Y-14810150D01*
X12301729Y-14810150D02*
X12320777Y-14819674D01*
X12320777Y-14819674D02*
X12330301Y-14838722D01*
X12330301Y-14838722D02*
X12330301Y-14943484D01*
X12330301Y-14838722D02*
X12339824Y-14819674D01*
X12339824Y-14819674D02*
X12358872Y-14810150D01*
X12358872Y-14810150D02*
X12387443Y-14810150D01*
X12387443Y-14810150D02*
X12406491Y-14819674D01*
X12406491Y-14819674D02*
X12416015Y-14838722D01*
X12416015Y-14838722D02*
X12416015Y-14943484D01*
X12806491Y-14733960D02*
X12635063Y-14991103D01*
X13063634Y-14743484D02*
X13082682Y-14743484D01*
X13082682Y-14743484D02*
X13101729Y-14753008D01*
X13101729Y-14753008D02*
X13111253Y-14762531D01*
X13111253Y-14762531D02*
X13120777Y-14781579D01*
X13120777Y-14781579D02*
X13130301Y-14819674D01*
X13130301Y-14819674D02*
X13130301Y-14867293D01*
X13130301Y-14867293D02*
X13120777Y-14905388D01*
X13120777Y-14905388D02*
X13111253Y-14924436D01*
X13111253Y-14924436D02*
X13101729Y-14933960D01*
X13101729Y-14933960D02*
X13082682Y-14943484D01*
X13082682Y-14943484D02*
X13063634Y-14943484D01*
X13063634Y-14943484D02*
X13044586Y-14933960D01*
X13044586Y-14933960D02*
X13035063Y-14924436D01*
X13035063Y-14924436D02*
X13025539Y-14905388D01*
X13025539Y-14905388D02*
X13016015Y-14867293D01*
X13016015Y-14867293D02*
X13016015Y-14819674D01*
X13016015Y-14819674D02*
X13025539Y-14781579D01*
X13025539Y-14781579D02*
X13035063Y-14762531D01*
X13035063Y-14762531D02*
X13044586Y-14753008D01*
X13044586Y-14753008D02*
X13063634Y-14743484D01*
X13216015Y-14924436D02*
X13225539Y-14933960D01*
X13225539Y-14933960D02*
X13216015Y-14943484D01*
X13216015Y-14943484D02*
X13206491Y-14933960D01*
X13206491Y-14933960D02*
X13216015Y-14924436D01*
X13216015Y-14924436D02*
X13216015Y-14943484D01*
X13349348Y-14743484D02*
X13368396Y-14743484D01*
X13368396Y-14743484D02*
X13387444Y-14753008D01*
X13387444Y-14753008D02*
X13396967Y-14762531D01*
X13396967Y-14762531D02*
X13406491Y-14781579D01*
X13406491Y-14781579D02*
X13416015Y-14819674D01*
X13416015Y-14819674D02*
X13416015Y-14867293D01*
X13416015Y-14867293D02*
X13406491Y-14905388D01*
X13406491Y-14905388D02*
X13396967Y-14924436D01*
X13396967Y-14924436D02*
X13387444Y-14933960D01*
X13387444Y-14933960D02*
X13368396Y-14943484D01*
X13368396Y-14943484D02*
X13349348Y-14943484D01*
X13349348Y-14943484D02*
X13330301Y-14933960D01*
X13330301Y-14933960D02*
X13320777Y-14924436D01*
X13320777Y-14924436D02*
X13311253Y-14905388D01*
X13311253Y-14905388D02*
X13301729Y-14867293D01*
X13301729Y-14867293D02*
X13301729Y-14819674D01*
X13301729Y-14819674D02*
X13311253Y-14781579D01*
X13311253Y-14781579D02*
X13320777Y-14762531D01*
X13320777Y-14762531D02*
X13330301Y-14753008D01*
X13330301Y-14753008D02*
X13349348Y-14743484D01*
X13482682Y-14743484D02*
X13606491Y-14743484D01*
X13606491Y-14743484D02*
X13539825Y-14819674D01*
X13539825Y-14819674D02*
X13568396Y-14819674D01*
X13568396Y-14819674D02*
X13587444Y-14829198D01*
X13587444Y-14829198D02*
X13596967Y-14838722D01*
X13596967Y-14838722D02*
X13606491Y-14857769D01*
X13606491Y-14857769D02*
X13606491Y-14905388D01*
X13606491Y-14905388D02*
X13596967Y-14924436D01*
X13596967Y-14924436D02*
X13587444Y-14933960D01*
X13587444Y-14933960D02*
X13568396Y-14943484D01*
X13568396Y-14943484D02*
X13511253Y-14943484D01*
X13511253Y-14943484D02*
X13492206Y-14933960D01*
X13492206Y-14933960D02*
X13482682Y-14924436D01*
X13787444Y-14743484D02*
X13692206Y-14743484D01*
X13692206Y-14743484D02*
X13682682Y-14838722D01*
X13682682Y-14838722D02*
X13692206Y-14829198D01*
X13692206Y-14829198D02*
X13711253Y-14819674D01*
X13711253Y-14819674D02*
X13758872Y-14819674D01*
X13758872Y-14819674D02*
X13777920Y-14829198D01*
X13777920Y-14829198D02*
X13787444Y-14838722D01*
X13787444Y-14838722D02*
X13796967Y-14857769D01*
X13796967Y-14857769D02*
X13796967Y-14905388D01*
X13796967Y-14905388D02*
X13787444Y-14924436D01*
X13787444Y-14924436D02*
X13777920Y-14933960D01*
X13777920Y-14933960D02*
X13758872Y-14943484D01*
X13758872Y-14943484D02*
X13711253Y-14943484D01*
X13711253Y-14943484D02*
X13692206Y-14933960D01*
X13692206Y-14933960D02*
X13682682Y-14924436D01*
X13968396Y-14810150D02*
X13968396Y-14943484D01*
X13920777Y-14733960D02*
X13873158Y-14876817D01*
X13873158Y-14876817D02*
X13996967Y-14876817D01*
X14063634Y-14743484D02*
X14063634Y-14781579D01*
X14139825Y-14743484D02*
X14139825Y-14781579D01*
X14435063Y-15019674D02*
X14425539Y-15010150D01*
X14425539Y-15010150D02*
X14406491Y-14981579D01*
X14406491Y-14981579D02*
X14396968Y-14962531D01*
X14396968Y-14962531D02*
X14387444Y-14933960D01*
X14387444Y-14933960D02*
X14377920Y-14886341D01*
X14377920Y-14886341D02*
X14377920Y-14848246D01*
X14377920Y-14848246D02*
X14387444Y-14800627D01*
X14387444Y-14800627D02*
X14396968Y-14772055D01*
X14396968Y-14772055D02*
X14406491Y-14753008D01*
X14406491Y-14753008D02*
X14425539Y-14724436D01*
X14425539Y-14724436D02*
X14435063Y-14714912D01*
X14596968Y-14810150D02*
X14596968Y-14943484D01*
X14549348Y-14733960D02*
X14501729Y-14876817D01*
X14501729Y-14876817D02*
X14625539Y-14876817D01*
X14854110Y-14943484D02*
X14854110Y-14743484D01*
X14939825Y-14943484D02*
X14939825Y-14838722D01*
X14939825Y-14838722D02*
X14930301Y-14819674D01*
X14930301Y-14819674D02*
X14911253Y-14810150D01*
X14911253Y-14810150D02*
X14882682Y-14810150D01*
X14882682Y-14810150D02*
X14863634Y-14819674D01*
X14863634Y-14819674D02*
X14854110Y-14829198D01*
X15063634Y-14943484D02*
X15044587Y-14933960D01*
X15044587Y-14933960D02*
X15035063Y-14924436D01*
X15035063Y-14924436D02*
X15025539Y-14905388D01*
X15025539Y-14905388D02*
X15025539Y-14848246D01*
X15025539Y-14848246D02*
X15035063Y-14829198D01*
X15035063Y-14829198D02*
X15044587Y-14819674D01*
X15044587Y-14819674D02*
X15063634Y-14810150D01*
X15063634Y-14810150D02*
X15092206Y-14810150D01*
X15092206Y-14810150D02*
X15111253Y-14819674D01*
X15111253Y-14819674D02*
X15120777Y-14829198D01*
X15120777Y-14829198D02*
X15130301Y-14848246D01*
X15130301Y-14848246D02*
X15130301Y-14905388D01*
X15130301Y-14905388D02*
X15120777Y-14924436D01*
X15120777Y-14924436D02*
X15111253Y-14933960D01*
X15111253Y-14933960D02*
X15092206Y-14943484D01*
X15092206Y-14943484D02*
X15063634Y-14943484D01*
X15244587Y-14943484D02*
X15225539Y-14933960D01*
X15225539Y-14933960D02*
X15216015Y-14914912D01*
X15216015Y-14914912D02*
X15216015Y-14743484D01*
X15396968Y-14933960D02*
X15377920Y-14943484D01*
X15377920Y-14943484D02*
X15339825Y-14943484D01*
X15339825Y-14943484D02*
X15320777Y-14933960D01*
X15320777Y-14933960D02*
X15311253Y-14914912D01*
X15311253Y-14914912D02*
X15311253Y-14838722D01*
X15311253Y-14838722D02*
X15320777Y-14819674D01*
X15320777Y-14819674D02*
X15339825Y-14810150D01*
X15339825Y-14810150D02*
X15377920Y-14810150D01*
X15377920Y-14810150D02*
X15396968Y-14819674D01*
X15396968Y-14819674D02*
X15406491Y-14838722D01*
X15406491Y-14838722D02*
X15406491Y-14857769D01*
X15406491Y-14857769D02*
X15311253Y-14876817D01*
X15482682Y-14933960D02*
X15501730Y-14943484D01*
X15501730Y-14943484D02*
X15539825Y-14943484D01*
X15539825Y-14943484D02*
X15558872Y-14933960D01*
X15558872Y-14933960D02*
X15568396Y-14914912D01*
X15568396Y-14914912D02*
X15568396Y-14905388D01*
X15568396Y-14905388D02*
X15558872Y-14886341D01*
X15558872Y-14886341D02*
X15539825Y-14876817D01*
X15539825Y-14876817D02*
X15511253Y-14876817D01*
X15511253Y-14876817D02*
X15492206Y-14867293D01*
X15492206Y-14867293D02*
X15482682Y-14848246D01*
X15482682Y-14848246D02*
X15482682Y-14838722D01*
X15482682Y-14838722D02*
X15492206Y-14819674D01*
X15492206Y-14819674D02*
X15511253Y-14810150D01*
X15511253Y-14810150D02*
X15539825Y-14810150D01*
X15539825Y-14810150D02*
X15558872Y-14819674D01*
X15635063Y-15019674D02*
X15644587Y-15010150D01*
X15644587Y-15010150D02*
X15663634Y-14981579D01*
X15663634Y-14981579D02*
X15673158Y-14962531D01*
X15673158Y-14962531D02*
X15682682Y-14933960D01*
X15682682Y-14933960D02*
X15692206Y-14886341D01*
X15692206Y-14886341D02*
X15692206Y-14848246D01*
X15692206Y-14848246D02*
X15682682Y-14800627D01*
X15682682Y-14800627D02*
X15673158Y-14772055D01*
X15673158Y-14772055D02*
X15663634Y-14753008D01*
X15663634Y-14753008D02*
X15644587Y-14724436D01*
X15644587Y-14724436D02*
X15635063Y-14714912D01*
D15*
X10810000Y-15166000D02*
X10860000Y-15116000D01*
X10810000Y-15066000D01*
X10760000Y-15116000D01*
X10810000Y-15166000D01*
D10*
X11225539Y-15207484D02*
X11111253Y-15207484D01*
X11168396Y-15207484D02*
X11168396Y-15007484D01*
X11168396Y-15007484D02*
X11149348Y-15036055D01*
X11149348Y-15036055D02*
X11130301Y-15055103D01*
X11130301Y-15055103D02*
X11111253Y-15064627D01*
X11311253Y-15188436D02*
X11320777Y-15197960D01*
X11320777Y-15197960D02*
X11311253Y-15207484D01*
X11311253Y-15207484D02*
X11301729Y-15197960D01*
X11301729Y-15197960D02*
X11311253Y-15188436D01*
X11311253Y-15188436D02*
X11311253Y-15207484D01*
X11444586Y-15007484D02*
X11463634Y-15007484D01*
X11463634Y-15007484D02*
X11482682Y-15017008D01*
X11482682Y-15017008D02*
X11492205Y-15026531D01*
X11492205Y-15026531D02*
X11501729Y-15045579D01*
X11501729Y-15045579D02*
X11511253Y-15083674D01*
X11511253Y-15083674D02*
X11511253Y-15131293D01*
X11511253Y-15131293D02*
X11501729Y-15169388D01*
X11501729Y-15169388D02*
X11492205Y-15188436D01*
X11492205Y-15188436D02*
X11482682Y-15197960D01*
X11482682Y-15197960D02*
X11463634Y-15207484D01*
X11463634Y-15207484D02*
X11444586Y-15207484D01*
X11444586Y-15207484D02*
X11425539Y-15197960D01*
X11425539Y-15197960D02*
X11416015Y-15188436D01*
X11416015Y-15188436D02*
X11406491Y-15169388D01*
X11406491Y-15169388D02*
X11396967Y-15131293D01*
X11396967Y-15131293D02*
X11396967Y-15083674D01*
X11396967Y-15083674D02*
X11406491Y-15045579D01*
X11406491Y-15045579D02*
X11416015Y-15026531D01*
X11416015Y-15026531D02*
X11425539Y-15017008D01*
X11425539Y-15017008D02*
X11444586Y-15007484D01*
X11635062Y-15007484D02*
X11654110Y-15007484D01*
X11654110Y-15007484D02*
X11673158Y-15017008D01*
X11673158Y-15017008D02*
X11682682Y-15026531D01*
X11682682Y-15026531D02*
X11692205Y-15045579D01*
X11692205Y-15045579D02*
X11701729Y-15083674D01*
X11701729Y-15083674D02*
X11701729Y-15131293D01*
X11701729Y-15131293D02*
X11692205Y-15169388D01*
X11692205Y-15169388D02*
X11682682Y-15188436D01*
X11682682Y-15188436D02*
X11673158Y-15197960D01*
X11673158Y-15197960D02*
X11654110Y-15207484D01*
X11654110Y-15207484D02*
X11635062Y-15207484D01*
X11635062Y-15207484D02*
X11616015Y-15197960D01*
X11616015Y-15197960D02*
X11606491Y-15188436D01*
X11606491Y-15188436D02*
X11596967Y-15169388D01*
X11596967Y-15169388D02*
X11587443Y-15131293D01*
X11587443Y-15131293D02*
X11587443Y-15083674D01*
X11587443Y-15083674D02*
X11596967Y-15045579D01*
X11596967Y-15045579D02*
X11606491Y-15026531D01*
X11606491Y-15026531D02*
X11616015Y-15017008D01*
X11616015Y-15017008D02*
X11635062Y-15007484D01*
X11825539Y-15007484D02*
X11844586Y-15007484D01*
X11844586Y-15007484D02*
X11863634Y-15017008D01*
X11863634Y-15017008D02*
X11873158Y-15026531D01*
X11873158Y-15026531D02*
X11882682Y-15045579D01*
X11882682Y-15045579D02*
X11892205Y-15083674D01*
X11892205Y-15083674D02*
X11892205Y-15131293D01*
X11892205Y-15131293D02*
X11882682Y-15169388D01*
X11882682Y-15169388D02*
X11873158Y-15188436D01*
X11873158Y-15188436D02*
X11863634Y-15197960D01*
X11863634Y-15197960D02*
X11844586Y-15207484D01*
X11844586Y-15207484D02*
X11825539Y-15207484D01*
X11825539Y-15207484D02*
X11806491Y-15197960D01*
X11806491Y-15197960D02*
X11796967Y-15188436D01*
X11796967Y-15188436D02*
X11787443Y-15169388D01*
X11787443Y-15169388D02*
X11777920Y-15131293D01*
X11777920Y-15131293D02*
X11777920Y-15083674D01*
X11777920Y-15083674D02*
X11787443Y-15045579D01*
X11787443Y-15045579D02*
X11796967Y-15026531D01*
X11796967Y-15026531D02*
X11806491Y-15017008D01*
X11806491Y-15017008D02*
X11825539Y-15007484D01*
X11977920Y-15207484D02*
X11977920Y-15074150D01*
X11977920Y-15093198D02*
X11987443Y-15083674D01*
X11987443Y-15083674D02*
X12006491Y-15074150D01*
X12006491Y-15074150D02*
X12035063Y-15074150D01*
X12035063Y-15074150D02*
X12054110Y-15083674D01*
X12054110Y-15083674D02*
X12063634Y-15102722D01*
X12063634Y-15102722D02*
X12063634Y-15207484D01*
X12063634Y-15102722D02*
X12073158Y-15083674D01*
X12073158Y-15083674D02*
X12092205Y-15074150D01*
X12092205Y-15074150D02*
X12120777Y-15074150D01*
X12120777Y-15074150D02*
X12139824Y-15083674D01*
X12139824Y-15083674D02*
X12149348Y-15102722D01*
X12149348Y-15102722D02*
X12149348Y-15207484D01*
X12244586Y-15207484D02*
X12244586Y-15074150D01*
X12244586Y-15093198D02*
X12254110Y-15083674D01*
X12254110Y-15083674D02*
X12273158Y-15074150D01*
X12273158Y-15074150D02*
X12301729Y-15074150D01*
X12301729Y-15074150D02*
X12320777Y-15083674D01*
X12320777Y-15083674D02*
X12330301Y-15102722D01*
X12330301Y-15102722D02*
X12330301Y-15207484D01*
X12330301Y-15102722D02*
X12339824Y-15083674D01*
X12339824Y-15083674D02*
X12358872Y-15074150D01*
X12358872Y-15074150D02*
X12387443Y-15074150D01*
X12387443Y-15074150D02*
X12406491Y-15083674D01*
X12406491Y-15083674D02*
X12416015Y-15102722D01*
X12416015Y-15102722D02*
X12416015Y-15207484D01*
X12806491Y-14997960D02*
X12635063Y-15255103D01*
X13063634Y-15007484D02*
X13082682Y-15007484D01*
X13082682Y-15007484D02*
X13101729Y-15017008D01*
X13101729Y-15017008D02*
X13111253Y-15026531D01*
X13111253Y-15026531D02*
X13120777Y-15045579D01*
X13120777Y-15045579D02*
X13130301Y-15083674D01*
X13130301Y-15083674D02*
X13130301Y-15131293D01*
X13130301Y-15131293D02*
X13120777Y-15169388D01*
X13120777Y-15169388D02*
X13111253Y-15188436D01*
X13111253Y-15188436D02*
X13101729Y-15197960D01*
X13101729Y-15197960D02*
X13082682Y-15207484D01*
X13082682Y-15207484D02*
X13063634Y-15207484D01*
X13063634Y-15207484D02*
X13044586Y-15197960D01*
X13044586Y-15197960D02*
X13035063Y-15188436D01*
X13035063Y-15188436D02*
X13025539Y-15169388D01*
X13025539Y-15169388D02*
X13016015Y-15131293D01*
X13016015Y-15131293D02*
X13016015Y-15083674D01*
X13016015Y-15083674D02*
X13025539Y-15045579D01*
X13025539Y-15045579D02*
X13035063Y-15026531D01*
X13035063Y-15026531D02*
X13044586Y-15017008D01*
X13044586Y-15017008D02*
X13063634Y-15007484D01*
X13216015Y-15188436D02*
X13225539Y-15197960D01*
X13225539Y-15197960D02*
X13216015Y-15207484D01*
X13216015Y-15207484D02*
X13206491Y-15197960D01*
X13206491Y-15197960D02*
X13216015Y-15188436D01*
X13216015Y-15188436D02*
X13216015Y-15207484D01*
X13349348Y-15007484D02*
X13368396Y-15007484D01*
X13368396Y-15007484D02*
X13387444Y-15017008D01*
X13387444Y-15017008D02*
X13396967Y-15026531D01*
X13396967Y-15026531D02*
X13406491Y-15045579D01*
X13406491Y-15045579D02*
X13416015Y-15083674D01*
X13416015Y-15083674D02*
X13416015Y-15131293D01*
X13416015Y-15131293D02*
X13406491Y-15169388D01*
X13406491Y-15169388D02*
X13396967Y-15188436D01*
X13396967Y-15188436D02*
X13387444Y-15197960D01*
X13387444Y-15197960D02*
X13368396Y-15207484D01*
X13368396Y-15207484D02*
X13349348Y-15207484D01*
X13349348Y-15207484D02*
X13330301Y-15197960D01*
X13330301Y-15197960D02*
X13320777Y-15188436D01*
X13320777Y-15188436D02*
X13311253Y-15169388D01*
X13311253Y-15169388D02*
X13301729Y-15131293D01*
X13301729Y-15131293D02*
X13301729Y-15083674D01*
X13301729Y-15083674D02*
X13311253Y-15045579D01*
X13311253Y-15045579D02*
X13320777Y-15026531D01*
X13320777Y-15026531D02*
X13330301Y-15017008D01*
X13330301Y-15017008D02*
X13349348Y-15007484D01*
X13482682Y-15007484D02*
X13606491Y-15007484D01*
X13606491Y-15007484D02*
X13539825Y-15083674D01*
X13539825Y-15083674D02*
X13568396Y-15083674D01*
X13568396Y-15083674D02*
X13587444Y-15093198D01*
X13587444Y-15093198D02*
X13596967Y-15102722D01*
X13596967Y-15102722D02*
X13606491Y-15121769D01*
X13606491Y-15121769D02*
X13606491Y-15169388D01*
X13606491Y-15169388D02*
X13596967Y-15188436D01*
X13596967Y-15188436D02*
X13587444Y-15197960D01*
X13587444Y-15197960D02*
X13568396Y-15207484D01*
X13568396Y-15207484D02*
X13511253Y-15207484D01*
X13511253Y-15207484D02*
X13492206Y-15197960D01*
X13492206Y-15197960D02*
X13482682Y-15188436D01*
X13701729Y-15207484D02*
X13739825Y-15207484D01*
X13739825Y-15207484D02*
X13758872Y-15197960D01*
X13758872Y-15197960D02*
X13768396Y-15188436D01*
X13768396Y-15188436D02*
X13787444Y-15159865D01*
X13787444Y-15159865D02*
X13796967Y-15121769D01*
X13796967Y-15121769D02*
X13796967Y-15045579D01*
X13796967Y-15045579D02*
X13787444Y-15026531D01*
X13787444Y-15026531D02*
X13777920Y-15017008D01*
X13777920Y-15017008D02*
X13758872Y-15007484D01*
X13758872Y-15007484D02*
X13720777Y-15007484D01*
X13720777Y-15007484D02*
X13701729Y-15017008D01*
X13701729Y-15017008D02*
X13692206Y-15026531D01*
X13692206Y-15026531D02*
X13682682Y-15045579D01*
X13682682Y-15045579D02*
X13682682Y-15093198D01*
X13682682Y-15093198D02*
X13692206Y-15112246D01*
X13692206Y-15112246D02*
X13701729Y-15121769D01*
X13701729Y-15121769D02*
X13720777Y-15131293D01*
X13720777Y-15131293D02*
X13758872Y-15131293D01*
X13758872Y-15131293D02*
X13777920Y-15121769D01*
X13777920Y-15121769D02*
X13787444Y-15112246D01*
X13787444Y-15112246D02*
X13796967Y-15093198D01*
X13968396Y-15074150D02*
X13968396Y-15207484D01*
X13920777Y-14997960D02*
X13873158Y-15140817D01*
X13873158Y-15140817D02*
X13996967Y-15140817D01*
X14063634Y-15007484D02*
X14063634Y-15045579D01*
X14139825Y-15007484D02*
X14139825Y-15045579D01*
X14435063Y-15283674D02*
X14425539Y-15274150D01*
X14425539Y-15274150D02*
X14406491Y-15245579D01*
X14406491Y-15245579D02*
X14396968Y-15226531D01*
X14396968Y-15226531D02*
X14387444Y-15197960D01*
X14387444Y-15197960D02*
X14377920Y-15150341D01*
X14377920Y-15150341D02*
X14377920Y-15112246D01*
X14377920Y-15112246D02*
X14387444Y-15064627D01*
X14387444Y-15064627D02*
X14396968Y-15036055D01*
X14396968Y-15036055D02*
X14406491Y-15017008D01*
X14406491Y-15017008D02*
X14425539Y-14988436D01*
X14425539Y-14988436D02*
X14435063Y-14978912D01*
X14616015Y-15207484D02*
X14501729Y-15207484D01*
X14558872Y-15207484D02*
X14558872Y-15007484D01*
X14558872Y-15007484D02*
X14539825Y-15036055D01*
X14539825Y-15036055D02*
X14520777Y-15055103D01*
X14520777Y-15055103D02*
X14501729Y-15064627D01*
X14711253Y-15207484D02*
X14749348Y-15207484D01*
X14749348Y-15207484D02*
X14768396Y-15197960D01*
X14768396Y-15197960D02*
X14777920Y-15188436D01*
X14777920Y-15188436D02*
X14796968Y-15159865D01*
X14796968Y-15159865D02*
X14806491Y-15121769D01*
X14806491Y-15121769D02*
X14806491Y-15045579D01*
X14806491Y-15045579D02*
X14796968Y-15026531D01*
X14796968Y-15026531D02*
X14787444Y-15017008D01*
X14787444Y-15017008D02*
X14768396Y-15007484D01*
X14768396Y-15007484D02*
X14730301Y-15007484D01*
X14730301Y-15007484D02*
X14711253Y-15017008D01*
X14711253Y-15017008D02*
X14701729Y-15026531D01*
X14701729Y-15026531D02*
X14692206Y-15045579D01*
X14692206Y-15045579D02*
X14692206Y-15093198D01*
X14692206Y-15093198D02*
X14701729Y-15112246D01*
X14701729Y-15112246D02*
X14711253Y-15121769D01*
X14711253Y-15121769D02*
X14730301Y-15131293D01*
X14730301Y-15131293D02*
X14768396Y-15131293D01*
X14768396Y-15131293D02*
X14787444Y-15121769D01*
X14787444Y-15121769D02*
X14796968Y-15112246D01*
X14796968Y-15112246D02*
X14806491Y-15093198D01*
X15044587Y-15207484D02*
X15044587Y-15007484D01*
X15130301Y-15207484D02*
X15130301Y-15102722D01*
X15130301Y-15102722D02*
X15120777Y-15083674D01*
X15120777Y-15083674D02*
X15101730Y-15074150D01*
X15101730Y-15074150D02*
X15073158Y-15074150D01*
X15073158Y-15074150D02*
X15054110Y-15083674D01*
X15054110Y-15083674D02*
X15044587Y-15093198D01*
X15254110Y-15207484D02*
X15235063Y-15197960D01*
X15235063Y-15197960D02*
X15225539Y-15188436D01*
X15225539Y-15188436D02*
X15216015Y-15169388D01*
X15216015Y-15169388D02*
X15216015Y-15112246D01*
X15216015Y-15112246D02*
X15225539Y-15093198D01*
X15225539Y-15093198D02*
X15235063Y-15083674D01*
X15235063Y-15083674D02*
X15254110Y-15074150D01*
X15254110Y-15074150D02*
X15282682Y-15074150D01*
X15282682Y-15074150D02*
X15301730Y-15083674D01*
X15301730Y-15083674D02*
X15311253Y-15093198D01*
X15311253Y-15093198D02*
X15320777Y-15112246D01*
X15320777Y-15112246D02*
X15320777Y-15169388D01*
X15320777Y-15169388D02*
X15311253Y-15188436D01*
X15311253Y-15188436D02*
X15301730Y-15197960D01*
X15301730Y-15197960D02*
X15282682Y-15207484D01*
X15282682Y-15207484D02*
X15254110Y-15207484D01*
X15435063Y-15207484D02*
X15416015Y-15197960D01*
X15416015Y-15197960D02*
X15406491Y-15178912D01*
X15406491Y-15178912D02*
X15406491Y-15007484D01*
X15587444Y-15197960D02*
X15568396Y-15207484D01*
X15568396Y-15207484D02*
X15530301Y-15207484D01*
X15530301Y-15207484D02*
X15511253Y-15197960D01*
X15511253Y-15197960D02*
X15501730Y-15178912D01*
X15501730Y-15178912D02*
X15501730Y-15102722D01*
X15501730Y-15102722D02*
X15511253Y-15083674D01*
X15511253Y-15083674D02*
X15530301Y-15074150D01*
X15530301Y-15074150D02*
X15568396Y-15074150D01*
X15568396Y-15074150D02*
X15587444Y-15083674D01*
X15587444Y-15083674D02*
X15596968Y-15102722D01*
X15596968Y-15102722D02*
X15596968Y-15121769D01*
X15596968Y-15121769D02*
X15501730Y-15140817D01*
X15673158Y-15197960D02*
X15692206Y-15207484D01*
X15692206Y-15207484D02*
X15730301Y-15207484D01*
X15730301Y-15207484D02*
X15749349Y-15197960D01*
X15749349Y-15197960D02*
X15758872Y-15178912D01*
X15758872Y-15178912D02*
X15758872Y-15169388D01*
X15758872Y-15169388D02*
X15749349Y-15150341D01*
X15749349Y-15150341D02*
X15730301Y-15140817D01*
X15730301Y-15140817D02*
X15701730Y-15140817D01*
X15701730Y-15140817D02*
X15682682Y-15131293D01*
X15682682Y-15131293D02*
X15673158Y-15112246D01*
X15673158Y-15112246D02*
X15673158Y-15102722D01*
X15673158Y-15102722D02*
X15682682Y-15083674D01*
X15682682Y-15083674D02*
X15701730Y-15074150D01*
X15701730Y-15074150D02*
X15730301Y-15074150D01*
X15730301Y-15074150D02*
X15749349Y-15083674D01*
X15825539Y-15283674D02*
X15835063Y-15274150D01*
X15835063Y-15274150D02*
X15854111Y-15245579D01*
X15854111Y-15245579D02*
X15863634Y-15226531D01*
X15863634Y-15226531D02*
X15873158Y-15197960D01*
X15873158Y-15197960D02*
X15882682Y-15150341D01*
X15882682Y-15150341D02*
X15882682Y-15112246D01*
X15882682Y-15112246D02*
X15873158Y-15064627D01*
X15873158Y-15064627D02*
X15863634Y-15036055D01*
X15863634Y-15036055D02*
X15854111Y-15017008D01*
X15854111Y-15017008D02*
X15835063Y-14988436D01*
X15835063Y-14988436D02*
X15825539Y-14978912D01*
D16*
X10750000Y-15325000D02*
X10860000Y-15435000D01*
X10860000Y-15325000D02*
X10750000Y-15435000D01*
X10860000Y-15380000D02*
G75*
G03*
X10860000Y-15380000I-55000J0D01*
G01*
D10*
X11225539Y-15471484D02*
X11111253Y-15471484D01*
X11168396Y-15471484D02*
X11168396Y-15271484D01*
X11168396Y-15271484D02*
X11149348Y-15300055D01*
X11149348Y-15300055D02*
X11130301Y-15319103D01*
X11130301Y-15319103D02*
X11111253Y-15328627D01*
X11311253Y-15452436D02*
X11320777Y-15461960D01*
X11320777Y-15461960D02*
X11311253Y-15471484D01*
X11311253Y-15471484D02*
X11301729Y-15461960D01*
X11301729Y-15461960D02*
X11311253Y-15452436D01*
X11311253Y-15452436D02*
X11311253Y-15471484D01*
X11511253Y-15471484D02*
X11396967Y-15471484D01*
X11454110Y-15471484D02*
X11454110Y-15271484D01*
X11454110Y-15271484D02*
X11435062Y-15300055D01*
X11435062Y-15300055D02*
X11416015Y-15319103D01*
X11416015Y-15319103D02*
X11396967Y-15328627D01*
X11635062Y-15271484D02*
X11654110Y-15271484D01*
X11654110Y-15271484D02*
X11673158Y-15281008D01*
X11673158Y-15281008D02*
X11682682Y-15290531D01*
X11682682Y-15290531D02*
X11692205Y-15309579D01*
X11692205Y-15309579D02*
X11701729Y-15347674D01*
X11701729Y-15347674D02*
X11701729Y-15395293D01*
X11701729Y-15395293D02*
X11692205Y-15433388D01*
X11692205Y-15433388D02*
X11682682Y-15452436D01*
X11682682Y-15452436D02*
X11673158Y-15461960D01*
X11673158Y-15461960D02*
X11654110Y-15471484D01*
X11654110Y-15471484D02*
X11635062Y-15471484D01*
X11635062Y-15471484D02*
X11616015Y-15461960D01*
X11616015Y-15461960D02*
X11606491Y-15452436D01*
X11606491Y-15452436D02*
X11596967Y-15433388D01*
X11596967Y-15433388D02*
X11587443Y-15395293D01*
X11587443Y-15395293D02*
X11587443Y-15347674D01*
X11587443Y-15347674D02*
X11596967Y-15309579D01*
X11596967Y-15309579D02*
X11606491Y-15290531D01*
X11606491Y-15290531D02*
X11616015Y-15281008D01*
X11616015Y-15281008D02*
X11635062Y-15271484D01*
X11825539Y-15271484D02*
X11844586Y-15271484D01*
X11844586Y-15271484D02*
X11863634Y-15281008D01*
X11863634Y-15281008D02*
X11873158Y-15290531D01*
X11873158Y-15290531D02*
X11882682Y-15309579D01*
X11882682Y-15309579D02*
X11892205Y-15347674D01*
X11892205Y-15347674D02*
X11892205Y-15395293D01*
X11892205Y-15395293D02*
X11882682Y-15433388D01*
X11882682Y-15433388D02*
X11873158Y-15452436D01*
X11873158Y-15452436D02*
X11863634Y-15461960D01*
X11863634Y-15461960D02*
X11844586Y-15471484D01*
X11844586Y-15471484D02*
X11825539Y-15471484D01*
X11825539Y-15471484D02*
X11806491Y-15461960D01*
X11806491Y-15461960D02*
X11796967Y-15452436D01*
X11796967Y-15452436D02*
X11787443Y-15433388D01*
X11787443Y-15433388D02*
X11777920Y-15395293D01*
X11777920Y-15395293D02*
X11777920Y-15347674D01*
X11777920Y-15347674D02*
X11787443Y-15309579D01*
X11787443Y-15309579D02*
X11796967Y-15290531D01*
X11796967Y-15290531D02*
X11806491Y-15281008D01*
X11806491Y-15281008D02*
X11825539Y-15271484D01*
X11977920Y-15471484D02*
X11977920Y-15338150D01*
X11977920Y-15357198D02*
X11987443Y-15347674D01*
X11987443Y-15347674D02*
X12006491Y-15338150D01*
X12006491Y-15338150D02*
X12035063Y-15338150D01*
X12035063Y-15338150D02*
X12054110Y-15347674D01*
X12054110Y-15347674D02*
X12063634Y-15366722D01*
X12063634Y-15366722D02*
X12063634Y-15471484D01*
X12063634Y-15366722D02*
X12073158Y-15347674D01*
X12073158Y-15347674D02*
X12092205Y-15338150D01*
X12092205Y-15338150D02*
X12120777Y-15338150D01*
X12120777Y-15338150D02*
X12139824Y-15347674D01*
X12139824Y-15347674D02*
X12149348Y-15366722D01*
X12149348Y-15366722D02*
X12149348Y-15471484D01*
X12244586Y-15471484D02*
X12244586Y-15338150D01*
X12244586Y-15357198D02*
X12254110Y-15347674D01*
X12254110Y-15347674D02*
X12273158Y-15338150D01*
X12273158Y-15338150D02*
X12301729Y-15338150D01*
X12301729Y-15338150D02*
X12320777Y-15347674D01*
X12320777Y-15347674D02*
X12330301Y-15366722D01*
X12330301Y-15366722D02*
X12330301Y-15471484D01*
X12330301Y-15366722D02*
X12339824Y-15347674D01*
X12339824Y-15347674D02*
X12358872Y-15338150D01*
X12358872Y-15338150D02*
X12387443Y-15338150D01*
X12387443Y-15338150D02*
X12406491Y-15347674D01*
X12406491Y-15347674D02*
X12416015Y-15366722D01*
X12416015Y-15366722D02*
X12416015Y-15471484D01*
X12806491Y-15261960D02*
X12635063Y-15519103D01*
X13063634Y-15271484D02*
X13082682Y-15271484D01*
X13082682Y-15271484D02*
X13101729Y-15281008D01*
X13101729Y-15281008D02*
X13111253Y-15290531D01*
X13111253Y-15290531D02*
X13120777Y-15309579D01*
X13120777Y-15309579D02*
X13130301Y-15347674D01*
X13130301Y-15347674D02*
X13130301Y-15395293D01*
X13130301Y-15395293D02*
X13120777Y-15433388D01*
X13120777Y-15433388D02*
X13111253Y-15452436D01*
X13111253Y-15452436D02*
X13101729Y-15461960D01*
X13101729Y-15461960D02*
X13082682Y-15471484D01*
X13082682Y-15471484D02*
X13063634Y-15471484D01*
X13063634Y-15471484D02*
X13044586Y-15461960D01*
X13044586Y-15461960D02*
X13035063Y-15452436D01*
X13035063Y-15452436D02*
X13025539Y-15433388D01*
X13025539Y-15433388D02*
X13016015Y-15395293D01*
X13016015Y-15395293D02*
X13016015Y-15347674D01*
X13016015Y-15347674D02*
X13025539Y-15309579D01*
X13025539Y-15309579D02*
X13035063Y-15290531D01*
X13035063Y-15290531D02*
X13044586Y-15281008D01*
X13044586Y-15281008D02*
X13063634Y-15271484D01*
X13216015Y-15452436D02*
X13225539Y-15461960D01*
X13225539Y-15461960D02*
X13216015Y-15471484D01*
X13216015Y-15471484D02*
X13206491Y-15461960D01*
X13206491Y-15461960D02*
X13216015Y-15452436D01*
X13216015Y-15452436D02*
X13216015Y-15471484D01*
X13349348Y-15271484D02*
X13368396Y-15271484D01*
X13368396Y-15271484D02*
X13387444Y-15281008D01*
X13387444Y-15281008D02*
X13396967Y-15290531D01*
X13396967Y-15290531D02*
X13406491Y-15309579D01*
X13406491Y-15309579D02*
X13416015Y-15347674D01*
X13416015Y-15347674D02*
X13416015Y-15395293D01*
X13416015Y-15395293D02*
X13406491Y-15433388D01*
X13406491Y-15433388D02*
X13396967Y-15452436D01*
X13396967Y-15452436D02*
X13387444Y-15461960D01*
X13387444Y-15461960D02*
X13368396Y-15471484D01*
X13368396Y-15471484D02*
X13349348Y-15471484D01*
X13349348Y-15471484D02*
X13330301Y-15461960D01*
X13330301Y-15461960D02*
X13320777Y-15452436D01*
X13320777Y-15452436D02*
X13311253Y-15433388D01*
X13311253Y-15433388D02*
X13301729Y-15395293D01*
X13301729Y-15395293D02*
X13301729Y-15347674D01*
X13301729Y-15347674D02*
X13311253Y-15309579D01*
X13311253Y-15309579D02*
X13320777Y-15290531D01*
X13320777Y-15290531D02*
X13330301Y-15281008D01*
X13330301Y-15281008D02*
X13349348Y-15271484D01*
X13587444Y-15338150D02*
X13587444Y-15471484D01*
X13539825Y-15261960D02*
X13492206Y-15404817D01*
X13492206Y-15404817D02*
X13616015Y-15404817D01*
X13673158Y-15271484D02*
X13796967Y-15271484D01*
X13796967Y-15271484D02*
X13730301Y-15347674D01*
X13730301Y-15347674D02*
X13758872Y-15347674D01*
X13758872Y-15347674D02*
X13777920Y-15357198D01*
X13777920Y-15357198D02*
X13787444Y-15366722D01*
X13787444Y-15366722D02*
X13796967Y-15385769D01*
X13796967Y-15385769D02*
X13796967Y-15433388D01*
X13796967Y-15433388D02*
X13787444Y-15452436D01*
X13787444Y-15452436D02*
X13777920Y-15461960D01*
X13777920Y-15461960D02*
X13758872Y-15471484D01*
X13758872Y-15471484D02*
X13701729Y-15471484D01*
X13701729Y-15471484D02*
X13682682Y-15461960D01*
X13682682Y-15461960D02*
X13673158Y-15452436D01*
X13863634Y-15271484D02*
X13987444Y-15271484D01*
X13987444Y-15271484D02*
X13920777Y-15347674D01*
X13920777Y-15347674D02*
X13949348Y-15347674D01*
X13949348Y-15347674D02*
X13968396Y-15357198D01*
X13968396Y-15357198D02*
X13977920Y-15366722D01*
X13977920Y-15366722D02*
X13987444Y-15385769D01*
X13987444Y-15385769D02*
X13987444Y-15433388D01*
X13987444Y-15433388D02*
X13977920Y-15452436D01*
X13977920Y-15452436D02*
X13968396Y-15461960D01*
X13968396Y-15461960D02*
X13949348Y-15471484D01*
X13949348Y-15471484D02*
X13892206Y-15471484D01*
X13892206Y-15471484D02*
X13873158Y-15461960D01*
X13873158Y-15461960D02*
X13863634Y-15452436D01*
X14063634Y-15271484D02*
X14063634Y-15309579D01*
X14139825Y-15271484D02*
X14139825Y-15309579D01*
X14435063Y-15547674D02*
X14425539Y-15538150D01*
X14425539Y-15538150D02*
X14406491Y-15509579D01*
X14406491Y-15509579D02*
X14396968Y-15490531D01*
X14396968Y-15490531D02*
X14387444Y-15461960D01*
X14387444Y-15461960D02*
X14377920Y-15414341D01*
X14377920Y-15414341D02*
X14377920Y-15376246D01*
X14377920Y-15376246D02*
X14387444Y-15328627D01*
X14387444Y-15328627D02*
X14396968Y-15300055D01*
X14396968Y-15300055D02*
X14406491Y-15281008D01*
X14406491Y-15281008D02*
X14425539Y-15252436D01*
X14425539Y-15252436D02*
X14435063Y-15242912D01*
X14539825Y-15357198D02*
X14520777Y-15347674D01*
X14520777Y-15347674D02*
X14511253Y-15338150D01*
X14511253Y-15338150D02*
X14501729Y-15319103D01*
X14501729Y-15319103D02*
X14501729Y-15309579D01*
X14501729Y-15309579D02*
X14511253Y-15290531D01*
X14511253Y-15290531D02*
X14520777Y-15281008D01*
X14520777Y-15281008D02*
X14539825Y-15271484D01*
X14539825Y-15271484D02*
X14577920Y-15271484D01*
X14577920Y-15271484D02*
X14596968Y-15281008D01*
X14596968Y-15281008D02*
X14606491Y-15290531D01*
X14606491Y-15290531D02*
X14616015Y-15309579D01*
X14616015Y-15309579D02*
X14616015Y-15319103D01*
X14616015Y-15319103D02*
X14606491Y-15338150D01*
X14606491Y-15338150D02*
X14596968Y-15347674D01*
X14596968Y-15347674D02*
X14577920Y-15357198D01*
X14577920Y-15357198D02*
X14539825Y-15357198D01*
X14539825Y-15357198D02*
X14520777Y-15366722D01*
X14520777Y-15366722D02*
X14511253Y-15376246D01*
X14511253Y-15376246D02*
X14501729Y-15395293D01*
X14501729Y-15395293D02*
X14501729Y-15433388D01*
X14501729Y-15433388D02*
X14511253Y-15452436D01*
X14511253Y-15452436D02*
X14520777Y-15461960D01*
X14520777Y-15461960D02*
X14539825Y-15471484D01*
X14539825Y-15471484D02*
X14577920Y-15471484D01*
X14577920Y-15471484D02*
X14596968Y-15461960D01*
X14596968Y-15461960D02*
X14606491Y-15452436D01*
X14606491Y-15452436D02*
X14616015Y-15433388D01*
X14616015Y-15433388D02*
X14616015Y-15395293D01*
X14616015Y-15395293D02*
X14606491Y-15376246D01*
X14606491Y-15376246D02*
X14596968Y-15366722D01*
X14596968Y-15366722D02*
X14577920Y-15357198D01*
X14854110Y-15471484D02*
X14854110Y-15271484D01*
X14939825Y-15471484D02*
X14939825Y-15366722D01*
X14939825Y-15366722D02*
X14930301Y-15347674D01*
X14930301Y-15347674D02*
X14911253Y-15338150D01*
X14911253Y-15338150D02*
X14882682Y-15338150D01*
X14882682Y-15338150D02*
X14863634Y-15347674D01*
X14863634Y-15347674D02*
X14854110Y-15357198D01*
X15063634Y-15471484D02*
X15044587Y-15461960D01*
X15044587Y-15461960D02*
X15035063Y-15452436D01*
X15035063Y-15452436D02*
X15025539Y-15433388D01*
X15025539Y-15433388D02*
X15025539Y-15376246D01*
X15025539Y-15376246D02*
X15035063Y-15357198D01*
X15035063Y-15357198D02*
X15044587Y-15347674D01*
X15044587Y-15347674D02*
X15063634Y-15338150D01*
X15063634Y-15338150D02*
X15092206Y-15338150D01*
X15092206Y-15338150D02*
X15111253Y-15347674D01*
X15111253Y-15347674D02*
X15120777Y-15357198D01*
X15120777Y-15357198D02*
X15130301Y-15376246D01*
X15130301Y-15376246D02*
X15130301Y-15433388D01*
X15130301Y-15433388D02*
X15120777Y-15452436D01*
X15120777Y-15452436D02*
X15111253Y-15461960D01*
X15111253Y-15461960D02*
X15092206Y-15471484D01*
X15092206Y-15471484D02*
X15063634Y-15471484D01*
X15244587Y-15471484D02*
X15225539Y-15461960D01*
X15225539Y-15461960D02*
X15216015Y-15442912D01*
X15216015Y-15442912D02*
X15216015Y-15271484D01*
X15396968Y-15461960D02*
X15377920Y-15471484D01*
X15377920Y-15471484D02*
X15339825Y-15471484D01*
X15339825Y-15471484D02*
X15320777Y-15461960D01*
X15320777Y-15461960D02*
X15311253Y-15442912D01*
X15311253Y-15442912D02*
X15311253Y-15366722D01*
X15311253Y-15366722D02*
X15320777Y-15347674D01*
X15320777Y-15347674D02*
X15339825Y-15338150D01*
X15339825Y-15338150D02*
X15377920Y-15338150D01*
X15377920Y-15338150D02*
X15396968Y-15347674D01*
X15396968Y-15347674D02*
X15406491Y-15366722D01*
X15406491Y-15366722D02*
X15406491Y-15385769D01*
X15406491Y-15385769D02*
X15311253Y-15404817D01*
X15482682Y-15461960D02*
X15501730Y-15471484D01*
X15501730Y-15471484D02*
X15539825Y-15471484D01*
X15539825Y-15471484D02*
X15558872Y-15461960D01*
X15558872Y-15461960D02*
X15568396Y-15442912D01*
X15568396Y-15442912D02*
X15568396Y-15433388D01*
X15568396Y-15433388D02*
X15558872Y-15414341D01*
X15558872Y-15414341D02*
X15539825Y-15404817D01*
X15539825Y-15404817D02*
X15511253Y-15404817D01*
X15511253Y-15404817D02*
X15492206Y-15395293D01*
X15492206Y-15395293D02*
X15482682Y-15376246D01*
X15482682Y-15376246D02*
X15482682Y-15366722D01*
X15482682Y-15366722D02*
X15492206Y-15347674D01*
X15492206Y-15347674D02*
X15511253Y-15338150D01*
X15511253Y-15338150D02*
X15539825Y-15338150D01*
X15539825Y-15338150D02*
X15558872Y-15347674D01*
X15635063Y-15547674D02*
X15644587Y-15538150D01*
X15644587Y-15538150D02*
X15663634Y-15509579D01*
X15663634Y-15509579D02*
X15673158Y-15490531D01*
X15673158Y-15490531D02*
X15682682Y-15461960D01*
X15682682Y-15461960D02*
X15692206Y-15414341D01*
X15692206Y-15414341D02*
X15692206Y-15376246D01*
X15692206Y-15376246D02*
X15682682Y-15328627D01*
X15682682Y-15328627D02*
X15673158Y-15300055D01*
X15673158Y-15300055D02*
X15663634Y-15281008D01*
X15663634Y-15281008D02*
X15644587Y-15252436D01*
X15644587Y-15252436D02*
X15635063Y-15242912D01*
D17*
X10730000Y-15579000D02*
X10860000Y-15709000D01*
X10860000Y-15579000D02*
X10730000Y-15709000D01*
X10795000Y-15579000D02*
X10795000Y-15709000D01*
X10730000Y-15644000D02*
X10860000Y-15644000D01*
D10*
X11225539Y-15735484D02*
X11111253Y-15735484D01*
X11168396Y-15735484D02*
X11168396Y-15535484D01*
X11168396Y-15535484D02*
X11149348Y-15564055D01*
X11149348Y-15564055D02*
X11130301Y-15583103D01*
X11130301Y-15583103D02*
X11111253Y-15592627D01*
X11311253Y-15716436D02*
X11320777Y-15725960D01*
X11320777Y-15725960D02*
X11311253Y-15735484D01*
X11311253Y-15735484D02*
X11301729Y-15725960D01*
X11301729Y-15725960D02*
X11311253Y-15716436D01*
X11311253Y-15716436D02*
X11311253Y-15735484D01*
X11387443Y-15535484D02*
X11511253Y-15535484D01*
X11511253Y-15535484D02*
X11444586Y-15611674D01*
X11444586Y-15611674D02*
X11473158Y-15611674D01*
X11473158Y-15611674D02*
X11492205Y-15621198D01*
X11492205Y-15621198D02*
X11501729Y-15630722D01*
X11501729Y-15630722D02*
X11511253Y-15649769D01*
X11511253Y-15649769D02*
X11511253Y-15697388D01*
X11511253Y-15697388D02*
X11501729Y-15716436D01*
X11501729Y-15716436D02*
X11492205Y-15725960D01*
X11492205Y-15725960D02*
X11473158Y-15735484D01*
X11473158Y-15735484D02*
X11416015Y-15735484D01*
X11416015Y-15735484D02*
X11396967Y-15725960D01*
X11396967Y-15725960D02*
X11387443Y-15716436D01*
X11635062Y-15535484D02*
X11654110Y-15535484D01*
X11654110Y-15535484D02*
X11673158Y-15545008D01*
X11673158Y-15545008D02*
X11682682Y-15554531D01*
X11682682Y-15554531D02*
X11692205Y-15573579D01*
X11692205Y-15573579D02*
X11701729Y-15611674D01*
X11701729Y-15611674D02*
X11701729Y-15659293D01*
X11701729Y-15659293D02*
X11692205Y-15697388D01*
X11692205Y-15697388D02*
X11682682Y-15716436D01*
X11682682Y-15716436D02*
X11673158Y-15725960D01*
X11673158Y-15725960D02*
X11654110Y-15735484D01*
X11654110Y-15735484D02*
X11635062Y-15735484D01*
X11635062Y-15735484D02*
X11616015Y-15725960D01*
X11616015Y-15725960D02*
X11606491Y-15716436D01*
X11606491Y-15716436D02*
X11596967Y-15697388D01*
X11596967Y-15697388D02*
X11587443Y-15659293D01*
X11587443Y-15659293D02*
X11587443Y-15611674D01*
X11587443Y-15611674D02*
X11596967Y-15573579D01*
X11596967Y-15573579D02*
X11606491Y-15554531D01*
X11606491Y-15554531D02*
X11616015Y-15545008D01*
X11616015Y-15545008D02*
X11635062Y-15535484D01*
X11825539Y-15535484D02*
X11844586Y-15535484D01*
X11844586Y-15535484D02*
X11863634Y-15545008D01*
X11863634Y-15545008D02*
X11873158Y-15554531D01*
X11873158Y-15554531D02*
X11882682Y-15573579D01*
X11882682Y-15573579D02*
X11892205Y-15611674D01*
X11892205Y-15611674D02*
X11892205Y-15659293D01*
X11892205Y-15659293D02*
X11882682Y-15697388D01*
X11882682Y-15697388D02*
X11873158Y-15716436D01*
X11873158Y-15716436D02*
X11863634Y-15725960D01*
X11863634Y-15725960D02*
X11844586Y-15735484D01*
X11844586Y-15735484D02*
X11825539Y-15735484D01*
X11825539Y-15735484D02*
X11806491Y-15725960D01*
X11806491Y-15725960D02*
X11796967Y-15716436D01*
X11796967Y-15716436D02*
X11787443Y-15697388D01*
X11787443Y-15697388D02*
X11777920Y-15659293D01*
X11777920Y-15659293D02*
X11777920Y-15611674D01*
X11777920Y-15611674D02*
X11787443Y-15573579D01*
X11787443Y-15573579D02*
X11796967Y-15554531D01*
X11796967Y-15554531D02*
X11806491Y-15545008D01*
X11806491Y-15545008D02*
X11825539Y-15535484D01*
X11977920Y-15735484D02*
X11977920Y-15602150D01*
X11977920Y-15621198D02*
X11987443Y-15611674D01*
X11987443Y-15611674D02*
X12006491Y-15602150D01*
X12006491Y-15602150D02*
X12035063Y-15602150D01*
X12035063Y-15602150D02*
X12054110Y-15611674D01*
X12054110Y-15611674D02*
X12063634Y-15630722D01*
X12063634Y-15630722D02*
X12063634Y-15735484D01*
X12063634Y-15630722D02*
X12073158Y-15611674D01*
X12073158Y-15611674D02*
X12092205Y-15602150D01*
X12092205Y-15602150D02*
X12120777Y-15602150D01*
X12120777Y-15602150D02*
X12139824Y-15611674D01*
X12139824Y-15611674D02*
X12149348Y-15630722D01*
X12149348Y-15630722D02*
X12149348Y-15735484D01*
X12244586Y-15735484D02*
X12244586Y-15602150D01*
X12244586Y-15621198D02*
X12254110Y-15611674D01*
X12254110Y-15611674D02*
X12273158Y-15602150D01*
X12273158Y-15602150D02*
X12301729Y-15602150D01*
X12301729Y-15602150D02*
X12320777Y-15611674D01*
X12320777Y-15611674D02*
X12330301Y-15630722D01*
X12330301Y-15630722D02*
X12330301Y-15735484D01*
X12330301Y-15630722D02*
X12339824Y-15611674D01*
X12339824Y-15611674D02*
X12358872Y-15602150D01*
X12358872Y-15602150D02*
X12387443Y-15602150D01*
X12387443Y-15602150D02*
X12406491Y-15611674D01*
X12406491Y-15611674D02*
X12416015Y-15630722D01*
X12416015Y-15630722D02*
X12416015Y-15735484D01*
X12806491Y-15525960D02*
X12635063Y-15783103D01*
X13063634Y-15535484D02*
X13082682Y-15535484D01*
X13082682Y-15535484D02*
X13101729Y-15545008D01*
X13101729Y-15545008D02*
X13111253Y-15554531D01*
X13111253Y-15554531D02*
X13120777Y-15573579D01*
X13120777Y-15573579D02*
X13130301Y-15611674D01*
X13130301Y-15611674D02*
X13130301Y-15659293D01*
X13130301Y-15659293D02*
X13120777Y-15697388D01*
X13120777Y-15697388D02*
X13111253Y-15716436D01*
X13111253Y-15716436D02*
X13101729Y-15725960D01*
X13101729Y-15725960D02*
X13082682Y-15735484D01*
X13082682Y-15735484D02*
X13063634Y-15735484D01*
X13063634Y-15735484D02*
X13044586Y-15725960D01*
X13044586Y-15725960D02*
X13035063Y-15716436D01*
X13035063Y-15716436D02*
X13025539Y-15697388D01*
X13025539Y-15697388D02*
X13016015Y-15659293D01*
X13016015Y-15659293D02*
X13016015Y-15611674D01*
X13016015Y-15611674D02*
X13025539Y-15573579D01*
X13025539Y-15573579D02*
X13035063Y-15554531D01*
X13035063Y-15554531D02*
X13044586Y-15545008D01*
X13044586Y-15545008D02*
X13063634Y-15535484D01*
X13216015Y-15716436D02*
X13225539Y-15725960D01*
X13225539Y-15725960D02*
X13216015Y-15735484D01*
X13216015Y-15735484D02*
X13206491Y-15725960D01*
X13206491Y-15725960D02*
X13216015Y-15716436D01*
X13216015Y-15716436D02*
X13216015Y-15735484D01*
X13349348Y-15535484D02*
X13368396Y-15535484D01*
X13368396Y-15535484D02*
X13387444Y-15545008D01*
X13387444Y-15545008D02*
X13396967Y-15554531D01*
X13396967Y-15554531D02*
X13406491Y-15573579D01*
X13406491Y-15573579D02*
X13416015Y-15611674D01*
X13416015Y-15611674D02*
X13416015Y-15659293D01*
X13416015Y-15659293D02*
X13406491Y-15697388D01*
X13406491Y-15697388D02*
X13396967Y-15716436D01*
X13396967Y-15716436D02*
X13387444Y-15725960D01*
X13387444Y-15725960D02*
X13368396Y-15735484D01*
X13368396Y-15735484D02*
X13349348Y-15735484D01*
X13349348Y-15735484D02*
X13330301Y-15725960D01*
X13330301Y-15725960D02*
X13320777Y-15716436D01*
X13320777Y-15716436D02*
X13311253Y-15697388D01*
X13311253Y-15697388D02*
X13301729Y-15659293D01*
X13301729Y-15659293D02*
X13301729Y-15611674D01*
X13301729Y-15611674D02*
X13311253Y-15573579D01*
X13311253Y-15573579D02*
X13320777Y-15554531D01*
X13320777Y-15554531D02*
X13330301Y-15545008D01*
X13330301Y-15545008D02*
X13349348Y-15535484D01*
X13596967Y-15535484D02*
X13501729Y-15535484D01*
X13501729Y-15535484D02*
X13492206Y-15630722D01*
X13492206Y-15630722D02*
X13501729Y-15621198D01*
X13501729Y-15621198D02*
X13520777Y-15611674D01*
X13520777Y-15611674D02*
X13568396Y-15611674D01*
X13568396Y-15611674D02*
X13587444Y-15621198D01*
X13587444Y-15621198D02*
X13596967Y-15630722D01*
X13596967Y-15630722D02*
X13606491Y-15649769D01*
X13606491Y-15649769D02*
X13606491Y-15697388D01*
X13606491Y-15697388D02*
X13596967Y-15716436D01*
X13596967Y-15716436D02*
X13587444Y-15725960D01*
X13587444Y-15725960D02*
X13568396Y-15735484D01*
X13568396Y-15735484D02*
X13520777Y-15735484D01*
X13520777Y-15735484D02*
X13501729Y-15725960D01*
X13501729Y-15725960D02*
X13492206Y-15716436D01*
X13796967Y-15735484D02*
X13682682Y-15735484D01*
X13739825Y-15735484D02*
X13739825Y-15535484D01*
X13739825Y-15535484D02*
X13720777Y-15564055D01*
X13720777Y-15564055D02*
X13701729Y-15583103D01*
X13701729Y-15583103D02*
X13682682Y-15592627D01*
X13873158Y-15554531D02*
X13882682Y-15545008D01*
X13882682Y-15545008D02*
X13901729Y-15535484D01*
X13901729Y-15535484D02*
X13949348Y-15535484D01*
X13949348Y-15535484D02*
X13968396Y-15545008D01*
X13968396Y-15545008D02*
X13977920Y-15554531D01*
X13977920Y-15554531D02*
X13987444Y-15573579D01*
X13987444Y-15573579D02*
X13987444Y-15592627D01*
X13987444Y-15592627D02*
X13977920Y-15621198D01*
X13977920Y-15621198D02*
X13863634Y-15735484D01*
X13863634Y-15735484D02*
X13987444Y-15735484D01*
X14063634Y-15535484D02*
X14063634Y-15573579D01*
X14139825Y-15535484D02*
X14139825Y-15573579D01*
X14435063Y-15811674D02*
X14425539Y-15802150D01*
X14425539Y-15802150D02*
X14406491Y-15773579D01*
X14406491Y-15773579D02*
X14396968Y-15754531D01*
X14396968Y-15754531D02*
X14387444Y-15725960D01*
X14387444Y-15725960D02*
X14377920Y-15678341D01*
X14377920Y-15678341D02*
X14377920Y-15640246D01*
X14377920Y-15640246D02*
X14387444Y-15592627D01*
X14387444Y-15592627D02*
X14396968Y-15564055D01*
X14396968Y-15564055D02*
X14406491Y-15545008D01*
X14406491Y-15545008D02*
X14425539Y-15516436D01*
X14425539Y-15516436D02*
X14435063Y-15506912D01*
X14539825Y-15621198D02*
X14520777Y-15611674D01*
X14520777Y-15611674D02*
X14511253Y-15602150D01*
X14511253Y-15602150D02*
X14501729Y-15583103D01*
X14501729Y-15583103D02*
X14501729Y-15573579D01*
X14501729Y-15573579D02*
X14511253Y-15554531D01*
X14511253Y-15554531D02*
X14520777Y-15545008D01*
X14520777Y-15545008D02*
X14539825Y-15535484D01*
X14539825Y-15535484D02*
X14577920Y-15535484D01*
X14577920Y-15535484D02*
X14596968Y-15545008D01*
X14596968Y-15545008D02*
X14606491Y-15554531D01*
X14606491Y-15554531D02*
X14616015Y-15573579D01*
X14616015Y-15573579D02*
X14616015Y-15583103D01*
X14616015Y-15583103D02*
X14606491Y-15602150D01*
X14606491Y-15602150D02*
X14596968Y-15611674D01*
X14596968Y-15611674D02*
X14577920Y-15621198D01*
X14577920Y-15621198D02*
X14539825Y-15621198D01*
X14539825Y-15621198D02*
X14520777Y-15630722D01*
X14520777Y-15630722D02*
X14511253Y-15640246D01*
X14511253Y-15640246D02*
X14501729Y-15659293D01*
X14501729Y-15659293D02*
X14501729Y-15697388D01*
X14501729Y-15697388D02*
X14511253Y-15716436D01*
X14511253Y-15716436D02*
X14520777Y-15725960D01*
X14520777Y-15725960D02*
X14539825Y-15735484D01*
X14539825Y-15735484D02*
X14577920Y-15735484D01*
X14577920Y-15735484D02*
X14596968Y-15725960D01*
X14596968Y-15725960D02*
X14606491Y-15716436D01*
X14606491Y-15716436D02*
X14616015Y-15697388D01*
X14616015Y-15697388D02*
X14616015Y-15659293D01*
X14616015Y-15659293D02*
X14606491Y-15640246D01*
X14606491Y-15640246D02*
X14596968Y-15630722D01*
X14596968Y-15630722D02*
X14577920Y-15621198D01*
X14854110Y-15735484D02*
X14854110Y-15535484D01*
X14939825Y-15735484D02*
X14939825Y-15630722D01*
X14939825Y-15630722D02*
X14930301Y-15611674D01*
X14930301Y-15611674D02*
X14911253Y-15602150D01*
X14911253Y-15602150D02*
X14882682Y-15602150D01*
X14882682Y-15602150D02*
X14863634Y-15611674D01*
X14863634Y-15611674D02*
X14854110Y-15621198D01*
X15063634Y-15735484D02*
X15044587Y-15725960D01*
X15044587Y-15725960D02*
X15035063Y-15716436D01*
X15035063Y-15716436D02*
X15025539Y-15697388D01*
X15025539Y-15697388D02*
X15025539Y-15640246D01*
X15025539Y-15640246D02*
X15035063Y-15621198D01*
X15035063Y-15621198D02*
X15044587Y-15611674D01*
X15044587Y-15611674D02*
X15063634Y-15602150D01*
X15063634Y-15602150D02*
X15092206Y-15602150D01*
X15092206Y-15602150D02*
X15111253Y-15611674D01*
X15111253Y-15611674D02*
X15120777Y-15621198D01*
X15120777Y-15621198D02*
X15130301Y-15640246D01*
X15130301Y-15640246D02*
X15130301Y-15697388D01*
X15130301Y-15697388D02*
X15120777Y-15716436D01*
X15120777Y-15716436D02*
X15111253Y-15725960D01*
X15111253Y-15725960D02*
X15092206Y-15735484D01*
X15092206Y-15735484D02*
X15063634Y-15735484D01*
X15244587Y-15735484D02*
X15225539Y-15725960D01*
X15225539Y-15725960D02*
X15216015Y-15706912D01*
X15216015Y-15706912D02*
X15216015Y-15535484D01*
X15396968Y-15725960D02*
X15377920Y-15735484D01*
X15377920Y-15735484D02*
X15339825Y-15735484D01*
X15339825Y-15735484D02*
X15320777Y-15725960D01*
X15320777Y-15725960D02*
X15311253Y-15706912D01*
X15311253Y-15706912D02*
X15311253Y-15630722D01*
X15311253Y-15630722D02*
X15320777Y-15611674D01*
X15320777Y-15611674D02*
X15339825Y-15602150D01*
X15339825Y-15602150D02*
X15377920Y-15602150D01*
X15377920Y-15602150D02*
X15396968Y-15611674D01*
X15396968Y-15611674D02*
X15406491Y-15630722D01*
X15406491Y-15630722D02*
X15406491Y-15649769D01*
X15406491Y-15649769D02*
X15311253Y-15668817D01*
X15482682Y-15725960D02*
X15501730Y-15735484D01*
X15501730Y-15735484D02*
X15539825Y-15735484D01*
X15539825Y-15735484D02*
X15558872Y-15725960D01*
X15558872Y-15725960D02*
X15568396Y-15706912D01*
X15568396Y-15706912D02*
X15568396Y-15697388D01*
X15568396Y-15697388D02*
X15558872Y-15678341D01*
X15558872Y-15678341D02*
X15539825Y-15668817D01*
X15539825Y-15668817D02*
X15511253Y-15668817D01*
X15511253Y-15668817D02*
X15492206Y-15659293D01*
X15492206Y-15659293D02*
X15482682Y-15640246D01*
X15482682Y-15640246D02*
X15482682Y-15630722D01*
X15482682Y-15630722D02*
X15492206Y-15611674D01*
X15492206Y-15611674D02*
X15511253Y-15602150D01*
X15511253Y-15602150D02*
X15539825Y-15602150D01*
X15539825Y-15602150D02*
X15558872Y-15611674D01*
X15635063Y-15811674D02*
X15644587Y-15802150D01*
X15644587Y-15802150D02*
X15663634Y-15773579D01*
X15663634Y-15773579D02*
X15673158Y-15754531D01*
X15673158Y-15754531D02*
X15682682Y-15725960D01*
X15682682Y-15725960D02*
X15692206Y-15678341D01*
X15692206Y-15678341D02*
X15692206Y-15640246D01*
X15692206Y-15640246D02*
X15682682Y-15592627D01*
X15682682Y-15592627D02*
X15673158Y-15564055D01*
X15673158Y-15564055D02*
X15663634Y-15545008D01*
X15663634Y-15545008D02*
X15644587Y-15516436D01*
X15644587Y-15516436D02*
X15635063Y-15506912D01*
M02*
