%TF.GenerationSoftware,KiCad,Pcbnew,7.0.6*%
%TF.CreationDate,2023-08-07T22:53:29+02:00*%
%TF.ProjectId,attiny85_time_switch,61747469-6e79-4383-955f-74696d655f73,1.0*%
%TF.SameCoordinates,Original*%
%TF.FileFunction,Copper,L1,Top*%
%TF.FilePolarity,Positive*%
%FSLAX46Y46*%
G04 Gerber Fmt 4.6, Leading zero omitted, Abs format (unit mm)*
G04 Created by KiCad (PCBNEW 7.0.6) date 2023-08-07 22:53:29*
%MOMM*%
%LPD*%
G01*
G04 APERTURE LIST*
%TA.AperFunction,ComponentPad*%
%ADD10C,1.400000*%
%TD*%
%TA.AperFunction,ComponentPad*%
%ADD11O,1.400000X1.400000*%
%TD*%
%TA.AperFunction,ComponentPad*%
%ADD12R,1.700000X1.700000*%
%TD*%
%TA.AperFunction,ComponentPad*%
%ADD13O,1.700000X1.700000*%
%TD*%
%TA.AperFunction,ComponentPad*%
%ADD14R,2.600000X2.600000*%
%TD*%
%TA.AperFunction,ComponentPad*%
%ADD15C,2.600000*%
%TD*%
%TA.AperFunction,ComponentPad*%
%ADD16R,1.800000X1.800000*%
%TD*%
%TA.AperFunction,ComponentPad*%
%ADD17C,1.800000*%
%TD*%
%TA.AperFunction,ComponentPad*%
%ADD18R,1.600000X1.600000*%
%TD*%
%TA.AperFunction,ComponentPad*%
%ADD19O,1.600000X1.600000*%
%TD*%
%TA.AperFunction,ComponentPad*%
%ADD20C,2.200000*%
%TD*%
%TA.AperFunction,ComponentPad*%
%ADD21O,1.800000X1.800000*%
%TD*%
%TA.AperFunction,ComponentPad*%
%ADD22C,1.600000*%
%TD*%
%TA.AperFunction,SMDPad,CuDef*%
%ADD23R,1.220000X0.650000*%
%TD*%
%TA.AperFunction,ComponentPad*%
%ADD24C,2.000000*%
%TD*%
%TA.AperFunction,SMDPad,CuDef*%
%ADD25R,0.650000X2.000000*%
%TD*%
%TA.AperFunction,ViaPad*%
%ADD26C,0.800000*%
%TD*%
%TA.AperFunction,Conductor*%
%ADD27C,0.600000*%
%TD*%
%TA.AperFunction,Conductor*%
%ADD28C,1.000000*%
%TD*%
%TA.AperFunction,Conductor*%
%ADD29C,0.300000*%
%TD*%
%TA.AperFunction,Conductor*%
%ADD30C,0.250000*%
%TD*%
G04 APERTURE END LIST*
D10*
%TO.P,R1,1*%
%TO.N,Net-(Q2-Pad3)*%
X170200000Y-108410000D03*
D11*
%TO.P,R1,2*%
%TO.N,ADC_BATTERY*%
X170200000Y-100790000D03*
%TD*%
D12*
%TO.P,J8,1,Pin_1*%
%TO.N,Net-(J4-Pin_1)*%
X125665000Y-105790000D03*
D13*
%TO.P,J8,2,Pin_2*%
%TO.N,Net-(J4-Pin_2)*%
X125665000Y-108330000D03*
%TD*%
D14*
%TO.P,J4,1,Pin_1*%
%TO.N,Net-(J4-Pin_1)*%
X128767506Y-105262494D03*
D15*
%TO.P,J4,2,Pin_2*%
%TO.N,Net-(J4-Pin_2)*%
X128767506Y-108762494D03*
%TD*%
D16*
%TO.P,D2,1,K*%
%TO.N,Net-(D2-K)*%
X132650000Y-82400000D03*
D17*
%TO.P,D2,2,A*%
%TO.N,Net-(D2-A)*%
X130110000Y-82400000D03*
%TD*%
D18*
%TO.P,U1,1,~{RESET}/PB5*%
%TO.N,RESET*%
X158700000Y-95600000D03*
D19*
%TO.P,U1,2,XTAL1/PB3*%
%TO.N,12V_24V_SEL*%
X156160000Y-95600000D03*
%TO.P,U1,3,XTAL2/PB4*%
%TO.N,FEATURE_SELECT*%
X153620000Y-95600000D03*
%TO.P,U1,4,GND*%
%TO.N,GND*%
X151080000Y-95600000D03*
%TO.P,U1,5,AREF/PB0*%
%TO.N,MOSI*%
X151080000Y-103220000D03*
%TO.P,U1,6,PB1*%
%TO.N,MISO*%
X153620000Y-103220000D03*
%TO.P,U1,7,PB2*%
%TO.N,ADC_BATTERY*%
X156160000Y-103220000D03*
%TO.P,U1,8,VCC*%
%TO.N,VDD_MCU*%
X158700000Y-103220000D03*
%TD*%
D20*
%TO.P,F1,1*%
%TO.N,VIN*%
X139800000Y-91450000D03*
X134800000Y-91450000D03*
%TO.P,F1,2*%
%TO.N,Net-(J4-Pin_2)*%
X139800000Y-108350000D03*
X134800000Y-108350000D03*
%TD*%
D10*
%TO.P,R7,1*%
%TO.N,Net-(J6-Pin_3)*%
X172800000Y-100790000D03*
D11*
%TO.P,R7,2*%
%TO.N,GND*%
X172800000Y-108410000D03*
%TD*%
D16*
%TO.P,D1,1,K*%
%TO.N,Net-(D1-K)*%
X144900000Y-103390000D03*
D21*
%TO.P,D1,2,A*%
%TO.N,VIN*%
X144900000Y-111010000D03*
%TD*%
D12*
%TO.P,J5,1,Pin_1*%
%TO.N,VDD_MCU*%
X172400000Y-93940000D03*
D13*
%TO.P,J5,2,Pin_2*%
%TO.N,12V_24V_SEL*%
X172400000Y-91400000D03*
%TO.P,J5,3,Pin_3*%
%TO.N,GND*%
X172400000Y-88860000D03*
%TD*%
D22*
%TO.P,C4,1*%
%TO.N,ADC_BATTERY*%
X167200000Y-100890000D03*
%TO.P,C4,2*%
%TO.N,GND*%
X167200000Y-105890000D03*
%TD*%
%TO.P,C7,1*%
%TO.N,Net-(C7-Pad1)*%
X163600000Y-105890000D03*
%TO.P,C7,2*%
%TO.N,MISO*%
X163600000Y-100890000D03*
%TD*%
D10*
%TO.P,R3,1*%
%TO.N,MOSI*%
X148290000Y-110700000D03*
D11*
%TO.P,R3,2*%
%TO.N,GND*%
X155910000Y-110700000D03*
%TD*%
D10*
%TO.P,R6,1*%
%TO.N,Net-(D2-K)*%
X124090000Y-87650000D03*
D11*
%TO.P,R6,2*%
%TO.N,GND*%
X131710000Y-87650000D03*
%TD*%
D23*
%TO.P,Q2,1*%
%TO.N,Net-(C7-Pad1)*%
X162280000Y-108950000D03*
%TO.P,Q2,2*%
%TO.N,VIN*%
X162280000Y-110850000D03*
%TO.P,Q2,3*%
%TO.N,Net-(Q2-Pad3)*%
X164900000Y-109900000D03*
%TD*%
%TO.P,Q1,1*%
%TO.N,MOSI*%
X151710000Y-108350000D03*
%TO.P,Q1,2*%
%TO.N,GND*%
X151710000Y-106450000D03*
%TO.P,Q1,3*%
%TO.N,Net-(J4-Pin_1)*%
X149090000Y-107400000D03*
%TD*%
D24*
%TO.P,SW1,1,1*%
%TO.N,GND*%
X136900000Y-80150000D03*
X143400000Y-80150000D03*
%TO.P,SW1,2,2*%
%TO.N,RESET*%
X136900000Y-84650000D03*
X143400000Y-84650000D03*
%TD*%
D10*
%TO.P,R2,1*%
%TO.N,Net-(J6-Pin_1)*%
X175400000Y-100790000D03*
D11*
%TO.P,R2,2*%
%TO.N,GND*%
X175400000Y-108410000D03*
%TD*%
D12*
%TO.P,J2,1,Pin_1*%
%TO.N,MISO*%
X151910006Y-91399994D03*
D13*
%TO.P,J2,2,Pin_2*%
%TO.N,VDD_MCU*%
X151910006Y-88859994D03*
%TO.P,J2,3,Pin_3*%
%TO.N,ADC_BATTERY*%
X154450006Y-91399994D03*
%TO.P,J2,4,Pin_4*%
%TO.N,MOSI*%
X154450006Y-88859994D03*
%TO.P,J2,5,Pin_5*%
%TO.N,RESET*%
X156990006Y-91399994D03*
%TO.P,J2,6,Pin_6*%
%TO.N,GND*%
X156990006Y-88859994D03*
%TD*%
D24*
%TO.P,SW2,1,1*%
%TO.N,Net-(J4-Pin_1)*%
X125650000Y-84650000D03*
X119150000Y-84650000D03*
%TO.P,SW2,2,2*%
%TO.N,Net-(D2-A)*%
X125650000Y-80150000D03*
X119150000Y-80150000D03*
%TD*%
D25*
%TO.P,U2,1,Vin*%
%TO.N,Net-(D1-K)*%
X144450000Y-95910000D03*
%TO.P,U2,2,GND*%
%TO.N,GND*%
X145400000Y-95910000D03*
%TO.P,U2,3,EN*%
%TO.N,Net-(D1-K)*%
X146350000Y-95910000D03*
%TO.P,U2,4,NC*%
%TO.N,unconnected-(U2-NC-Pad4)*%
X146350000Y-92490000D03*
%TO.P,U2,5,Vout*%
%TO.N,VDD_MCU*%
X144450000Y-92490000D03*
%TD*%
D22*
%TO.P,C5,1*%
%TO.N,RESET*%
X163150000Y-94910000D03*
%TO.P,C5,2*%
%TO.N,GND*%
X168150000Y-94910000D03*
%TD*%
D10*
%TO.P,R5,1*%
%TO.N,VIN*%
X166990000Y-111100000D03*
D11*
%TO.P,R5,2*%
%TO.N,Net-(C7-Pad1)*%
X174610000Y-111100000D03*
%TD*%
D14*
%TO.P,J1,1,Pin_1*%
%TO.N,GND*%
X128767506Y-92112494D03*
D15*
%TO.P,J1,2,Pin_2*%
%TO.N,VIN*%
X128767506Y-95612494D03*
%TD*%
D22*
%TO.P,C6,1*%
%TO.N,VDD_MCU*%
X158900000Y-109650000D03*
%TO.P,C6,2*%
%TO.N,GND*%
X158900000Y-112150000D03*
%TD*%
D12*
%TO.P,J3,1,Pin_1*%
%TO.N,VDD_MCU*%
X162860000Y-88890000D03*
D13*
%TO.P,J3,2,Pin_2*%
%TO.N,FEATURE_SELECT*%
X165400000Y-88890000D03*
%TO.P,J3,3,Pin_3*%
%TO.N,GND*%
X167940000Y-88890000D03*
%TD*%
D12*
%TO.P,J7,1,Pin_1*%
%TO.N,GND*%
X125700000Y-92590000D03*
D13*
%TO.P,J7,2,Pin_2*%
%TO.N,VIN*%
X125700000Y-95130000D03*
%TD*%
D22*
%TO.P,C3,1*%
%TO.N,VDD_MCU*%
X159400000Y-106500000D03*
%TO.P,C3,2*%
%TO.N,GND*%
X154400000Y-106500000D03*
%TD*%
D12*
%TO.P,J6,1,Pin_1*%
%TO.N,Net-(J6-Pin_1)*%
X176400000Y-93940000D03*
D13*
%TO.P,J6,2,Pin_2*%
%TO.N,ADC_BATTERY*%
X176400000Y-91400000D03*
%TO.P,J6,3,Pin_3*%
%TO.N,Net-(J6-Pin_3)*%
X176400000Y-88860000D03*
%TD*%
D10*
%TO.P,R4,1*%
%TO.N,VDD_MCU*%
X170670000Y-97910000D03*
D11*
%TO.P,R4,2*%
%TO.N,RESET*%
X163050000Y-97910000D03*
%TD*%
D22*
%TO.P,C2,1*%
%TO.N,Net-(D1-K)*%
X144350000Y-99700000D03*
%TO.P,C2,2*%
%TO.N,GND*%
X146850000Y-99700000D03*
%TD*%
%TO.P,C1,1*%
%TO.N,VDD_MCU*%
X144350000Y-88700000D03*
%TO.P,C1,2*%
%TO.N,GND*%
X146850000Y-88700000D03*
%TD*%
D26*
%TO.N,ADC_BATTERY*%
X156100000Y-98400000D03*
%TO.N,MISO*%
X153650000Y-98350000D03*
%TD*%
D27*
%TO.N,VDD_MCU*%
X144450000Y-90600000D02*
X147900000Y-90600000D01*
X144450000Y-89000000D02*
X144150000Y-88700000D01*
X160900000Y-89500000D02*
X161510000Y-88890000D01*
X170950000Y-93940000D02*
X172400000Y-93940000D01*
X159100000Y-106800000D02*
X159100000Y-109450000D01*
X151860000Y-88900000D02*
X149600000Y-88900000D01*
X158700000Y-100900000D02*
X158700000Y-103220000D01*
X172400000Y-93940000D02*
X172400000Y-97700000D01*
X147900000Y-90600000D02*
X148800000Y-91500000D01*
X158700000Y-103220000D02*
X158700000Y-104500000D01*
X168710000Y-91700000D02*
X170950000Y-93940000D01*
X144450000Y-90600000D02*
X144450000Y-89000000D01*
X158150000Y-100350000D02*
X158700000Y-100900000D01*
X172190000Y-97910000D02*
X170670000Y-97910000D01*
X160900000Y-91700000D02*
X168710000Y-91700000D01*
X149600000Y-88900000D02*
X147900000Y-90600000D01*
X159100000Y-109450000D02*
X158900000Y-109650000D01*
X159400000Y-106500000D02*
X159100000Y-106800000D01*
X149800000Y-100100000D02*
X157900000Y-100100000D01*
X157900000Y-100100000D02*
X158150000Y-100350000D01*
X161510000Y-88890000D02*
X162860000Y-88890000D01*
X172400000Y-97700000D02*
X172190000Y-97910000D01*
X159400000Y-105200000D02*
X159400000Y-106500000D01*
X158150000Y-100350000D02*
X160900000Y-97600000D01*
X144450000Y-92490000D02*
X144450000Y-90600000D01*
X160900000Y-91700000D02*
X160900000Y-89500000D01*
X148800000Y-99100000D02*
X149800000Y-100100000D01*
X158700000Y-104500000D02*
X159400000Y-105200000D01*
X160900000Y-97600000D02*
X160900000Y-91700000D01*
X148800000Y-91500000D02*
X148800000Y-99100000D01*
%TO.N,GND*%
X145400000Y-95910000D02*
X145400000Y-94200000D01*
X128235000Y-92585000D02*
X128720000Y-92100000D01*
X147700006Y-94200000D02*
X145400000Y-94200000D01*
D28*
X125765000Y-92585000D02*
X128235000Y-92585000D01*
D27*
X146900000Y-99700000D02*
X147700006Y-98899994D01*
X146850000Y-99700000D02*
X146900000Y-99700000D01*
X145400000Y-94200000D02*
X143700000Y-94200000D01*
X147700006Y-98899994D02*
X147700006Y-94200000D01*
%TO.N,Net-(D1-K)*%
X144900000Y-101850000D02*
X144150000Y-101100000D01*
D29*
X146350000Y-95910000D02*
X146350000Y-97210000D01*
X146350000Y-97210000D02*
X145960000Y-97600000D01*
D27*
X144450000Y-99400000D02*
X144150000Y-99700000D01*
X144150000Y-101100000D02*
X144150000Y-99700000D01*
D29*
X145960000Y-97600000D02*
X144450000Y-97600000D01*
D27*
X144450000Y-97600000D02*
X144450000Y-99400000D01*
X144900000Y-103390000D02*
X144900000Y-101850000D01*
X144450000Y-95910000D02*
X144450000Y-97600000D01*
D29*
%TO.N,ADC_BATTERY*%
X154400000Y-91800000D02*
X154400000Y-91440000D01*
X155000000Y-92400000D02*
X154400000Y-91800000D01*
X156100000Y-98400000D02*
X155000000Y-97300000D01*
X155000000Y-97300000D02*
X155000000Y-92400000D01*
%TO.N,RESET*%
X156940000Y-91440000D02*
X158700000Y-93200000D01*
X158700000Y-93200000D02*
X158700000Y-95600000D01*
D27*
%TO.N,VIN*%
X128245000Y-95125000D02*
X128720000Y-95600000D01*
D28*
X128720000Y-95600000D02*
X130650000Y-95600000D01*
X125765000Y-95125000D02*
X128245000Y-95125000D01*
D30*
X166740000Y-110850000D02*
X166990000Y-111100000D01*
X158050000Y-110850000D02*
X156900000Y-112000000D01*
D28*
X130650000Y-95600000D02*
X134800000Y-91450000D01*
D30*
X162280000Y-110850000D02*
X166740000Y-110850000D01*
X145890000Y-112000000D02*
X144900000Y-111010000D01*
D28*
X134800000Y-91450000D02*
X139800000Y-91450000D01*
D30*
X162280000Y-110850000D02*
X158050000Y-110850000D01*
X156900000Y-112000000D02*
X145890000Y-112000000D01*
D29*
%TO.N,MOSI*%
X150850000Y-108350000D02*
X151710000Y-108350000D01*
X151080000Y-103220000D02*
X150400000Y-103900000D01*
X151710000Y-110290000D02*
X151300000Y-110700000D01*
X150400000Y-103900000D02*
X150400000Y-107900000D01*
X151710000Y-108350000D02*
X151710000Y-110290000D01*
X150400000Y-107900000D02*
X150850000Y-108350000D01*
X151300000Y-110700000D02*
X148290000Y-110700000D01*
D30*
%TO.N,Net-(C7-Pad1)*%
X162280000Y-108950000D02*
X162280000Y-106220000D01*
X162280000Y-106220000D02*
X162610000Y-105890000D01*
X162610000Y-105890000D02*
X163600000Y-105890000D01*
D28*
%TO.N,Net-(J4-Pin_1)*%
X128720000Y-105250000D02*
X140350012Y-105250000D01*
X142500012Y-107400000D02*
X149090000Y-107400000D01*
D29*
X125645000Y-105810000D02*
X125665000Y-105790000D01*
X119150000Y-84650000D02*
X122900000Y-84650000D01*
D27*
X128160000Y-105810000D02*
X128720000Y-105250000D01*
D28*
X140350012Y-105250000D02*
X142500012Y-107400000D01*
D29*
X122400000Y-103650000D02*
X122400000Y-84650000D01*
X124560000Y-105810000D02*
X125645000Y-105810000D01*
D28*
X125665000Y-105810000D02*
X128160000Y-105810000D01*
D29*
X124560000Y-105810000D02*
X122400000Y-103650000D01*
X122900000Y-84650000D02*
X125650000Y-84650000D01*
%TO.N,MISO*%
X152500000Y-92100000D02*
X152470000Y-92130000D01*
X152230000Y-91810000D02*
X152230000Y-91830000D01*
X152470000Y-92130000D02*
X152470000Y-97170000D01*
X152230000Y-91830000D02*
X152500000Y-92100000D01*
X152470000Y-97170000D02*
X153650000Y-98350000D01*
X151860000Y-91440000D02*
X152230000Y-91810000D01*
D30*
%TO.N,Net-(Q2-Pad3)*%
X164900000Y-109900000D02*
X164900000Y-108700000D01*
X165190000Y-108410000D02*
X170200000Y-108410000D01*
X164900000Y-108700000D02*
X165190000Y-108410000D01*
D28*
%TO.N,Net-(J4-Pin_2)*%
X134800000Y-108350000D02*
X139800000Y-108350000D01*
X129120000Y-108350000D02*
X134800000Y-108350000D01*
X125665000Y-108350000D02*
X128320000Y-108350000D01*
D27*
X128320000Y-108350000D02*
X128720000Y-108750000D01*
X128720000Y-108750000D02*
X129120000Y-108350000D01*
D29*
%TO.N,Net-(D2-K)*%
X127400000Y-87650000D02*
X124090000Y-87650000D01*
X132650000Y-82400000D02*
X127400000Y-87650000D01*
%TO.N,Net-(D2-A)*%
X127860000Y-80150000D02*
X130110000Y-82400000D01*
X119150000Y-80150000D02*
X127860000Y-80150000D01*
%TO.N,Net-(J6-Pin_1)*%
X176400000Y-99780000D02*
X176400000Y-93940000D01*
X175400000Y-100780000D02*
X176400000Y-99780000D01*
%TO.N,Net-(J6-Pin_3)*%
X174930000Y-88860000D02*
X176400000Y-88860000D01*
X174300000Y-99290000D02*
X174300000Y-89490000D01*
X174300000Y-89490000D02*
X174930000Y-88860000D01*
X172800000Y-100790000D02*
X174300000Y-99290000D01*
%TD*%
%TA.AperFunction,Conductor*%
%TO.N,GND*%
G36*
X157497865Y-103763348D02*
G01*
X157542381Y-103814724D01*
X157553722Y-103839044D01*
X157569429Y-103872728D01*
X157569432Y-103872734D01*
X157699954Y-104059141D01*
X157863181Y-104222368D01*
X157896666Y-104283691D01*
X157899500Y-104310049D01*
X157899500Y-104590191D01*
X157899501Y-104590200D01*
X157908791Y-104630908D01*
X157909955Y-104637763D01*
X157914632Y-104679259D01*
X157928420Y-104718662D01*
X157930345Y-104725345D01*
X157939639Y-104766061D01*
X157957759Y-104803688D01*
X157960421Y-104810114D01*
X157974212Y-104849525D01*
X157996422Y-104884872D01*
X157999787Y-104890959D01*
X158017910Y-104928589D01*
X158043940Y-104961229D01*
X158047966Y-104966904D01*
X158070182Y-105002259D01*
X158070184Y-105002262D01*
X158476686Y-105408764D01*
X158510171Y-105470087D01*
X158505187Y-105539779D01*
X158476687Y-105584126D01*
X158399951Y-105660862D01*
X158269432Y-105847265D01*
X158269431Y-105847267D01*
X158173261Y-106053502D01*
X158173258Y-106053511D01*
X158114366Y-106273302D01*
X158114364Y-106273313D01*
X158094532Y-106499998D01*
X158094532Y-106500001D01*
X158114364Y-106726686D01*
X158114366Y-106726697D01*
X158173258Y-106946488D01*
X158173260Y-106946492D01*
X158173261Y-106946496D01*
X158197066Y-106997546D01*
X158269431Y-107152733D01*
X158277073Y-107163646D01*
X158299402Y-107229852D01*
X158299500Y-107234772D01*
X158299500Y-108418306D01*
X158279815Y-108485345D01*
X158246623Y-108519881D01*
X158060859Y-108649953D01*
X157899954Y-108810858D01*
X157769432Y-108997265D01*
X157769431Y-108997267D01*
X157673261Y-109203502D01*
X157673258Y-109203511D01*
X157614366Y-109423302D01*
X157614364Y-109423313D01*
X157594532Y-109649998D01*
X157594532Y-109650001D01*
X157614364Y-109876686D01*
X157614366Y-109876697D01*
X157673258Y-110096488D01*
X157673263Y-110096502D01*
X157716977Y-110190247D01*
X157727469Y-110259324D01*
X157698949Y-110323108D01*
X157667724Y-110349378D01*
X157663581Y-110351828D01*
X157663580Y-110351828D01*
X157649414Y-110365995D01*
X157634624Y-110378627D01*
X157618414Y-110390404D01*
X157618411Y-110390407D01*
X157588710Y-110426309D01*
X157584777Y-110430631D01*
X157060117Y-110955290D01*
X156998794Y-110988775D01*
X156929102Y-110983791D01*
X156883964Y-110950000D01*
X156155581Y-110950000D01*
X156207060Y-110894079D01*
X156253982Y-110787108D01*
X156263628Y-110670698D01*
X156234953Y-110557462D01*
X156171064Y-110459673D01*
X156078885Y-110387928D01*
X155968405Y-110350000D01*
X155880995Y-110350000D01*
X155794784Y-110364386D01*
X155692053Y-110419981D01*
X155612940Y-110505921D01*
X155566018Y-110612892D01*
X155556372Y-110729302D01*
X155585047Y-110842538D01*
X155648936Y-110940327D01*
X155661364Y-110950000D01*
X154940840Y-110950000D01*
X154981651Y-111084536D01*
X155039116Y-111192047D01*
X155053357Y-111260450D01*
X155028357Y-111325694D01*
X154972051Y-111367064D01*
X154929757Y-111374500D01*
X151849760Y-111374500D01*
X151782721Y-111354815D01*
X151736966Y-111302011D01*
X151727022Y-111232853D01*
X151754214Y-111171462D01*
X151779809Y-111140522D01*
X151783713Y-111136231D01*
X152109513Y-110810431D01*
X152122079Y-110800365D01*
X152121925Y-110800178D01*
X152127937Y-110795204D01*
X152127937Y-110795203D01*
X152127940Y-110795202D01*
X152177190Y-110742755D01*
X152198912Y-110721034D01*
X152203402Y-110715244D01*
X152207184Y-110710814D01*
X152240448Y-110675393D01*
X152250674Y-110656789D01*
X152261347Y-110640541D01*
X152274363Y-110623763D01*
X152293651Y-110579187D01*
X152296224Y-110573936D01*
X152296561Y-110573321D01*
X152319627Y-110531368D01*
X152324904Y-110510808D01*
X152331206Y-110492403D01*
X152339636Y-110472926D01*
X152343267Y-110449999D01*
X154940839Y-110449999D01*
X154940840Y-110450000D01*
X155660000Y-110450000D01*
X155660000Y-109730839D01*
X156160000Y-109730839D01*
X156160000Y-110450000D01*
X156879160Y-110450000D01*
X156879160Y-110449999D01*
X156838347Y-110315458D01*
X156745496Y-110141746D01*
X156745492Y-110141739D01*
X156620528Y-109989471D01*
X156468260Y-109864507D01*
X156468253Y-109864503D01*
X156294541Y-109771652D01*
X156160000Y-109730839D01*
X155660000Y-109730839D01*
X155659999Y-109730839D01*
X155525458Y-109771652D01*
X155351746Y-109864503D01*
X155351739Y-109864507D01*
X155199471Y-109989471D01*
X155074507Y-110141739D01*
X155074503Y-110141746D01*
X154981652Y-110315458D01*
X154940839Y-110449999D01*
X152343267Y-110449999D01*
X152347235Y-110424945D01*
X152348417Y-110419234D01*
X152360500Y-110372177D01*
X152360500Y-110350954D01*
X152362027Y-110331555D01*
X152365347Y-110310595D01*
X152360775Y-110262227D01*
X152360500Y-110256389D01*
X152360500Y-109280169D01*
X152380185Y-109213130D01*
X152432989Y-109167375D01*
X152441162Y-109163989D01*
X152562331Y-109118796D01*
X152677546Y-109032546D01*
X152763796Y-108917331D01*
X152814091Y-108782483D01*
X152820500Y-108722873D01*
X152820499Y-107977128D01*
X152814091Y-107917517D01*
X152801926Y-107884902D01*
X152763797Y-107782671D01*
X152763793Y-107782664D01*
X152677547Y-107667455D01*
X152677544Y-107667452D01*
X152562335Y-107581206D01*
X152562328Y-107581202D01*
X152427482Y-107530908D01*
X152427483Y-107530908D01*
X152367883Y-107524501D01*
X152367881Y-107524500D01*
X152367873Y-107524500D01*
X152367865Y-107524500D01*
X151174500Y-107524500D01*
X151107461Y-107504815D01*
X151061706Y-107452011D01*
X151050500Y-107400500D01*
X151050500Y-107198999D01*
X151070185Y-107131960D01*
X151122989Y-107086205D01*
X151174500Y-107074999D01*
X151459999Y-107074999D01*
X151460000Y-107074998D01*
X151460000Y-106700000D01*
X151960000Y-106700000D01*
X151960000Y-107074999D01*
X152364786Y-107074999D01*
X152364808Y-107074997D01*
X152389869Y-107072091D01*
X152389873Y-107072090D01*
X152492474Y-107026788D01*
X152492479Y-107026785D01*
X152571785Y-106947479D01*
X152571788Y-106947474D01*
X152617089Y-106844877D01*
X152617089Y-106844875D01*
X152619999Y-106819794D01*
X152620000Y-106819791D01*
X152620000Y-106700000D01*
X151960000Y-106700000D01*
X151460000Y-106700000D01*
X151460000Y-106500000D01*
X153295287Y-106500000D01*
X153314096Y-106702989D01*
X153314097Y-106702992D01*
X153369883Y-106899063D01*
X153369886Y-106899069D01*
X153460754Y-107081556D01*
X153460755Y-107081557D01*
X153462533Y-107083912D01*
X154002046Y-106544400D01*
X154014835Y-106625148D01*
X154072359Y-106738045D01*
X154161955Y-106827641D01*
X154274852Y-106885165D01*
X154355599Y-106897953D01*
X153819310Y-107434240D01*
X153819311Y-107434241D01*
X153907581Y-107488895D01*
X153907588Y-107488899D01*
X154097678Y-107562539D01*
X154298072Y-107600000D01*
X154501928Y-107600000D01*
X154702321Y-107562539D01*
X154892414Y-107488897D01*
X154980688Y-107434240D01*
X154444401Y-106897953D01*
X154525148Y-106885165D01*
X154638045Y-106827641D01*
X154727641Y-106738045D01*
X154785165Y-106625148D01*
X154797953Y-106544400D01*
X155337465Y-107083912D01*
X155339247Y-107081552D01*
X155339249Y-107081550D01*
X155430113Y-106899069D01*
X155430116Y-106899063D01*
X155485902Y-106702992D01*
X155485903Y-106702989D01*
X155504713Y-106500000D01*
X155504713Y-106499999D01*
X155485903Y-106297010D01*
X155485902Y-106297007D01*
X155430116Y-106100936D01*
X155430113Y-106100930D01*
X155339244Y-105918441D01*
X155337466Y-105916086D01*
X155337465Y-105916085D01*
X154797953Y-106455598D01*
X154785165Y-106374852D01*
X154727641Y-106261955D01*
X154638045Y-106172359D01*
X154525148Y-106114835D01*
X154444399Y-106102045D01*
X154980688Y-105565758D01*
X154980687Y-105565757D01*
X154892418Y-105511104D01*
X154892411Y-105511100D01*
X154702321Y-105437460D01*
X154501928Y-105400000D01*
X154298072Y-105400000D01*
X154097678Y-105437460D01*
X153907588Y-105511100D01*
X153907584Y-105511102D01*
X153819310Y-105565758D01*
X154355598Y-106102046D01*
X154274852Y-106114835D01*
X154161955Y-106172359D01*
X154072359Y-106261955D01*
X154014835Y-106374852D01*
X154002046Y-106455598D01*
X153462533Y-105916085D01*
X153460754Y-105918443D01*
X153369886Y-106100930D01*
X153369883Y-106100936D01*
X153314097Y-106297007D01*
X153314096Y-106297010D01*
X153295287Y-106499999D01*
X153295287Y-106500000D01*
X151460000Y-106500000D01*
X151460000Y-105825000D01*
X151960000Y-105825000D01*
X151960000Y-106200000D01*
X152619999Y-106200000D01*
X152619999Y-106080214D01*
X152619997Y-106080191D01*
X152617091Y-106055130D01*
X152617090Y-106055126D01*
X152571788Y-105952525D01*
X152571785Y-105952520D01*
X152492479Y-105873214D01*
X152492474Y-105873211D01*
X152389876Y-105827910D01*
X152364794Y-105825000D01*
X151960000Y-105825000D01*
X151460000Y-105825000D01*
X151174500Y-105825000D01*
X151107461Y-105805315D01*
X151061706Y-105752511D01*
X151050500Y-105701000D01*
X151050500Y-104641673D01*
X151070185Y-104574634D01*
X151122989Y-104528879D01*
X151163688Y-104518146D01*
X151306692Y-104505635D01*
X151526496Y-104446739D01*
X151732734Y-104350568D01*
X151919139Y-104220047D01*
X152080047Y-104059139D01*
X152210568Y-103872734D01*
X152237618Y-103814724D01*
X152283790Y-103762285D01*
X152350983Y-103743133D01*
X152417865Y-103763348D01*
X152462381Y-103814724D01*
X152473722Y-103839044D01*
X152489429Y-103872728D01*
X152489432Y-103872734D01*
X152619954Y-104059141D01*
X152780858Y-104220045D01*
X152780861Y-104220047D01*
X152967266Y-104350568D01*
X153173504Y-104446739D01*
X153173509Y-104446740D01*
X153173511Y-104446741D01*
X153226415Y-104460916D01*
X153393308Y-104505635D01*
X153536298Y-104518145D01*
X153619998Y-104525468D01*
X153620000Y-104525468D01*
X153620002Y-104525468D01*
X153676673Y-104520509D01*
X153846692Y-104505635D01*
X154066496Y-104446739D01*
X154272734Y-104350568D01*
X154459139Y-104220047D01*
X154620047Y-104059139D01*
X154750568Y-103872734D01*
X154777618Y-103814724D01*
X154823790Y-103762285D01*
X154890983Y-103743133D01*
X154957865Y-103763348D01*
X155002381Y-103814724D01*
X155013722Y-103839044D01*
X155029429Y-103872728D01*
X155029432Y-103872734D01*
X155159954Y-104059141D01*
X155320858Y-104220045D01*
X155320861Y-104220047D01*
X155507266Y-104350568D01*
X155713504Y-104446739D01*
X155713509Y-104446740D01*
X155713511Y-104446741D01*
X155766415Y-104460916D01*
X155933308Y-104505635D01*
X156076298Y-104518145D01*
X156159998Y-104525468D01*
X156160000Y-104525468D01*
X156160002Y-104525468D01*
X156216672Y-104520509D01*
X156386692Y-104505635D01*
X156606496Y-104446739D01*
X156812734Y-104350568D01*
X156999139Y-104220047D01*
X157160047Y-104059139D01*
X157290568Y-103872734D01*
X157317618Y-103814724D01*
X157363790Y-103762285D01*
X157430983Y-103743133D01*
X157497865Y-103763348D01*
G37*
%TD.AperFunction*%
%TA.AperFunction,Conductor*%
G36*
X150856293Y-89720185D02*
G01*
X150876935Y-89736819D01*
X150993436Y-89853320D01*
X151026921Y-89914643D01*
X151021937Y-89984335D01*
X150980065Y-90040268D01*
X150949089Y-90057183D01*
X150817675Y-90106197D01*
X150817670Y-90106200D01*
X150702461Y-90192446D01*
X150702458Y-90192449D01*
X150616212Y-90307658D01*
X150616208Y-90307665D01*
X150565914Y-90442511D01*
X150559507Y-90502110D01*
X150559506Y-90502129D01*
X150559506Y-92297864D01*
X150559507Y-92297870D01*
X150565914Y-92357477D01*
X150616208Y-92492322D01*
X150616212Y-92492329D01*
X150702458Y-92607538D01*
X150702461Y-92607541D01*
X150817670Y-92693787D01*
X150817677Y-92693791D01*
X150952523Y-92744085D01*
X150952522Y-92744085D01*
X150959450Y-92744829D01*
X151012133Y-92750494D01*
X151695500Y-92750493D01*
X151762539Y-92770177D01*
X151808294Y-92822981D01*
X151819500Y-92874493D01*
X151819500Y-94541468D01*
X151799815Y-94608507D01*
X151747011Y-94654262D01*
X151677853Y-94664206D01*
X151630222Y-94646895D01*
X151572413Y-94611101D01*
X151382315Y-94537458D01*
X151382309Y-94537456D01*
X151330001Y-94527677D01*
X151330000Y-94527679D01*
X151330000Y-95284314D01*
X151318045Y-95272359D01*
X151205148Y-95214835D01*
X151111481Y-95200000D01*
X151048519Y-95200000D01*
X150954852Y-95214835D01*
X150841955Y-95272359D01*
X150830000Y-95284314D01*
X150830000Y-94527679D01*
X150829998Y-94527677D01*
X150777690Y-94537456D01*
X150777684Y-94537458D01*
X150587586Y-94611101D01*
X150414260Y-94718421D01*
X150263608Y-94855757D01*
X150140754Y-95018443D01*
X150049890Y-95200921D01*
X150049885Y-95200934D01*
X150007471Y-95349999D01*
X150007472Y-95350000D01*
X150764314Y-95350000D01*
X150752359Y-95361955D01*
X150694835Y-95474852D01*
X150675014Y-95600000D01*
X150694835Y-95725148D01*
X150752359Y-95838045D01*
X150764314Y-95850000D01*
X150007472Y-95850000D01*
X150049885Y-95999065D01*
X150049890Y-95999078D01*
X150140754Y-96181556D01*
X150263608Y-96344242D01*
X150414260Y-96481578D01*
X150587584Y-96588897D01*
X150777678Y-96662539D01*
X150830000Y-96672320D01*
X150830000Y-95915686D01*
X150841955Y-95927641D01*
X150954852Y-95985165D01*
X151048519Y-96000000D01*
X151111481Y-96000000D01*
X151205148Y-95985165D01*
X151318045Y-95927641D01*
X151330000Y-95915686D01*
X151330000Y-96672320D01*
X151382321Y-96662539D01*
X151572417Y-96588896D01*
X151630219Y-96553106D01*
X151697579Y-96534548D01*
X151764279Y-96555355D01*
X151809142Y-96608919D01*
X151819499Y-96658531D01*
X151819500Y-97084494D01*
X151817732Y-97100505D01*
X151817974Y-97100528D01*
X151817240Y-97108294D01*
X151819500Y-97180203D01*
X151819500Y-97210920D01*
X151819501Y-97210940D01*
X151820418Y-97218206D01*
X151820876Y-97224024D01*
X151822402Y-97272567D01*
X151822403Y-97272570D01*
X151828323Y-97292948D01*
X151832268Y-97311996D01*
X151834928Y-97333054D01*
X151834931Y-97333064D01*
X151852813Y-97378230D01*
X151854705Y-97383758D01*
X151868254Y-97430395D01*
X151868255Y-97430397D01*
X151879060Y-97448666D01*
X151887617Y-97466134D01*
X151892295Y-97477948D01*
X151895432Y-97485872D01*
X151923983Y-97525170D01*
X151927188Y-97530049D01*
X151951919Y-97571865D01*
X151951923Y-97571869D01*
X151966925Y-97586871D01*
X151979563Y-97601669D01*
X151992033Y-97618833D01*
X151992036Y-97618836D01*
X151992037Y-97618837D01*
X152029476Y-97649809D01*
X152033776Y-97653722D01*
X152383738Y-98003684D01*
X152715191Y-98335137D01*
X152748676Y-98396460D01*
X152750830Y-98409851D01*
X152764326Y-98538256D01*
X152764327Y-98538259D01*
X152822818Y-98718277D01*
X152822821Y-98718284D01*
X152917467Y-98882216D01*
X153044129Y-99022888D01*
X153112951Y-99072890D01*
X153116106Y-99075182D01*
X153158771Y-99130512D01*
X153164750Y-99200125D01*
X153132144Y-99261920D01*
X153071305Y-99296278D01*
X153043220Y-99299500D01*
X150182940Y-99299500D01*
X150115901Y-99279815D01*
X150095259Y-99263181D01*
X149636819Y-98804741D01*
X149603334Y-98743418D01*
X149600500Y-98717060D01*
X149600500Y-91409807D01*
X149600500Y-91409806D01*
X149591207Y-91369093D01*
X149590042Y-91362233D01*
X149589073Y-91353632D01*
X149585368Y-91320745D01*
X149581713Y-91310299D01*
X149571576Y-91281328D01*
X149569650Y-91274641D01*
X149560361Y-91233941D01*
X149542244Y-91196320D01*
X149539581Y-91189891D01*
X149525789Y-91150477D01*
X149509296Y-91124230D01*
X149503567Y-91115112D01*
X149500206Y-91109030D01*
X149496904Y-91102174D01*
X149482091Y-91071413D01*
X149482091Y-91071412D01*
X149482090Y-91071411D01*
X149456055Y-91038765D01*
X149452028Y-91033089D01*
X149429816Y-90997738D01*
X149302262Y-90870184D01*
X149236272Y-90804194D01*
X149119759Y-90687680D01*
X149086274Y-90626357D01*
X149091258Y-90556665D01*
X149119757Y-90512320D01*
X149895258Y-89736819D01*
X149956582Y-89703334D01*
X149982940Y-89700500D01*
X150789254Y-89700500D01*
X150856293Y-89720185D01*
G37*
%TD.AperFunction*%
%TA.AperFunction,Conductor*%
G36*
X146464835Y-88825148D02*
G01*
X146522359Y-88938045D01*
X146611955Y-89027641D01*
X146724852Y-89085165D01*
X146805599Y-89097953D01*
X146269311Y-89634240D01*
X146272440Y-89661209D01*
X146260612Y-89730071D01*
X146213433Y-89781606D01*
X146149266Y-89799500D01*
X145389048Y-89799500D01*
X145322009Y-89779815D01*
X145276254Y-89727011D01*
X145266310Y-89657853D01*
X145295335Y-89594297D01*
X145301367Y-89587819D01*
X145321356Y-89567830D01*
X145350047Y-89539139D01*
X145480568Y-89352734D01*
X145576739Y-89146496D01*
X145576740Y-89146488D01*
X145576743Y-89146483D01*
X145585406Y-89114151D01*
X145621769Y-89054490D01*
X145684616Y-89023959D01*
X145753992Y-89032253D01*
X145807870Y-89076737D01*
X145816968Y-89094115D01*
X145817330Y-89093936D01*
X145910754Y-89281556D01*
X145910755Y-89281557D01*
X145912533Y-89283912D01*
X146452046Y-88744400D01*
X146464835Y-88825148D01*
G37*
%TD.AperFunction*%
%TA.AperFunction,Conductor*%
G36*
X182142539Y-48620185D02*
G01*
X182188294Y-48672989D01*
X182199500Y-48724500D01*
X182199500Y-48742313D01*
X182237888Y-49425862D01*
X182314541Y-50106183D01*
X182429220Y-50781136D01*
X182581564Y-51448597D01*
X182771093Y-52106466D01*
X182771095Y-52106471D01*
X182771094Y-52106470D01*
X182997213Y-52752682D01*
X183127931Y-53068261D01*
X183244398Y-53349436D01*
X183259211Y-53385196D01*
X183556249Y-54002003D01*
X183556254Y-54002012D01*
X183887420Y-54601213D01*
X183935488Y-54677712D01*
X184251666Y-55180907D01*
X184647832Y-55739249D01*
X184647832Y-55739250D01*
X184647837Y-55739256D01*
X185074694Y-56274518D01*
X185530892Y-56785004D01*
X186014996Y-57269108D01*
X186015005Y-57269116D01*
X186525477Y-57725302D01*
X187060750Y-58152168D01*
X187060751Y-58152168D01*
X187619093Y-58548334D01*
X187619098Y-58548337D01*
X188198787Y-58912580D01*
X188778968Y-59233234D01*
X188797997Y-59243751D01*
X189414804Y-59540789D01*
X189414808Y-59540790D01*
X189414815Y-59540794D01*
X189654315Y-59639998D01*
X190047318Y-59802787D01*
X190693530Y-60028906D01*
X190693529Y-60028905D01*
X190693534Y-60028907D01*
X191351403Y-60218436D01*
X192018864Y-60370780D01*
X192018866Y-60370780D01*
X192018869Y-60370781D01*
X192018870Y-60370781D01*
X192693817Y-60485459D01*
X192693823Y-60485459D01*
X192693831Y-60485461D01*
X193078917Y-60528848D01*
X193374138Y-60562112D01*
X194057687Y-60600500D01*
X194075500Y-60600500D01*
X194142539Y-60620185D01*
X194188294Y-60672989D01*
X194199500Y-60724500D01*
X194199500Y-121775500D01*
X194179815Y-121842539D01*
X194127011Y-121888294D01*
X194075500Y-121899500D01*
X194057687Y-121899500D01*
X193374138Y-121937888D01*
X193078917Y-121971151D01*
X192693831Y-122014539D01*
X192693823Y-122014540D01*
X192693817Y-122014541D01*
X192018870Y-122129219D01*
X192018869Y-122129219D01*
X192018866Y-122129219D01*
X192018864Y-122129220D01*
X191351403Y-122281564D01*
X190693534Y-122471093D01*
X190693529Y-122471094D01*
X190693530Y-122471094D01*
X190047318Y-122697213D01*
X189654315Y-122860001D01*
X189414815Y-122959206D01*
X189414808Y-122959209D01*
X189414804Y-122959211D01*
X188797997Y-123256249D01*
X188797987Y-123256254D01*
X188797988Y-123256254D01*
X188198787Y-123587420D01*
X187684462Y-123910591D01*
X187619093Y-123951666D01*
X187060751Y-124347832D01*
X187060750Y-124347832D01*
X186525477Y-124774698D01*
X186057835Y-125192608D01*
X186014996Y-125230892D01*
X185530892Y-125714996D01*
X185530883Y-125715005D01*
X185530884Y-125715005D01*
X185074698Y-126225477D01*
X184647832Y-126760750D01*
X184647832Y-126760751D01*
X184251666Y-127319093D01*
X184251663Y-127319098D01*
X183887420Y-127898787D01*
X183698592Y-128240446D01*
X183556249Y-128497997D01*
X183369236Y-128886335D01*
X183259206Y-129114815D01*
X183244395Y-129150572D01*
X182997213Y-129747318D01*
X182771094Y-130393530D01*
X182771093Y-130393534D01*
X182581564Y-131051403D01*
X182429220Y-131718864D01*
X182314541Y-132393817D01*
X182237888Y-133074138D01*
X182199500Y-133757687D01*
X182199500Y-133757695D01*
X182199500Y-133775500D01*
X182179815Y-133842539D01*
X182127011Y-133888294D01*
X182075500Y-133899500D01*
X121024500Y-133899500D01*
X120957461Y-133879815D01*
X120911706Y-133827011D01*
X120900500Y-133775500D01*
X120900500Y-133757695D01*
X120900500Y-133757687D01*
X120862112Y-133074138D01*
X120785459Y-132393817D01*
X120670780Y-131718864D01*
X120518436Y-131051403D01*
X120328907Y-130393534D01*
X120328906Y-130393530D01*
X120252570Y-130175373D01*
X149195723Y-130175373D01*
X149225881Y-130475160D01*
X149225882Y-130475162D01*
X149295728Y-130768252D01*
X149295733Y-130768266D01*
X149404020Y-131049427D01*
X149404024Y-131049436D01*
X149548825Y-131313665D01*
X149548829Y-131313671D01*
X149667229Y-131474364D01*
X149727554Y-131556238D01*
X149727561Y-131556245D01*
X149937019Y-131772823D01*
X150173478Y-131959553D01*
X150173480Y-131959554D01*
X150173485Y-131959558D01*
X150432730Y-132113109D01*
X150710128Y-132230736D01*
X151000729Y-132310340D01*
X151299347Y-132350500D01*
X151299351Y-132350500D01*
X151525252Y-132350500D01*
X151689164Y-132339526D01*
X151750634Y-132335412D01*
X152045903Y-132275396D01*
X152330537Y-132176560D01*
X152599459Y-132040668D01*
X152847869Y-131870144D01*
X153071333Y-131668032D01*
X153265865Y-131437939D01*
X153427993Y-131183970D01*
X153554823Y-130910658D01*
X153644093Y-130622879D01*
X153694209Y-130325770D01*
X153704277Y-130024631D01*
X153674118Y-129724838D01*
X153604269Y-129431739D01*
X153495977Y-129150566D01*
X153351175Y-128886335D01*
X153172446Y-128643762D01*
X152962980Y-128427176D01*
X152839742Y-128329856D01*
X152726521Y-128240446D01*
X152726517Y-128240443D01*
X152726515Y-128240442D01*
X152467270Y-128086891D01*
X152189872Y-127969264D01*
X152189863Y-127969261D01*
X151899272Y-127889660D01*
X151824616Y-127879620D01*
X151600653Y-127849500D01*
X151374756Y-127849500D01*
X151374748Y-127849500D01*
X151149368Y-127864587D01*
X151149359Y-127864589D01*
X150854094Y-127924604D01*
X150569464Y-128023439D01*
X150569459Y-128023441D01*
X150300546Y-128159328D01*
X150052125Y-128329860D01*
X149828665Y-128531969D01*
X149634132Y-128762064D01*
X149472006Y-129016030D01*
X149472005Y-129016032D01*
X149345181Y-129289333D01*
X149345177Y-129289342D01*
X149345176Y-129289346D01*
X149255907Y-129577118D01*
X149205791Y-129874230D01*
X149195723Y-130175373D01*
X120252570Y-130175373D01*
X120102787Y-129747318D01*
X119855605Y-129150572D01*
X119840794Y-129114815D01*
X119730764Y-128886335D01*
X119543751Y-128497997D01*
X119401408Y-128240446D01*
X119212580Y-127898787D01*
X118848337Y-127319098D01*
X118848334Y-127319093D01*
X118452168Y-126760751D01*
X118452168Y-126760750D01*
X118025302Y-126225477D01*
X117569116Y-125715005D01*
X117569108Y-125714996D01*
X117085004Y-125230892D01*
X117042164Y-125192608D01*
X116574523Y-124774698D01*
X116039250Y-124347832D01*
X116039249Y-124347832D01*
X115480907Y-123951666D01*
X115415537Y-123910591D01*
X114901213Y-123587420D01*
X114302012Y-123256254D01*
X114302003Y-123256249D01*
X113685196Y-122959211D01*
X113685191Y-122959209D01*
X113685185Y-122959206D01*
X113445684Y-122860001D01*
X113052682Y-122697213D01*
X112406470Y-122471094D01*
X112406466Y-122471093D01*
X111748597Y-122281564D01*
X111081136Y-122129220D01*
X111081133Y-122129219D01*
X111081131Y-122129219D01*
X111081130Y-122129219D01*
X110406183Y-122014541D01*
X110406176Y-122014540D01*
X110406169Y-122014539D01*
X110021082Y-121971151D01*
X109725862Y-121937888D01*
X109042313Y-121899500D01*
X109042305Y-121899500D01*
X109024500Y-121899500D01*
X108957461Y-121879815D01*
X108911706Y-121827011D01*
X108900500Y-121775500D01*
X108900500Y-91425373D01*
X110445723Y-91425373D01*
X110475881Y-91725160D01*
X110475882Y-91725162D01*
X110545728Y-92018252D01*
X110545733Y-92018266D01*
X110654020Y-92299427D01*
X110654024Y-92299436D01*
X110798825Y-92563665D01*
X110798829Y-92563671D01*
X110955441Y-92776226D01*
X110977554Y-92806238D01*
X111187020Y-93022824D01*
X111228334Y-93055449D01*
X111423478Y-93209553D01*
X111423480Y-93209554D01*
X111423485Y-93209558D01*
X111682730Y-93363109D01*
X111960128Y-93480736D01*
X112250729Y-93560340D01*
X112549347Y-93600500D01*
X112549351Y-93600500D01*
X112775252Y-93600500D01*
X112939164Y-93589526D01*
X113000634Y-93585412D01*
X113295903Y-93525396D01*
X113580537Y-93426560D01*
X113849459Y-93290668D01*
X114097869Y-93120144D01*
X114321333Y-92918032D01*
X114515865Y-92687939D01*
X114677993Y-92433970D01*
X114804823Y-92160658D01*
X114894093Y-91872879D01*
X114944209Y-91575770D01*
X114954277Y-91274631D01*
X114924118Y-90974838D01*
X114854269Y-90681739D01*
X114745977Y-90400566D01*
X114601175Y-90136335D01*
X114598710Y-90132990D01*
X114510537Y-90013320D01*
X114422446Y-89893762D01*
X114212980Y-89677176D01*
X114149706Y-89627209D01*
X113976521Y-89490446D01*
X113976517Y-89490443D01*
X113976515Y-89490442D01*
X113717270Y-89336891D01*
X113439872Y-89219264D01*
X113439863Y-89219261D01*
X113149272Y-89139660D01*
X113043297Y-89125408D01*
X112850653Y-89099500D01*
X112624756Y-89099500D01*
X112624748Y-89099500D01*
X112399368Y-89114587D01*
X112399359Y-89114589D01*
X112104094Y-89174604D01*
X111819464Y-89273439D01*
X111819459Y-89273441D01*
X111550546Y-89409328D01*
X111302125Y-89579860D01*
X111078665Y-89781969D01*
X110884132Y-90012064D01*
X110722006Y-90266030D01*
X110722005Y-90266032D01*
X110610055Y-90507280D01*
X110595177Y-90539342D01*
X110588550Y-90560705D01*
X110505907Y-90827118D01*
X110468655Y-91047966D01*
X110455791Y-91124230D01*
X110446244Y-91409804D01*
X110445723Y-91425373D01*
X108900500Y-91425373D01*
X108900500Y-84650005D01*
X117644357Y-84650005D01*
X117664890Y-84897812D01*
X117664892Y-84897824D01*
X117725936Y-85138881D01*
X117825826Y-85366606D01*
X117961833Y-85574782D01*
X117961836Y-85574785D01*
X118130256Y-85757738D01*
X118326491Y-85910474D01*
X118545190Y-86028828D01*
X118780386Y-86109571D01*
X119025665Y-86150500D01*
X119274335Y-86150500D01*
X119519614Y-86109571D01*
X119754810Y-86028828D01*
X119973509Y-85910474D01*
X120169744Y-85757738D01*
X120338164Y-85574785D01*
X120474173Y-85366607D01*
X120474175Y-85366601D01*
X120474786Y-85365475D01*
X120475157Y-85365101D01*
X120476978Y-85362314D01*
X120477551Y-85362688D01*
X120524009Y-85315888D01*
X120583837Y-85300500D01*
X121625500Y-85300500D01*
X121692539Y-85320185D01*
X121738294Y-85372989D01*
X121749500Y-85424500D01*
X121749500Y-103564494D01*
X121747732Y-103580505D01*
X121747974Y-103580528D01*
X121747240Y-103588294D01*
X121747240Y-103588296D01*
X121748032Y-103613496D01*
X121749500Y-103660203D01*
X121749500Y-103690920D01*
X121749501Y-103690940D01*
X121750418Y-103698206D01*
X121750876Y-103704024D01*
X121752402Y-103752567D01*
X121752403Y-103752570D01*
X121758323Y-103772948D01*
X121762268Y-103791996D01*
X121764928Y-103813054D01*
X121764931Y-103813064D01*
X121782813Y-103858230D01*
X121784705Y-103863758D01*
X121798254Y-103910395D01*
X121798255Y-103910397D01*
X121809060Y-103928666D01*
X121817617Y-103946134D01*
X121823226Y-103960300D01*
X121825432Y-103965872D01*
X121853983Y-104005170D01*
X121857188Y-104010049D01*
X121881919Y-104051865D01*
X121881923Y-104051869D01*
X121896925Y-104066871D01*
X121909563Y-104081669D01*
X121922033Y-104098833D01*
X121922036Y-104098836D01*
X121922037Y-104098837D01*
X121959476Y-104129809D01*
X121963776Y-104133722D01*
X123067319Y-105237265D01*
X124039564Y-106209510D01*
X124049635Y-106222080D01*
X124049822Y-106221926D01*
X124054796Y-106227937D01*
X124054798Y-106227940D01*
X124074651Y-106246583D01*
X124107243Y-106277190D01*
X124128967Y-106298913D01*
X124134757Y-106303405D01*
X124139197Y-106307197D01*
X124168498Y-106334711D01*
X124174607Y-106340448D01*
X124174609Y-106340449D01*
X124193205Y-106350672D01*
X124209470Y-106361357D01*
X124226233Y-106374361D01*
X124227368Y-106374852D01*
X124239741Y-106380206D01*
X124293451Y-106424892D01*
X124314475Y-106491524D01*
X124314500Y-106494008D01*
X124314500Y-106687869D01*
X124314501Y-106687876D01*
X124320908Y-106747483D01*
X124371202Y-106882328D01*
X124371206Y-106882335D01*
X124457452Y-106997544D01*
X124457455Y-106997547D01*
X124572664Y-107083793D01*
X124572671Y-107083797D01*
X124704081Y-107132810D01*
X124760015Y-107174681D01*
X124784432Y-107240145D01*
X124769580Y-107308418D01*
X124748430Y-107336673D01*
X124626503Y-107458600D01*
X124490965Y-107652169D01*
X124490964Y-107652171D01*
X124391098Y-107866335D01*
X124391094Y-107866344D01*
X124329938Y-108094586D01*
X124329936Y-108094596D01*
X124309341Y-108329999D01*
X124309341Y-108330000D01*
X124329936Y-108565403D01*
X124329938Y-108565413D01*
X124391094Y-108793655D01*
X124391096Y-108793659D01*
X124391097Y-108793663D01*
X124456375Y-108933651D01*
X124490965Y-109007830D01*
X124490967Y-109007834D01*
X124544841Y-109084773D01*
X124626505Y-109201401D01*
X124793599Y-109368495D01*
X124871880Y-109423308D01*
X124987165Y-109504032D01*
X124987167Y-109504033D01*
X124987170Y-109504035D01*
X125201337Y-109603903D01*
X125201343Y-109603904D01*
X125201344Y-109603905D01*
X125256285Y-109618626D01*
X125429592Y-109665063D01*
X125617918Y-109681539D01*
X125664999Y-109685659D01*
X125665000Y-109685659D01*
X125665001Y-109685659D01*
X125704234Y-109682226D01*
X125900408Y-109665063D01*
X126128663Y-109603903D01*
X126342830Y-109504035D01*
X126458576Y-109422989D01*
X126530075Y-109372925D01*
X126596281Y-109350598D01*
X126601198Y-109350500D01*
X126979535Y-109350500D01*
X127046574Y-109370185D01*
X127092329Y-109422989D01*
X127094963Y-109429197D01*
X127140762Y-109545890D01*
X127140764Y-109545894D01*
X127154461Y-109569618D01*
X127275691Y-109779596D01*
X127371312Y-109899500D01*
X127443948Y-109990583D01*
X127606857Y-110141739D01*
X127641765Y-110174129D01*
X127864732Y-110326145D01*
X128107865Y-110443232D01*
X128365734Y-110522774D01*
X128365735Y-110522774D01*
X128365738Y-110522775D01*
X128632569Y-110562993D01*
X128632574Y-110562993D01*
X128632577Y-110562994D01*
X128632578Y-110562994D01*
X128902434Y-110562994D01*
X128902435Y-110562994D01*
X128964097Y-110553700D01*
X129169273Y-110522775D01*
X129169274Y-110522774D01*
X129169278Y-110522774D01*
X129427147Y-110443232D01*
X129659047Y-110331555D01*
X129670273Y-110326149D01*
X129670273Y-110326148D01*
X129670281Y-110326145D01*
X129893247Y-110174129D01*
X130091067Y-109990579D01*
X130259321Y-109779596D01*
X130394249Y-109545892D01*
X130440049Y-109429196D01*
X130482865Y-109373984D01*
X130548735Y-109350683D01*
X130555477Y-109350500D01*
X133492547Y-109350500D01*
X133559586Y-109370185D01*
X133586833Y-109393965D01*
X133649652Y-109467516D01*
X133664776Y-109485224D01*
X133856343Y-109648838D01*
X133856345Y-109648838D01*
X133858242Y-109650001D01*
X134071140Y-109780466D01*
X134199261Y-109833535D01*
X134303889Y-109876873D01*
X134548852Y-109935683D01*
X134800000Y-109955449D01*
X135051148Y-109935683D01*
X135296111Y-109876873D01*
X135528859Y-109780466D01*
X135743659Y-109648836D01*
X135935224Y-109485224D01*
X136013164Y-109393967D01*
X136071669Y-109355775D01*
X136107453Y-109350500D01*
X138492547Y-109350500D01*
X138559586Y-109370185D01*
X138586833Y-109393965D01*
X138649652Y-109467516D01*
X138664776Y-109485224D01*
X138856343Y-109648838D01*
X138856345Y-109648838D01*
X138858242Y-109650001D01*
X139071140Y-109780466D01*
X139199261Y-109833535D01*
X139303889Y-109876873D01*
X139548852Y-109935683D01*
X139800000Y-109955449D01*
X140051148Y-109935683D01*
X140296111Y-109876873D01*
X140528859Y-109780466D01*
X140743659Y-109648836D01*
X140935224Y-109485224D01*
X141098836Y-109293659D01*
X141230466Y-109078859D01*
X141326873Y-108846111D01*
X141385683Y-108601148D01*
X141405449Y-108350000D01*
X141385683Y-108098852D01*
X141362501Y-108002291D01*
X141365992Y-107932511D01*
X141406655Y-107875693D01*
X141471582Y-107849880D01*
X141540157Y-107863266D01*
X141570756Y-107885665D01*
X141687385Y-108002293D01*
X141783560Y-108098468D01*
X141844953Y-108163053D01*
X141844956Y-108163055D01*
X141844959Y-108163058D01*
X141871034Y-108181206D01*
X141895315Y-108198106D01*
X141899056Y-108200926D01*
X141946605Y-108239698D01*
X141977057Y-108255604D01*
X141983768Y-108259671D01*
X142011963Y-108279295D01*
X142068344Y-108303490D01*
X142072579Y-108305501D01*
X142126963Y-108333909D01*
X142159985Y-108343356D01*
X142167377Y-108345989D01*
X142198952Y-108359539D01*
X142198953Y-108359540D01*
X142212066Y-108362234D01*
X142259067Y-108371892D01*
X142263607Y-108373006D01*
X142322594Y-108389886D01*
X142356853Y-108392494D01*
X142364621Y-108393585D01*
X142398267Y-108400500D01*
X142398271Y-108400500D01*
X142459613Y-108400500D01*
X142464320Y-108400678D01*
X142500663Y-108403446D01*
X142525487Y-108405337D01*
X142525487Y-108405336D01*
X142525488Y-108405337D01*
X142559571Y-108400996D01*
X142567401Y-108400500D01*
X149140743Y-108400500D01*
X149292439Y-108385074D01*
X149486579Y-108324162D01*
X149486579Y-108324161D01*
X149486588Y-108324159D01*
X149636267Y-108241079D01*
X149696445Y-108225499D01*
X149747871Y-108225499D01*
X149747872Y-108225499D01*
X149752072Y-108225047D01*
X149820831Y-108237444D01*
X149871972Y-108285046D01*
X149881919Y-108301865D01*
X149881923Y-108301869D01*
X149896925Y-108316871D01*
X149909563Y-108331669D01*
X149922033Y-108348833D01*
X149922036Y-108348836D01*
X149922037Y-108348837D01*
X149959476Y-108379809D01*
X149963776Y-108383722D01*
X150150181Y-108570127D01*
X150329564Y-108749510D01*
X150339635Y-108762080D01*
X150339822Y-108761926D01*
X150344796Y-108767937D01*
X150344798Y-108767940D01*
X150360285Y-108782483D01*
X150397243Y-108817190D01*
X150418967Y-108838913D01*
X150424757Y-108843405D01*
X150429197Y-108847197D01*
X150458498Y-108874711D01*
X150464607Y-108880448D01*
X150464610Y-108880450D01*
X150464612Y-108880451D01*
X150483207Y-108890674D01*
X150499468Y-108901356D01*
X150516232Y-108914359D01*
X150516236Y-108914362D01*
X150560811Y-108933651D01*
X150566050Y-108936217D01*
X150608632Y-108959627D01*
X150629177Y-108964901D01*
X150629197Y-108964907D01*
X150647605Y-108971210D01*
X150667074Y-108979635D01*
X150667077Y-108979635D01*
X150672958Y-108981344D01*
X150731846Y-109018947D01*
X150737635Y-109026109D01*
X150742453Y-109032545D01*
X150742455Y-109032547D01*
X150857664Y-109118793D01*
X150857671Y-109118797D01*
X150890942Y-109131206D01*
X150978833Y-109163987D01*
X151034766Y-109205858D01*
X151059184Y-109271322D01*
X151059500Y-109280169D01*
X151059500Y-109925500D01*
X151039815Y-109992539D01*
X150987011Y-110038294D01*
X150935500Y-110049500D01*
X149364863Y-110049500D01*
X149297824Y-110029815D01*
X149265909Y-110000227D01*
X149220716Y-109940382D01*
X149180981Y-109887764D01*
X149180978Y-109887761D01*
X149180974Y-109887757D01*
X149016562Y-109737876D01*
X149016560Y-109737874D01*
X148827404Y-109620754D01*
X148827398Y-109620752D01*
X148619940Y-109540382D01*
X148401243Y-109499500D01*
X148178757Y-109499500D01*
X147960060Y-109540382D01*
X147828864Y-109591207D01*
X147752601Y-109620752D01*
X147752595Y-109620754D01*
X147563439Y-109737874D01*
X147563437Y-109737876D01*
X147399020Y-109887761D01*
X147264943Y-110065308D01*
X147264938Y-110065316D01*
X147165775Y-110264461D01*
X147165769Y-110264476D01*
X147104885Y-110478462D01*
X147104884Y-110478464D01*
X147084356Y-110699999D01*
X147084356Y-110700000D01*
X147104884Y-110921535D01*
X147104885Y-110921537D01*
X147165769Y-111135523D01*
X147165775Y-111135538D01*
X147195498Y-111195228D01*
X147207759Y-111264013D01*
X147180886Y-111328508D01*
X147123411Y-111368236D01*
X147084498Y-111374500D01*
X146409797Y-111374500D01*
X146342758Y-111354815D01*
X146297003Y-111302011D01*
X146286221Y-111240260D01*
X146305300Y-111010006D01*
X146305300Y-111009993D01*
X146286135Y-110778702D01*
X146286133Y-110778691D01*
X146229157Y-110553699D01*
X146135924Y-110341151D01*
X146008983Y-110146852D01*
X146008980Y-110146849D01*
X146008979Y-110146847D01*
X145851784Y-109976087D01*
X145851779Y-109976083D01*
X145851777Y-109976081D01*
X145668634Y-109833535D01*
X145668628Y-109833531D01*
X145464504Y-109723064D01*
X145464495Y-109723061D01*
X145244984Y-109647702D01*
X145073282Y-109619050D01*
X145016049Y-109609500D01*
X144783951Y-109609500D01*
X144738164Y-109617140D01*
X144555015Y-109647702D01*
X144335504Y-109723061D01*
X144335495Y-109723064D01*
X144131371Y-109833531D01*
X144131365Y-109833535D01*
X143948222Y-109976081D01*
X143948219Y-109976084D01*
X143791016Y-110146852D01*
X143664075Y-110341151D01*
X143570842Y-110553699D01*
X143513866Y-110778691D01*
X143513864Y-110778702D01*
X143494700Y-111009993D01*
X143494700Y-111010006D01*
X143513864Y-111241297D01*
X143513866Y-111241308D01*
X143570842Y-111466300D01*
X143664075Y-111678848D01*
X143791016Y-111873147D01*
X143791019Y-111873151D01*
X143791021Y-111873153D01*
X143948216Y-112043913D01*
X143948219Y-112043915D01*
X143948222Y-112043918D01*
X144131365Y-112186464D01*
X144131371Y-112186468D01*
X144131374Y-112186470D01*
X144335497Y-112296936D01*
X144449487Y-112336068D01*
X144555015Y-112372297D01*
X144555017Y-112372297D01*
X144555019Y-112372298D01*
X144783951Y-112410500D01*
X144783952Y-112410500D01*
X145016048Y-112410500D01*
X145016049Y-112410500D01*
X145244981Y-112372298D01*
X145268805Y-112364118D01*
X145338599Y-112360967D01*
X145399022Y-112396051D01*
X145404045Y-112401720D01*
X145427441Y-112423689D01*
X145454635Y-112449226D01*
X145475529Y-112470120D01*
X145481011Y-112474373D01*
X145485443Y-112478157D01*
X145519418Y-112510062D01*
X145536976Y-112519714D01*
X145553235Y-112530395D01*
X145569064Y-112542673D01*
X145611838Y-112561182D01*
X145617056Y-112563738D01*
X145657908Y-112586197D01*
X145677316Y-112591180D01*
X145695717Y-112597480D01*
X145714104Y-112605437D01*
X145757488Y-112612308D01*
X145760119Y-112612725D01*
X145765839Y-112613909D01*
X145810981Y-112625500D01*
X145831016Y-112625500D01*
X145850414Y-112627026D01*
X145870194Y-112630159D01*
X145870195Y-112630160D01*
X145870195Y-112630159D01*
X145870196Y-112630160D01*
X145916583Y-112625775D01*
X145922422Y-112625500D01*
X156817257Y-112625500D01*
X156832877Y-112627224D01*
X156832904Y-112626939D01*
X156840660Y-112627671D01*
X156840667Y-112627673D01*
X156909814Y-112625500D01*
X156939350Y-112625500D01*
X156946228Y-112624630D01*
X156952041Y-112624172D01*
X156998627Y-112622709D01*
X157017869Y-112617117D01*
X157036912Y-112613174D01*
X157056792Y-112610664D01*
X157100122Y-112593507D01*
X157105646Y-112591617D01*
X157109396Y-112590527D01*
X157150390Y-112578618D01*
X157167629Y-112568422D01*
X157185103Y-112559862D01*
X157203727Y-112552488D01*
X157203727Y-112552487D01*
X157203732Y-112552486D01*
X157241449Y-112525082D01*
X157246305Y-112521892D01*
X157286420Y-112498170D01*
X157300589Y-112483999D01*
X157315379Y-112471368D01*
X157331587Y-112459594D01*
X157361299Y-112423676D01*
X157365212Y-112419376D01*
X157594881Y-112189707D01*
X157656202Y-112156224D01*
X157725894Y-112161208D01*
X157781827Y-112203080D01*
X157806031Y-112265948D01*
X157814097Y-112352989D01*
X157814097Y-112352992D01*
X157869883Y-112549063D01*
X157869886Y-112549069D01*
X157960754Y-112731556D01*
X157960755Y-112731557D01*
X157962533Y-112733912D01*
X158502045Y-112194399D01*
X158514835Y-112275148D01*
X158572359Y-112388045D01*
X158661955Y-112477641D01*
X158774852Y-112535165D01*
X158855599Y-112547953D01*
X158319310Y-113084240D01*
X158319311Y-113084241D01*
X158407581Y-113138895D01*
X158407588Y-113138899D01*
X158597678Y-113212539D01*
X158798072Y-113250000D01*
X159001928Y-113250000D01*
X159202321Y-113212539D01*
X159392414Y-113138897D01*
X159480688Y-113084240D01*
X158944401Y-112547953D01*
X159025148Y-112535165D01*
X159138045Y-112477641D01*
X159227641Y-112388045D01*
X159285165Y-112275148D01*
X159297953Y-112194400D01*
X159837465Y-112733912D01*
X159839247Y-112731552D01*
X159839249Y-112731550D01*
X159930113Y-112549069D01*
X159930116Y-112549063D01*
X159985902Y-112352992D01*
X159985903Y-112352989D01*
X160004713Y-112150000D01*
X160004713Y-112149999D01*
X159985903Y-111947010D01*
X159985902Y-111947007D01*
X159930116Y-111750936D01*
X159930113Y-111750930D01*
X159882232Y-111654772D01*
X159869971Y-111585987D01*
X159896844Y-111521492D01*
X159954319Y-111481764D01*
X159993232Y-111475500D01*
X161207680Y-111475500D01*
X161274719Y-111495185D01*
X161306948Y-111525191D01*
X161312454Y-111532546D01*
X161316451Y-111535538D01*
X161427664Y-111618793D01*
X161427671Y-111618797D01*
X161562517Y-111669091D01*
X161562516Y-111669091D01*
X161569444Y-111669835D01*
X161622127Y-111675500D01*
X162937872Y-111675499D01*
X162997483Y-111669091D01*
X163132331Y-111618796D01*
X163247546Y-111532546D01*
X163253051Y-111525191D01*
X163308985Y-111483319D01*
X163352320Y-111475500D01*
X165759103Y-111475500D01*
X165826142Y-111495185D01*
X165870103Y-111544228D01*
X165964938Y-111734683D01*
X165964943Y-111734691D01*
X166099020Y-111912238D01*
X166263437Y-112062123D01*
X166263439Y-112062125D01*
X166452595Y-112179245D01*
X166452596Y-112179245D01*
X166452599Y-112179247D01*
X166660060Y-112259618D01*
X166878757Y-112300500D01*
X166878759Y-112300500D01*
X167101241Y-112300500D01*
X167101243Y-112300500D01*
X167319940Y-112259618D01*
X167527401Y-112179247D01*
X167716562Y-112062124D01*
X167880981Y-111912236D01*
X168015058Y-111734689D01*
X168114229Y-111535528D01*
X168175115Y-111321536D01*
X168195643Y-111100000D01*
X173404356Y-111100000D01*
X173424884Y-111321535D01*
X173424885Y-111321537D01*
X173485769Y-111535523D01*
X173485775Y-111535538D01*
X173584938Y-111734683D01*
X173584943Y-111734691D01*
X173719020Y-111912238D01*
X173883437Y-112062123D01*
X173883439Y-112062125D01*
X174072595Y-112179245D01*
X174072596Y-112179245D01*
X174072599Y-112179247D01*
X174280060Y-112259618D01*
X174498757Y-112300500D01*
X174498759Y-112300500D01*
X174721241Y-112300500D01*
X174721243Y-112300500D01*
X174939940Y-112259618D01*
X175147401Y-112179247D01*
X175336562Y-112062124D01*
X175500981Y-111912236D01*
X175635058Y-111734689D01*
X175734229Y-111535528D01*
X175795115Y-111321536D01*
X175815643Y-111100000D01*
X175795115Y-110878464D01*
X175734229Y-110664472D01*
X175730411Y-110656804D01*
X175635061Y-110465316D01*
X175635056Y-110465308D01*
X175500979Y-110287761D01*
X175336562Y-110137876D01*
X175336560Y-110137874D01*
X175147404Y-110020754D01*
X175147398Y-110020752D01*
X175146887Y-110020554D01*
X174939940Y-109940382D01*
X174721243Y-109899500D01*
X174498757Y-109899500D01*
X174280060Y-109940382D01*
X174187903Y-109976084D01*
X174072601Y-110020752D01*
X174072595Y-110020754D01*
X173883439Y-110137874D01*
X173883437Y-110137876D01*
X173719020Y-110287761D01*
X173584943Y-110465308D01*
X173584938Y-110465316D01*
X173485775Y-110664461D01*
X173485769Y-110664476D01*
X173424885Y-110878462D01*
X173424884Y-110878464D01*
X173404356Y-111099999D01*
X173404356Y-111100000D01*
X168195643Y-111100000D01*
X168175115Y-110878464D01*
X168114229Y-110664472D01*
X168110411Y-110656804D01*
X168015061Y-110465316D01*
X168015056Y-110465308D01*
X167880979Y-110287761D01*
X167716562Y-110137876D01*
X167716560Y-110137874D01*
X167527404Y-110020754D01*
X167527398Y-110020752D01*
X167526887Y-110020554D01*
X167319940Y-109940382D01*
X167101243Y-109899500D01*
X166878757Y-109899500D01*
X166660060Y-109940382D01*
X166567903Y-109976084D01*
X166452601Y-110020752D01*
X166452595Y-110020754D01*
X166263439Y-110137874D01*
X166263437Y-110137876D01*
X166218036Y-110179264D01*
X166155232Y-110209880D01*
X166085845Y-110201682D01*
X166031905Y-110157271D01*
X166010538Y-110090749D01*
X166010499Y-110087690D01*
X166010499Y-109527128D01*
X166004091Y-109467517D01*
X165976659Y-109393969D01*
X165953797Y-109332671D01*
X165953795Y-109332668D01*
X165946465Y-109322876D01*
X165879790Y-109233810D01*
X165855373Y-109168347D01*
X165870224Y-109100074D01*
X165919629Y-109050668D01*
X165979057Y-109035500D01*
X169106258Y-109035500D01*
X169173297Y-109055185D01*
X169205212Y-109084773D01*
X169309020Y-109222238D01*
X169449718Y-109350500D01*
X169469460Y-109368498D01*
X169473437Y-109372123D01*
X169473439Y-109372125D01*
X169662595Y-109489245D01*
X169662596Y-109489245D01*
X169662599Y-109489247D01*
X169870060Y-109569618D01*
X170088757Y-109610500D01*
X170088759Y-109610500D01*
X170311241Y-109610500D01*
X170311243Y-109610500D01*
X170529940Y-109569618D01*
X170737401Y-109489247D01*
X170926562Y-109372124D01*
X171090981Y-109222236D01*
X171225058Y-109044689D01*
X171324229Y-108845528D01*
X171377016Y-108660000D01*
X171830840Y-108660000D01*
X171871652Y-108794541D01*
X171964503Y-108968253D01*
X171964507Y-108968260D01*
X172089471Y-109120528D01*
X172241739Y-109245491D01*
X172415465Y-109338349D01*
X172550000Y-109379159D01*
X172550000Y-108660000D01*
X171830840Y-108660000D01*
X171377016Y-108660000D01*
X171385115Y-108631536D01*
X171402928Y-108439302D01*
X172446372Y-108439302D01*
X172475047Y-108552538D01*
X172538936Y-108650327D01*
X172631115Y-108722072D01*
X172741595Y-108760000D01*
X172829005Y-108760000D01*
X172915216Y-108745614D01*
X173017947Y-108690019D01*
X173045581Y-108660000D01*
X173050000Y-108660000D01*
X173050000Y-109379159D01*
X173184534Y-109338349D01*
X173358260Y-109245491D01*
X173510528Y-109120528D01*
X173635492Y-108968260D01*
X173635496Y-108968253D01*
X173728347Y-108794541D01*
X173769160Y-108660000D01*
X174430840Y-108660000D01*
X174471652Y-108794541D01*
X174564503Y-108968253D01*
X174564507Y-108968260D01*
X174689471Y-109120528D01*
X174841739Y-109245491D01*
X175015465Y-109338349D01*
X175150000Y-109379159D01*
X175150000Y-108660000D01*
X174430840Y-108660000D01*
X173769160Y-108660000D01*
X173050000Y-108660000D01*
X173045581Y-108660000D01*
X173097060Y-108604079D01*
X173143982Y-108497108D01*
X173148772Y-108439302D01*
X175046372Y-108439302D01*
X175075047Y-108552538D01*
X175138936Y-108650327D01*
X175231115Y-108722072D01*
X175341595Y-108760000D01*
X175429005Y-108760000D01*
X175515216Y-108745614D01*
X175617947Y-108690019D01*
X175645581Y-108660000D01*
X175650000Y-108660000D01*
X175650000Y-109379159D01*
X175784534Y-109338349D01*
X175958260Y-109245491D01*
X176110528Y-109120528D01*
X176235492Y-108968260D01*
X176235496Y-108968253D01*
X176328347Y-108794541D01*
X176369160Y-108660000D01*
X175650000Y-108660000D01*
X175645581Y-108660000D01*
X175697060Y-108604079D01*
X175743982Y-108497108D01*
X175753628Y-108380698D01*
X175724953Y-108267462D01*
X175661064Y-108169673D01*
X175568885Y-108097928D01*
X175458405Y-108060000D01*
X175370995Y-108060000D01*
X175284784Y-108074386D01*
X175182053Y-108129981D01*
X175102940Y-108215921D01*
X175056018Y-108322892D01*
X175046372Y-108439302D01*
X173148772Y-108439302D01*
X173153628Y-108380698D01*
X173124953Y-108267462D01*
X173061064Y-108169673D01*
X173048635Y-108159999D01*
X173049999Y-108159999D01*
X173050000Y-108160000D01*
X173769160Y-108160000D01*
X173769160Y-108159999D01*
X174430839Y-108159999D01*
X174430840Y-108160000D01*
X175150000Y-108160000D01*
X175150000Y-107440839D01*
X175650000Y-107440839D01*
X175650000Y-108160000D01*
X176369160Y-108160000D01*
X176369160Y-108159999D01*
X176328347Y-108025458D01*
X176235496Y-107851746D01*
X176235492Y-107851739D01*
X176110528Y-107699471D01*
X175958260Y-107574507D01*
X175958253Y-107574503D01*
X175784541Y-107481652D01*
X175650000Y-107440839D01*
X175150000Y-107440839D01*
X175149999Y-107440839D01*
X175015458Y-107481652D01*
X174841746Y-107574503D01*
X174841739Y-107574507D01*
X174689471Y-107699471D01*
X174564507Y-107851739D01*
X174564503Y-107851746D01*
X174471652Y-108025458D01*
X174430839Y-108159999D01*
X173769160Y-108159999D01*
X173728347Y-108025458D01*
X173635496Y-107851746D01*
X173635492Y-107851739D01*
X173510528Y-107699471D01*
X173358260Y-107574507D01*
X173358253Y-107574503D01*
X173184541Y-107481652D01*
X173050000Y-107440839D01*
X173049999Y-108159999D01*
X173048635Y-108159999D01*
X172968885Y-108097928D01*
X172858405Y-108060000D01*
X172770995Y-108060000D01*
X172684784Y-108074386D01*
X172582053Y-108129981D01*
X172502940Y-108215921D01*
X172456018Y-108322892D01*
X172446372Y-108439302D01*
X171402928Y-108439302D01*
X171405643Y-108410000D01*
X171403110Y-108382669D01*
X171385115Y-108188464D01*
X171385114Y-108188462D01*
X171383049Y-108181206D01*
X171377015Y-108159999D01*
X171830839Y-108159999D01*
X171830840Y-108160000D01*
X172550000Y-108160000D01*
X172550000Y-107440839D01*
X172549999Y-107440839D01*
X172415458Y-107481652D01*
X172241746Y-107574503D01*
X172241739Y-107574507D01*
X172089471Y-107699471D01*
X171964507Y-107851739D01*
X171964503Y-107851746D01*
X171871652Y-108025458D01*
X171830839Y-108159999D01*
X171377015Y-108159999D01*
X171324229Y-107974472D01*
X171324224Y-107974461D01*
X171225061Y-107775316D01*
X171225056Y-107775308D01*
X171090979Y-107597761D01*
X170926562Y-107447876D01*
X170926560Y-107447874D01*
X170737404Y-107330754D01*
X170737398Y-107330752D01*
X170529940Y-107250382D01*
X170311243Y-107209500D01*
X170088757Y-107209500D01*
X169870060Y-107250382D01*
X169769222Y-107289447D01*
X169662601Y-107330752D01*
X169662595Y-107330754D01*
X169473439Y-107447874D01*
X169473437Y-107447876D01*
X169309020Y-107597761D01*
X169205212Y-107735227D01*
X169149103Y-107776863D01*
X169106258Y-107784500D01*
X165272743Y-107784500D01*
X165257122Y-107782775D01*
X165257096Y-107783061D01*
X165249334Y-107782327D01*
X165249333Y-107782327D01*
X165180186Y-107784500D01*
X165150649Y-107784500D01*
X165143766Y-107785369D01*
X165137949Y-107785826D01*
X165091373Y-107787290D01*
X165072129Y-107792881D01*
X165053079Y-107796825D01*
X165033211Y-107799334D01*
X164989884Y-107816488D01*
X164984358Y-107818379D01*
X164939614Y-107831379D01*
X164939610Y-107831381D01*
X164922366Y-107841579D01*
X164904905Y-107850133D01*
X164886274Y-107857510D01*
X164886262Y-107857517D01*
X164848570Y-107884902D01*
X164843687Y-107888109D01*
X164803580Y-107911829D01*
X164789414Y-107925995D01*
X164774624Y-107938627D01*
X164758414Y-107950404D01*
X164758408Y-107950410D01*
X164728711Y-107986308D01*
X164724778Y-107990630D01*
X164516206Y-108199201D01*
X164503943Y-108209027D01*
X164504126Y-108209248D01*
X164498120Y-108214216D01*
X164450771Y-108264637D01*
X164429889Y-108285519D01*
X164429877Y-108285532D01*
X164425621Y-108291017D01*
X164421837Y-108295447D01*
X164389937Y-108329418D01*
X164389936Y-108329420D01*
X164380284Y-108346976D01*
X164369610Y-108363226D01*
X164357329Y-108379061D01*
X164357324Y-108379068D01*
X164338815Y-108421838D01*
X164336245Y-108427084D01*
X164313803Y-108467906D01*
X164308822Y-108487307D01*
X164302521Y-108505710D01*
X164294562Y-108524102D01*
X164294561Y-108524105D01*
X164287271Y-108570127D01*
X164286087Y-108575846D01*
X164274501Y-108620972D01*
X164274499Y-108620984D01*
X164274499Y-108641020D01*
X164272973Y-108660411D01*
X164269840Y-108680194D01*
X164269840Y-108680195D01*
X164274225Y-108726583D01*
X164274500Y-108732421D01*
X164274500Y-108961059D01*
X164254815Y-109028098D01*
X164202011Y-109073853D01*
X164189734Y-109078062D01*
X164189785Y-109078198D01*
X164047671Y-109131202D01*
X164047664Y-109131206D01*
X163932455Y-109217452D01*
X163932452Y-109217455D01*
X163846206Y-109332664D01*
X163846202Y-109332671D01*
X163810201Y-109429197D01*
X163795909Y-109467517D01*
X163789500Y-109527127D01*
X163789500Y-109864507D01*
X163789501Y-110100500D01*
X163769817Y-110167539D01*
X163717013Y-110213294D01*
X163665501Y-110224500D01*
X163352320Y-110224500D01*
X163285281Y-110204815D01*
X163253052Y-110174809D01*
X163252542Y-110174128D01*
X163247546Y-110167454D01*
X163226917Y-110152011D01*
X163132335Y-110081206D01*
X163132328Y-110081202D01*
X162997482Y-110030908D01*
X162997483Y-110030908D01*
X162937883Y-110024501D01*
X162937881Y-110024500D01*
X162937873Y-110024500D01*
X162937864Y-110024500D01*
X161622129Y-110024500D01*
X161622123Y-110024501D01*
X161562516Y-110030908D01*
X161427671Y-110081202D01*
X161427664Y-110081206D01*
X161312457Y-110167451D01*
X161312451Y-110167457D01*
X161306948Y-110174809D01*
X161251015Y-110216681D01*
X161207680Y-110224500D01*
X160254041Y-110224500D01*
X160187002Y-110204815D01*
X160141247Y-110152011D01*
X160131303Y-110082853D01*
X160134266Y-110068407D01*
X160164532Y-109955449D01*
X160185635Y-109876692D01*
X160205468Y-109650000D01*
X160205366Y-109648839D01*
X160196360Y-109545892D01*
X160185635Y-109423308D01*
X160158723Y-109322870D01*
X161169500Y-109322870D01*
X161169501Y-109322876D01*
X161175908Y-109382483D01*
X161226202Y-109517328D01*
X161226206Y-109517335D01*
X161312452Y-109632544D01*
X161312455Y-109632547D01*
X161427664Y-109718793D01*
X161427671Y-109718797D01*
X161562517Y-109769091D01*
X161562516Y-109769091D01*
X161569444Y-109769835D01*
X161622127Y-109775500D01*
X162937872Y-109775499D01*
X162997483Y-109769091D01*
X163132331Y-109718796D01*
X163247546Y-109632546D01*
X163333796Y-109517331D01*
X163384091Y-109382483D01*
X163390500Y-109322873D01*
X163390499Y-108577128D01*
X163384091Y-108517517D01*
X163379687Y-108505710D01*
X163333797Y-108382671D01*
X163333793Y-108382664D01*
X163247547Y-108267455D01*
X163247544Y-108267452D01*
X163132335Y-108181206D01*
X163132328Y-108181202D01*
X162990215Y-108128198D01*
X162991012Y-108126060D01*
X162940259Y-108097152D01*
X162907880Y-108035238D01*
X162905500Y-108011059D01*
X162905500Y-107621141D01*
X162905500Y-107195729D01*
X162925183Y-107128694D01*
X162977987Y-107082939D01*
X163047146Y-107072995D01*
X163081903Y-107083350D01*
X163153504Y-107116739D01*
X163373308Y-107175635D01*
X163535230Y-107189801D01*
X163599998Y-107195468D01*
X163600000Y-107195468D01*
X163600002Y-107195468D01*
X163656673Y-107190509D01*
X163826692Y-107175635D01*
X164046496Y-107116739D01*
X164252734Y-107020568D01*
X164439139Y-106890047D01*
X164600047Y-106729139D01*
X164730568Y-106542734D01*
X164826739Y-106336496D01*
X164885635Y-106116692D01*
X164905468Y-105890000D01*
X166095287Y-105890000D01*
X166114096Y-106092989D01*
X166114097Y-106092992D01*
X166169883Y-106289063D01*
X166169886Y-106289069D01*
X166260754Y-106471556D01*
X166260755Y-106471557D01*
X166262533Y-106473912D01*
X166802046Y-105934400D01*
X166814835Y-106015148D01*
X166872359Y-106128045D01*
X166961955Y-106217641D01*
X167074852Y-106275165D01*
X167155599Y-106287953D01*
X166619310Y-106824240D01*
X166619311Y-106824241D01*
X166707581Y-106878895D01*
X166707588Y-106878899D01*
X166897678Y-106952539D01*
X167098072Y-106990000D01*
X167301928Y-106990000D01*
X167502321Y-106952539D01*
X167692414Y-106878897D01*
X167780688Y-106824240D01*
X167244401Y-106287953D01*
X167325148Y-106275165D01*
X167438045Y-106217641D01*
X167527641Y-106128045D01*
X167585165Y-106015148D01*
X167597953Y-105934400D01*
X168137465Y-106473912D01*
X168139247Y-106471552D01*
X168139249Y-106471550D01*
X168230113Y-106289069D01*
X168230116Y-106289063D01*
X168285902Y-106092992D01*
X168285903Y-106092989D01*
X168304713Y-105890000D01*
X168304713Y-105889999D01*
X168285903Y-105687010D01*
X168285902Y-105687007D01*
X168230116Y-105490936D01*
X168230113Y-105490930D01*
X168139244Y-105308441D01*
X168137466Y-105306086D01*
X168137465Y-105306085D01*
X167597953Y-105845598D01*
X167585165Y-105764852D01*
X167527641Y-105651955D01*
X167438045Y-105562359D01*
X167325148Y-105504835D01*
X167244401Y-105492046D01*
X167780688Y-104955758D01*
X167780687Y-104955757D01*
X167692418Y-104901104D01*
X167692411Y-104901100D01*
X167502321Y-104827460D01*
X167301928Y-104790000D01*
X167098072Y-104790000D01*
X166897678Y-104827460D01*
X166707588Y-104901100D01*
X166707584Y-104901102D01*
X166619310Y-104955758D01*
X167155599Y-105492046D01*
X167074852Y-105504835D01*
X166961955Y-105562359D01*
X166872359Y-105651955D01*
X166814835Y-105764852D01*
X166802046Y-105845598D01*
X166262533Y-105306085D01*
X166260754Y-105308443D01*
X166169886Y-105490930D01*
X166169883Y-105490936D01*
X166114097Y-105687007D01*
X166114096Y-105687010D01*
X166095287Y-105889999D01*
X166095287Y-105890000D01*
X164905468Y-105890000D01*
X164904875Y-105883226D01*
X164891384Y-105729020D01*
X164885635Y-105663308D01*
X164826739Y-105443504D01*
X164730568Y-105237266D01*
X164600047Y-105050861D01*
X164600045Y-105050858D01*
X164439141Y-104889954D01*
X164252734Y-104759432D01*
X164252732Y-104759431D01*
X164046497Y-104663261D01*
X164046488Y-104663258D01*
X163826697Y-104604366D01*
X163826693Y-104604365D01*
X163826692Y-104604365D01*
X163826691Y-104604364D01*
X163826686Y-104604364D01*
X163600002Y-104584532D01*
X163599998Y-104584532D01*
X163373313Y-104604364D01*
X163373302Y-104604366D01*
X163153511Y-104663258D01*
X163153502Y-104663261D01*
X162947267Y-104759431D01*
X162947265Y-104759432D01*
X162760858Y-104889954D01*
X162599954Y-105050858D01*
X162469432Y-105237265D01*
X162466727Y-105241951D01*
X162465202Y-105241070D01*
X162424225Y-105287575D01*
X162392655Y-105301781D01*
X162359607Y-105311384D01*
X162359604Y-105311385D01*
X162342365Y-105321580D01*
X162324898Y-105330137D01*
X162306269Y-105337512D01*
X162306267Y-105337513D01*
X162268564Y-105364906D01*
X162263682Y-105368112D01*
X162223580Y-105391828D01*
X162209408Y-105406000D01*
X162194623Y-105418628D01*
X162178412Y-105430407D01*
X162148709Y-105466310D01*
X162144777Y-105470631D01*
X161896208Y-105719199D01*
X161883951Y-105729020D01*
X161884134Y-105729241D01*
X161878123Y-105734213D01*
X161830772Y-105784636D01*
X161809889Y-105805519D01*
X161809877Y-105805532D01*
X161805621Y-105811017D01*
X161801837Y-105815447D01*
X161769937Y-105849418D01*
X161769936Y-105849420D01*
X161760284Y-105866976D01*
X161749610Y-105883226D01*
X161737329Y-105899061D01*
X161737324Y-105899068D01*
X161718815Y-105941838D01*
X161716245Y-105947084D01*
X161693803Y-105987906D01*
X161688822Y-106007307D01*
X161682521Y-106025710D01*
X161674562Y-106044102D01*
X161674561Y-106044105D01*
X161667271Y-106090127D01*
X161666087Y-106095846D01*
X161654501Y-106140972D01*
X161654500Y-106140982D01*
X161654500Y-106161016D01*
X161652973Y-106180413D01*
X161649840Y-106200196D01*
X161651489Y-106217641D01*
X161654225Y-106246583D01*
X161654500Y-106252421D01*
X161654500Y-108011059D01*
X161634815Y-108078098D01*
X161582011Y-108123853D01*
X161569734Y-108128062D01*
X161569785Y-108128198D01*
X161427671Y-108181202D01*
X161427664Y-108181206D01*
X161312455Y-108267452D01*
X161312452Y-108267455D01*
X161226206Y-108382664D01*
X161226202Y-108382671D01*
X161175910Y-108517513D01*
X161175909Y-108517517D01*
X161169500Y-108577127D01*
X161169500Y-108577134D01*
X161169500Y-108577135D01*
X161169500Y-109322870D01*
X160158723Y-109322870D01*
X160126739Y-109203504D01*
X160030568Y-108997266D01*
X159924729Y-108846110D01*
X159922924Y-108843532D01*
X159900597Y-108777326D01*
X159900500Y-108772410D01*
X159900500Y-107780552D01*
X159920185Y-107713513D01*
X159972096Y-107668170D01*
X160052734Y-107630568D01*
X160239139Y-107500047D01*
X160400047Y-107339139D01*
X160530568Y-107152734D01*
X160626739Y-106946496D01*
X160685635Y-106726692D01*
X160705468Y-106500000D01*
X160704726Y-106491524D01*
X160691509Y-106340448D01*
X160685635Y-106273308D01*
X160626739Y-106053504D01*
X160530568Y-105847266D01*
X160418357Y-105687010D01*
X160400045Y-105660858D01*
X160236819Y-105497632D01*
X160203334Y-105436309D01*
X160200500Y-105409951D01*
X160200500Y-105280983D01*
X160200500Y-105155046D01*
X160200500Y-105155045D01*
X160200500Y-105109805D01*
X160191203Y-105069076D01*
X160190044Y-105062251D01*
X160185368Y-105020745D01*
X160171574Y-104981324D01*
X160169652Y-104974655D01*
X160160359Y-104933939D01*
X160142245Y-104896326D01*
X160139583Y-104889898D01*
X160125789Y-104850478D01*
X160125188Y-104849522D01*
X160103563Y-104815106D01*
X160100213Y-104809044D01*
X160082091Y-104771413D01*
X160056049Y-104738757D01*
X160052038Y-104733104D01*
X160038017Y-104710790D01*
X160029818Y-104697740D01*
X159633313Y-104301235D01*
X159599828Y-104239912D01*
X159604812Y-104170220D01*
X159633311Y-104125874D01*
X159700047Y-104059139D01*
X159830568Y-103872734D01*
X159926739Y-103666496D01*
X159985635Y-103446692D01*
X160005468Y-103220000D01*
X159985635Y-102993308D01*
X159926739Y-102773504D01*
X159830568Y-102567266D01*
X159700047Y-102380861D01*
X159700045Y-102380858D01*
X159536819Y-102217632D01*
X159503334Y-102156309D01*
X159500500Y-102129951D01*
X159500500Y-100890001D01*
X162294532Y-100890001D01*
X162314364Y-101116686D01*
X162314366Y-101116697D01*
X162373258Y-101336488D01*
X162373261Y-101336497D01*
X162469431Y-101542732D01*
X162469432Y-101542734D01*
X162599954Y-101729141D01*
X162760858Y-101890045D01*
X162799370Y-101917011D01*
X162947266Y-102020568D01*
X163153504Y-102116739D01*
X163373308Y-102175635D01*
X163535230Y-102189801D01*
X163599998Y-102195468D01*
X163600000Y-102195468D01*
X163600002Y-102195468D01*
X163656673Y-102190509D01*
X163826692Y-102175635D01*
X164046496Y-102116739D01*
X164252734Y-102020568D01*
X164439139Y-101890047D01*
X164600047Y-101729139D01*
X164730568Y-101542734D01*
X164826739Y-101336496D01*
X164885635Y-101116692D01*
X164904549Y-100900500D01*
X164905468Y-100890001D01*
X165894532Y-100890001D01*
X165914364Y-101116686D01*
X165914366Y-101116697D01*
X165973258Y-101336488D01*
X165973261Y-101336497D01*
X166069431Y-101542732D01*
X166069432Y-101542734D01*
X166199954Y-101729141D01*
X166360858Y-101890045D01*
X166399370Y-101917011D01*
X166547266Y-102020568D01*
X166753504Y-102116739D01*
X166973308Y-102175635D01*
X167135230Y-102189801D01*
X167199998Y-102195468D01*
X167200000Y-102195468D01*
X167200002Y-102195468D01*
X167256673Y-102190509D01*
X167426692Y-102175635D01*
X167646496Y-102116739D01*
X167852734Y-102020568D01*
X168039139Y-101890047D01*
X168200047Y-101729139D01*
X168330568Y-101542734D01*
X168426739Y-101336496D01*
X168485635Y-101116692D01*
X168504549Y-100900500D01*
X168505468Y-100890001D01*
X168505468Y-100889998D01*
X168494593Y-100765700D01*
X168485635Y-100663308D01*
X168426739Y-100443504D01*
X168330568Y-100237266D01*
X168200047Y-100050861D01*
X168200045Y-100050858D01*
X168039141Y-99889954D01*
X167852734Y-99759432D01*
X167852732Y-99759431D01*
X167646497Y-99663261D01*
X167646488Y-99663258D01*
X167426697Y-99604366D01*
X167426693Y-99604365D01*
X167426692Y-99604365D01*
X167426691Y-99604364D01*
X167426686Y-99604364D01*
X167200002Y-99584532D01*
X167199998Y-99584532D01*
X166973313Y-99604364D01*
X166973302Y-99604366D01*
X166753511Y-99663258D01*
X166753502Y-99663261D01*
X166547267Y-99759431D01*
X166547265Y-99759432D01*
X166360858Y-99889954D01*
X166199954Y-100050858D01*
X166069432Y-100237265D01*
X166069431Y-100237267D01*
X165973261Y-100443502D01*
X165973258Y-100443511D01*
X165914366Y-100663302D01*
X165914364Y-100663313D01*
X165894532Y-100889998D01*
X165894532Y-100890001D01*
X164905468Y-100890001D01*
X164905468Y-100889998D01*
X164894593Y-100765700D01*
X164885635Y-100663308D01*
X164826739Y-100443504D01*
X164730568Y-100237266D01*
X164600047Y-100050861D01*
X164600045Y-100050858D01*
X164439141Y-99889954D01*
X164252734Y-99759432D01*
X164252732Y-99759431D01*
X164046497Y-99663261D01*
X164046488Y-99663258D01*
X163826697Y-99604366D01*
X163826693Y-99604365D01*
X163826692Y-99604365D01*
X163826691Y-99604364D01*
X163826686Y-99604364D01*
X163600002Y-99584532D01*
X163599998Y-99584532D01*
X163373313Y-99604364D01*
X163373302Y-99604366D01*
X163153511Y-99663258D01*
X163153502Y-99663261D01*
X162947267Y-99759431D01*
X162947265Y-99759432D01*
X162760858Y-99889954D01*
X162599954Y-100050858D01*
X162469432Y-100237265D01*
X162469431Y-100237267D01*
X162373261Y-100443502D01*
X162373258Y-100443511D01*
X162314366Y-100663302D01*
X162314364Y-100663313D01*
X162294532Y-100889998D01*
X162294532Y-100890001D01*
X159500500Y-100890001D01*
X159500500Y-100809805D01*
X159500499Y-100809802D01*
X159491203Y-100769076D01*
X159490044Y-100762251D01*
X159485368Y-100720745D01*
X159471574Y-100681324D01*
X159469652Y-100674655D01*
X159460359Y-100633939D01*
X159442245Y-100596326D01*
X159439583Y-100589898D01*
X159425789Y-100550478D01*
X159425788Y-100550477D01*
X159403563Y-100515106D01*
X159400213Y-100509044D01*
X159382091Y-100471413D01*
X159356050Y-100438759D01*
X159352035Y-100433099D01*
X159345575Y-100422818D01*
X159326585Y-100355579D01*
X159346961Y-100288746D01*
X159362892Y-100269185D01*
X161497826Y-98134252D01*
X161497825Y-98134251D01*
X161527442Y-98104636D01*
X161527748Y-98104329D01*
X161529816Y-98102262D01*
X161552037Y-98066895D01*
X161556052Y-98061236D01*
X161582091Y-98028587D01*
X161600215Y-97990949D01*
X161603560Y-97984897D01*
X161624762Y-97951156D01*
X161677094Y-97904869D01*
X161746147Y-97894221D01*
X161809995Y-97922596D01*
X161848367Y-97980986D01*
X161853223Y-98005690D01*
X161864885Y-98131535D01*
X161864885Y-98131537D01*
X161925769Y-98345523D01*
X161925775Y-98345538D01*
X162024938Y-98544683D01*
X162024943Y-98544691D01*
X162159020Y-98722238D01*
X162323437Y-98872123D01*
X162323439Y-98872125D01*
X162512595Y-98989245D01*
X162512596Y-98989245D01*
X162512599Y-98989247D01*
X162720060Y-99069618D01*
X162938757Y-99110500D01*
X162938759Y-99110500D01*
X163161241Y-99110500D01*
X163161243Y-99110500D01*
X163379940Y-99069618D01*
X163587401Y-98989247D01*
X163776562Y-98872124D01*
X163916282Y-98744751D01*
X163940979Y-98722238D01*
X163943971Y-98718277D01*
X164075058Y-98544689D01*
X164174229Y-98345528D01*
X164235115Y-98131536D01*
X164255643Y-97910000D01*
X164248628Y-97834300D01*
X164235115Y-97688464D01*
X164235114Y-97688462D01*
X164226314Y-97657534D01*
X164174229Y-97474472D01*
X164168547Y-97463061D01*
X164075061Y-97275316D01*
X164075056Y-97275308D01*
X163940979Y-97097761D01*
X163776562Y-96947876D01*
X163776560Y-96947874D01*
X163587404Y-96830754D01*
X163587398Y-96830752D01*
X163379940Y-96750382D01*
X163161243Y-96709500D01*
X162938757Y-96709500D01*
X162720060Y-96750382D01*
X162604741Y-96795057D01*
X162512601Y-96830752D01*
X162512595Y-96830754D01*
X162323439Y-96947874D01*
X162323437Y-96947876D01*
X162159020Y-97097761D01*
X162024943Y-97275308D01*
X162024938Y-97275316D01*
X161935500Y-97454932D01*
X161887997Y-97506169D01*
X161820334Y-97523590D01*
X161753994Y-97501664D01*
X161710039Y-97447353D01*
X161700500Y-97399660D01*
X161700500Y-95438110D01*
X161720185Y-95371071D01*
X161772989Y-95325316D01*
X161842147Y-95315372D01*
X161905703Y-95344397D01*
X161936880Y-95385703D01*
X161987340Y-95493912D01*
X162019431Y-95562732D01*
X162019432Y-95562734D01*
X162149954Y-95749141D01*
X162310858Y-95910045D01*
X162310861Y-95910047D01*
X162497266Y-96040568D01*
X162703504Y-96136739D01*
X162923308Y-96195635D01*
X163085230Y-96209801D01*
X163149998Y-96215468D01*
X163150000Y-96215468D01*
X163150002Y-96215468D01*
X163206672Y-96210509D01*
X163376692Y-96195635D01*
X163596496Y-96136739D01*
X163802734Y-96040568D01*
X163989139Y-95910047D01*
X164150047Y-95749139D01*
X164280568Y-95562734D01*
X164376739Y-95356496D01*
X164435635Y-95136692D01*
X164455468Y-94910000D01*
X167045287Y-94910000D01*
X167064096Y-95112989D01*
X167064097Y-95112992D01*
X167119883Y-95309063D01*
X167119886Y-95309069D01*
X167210754Y-95491556D01*
X167210755Y-95491557D01*
X167212533Y-95493912D01*
X167752046Y-94954400D01*
X167764835Y-95035148D01*
X167822359Y-95148045D01*
X167911955Y-95237641D01*
X168024852Y-95295165D01*
X168105599Y-95307953D01*
X167569310Y-95844240D01*
X167569311Y-95844241D01*
X167657581Y-95898895D01*
X167657588Y-95898899D01*
X167847678Y-95972539D01*
X168048072Y-96010000D01*
X168251928Y-96010000D01*
X168452321Y-95972539D01*
X168642414Y-95898897D01*
X168730688Y-95844240D01*
X168194401Y-95307953D01*
X168275148Y-95295165D01*
X168388045Y-95237641D01*
X168477641Y-95148045D01*
X168535165Y-95035148D01*
X168547953Y-94954400D01*
X169087465Y-95493912D01*
X169089247Y-95491552D01*
X169089249Y-95491550D01*
X169180113Y-95309069D01*
X169180116Y-95309063D01*
X169235902Y-95112992D01*
X169235903Y-95112989D01*
X169254713Y-94910000D01*
X169254713Y-94909999D01*
X169235903Y-94707010D01*
X169235902Y-94707007D01*
X169180116Y-94510936D01*
X169180113Y-94510930D01*
X169089244Y-94328441D01*
X169087466Y-94326086D01*
X169087465Y-94326085D01*
X168547953Y-94865598D01*
X168535165Y-94784852D01*
X168477641Y-94671955D01*
X168388045Y-94582359D01*
X168275148Y-94524835D01*
X168194401Y-94512046D01*
X168730688Y-93975758D01*
X168730687Y-93975757D01*
X168642418Y-93921104D01*
X168642411Y-93921100D01*
X168452321Y-93847460D01*
X168251928Y-93810000D01*
X168048072Y-93810000D01*
X167847678Y-93847460D01*
X167657588Y-93921100D01*
X167657584Y-93921102D01*
X167569310Y-93975758D01*
X168105599Y-94512046D01*
X168024852Y-94524835D01*
X167911955Y-94582359D01*
X167822359Y-94671955D01*
X167764835Y-94784852D01*
X167752046Y-94865598D01*
X167212533Y-94326085D01*
X167210754Y-94328443D01*
X167119886Y-94510930D01*
X167119883Y-94510936D01*
X167064097Y-94707007D01*
X167064096Y-94707010D01*
X167045287Y-94909999D01*
X167045287Y-94910000D01*
X164455468Y-94910000D01*
X164454119Y-94894586D01*
X164441656Y-94752127D01*
X164435635Y-94683308D01*
X164380083Y-94475985D01*
X164376741Y-94463511D01*
X164376738Y-94463502D01*
X164346183Y-94397977D01*
X164280568Y-94257266D01*
X164150047Y-94070861D01*
X164150045Y-94070858D01*
X163989141Y-93909954D01*
X163802734Y-93779432D01*
X163802732Y-93779431D01*
X163596497Y-93683261D01*
X163596488Y-93683258D01*
X163376697Y-93624366D01*
X163376693Y-93624365D01*
X163376692Y-93624365D01*
X163376691Y-93624364D01*
X163376686Y-93624364D01*
X163150002Y-93604532D01*
X163149998Y-93604532D01*
X162923313Y-93624364D01*
X162923302Y-93624366D01*
X162703511Y-93683258D01*
X162703502Y-93683261D01*
X162497267Y-93779431D01*
X162497265Y-93779432D01*
X162310858Y-93909954D01*
X162149954Y-94070858D01*
X162019432Y-94257265D01*
X162019431Y-94257267D01*
X161936882Y-94434294D01*
X161890709Y-94486733D01*
X161823516Y-94505885D01*
X161756635Y-94485669D01*
X161711300Y-94432504D01*
X161700500Y-94381889D01*
X161700500Y-92624500D01*
X161720185Y-92557461D01*
X161772989Y-92511706D01*
X161824500Y-92500500D01*
X168327060Y-92500500D01*
X168394099Y-92520185D01*
X168414741Y-92536819D01*
X170447740Y-94569818D01*
X170460790Y-94578017D01*
X170483104Y-94592038D01*
X170488757Y-94596049D01*
X170521413Y-94622091D01*
X170559044Y-94640213D01*
X170565106Y-94643563D01*
X170582133Y-94654262D01*
X170600478Y-94665789D01*
X170639898Y-94679583D01*
X170646326Y-94682245D01*
X170683939Y-94700359D01*
X170724655Y-94709652D01*
X170731324Y-94711574D01*
X170770745Y-94725368D01*
X170812251Y-94730044D01*
X170819076Y-94731203D01*
X170859805Y-94740500D01*
X170905046Y-94740500D01*
X170927649Y-94740500D01*
X170994688Y-94760185D01*
X171040443Y-94812989D01*
X171050939Y-94851248D01*
X171055908Y-94897483D01*
X171106202Y-95032328D01*
X171106206Y-95032335D01*
X171192452Y-95147544D01*
X171192455Y-95147547D01*
X171307664Y-95233793D01*
X171307671Y-95233797D01*
X171442516Y-95284091D01*
X171488757Y-95289063D01*
X171553307Y-95315801D01*
X171593155Y-95373194D01*
X171599500Y-95412352D01*
X171599500Y-96852102D01*
X171579815Y-96919141D01*
X171527011Y-96964896D01*
X171457853Y-96974840D01*
X171400772Y-96951055D01*
X171396560Y-96947874D01*
X171207404Y-96830754D01*
X171207398Y-96830752D01*
X170999940Y-96750382D01*
X170781243Y-96709500D01*
X170558757Y-96709500D01*
X170340060Y-96750382D01*
X170224741Y-96795057D01*
X170132601Y-96830752D01*
X170132595Y-96830754D01*
X169943439Y-96947874D01*
X169943437Y-96947876D01*
X169779020Y-97097761D01*
X169644943Y-97275308D01*
X169644938Y-97275316D01*
X169545775Y-97474461D01*
X169545769Y-97474476D01*
X169484885Y-97688462D01*
X169484884Y-97688464D01*
X169464356Y-97909999D01*
X169464356Y-97910000D01*
X169484884Y-98131535D01*
X169484885Y-98131537D01*
X169545769Y-98345523D01*
X169545775Y-98345538D01*
X169644938Y-98544683D01*
X169644943Y-98544691D01*
X169779020Y-98722238D01*
X169943437Y-98872123D01*
X169943439Y-98872125D01*
X170132595Y-98989245D01*
X170132596Y-98989245D01*
X170132599Y-98989247D01*
X170340060Y-99069618D01*
X170558757Y-99110500D01*
X170558759Y-99110500D01*
X170781241Y-99110500D01*
X170781243Y-99110500D01*
X170999940Y-99069618D01*
X171207401Y-98989247D01*
X171396562Y-98872124D01*
X171538355Y-98742861D01*
X171601157Y-98712246D01*
X171621892Y-98710500D01*
X172280194Y-98710500D01*
X172320903Y-98701208D01*
X172327760Y-98700043D01*
X172369255Y-98695368D01*
X172408680Y-98681571D01*
X172415321Y-98679658D01*
X172456061Y-98670360D01*
X172493693Y-98652236D01*
X172500105Y-98649580D01*
X172539522Y-98635789D01*
X172574889Y-98613565D01*
X172580961Y-98610209D01*
X172618587Y-98592091D01*
X172651236Y-98566052D01*
X172656895Y-98562037D01*
X172692262Y-98539816D01*
X172819816Y-98412262D01*
X172878366Y-98353712D01*
X172878374Y-98353703D01*
X172997826Y-98234252D01*
X172997825Y-98234252D01*
X173029816Y-98202262D01*
X173029817Y-98202259D01*
X173034078Y-98197999D01*
X173036627Y-98191420D01*
X173052041Y-98166889D01*
X173056039Y-98161255D01*
X173082092Y-98128587D01*
X173100208Y-98090965D01*
X173103575Y-98084874D01*
X173125789Y-98049522D01*
X173139578Y-98010109D01*
X173142235Y-98003695D01*
X173160360Y-97966061D01*
X173169652Y-97925349D01*
X173171573Y-97918676D01*
X173185368Y-97879255D01*
X173190043Y-97837760D01*
X173191208Y-97830905D01*
X173194203Y-97817784D01*
X173200500Y-97790194D01*
X173200500Y-97609806D01*
X173200500Y-95412350D01*
X173220185Y-95345312D01*
X173272989Y-95299557D01*
X173311247Y-95289061D01*
X173357483Y-95284091D01*
X173482166Y-95237586D01*
X173551857Y-95232603D01*
X173613180Y-95266088D01*
X173646665Y-95327411D01*
X173649499Y-95353769D01*
X173649499Y-98969191D01*
X173629814Y-99036230D01*
X173613180Y-99056872D01*
X173100105Y-99569947D01*
X173038782Y-99603432D01*
X172989640Y-99604154D01*
X172911243Y-99589500D01*
X172688757Y-99589500D01*
X172470060Y-99630382D01*
X172338864Y-99681207D01*
X172262601Y-99710752D01*
X172262595Y-99710754D01*
X172073439Y-99827874D01*
X172073437Y-99827876D01*
X171909020Y-99977761D01*
X171774943Y-100155308D01*
X171774938Y-100155316D01*
X171675775Y-100354461D01*
X171675769Y-100354476D01*
X171619266Y-100553066D01*
X171581987Y-100612160D01*
X171518677Y-100641717D01*
X171449438Y-100632355D01*
X171396251Y-100587045D01*
X171380734Y-100553066D01*
X171324230Y-100354476D01*
X171324229Y-100354472D01*
X171323363Y-100352732D01*
X171225061Y-100155316D01*
X171225056Y-100155308D01*
X171090979Y-99977761D01*
X170926562Y-99827876D01*
X170926560Y-99827874D01*
X170737404Y-99710754D01*
X170737398Y-99710752D01*
X170529940Y-99630382D01*
X170311243Y-99589500D01*
X170088757Y-99589500D01*
X169870060Y-99630382D01*
X169738864Y-99681207D01*
X169662601Y-99710752D01*
X169662595Y-99710754D01*
X169473439Y-99827874D01*
X169473437Y-99827876D01*
X169309020Y-99977761D01*
X169174943Y-100155308D01*
X169174938Y-100155316D01*
X169075775Y-100354461D01*
X169075769Y-100354476D01*
X169014885Y-100568462D01*
X169014884Y-100568464D01*
X168994356Y-100789999D01*
X168994356Y-100790000D01*
X169014884Y-101011535D01*
X169014885Y-101011537D01*
X169075769Y-101225523D01*
X169075775Y-101225538D01*
X169174938Y-101424683D01*
X169174943Y-101424691D01*
X169309020Y-101602238D01*
X169473437Y-101752123D01*
X169473439Y-101752125D01*
X169662595Y-101869245D01*
X169662596Y-101869245D01*
X169662599Y-101869247D01*
X169870060Y-101949618D01*
X170088757Y-101990500D01*
X170088759Y-101990500D01*
X170311241Y-101990500D01*
X170311243Y-101990500D01*
X170529940Y-101949618D01*
X170737401Y-101869247D01*
X170926562Y-101752124D01*
X171066404Y-101624641D01*
X171090979Y-101602238D01*
X171104797Y-101583941D01*
X171225058Y-101424689D01*
X171324229Y-101225528D01*
X171380734Y-101026932D01*
X171418013Y-100967839D01*
X171481323Y-100938282D01*
X171550562Y-100947644D01*
X171603749Y-100992954D01*
X171619266Y-101026933D01*
X171675769Y-101225523D01*
X171675775Y-101225538D01*
X171774938Y-101424683D01*
X171774943Y-101424691D01*
X171909020Y-101602238D01*
X172073437Y-101752123D01*
X172073439Y-101752125D01*
X172262595Y-101869245D01*
X172262596Y-101869245D01*
X172262599Y-101869247D01*
X172470060Y-101949618D01*
X172688757Y-101990500D01*
X172688759Y-101990500D01*
X172911241Y-101990500D01*
X172911243Y-101990500D01*
X173129940Y-101949618D01*
X173337401Y-101869247D01*
X173526562Y-101752124D01*
X173666404Y-101624641D01*
X173690979Y-101602238D01*
X173704797Y-101583941D01*
X173825058Y-101424689D01*
X173924229Y-101225528D01*
X173980734Y-101026932D01*
X174018013Y-100967839D01*
X174081323Y-100938282D01*
X174150562Y-100947644D01*
X174203749Y-100992954D01*
X174219266Y-101026933D01*
X174275769Y-101225523D01*
X174275775Y-101225538D01*
X174374938Y-101424683D01*
X174374943Y-101424691D01*
X174509020Y-101602238D01*
X174673437Y-101752123D01*
X174673439Y-101752125D01*
X174862595Y-101869245D01*
X174862596Y-101869245D01*
X174862599Y-101869247D01*
X175070060Y-101949618D01*
X175288757Y-101990500D01*
X175288759Y-101990500D01*
X175511241Y-101990500D01*
X175511243Y-101990500D01*
X175729940Y-101949618D01*
X175937401Y-101869247D01*
X176126562Y-101752124D01*
X176266404Y-101624641D01*
X176290979Y-101602238D01*
X176304797Y-101583941D01*
X176425058Y-101424689D01*
X176524229Y-101225528D01*
X176585115Y-101011536D01*
X176605643Y-100790000D01*
X176585937Y-100577337D01*
X176599352Y-100508770D01*
X176621724Y-100478220D01*
X176799513Y-100300431D01*
X176812079Y-100290365D01*
X176811925Y-100290178D01*
X176817937Y-100285204D01*
X176817937Y-100285203D01*
X176817940Y-100285202D01*
X176867190Y-100232755D01*
X176888912Y-100211034D01*
X176893402Y-100205244D01*
X176897184Y-100200814D01*
X176930448Y-100165393D01*
X176940674Y-100146789D01*
X176951347Y-100130541D01*
X176964363Y-100113763D01*
X176983651Y-100069187D01*
X176986224Y-100063936D01*
X176993414Y-100050858D01*
X177009627Y-100021368D01*
X177014904Y-100000808D01*
X177021206Y-99982403D01*
X177029636Y-99962926D01*
X177037235Y-99914945D01*
X177038417Y-99909234D01*
X177050500Y-99862177D01*
X177050500Y-99840954D01*
X177052027Y-99821555D01*
X177053249Y-99813841D01*
X177055347Y-99800595D01*
X177050775Y-99752227D01*
X177050500Y-99746389D01*
X177050500Y-95414499D01*
X177070185Y-95347460D01*
X177122989Y-95301705D01*
X177174500Y-95290499D01*
X177297871Y-95290499D01*
X177297872Y-95290499D01*
X177357483Y-95284091D01*
X177492331Y-95233796D01*
X177607546Y-95147546D01*
X177693796Y-95032331D01*
X177744091Y-94897483D01*
X177750500Y-94837873D01*
X177750499Y-93042128D01*
X177744091Y-92982517D01*
X177721271Y-92921334D01*
X177693797Y-92847671D01*
X177693793Y-92847664D01*
X177607547Y-92732455D01*
X177607544Y-92732452D01*
X177492335Y-92646206D01*
X177492328Y-92646202D01*
X177360917Y-92597189D01*
X177304983Y-92555318D01*
X177280566Y-92489853D01*
X177295418Y-92421580D01*
X177316563Y-92393332D01*
X177438495Y-92271401D01*
X177574035Y-92077830D01*
X177673903Y-91863663D01*
X177735063Y-91635408D01*
X177753439Y-91425373D01*
X188145723Y-91425373D01*
X188175881Y-91725160D01*
X188175882Y-91725162D01*
X188245728Y-92018252D01*
X188245733Y-92018266D01*
X188354020Y-92299427D01*
X188354024Y-92299436D01*
X188498825Y-92563665D01*
X188498829Y-92563671D01*
X188655441Y-92776226D01*
X188677554Y-92806238D01*
X188887020Y-93022824D01*
X188928334Y-93055449D01*
X189123478Y-93209553D01*
X189123480Y-93209554D01*
X189123485Y-93209558D01*
X189382730Y-93363109D01*
X189660128Y-93480736D01*
X189950729Y-93560340D01*
X190249347Y-93600500D01*
X190249351Y-93600500D01*
X190475252Y-93600500D01*
X190639164Y-93589526D01*
X190700634Y-93585412D01*
X190995903Y-93525396D01*
X191280537Y-93426560D01*
X191549459Y-93290668D01*
X191797869Y-93120144D01*
X192021333Y-92918032D01*
X192215865Y-92687939D01*
X192377993Y-92433970D01*
X192504823Y-92160658D01*
X192594093Y-91872879D01*
X192644209Y-91575770D01*
X192654277Y-91274631D01*
X192624118Y-90974838D01*
X192554269Y-90681739D01*
X192445977Y-90400566D01*
X192301175Y-90136335D01*
X192298710Y-90132990D01*
X192210537Y-90013320D01*
X192122446Y-89893762D01*
X191912980Y-89677176D01*
X191849706Y-89627209D01*
X191676521Y-89490446D01*
X191676517Y-89490443D01*
X191676515Y-89490442D01*
X191417270Y-89336891D01*
X191139872Y-89219264D01*
X191139863Y-89219261D01*
X190849272Y-89139660D01*
X190743297Y-89125408D01*
X190550653Y-89099500D01*
X190324756Y-89099500D01*
X190324748Y-89099500D01*
X190099368Y-89114587D01*
X190099359Y-89114589D01*
X189804094Y-89174604D01*
X189519464Y-89273439D01*
X189519459Y-89273441D01*
X189250546Y-89409328D01*
X189002125Y-89579860D01*
X188778665Y-89781969D01*
X188584132Y-90012064D01*
X188422006Y-90266030D01*
X188422005Y-90266032D01*
X188310055Y-90507280D01*
X188295177Y-90539342D01*
X188288550Y-90560705D01*
X188205907Y-90827118D01*
X188168655Y-91047966D01*
X188155791Y-91124230D01*
X188146244Y-91409804D01*
X188145723Y-91425373D01*
X177753439Y-91425373D01*
X177755659Y-91400000D01*
X177755658Y-91399994D01*
X177735063Y-91164596D01*
X177735063Y-91164592D01*
X177673903Y-90936337D01*
X177574035Y-90722171D01*
X177574030Y-90722163D01*
X177438494Y-90528597D01*
X177271402Y-90361506D01*
X177271396Y-90361501D01*
X177085842Y-90231575D01*
X177042217Y-90176998D01*
X177035023Y-90107500D01*
X177066546Y-90045145D01*
X177085842Y-90028425D01*
X177193935Y-89952737D01*
X177271401Y-89898495D01*
X177438495Y-89731401D01*
X177574035Y-89537830D01*
X177673903Y-89323663D01*
X177735063Y-89095408D01*
X177755659Y-88860000D01*
X177755658Y-88859994D01*
X177744219Y-88729245D01*
X177735063Y-88624592D01*
X177686349Y-88442788D01*
X177673905Y-88396344D01*
X177673904Y-88396343D01*
X177673903Y-88396337D01*
X177574035Y-88182171D01*
X177574030Y-88182163D01*
X177438494Y-87988597D01*
X177271402Y-87821506D01*
X177271395Y-87821501D01*
X177271386Y-87821495D01*
X177230032Y-87792538D01*
X177077834Y-87685967D01*
X177077830Y-87685965D01*
X177063541Y-87679302D01*
X176863663Y-87586097D01*
X176863659Y-87586096D01*
X176863655Y-87586094D01*
X176635413Y-87524938D01*
X176635403Y-87524936D01*
X176400001Y-87504341D01*
X176399999Y-87504341D01*
X176164596Y-87524936D01*
X176164586Y-87524938D01*
X175936344Y-87586094D01*
X175936335Y-87586098D01*
X175722171Y-87685964D01*
X175722169Y-87685965D01*
X175528597Y-87821505D01*
X175361506Y-87988596D01*
X175243854Y-88156623D01*
X175189277Y-88200248D01*
X175142279Y-88209500D01*
X175015506Y-88209500D01*
X174999495Y-88207732D01*
X174999473Y-88207974D01*
X174991706Y-88207239D01*
X174919783Y-88209500D01*
X174889075Y-88209500D01*
X174889071Y-88209500D01*
X174889060Y-88209501D01*
X174881804Y-88210417D01*
X174875986Y-88210875D01*
X174827433Y-88212401D01*
X174812873Y-88216630D01*
X174807040Y-88218325D01*
X174787996Y-88222269D01*
X174766942Y-88224929D01*
X174766940Y-88224929D01*
X174721781Y-88242808D01*
X174716255Y-88244700D01*
X174669601Y-88258254D01*
X174651325Y-88269063D01*
X174633860Y-88277619D01*
X174614124Y-88285433D01*
X174574824Y-88313986D01*
X174569942Y-88317193D01*
X174528136Y-88341917D01*
X174513124Y-88356929D01*
X174498336Y-88369558D01*
X174481167Y-88382032D01*
X174481165Y-88382034D01*
X174450194Y-88419470D01*
X174446262Y-88423791D01*
X173900483Y-88969569D01*
X173887910Y-88979643D01*
X173888065Y-88979830D01*
X173882059Y-88984798D01*
X173869908Y-88997738D01*
X173832809Y-89037244D01*
X173821949Y-89048104D01*
X173811088Y-89058965D01*
X173811078Y-89058977D01*
X173806587Y-89064765D01*
X173802801Y-89069197D01*
X173769552Y-89104606D01*
X173759322Y-89123213D01*
X173748640Y-89139473D01*
X173745648Y-89143330D01*
X173689004Y-89184235D01*
X173619237Y-89188022D01*
X173558497Y-89153489D01*
X173548717Y-89142052D01*
X173524513Y-89110000D01*
X172833686Y-89110000D01*
X172859493Y-89069844D01*
X172900000Y-88931889D01*
X172900000Y-88788111D01*
X172859493Y-88650156D01*
X172833686Y-88610000D01*
X173524512Y-88610000D01*
X173524512Y-88609999D01*
X173476937Y-88442794D01*
X173476932Y-88442781D01*
X173381938Y-88252008D01*
X173253499Y-88081928D01*
X173095999Y-87938348D01*
X173095997Y-87938346D01*
X172914798Y-87826153D01*
X172914789Y-87826149D01*
X172716063Y-87749163D01*
X172716058Y-87749162D01*
X172650000Y-87736813D01*
X172650000Y-88424498D01*
X172542315Y-88375320D01*
X172435763Y-88360000D01*
X172364237Y-88360000D01*
X172257685Y-88375320D01*
X172150000Y-88424498D01*
X172150000Y-87736813D01*
X172083941Y-87749162D01*
X172083936Y-87749163D01*
X171885210Y-87826149D01*
X171885201Y-87826153D01*
X171704002Y-87938346D01*
X171704000Y-87938348D01*
X171546500Y-88081928D01*
X171418061Y-88252008D01*
X171323067Y-88442781D01*
X171323062Y-88442794D01*
X171275487Y-88609999D01*
X171275488Y-88610000D01*
X171966314Y-88610000D01*
X171940507Y-88650156D01*
X171900000Y-88788111D01*
X171900000Y-88931889D01*
X171940507Y-89069844D01*
X171966314Y-89110000D01*
X171275488Y-89110000D01*
X171323062Y-89277205D01*
X171323067Y-89277218D01*
X171418061Y-89467991D01*
X171546500Y-89638071D01*
X171704000Y-89781651D01*
X171704002Y-89781653D01*
X171885201Y-89893846D01*
X171885210Y-89893850D01*
X171913942Y-89904981D01*
X171969344Y-89947554D01*
X171992935Y-90013320D01*
X171977224Y-90081401D01*
X171927201Y-90130180D01*
X171921554Y-90132990D01*
X171722171Y-90225964D01*
X171722169Y-90225965D01*
X171528597Y-90361505D01*
X171361505Y-90528597D01*
X171225965Y-90722169D01*
X171225964Y-90722171D01*
X171126098Y-90936335D01*
X171126094Y-90936344D01*
X171064938Y-91164586D01*
X171064936Y-91164596D01*
X171044341Y-91399999D01*
X171044341Y-91400000D01*
X171064936Y-91635403D01*
X171064938Y-91635413D01*
X171126094Y-91863655D01*
X171126096Y-91863659D01*
X171126097Y-91863663D01*
X171198190Y-92018266D01*
X171225965Y-92077830D01*
X171225967Y-92077834D01*
X171334281Y-92232521D01*
X171361501Y-92271396D01*
X171361506Y-92271402D01*
X171483430Y-92393326D01*
X171516915Y-92454649D01*
X171511931Y-92524341D01*
X171470059Y-92580274D01*
X171439083Y-92597189D01*
X171307669Y-92646203D01*
X171307664Y-92646206D01*
X171192455Y-92732452D01*
X171142105Y-92799711D01*
X171086171Y-92841581D01*
X171016479Y-92846565D01*
X170955158Y-92813080D01*
X169212262Y-91070184D01*
X169212259Y-91070182D01*
X169176904Y-91047966D01*
X169171229Y-91043940D01*
X169138589Y-91017910D01*
X169100959Y-90999787D01*
X169094872Y-90996422D01*
X169059525Y-90974212D01*
X169020114Y-90960421D01*
X169013688Y-90957759D01*
X168976061Y-90939639D01*
X168935345Y-90930345D01*
X168928662Y-90928420D01*
X168889259Y-90914632D01*
X168847763Y-90909955D01*
X168840908Y-90908791D01*
X168800200Y-90899501D01*
X168800196Y-90899500D01*
X168800194Y-90899500D01*
X168800191Y-90899500D01*
X161824500Y-90899500D01*
X161757461Y-90879815D01*
X161711706Y-90827011D01*
X161700500Y-90775500D01*
X161700500Y-90337336D01*
X161720185Y-90270297D01*
X161772989Y-90224542D01*
X161842147Y-90214598D01*
X161867831Y-90221153D01*
X161902517Y-90234091D01*
X161902516Y-90234091D01*
X161909444Y-90234835D01*
X161962127Y-90240500D01*
X163757872Y-90240499D01*
X163817483Y-90234091D01*
X163952331Y-90183796D01*
X164067546Y-90097546D01*
X164153796Y-89982331D01*
X164202810Y-89850916D01*
X164244681Y-89794984D01*
X164310145Y-89770566D01*
X164378418Y-89785417D01*
X164406673Y-89806569D01*
X164528599Y-89928495D01*
X164608347Y-89984335D01*
X164722165Y-90064032D01*
X164722167Y-90064033D01*
X164722170Y-90064035D01*
X164936337Y-90163903D01*
X165164592Y-90225063D01*
X165341034Y-90240500D01*
X165399999Y-90245659D01*
X165400000Y-90245659D01*
X165400001Y-90245659D01*
X165458966Y-90240500D01*
X165635408Y-90225063D01*
X165863663Y-90163903D01*
X166077830Y-90064035D01*
X166271401Y-89928495D01*
X166438495Y-89761401D01*
X166574035Y-89567830D01*
X166667850Y-89366641D01*
X166714021Y-89314205D01*
X166781215Y-89295053D01*
X166848096Y-89315269D01*
X166891231Y-89363778D01*
X166958059Y-89497989D01*
X167086500Y-89668071D01*
X167244000Y-89811651D01*
X167244002Y-89811653D01*
X167425201Y-89923846D01*
X167425207Y-89923849D01*
X167623941Y-90000838D01*
X167690000Y-90013186D01*
X167690000Y-89325501D01*
X167797685Y-89374680D01*
X167904237Y-89390000D01*
X167975763Y-89390000D01*
X168082315Y-89374680D01*
X168190000Y-89325501D01*
X168190000Y-90013185D01*
X168256058Y-90000838D01*
X168454792Y-89923849D01*
X168454798Y-89923846D01*
X168635997Y-89811653D01*
X168635999Y-89811651D01*
X168793499Y-89668071D01*
X168921938Y-89497991D01*
X169016932Y-89307218D01*
X169016937Y-89307205D01*
X169064512Y-89140000D01*
X168373686Y-89140000D01*
X168399493Y-89099844D01*
X168440000Y-88961889D01*
X168440000Y-88818111D01*
X168399493Y-88680156D01*
X168373686Y-88640000D01*
X169064512Y-88640000D01*
X169064512Y-88639999D01*
X169016937Y-88472794D01*
X169016932Y-88472781D01*
X168921938Y-88282008D01*
X168793499Y-88111928D01*
X168635999Y-87968348D01*
X168635997Y-87968346D01*
X168454798Y-87856153D01*
X168454789Y-87856149D01*
X168256063Y-87779163D01*
X168256058Y-87779162D01*
X168190000Y-87766813D01*
X168190000Y-88454498D01*
X168082315Y-88405320D01*
X167975763Y-88390000D01*
X167904237Y-88390000D01*
X167797685Y-88405320D01*
X167690000Y-88454498D01*
X167690000Y-87766813D01*
X167623941Y-87779162D01*
X167623936Y-87779163D01*
X167425210Y-87856149D01*
X167425201Y-87856153D01*
X167244002Y-87968346D01*
X167244000Y-87968348D01*
X167086500Y-88111928D01*
X166958061Y-88282008D01*
X166891231Y-88416222D01*
X166843728Y-88467459D01*
X166776065Y-88484880D01*
X166709725Y-88462954D01*
X166667849Y-88413355D01*
X166664102Y-88405320D01*
X166574035Y-88212171D01*
X166572166Y-88209501D01*
X166438494Y-88018597D01*
X166271402Y-87851506D01*
X166271395Y-87851501D01*
X166260795Y-87844079D01*
X166194518Y-87797671D01*
X166077834Y-87715967D01*
X166077830Y-87715965D01*
X166013495Y-87685965D01*
X165863663Y-87616097D01*
X165863659Y-87616096D01*
X165863655Y-87616094D01*
X165635413Y-87554938D01*
X165635403Y-87554936D01*
X165400001Y-87534341D01*
X165399999Y-87534341D01*
X165164596Y-87554936D01*
X165164586Y-87554938D01*
X164936344Y-87616094D01*
X164936335Y-87616098D01*
X164722171Y-87715964D01*
X164722169Y-87715965D01*
X164528600Y-87851503D01*
X164406673Y-87973430D01*
X164345350Y-88006914D01*
X164275658Y-88001930D01*
X164219725Y-87960058D01*
X164202810Y-87929081D01*
X164153797Y-87797671D01*
X164153793Y-87797664D01*
X164067547Y-87682455D01*
X164067544Y-87682452D01*
X163952335Y-87596206D01*
X163952328Y-87596202D01*
X163817482Y-87545908D01*
X163817483Y-87545908D01*
X163757883Y-87539501D01*
X163757881Y-87539500D01*
X163757873Y-87539500D01*
X163757864Y-87539500D01*
X161962129Y-87539500D01*
X161962123Y-87539501D01*
X161902516Y-87545908D01*
X161767671Y-87596202D01*
X161767664Y-87596206D01*
X161652455Y-87682452D01*
X161652452Y-87682455D01*
X161566206Y-87797664D01*
X161566202Y-87797671D01*
X161515908Y-87932517D01*
X161510480Y-87983010D01*
X161483742Y-88047561D01*
X161426350Y-88087410D01*
X161414776Y-88090648D01*
X161379089Y-88098791D01*
X161372235Y-88099955D01*
X161330744Y-88104632D01*
X161291341Y-88118419D01*
X161284659Y-88120344D01*
X161243939Y-88129639D01*
X161206320Y-88147755D01*
X161199895Y-88150416D01*
X161160483Y-88164208D01*
X161160476Y-88164212D01*
X161125120Y-88186427D01*
X161119033Y-88189791D01*
X161081410Y-88207910D01*
X161048769Y-88233941D01*
X161043096Y-88237966D01*
X161007739Y-88260183D01*
X161007737Y-88260184D01*
X161007738Y-88260184D01*
X160983233Y-88284689D01*
X160958307Y-88309614D01*
X160958306Y-88309615D01*
X160339159Y-88928760D01*
X160339151Y-88928771D01*
X160270183Y-88997739D01*
X160247966Y-89033096D01*
X160243941Y-89038769D01*
X160217910Y-89071410D01*
X160199791Y-89109033D01*
X160196427Y-89115120D01*
X160174212Y-89150476D01*
X160174208Y-89150483D01*
X160160416Y-89189895D01*
X160157755Y-89196320D01*
X160139639Y-89233939D01*
X160130344Y-89274659D01*
X160128419Y-89281341D01*
X160114632Y-89320744D01*
X160109955Y-89362235D01*
X160108791Y-89369089D01*
X160099500Y-89409806D01*
X160099500Y-91651564D01*
X160099110Y-91658502D01*
X160094435Y-91700000D01*
X160099110Y-91741496D01*
X160099500Y-91748435D01*
X160099500Y-94393106D01*
X160079815Y-94460145D01*
X160027011Y-94505900D01*
X159957853Y-94515844D01*
X159894297Y-94486819D01*
X159876234Y-94467418D01*
X159873304Y-94463504D01*
X159857546Y-94442454D01*
X159857544Y-94442453D01*
X159857544Y-94442452D01*
X159742335Y-94356206D01*
X159742328Y-94356202D01*
X159607482Y-94305908D01*
X159607483Y-94305908D01*
X159547883Y-94299501D01*
X159547881Y-94299500D01*
X159547873Y-94299500D01*
X159547865Y-94299500D01*
X159474500Y-94299500D01*
X159407461Y-94279815D01*
X159361706Y-94227011D01*
X159350500Y-94175500D01*
X159350500Y-93285502D01*
X159352268Y-93269489D01*
X159352026Y-93269467D01*
X159352758Y-93261711D01*
X159352760Y-93261704D01*
X159350500Y-93189796D01*
X159350500Y-93159075D01*
X159349579Y-93151788D01*
X159349122Y-93145979D01*
X159347597Y-93097431D01*
X159341676Y-93077053D01*
X159337731Y-93058004D01*
X159335071Y-93036942D01*
X159317185Y-92991769D01*
X159315296Y-92986249D01*
X159301743Y-92939600D01*
X159290940Y-92921334D01*
X159282378Y-92903856D01*
X159274568Y-92884129D01*
X159274565Y-92884125D01*
X159248080Y-92847671D01*
X159246014Y-92844827D01*
X159242811Y-92839951D01*
X159230420Y-92818999D01*
X159218081Y-92798135D01*
X159218079Y-92798133D01*
X159218078Y-92798131D01*
X159203075Y-92783129D01*
X159190435Y-92768330D01*
X159189268Y-92766724D01*
X159177963Y-92751163D01*
X159177961Y-92751160D01*
X159140528Y-92720194D01*
X159136206Y-92716260D01*
X158318693Y-91898747D01*
X158285208Y-91837424D01*
X158286599Y-91778972D01*
X158291297Y-91761439D01*
X158325069Y-91635402D01*
X158345665Y-91399994D01*
X158325069Y-91164586D01*
X158264795Y-90939639D01*
X158263911Y-90936338D01*
X158263910Y-90936335D01*
X158263909Y-90936331D01*
X158164041Y-90722165D01*
X158163324Y-90721140D01*
X158028500Y-90528591D01*
X157861408Y-90361500D01*
X157861401Y-90361495D01*
X157667840Y-90225961D01*
X157667836Y-90225959D01*
X157468451Y-90132984D01*
X157416012Y-90086812D01*
X157396860Y-90019618D01*
X157417076Y-89952737D01*
X157470241Y-89907402D01*
X157476064Y-89904975D01*
X157504792Y-89893846D01*
X157504804Y-89893840D01*
X157686003Y-89781647D01*
X157686005Y-89781645D01*
X157843505Y-89638065D01*
X157971944Y-89467985D01*
X158066938Y-89277212D01*
X158066943Y-89277199D01*
X158114518Y-89109994D01*
X157423692Y-89109994D01*
X157449499Y-89069838D01*
X157490006Y-88931883D01*
X157490006Y-88788105D01*
X157449499Y-88650150D01*
X157423692Y-88609994D01*
X158114518Y-88609994D01*
X158114518Y-88609993D01*
X158066943Y-88442788D01*
X158066938Y-88442775D01*
X157971944Y-88252002D01*
X157843505Y-88081922D01*
X157686005Y-87938342D01*
X157686003Y-87938340D01*
X157504804Y-87826147D01*
X157504795Y-87826143D01*
X157306069Y-87749157D01*
X157306064Y-87749156D01*
X157240006Y-87736807D01*
X157240006Y-88424492D01*
X157132321Y-88375314D01*
X157025769Y-88359994D01*
X156954243Y-88359994D01*
X156847691Y-88375314D01*
X156740006Y-88424492D01*
X156740006Y-87736807D01*
X156673947Y-87749156D01*
X156673942Y-87749157D01*
X156475216Y-87826143D01*
X156475207Y-87826147D01*
X156294008Y-87938340D01*
X156294006Y-87938342D01*
X156136506Y-88081922D01*
X156008067Y-88252002D01*
X155941237Y-88386216D01*
X155893734Y-88437453D01*
X155826071Y-88454874D01*
X155759731Y-88432948D01*
X155717855Y-88383349D01*
X155717243Y-88382037D01*
X155624041Y-88182165D01*
X155618473Y-88174212D01*
X155488500Y-87988591D01*
X155321408Y-87821500D01*
X155321401Y-87821495D01*
X155127840Y-87685961D01*
X155127836Y-87685959D01*
X155120322Y-87682455D01*
X154913669Y-87586091D01*
X154913665Y-87586090D01*
X154913661Y-87586088D01*
X154685419Y-87524932D01*
X154685409Y-87524930D01*
X154450007Y-87504335D01*
X154450005Y-87504335D01*
X154214602Y-87524930D01*
X154214592Y-87524932D01*
X153986350Y-87586088D01*
X153986341Y-87586092D01*
X153772177Y-87685958D01*
X153772175Y-87685959D01*
X153578603Y-87821499D01*
X153411511Y-87988591D01*
X153281581Y-88174152D01*
X153227004Y-88217777D01*
X153157506Y-88224971D01*
X153095151Y-88193448D01*
X153078431Y-88174152D01*
X152948500Y-87988591D01*
X152781408Y-87821500D01*
X152781401Y-87821495D01*
X152587840Y-87685961D01*
X152587836Y-87685959D01*
X152580322Y-87682455D01*
X152373669Y-87586091D01*
X152373665Y-87586090D01*
X152373661Y-87586088D01*
X152145419Y-87524932D01*
X152145409Y-87524930D01*
X151910007Y-87504335D01*
X151910005Y-87504335D01*
X151674602Y-87524930D01*
X151674592Y-87524932D01*
X151446350Y-87586088D01*
X151446341Y-87586092D01*
X151232177Y-87685958D01*
X151232175Y-87685959D01*
X151038603Y-87821499D01*
X150871512Y-87988591D01*
X150871505Y-87988600D01*
X150830876Y-88046624D01*
X150776299Y-88090249D01*
X150729302Y-88099500D01*
X149690194Y-88099500D01*
X149509806Y-88099500D01*
X149503888Y-88100850D01*
X149469089Y-88108791D01*
X149462235Y-88109955D01*
X149420744Y-88114632D01*
X149381341Y-88128419D01*
X149374659Y-88130344D01*
X149333939Y-88139639D01*
X149296320Y-88157755D01*
X149289895Y-88160416D01*
X149250483Y-88174208D01*
X149250476Y-88174212D01*
X149215120Y-88196427D01*
X149209033Y-88199791D01*
X149171410Y-88217910D01*
X149138769Y-88243941D01*
X149133096Y-88247966D01*
X149097739Y-88270183D01*
X149097737Y-88270184D01*
X149097738Y-88270184D01*
X149075748Y-88292174D01*
X149048307Y-88319614D01*
X148032076Y-89335845D01*
X147970753Y-89369330D01*
X147901061Y-89364346D01*
X147845128Y-89322474D01*
X147820711Y-89257010D01*
X147833395Y-89192892D01*
X147880113Y-89099069D01*
X147880116Y-89099063D01*
X147935902Y-88902992D01*
X147935903Y-88902989D01*
X147954713Y-88700000D01*
X147954713Y-88699999D01*
X147935903Y-88497010D01*
X147935902Y-88497007D01*
X147880116Y-88300936D01*
X147880113Y-88300930D01*
X147789244Y-88118441D01*
X147787466Y-88116086D01*
X147787465Y-88116085D01*
X147247953Y-88655598D01*
X147235165Y-88574852D01*
X147177641Y-88461955D01*
X147088045Y-88372359D01*
X146975148Y-88314835D01*
X146894400Y-88302046D01*
X147430688Y-87765758D01*
X147430687Y-87765757D01*
X147342418Y-87711104D01*
X147342411Y-87711100D01*
X147152321Y-87637460D01*
X146951928Y-87600000D01*
X146748072Y-87600000D01*
X146547678Y-87637460D01*
X146357588Y-87711100D01*
X146357584Y-87711102D01*
X146269310Y-87765758D01*
X146805599Y-88302046D01*
X146724852Y-88314835D01*
X146611955Y-88372359D01*
X146522359Y-88461955D01*
X146464835Y-88574852D01*
X146452046Y-88655598D01*
X145912533Y-88116085D01*
X145910754Y-88118443D01*
X145817330Y-88306064D01*
X145815672Y-88305238D01*
X145778224Y-88353960D01*
X145712455Y-88377543D01*
X145644376Y-88361826D01*
X145595603Y-88311797D01*
X145585406Y-88285849D01*
X145576742Y-88253513D01*
X145576738Y-88253502D01*
X145575918Y-88251743D01*
X145480568Y-88047266D01*
X145350047Y-87860861D01*
X145350045Y-87860858D01*
X145189141Y-87699954D01*
X145002734Y-87569432D01*
X145002732Y-87569431D01*
X144796497Y-87473261D01*
X144796488Y-87473258D01*
X144576697Y-87414366D01*
X144576693Y-87414365D01*
X144576692Y-87414365D01*
X144576691Y-87414364D01*
X144576686Y-87414364D01*
X144350002Y-87394532D01*
X144349998Y-87394532D01*
X144123313Y-87414364D01*
X144123302Y-87414366D01*
X143903511Y-87473258D01*
X143903502Y-87473261D01*
X143697267Y-87569431D01*
X143697265Y-87569432D01*
X143510858Y-87699954D01*
X143349954Y-87860858D01*
X143219432Y-88047265D01*
X143219431Y-88047267D01*
X143123261Y-88253502D01*
X143123258Y-88253511D01*
X143064366Y-88473302D01*
X143064364Y-88473313D01*
X143044532Y-88699998D01*
X143044532Y-88700001D01*
X143064364Y-88926686D01*
X143064366Y-88926697D01*
X143123258Y-89146488D01*
X143123261Y-89146497D01*
X143219431Y-89352732D01*
X143219432Y-89352734D01*
X143349954Y-89539141D01*
X143510857Y-89700044D01*
X143510860Y-89700046D01*
X143510861Y-89700047D01*
X143596623Y-89760097D01*
X143640248Y-89814673D01*
X143649500Y-89861672D01*
X143649500Y-90551564D01*
X143649110Y-90558502D01*
X143644435Y-90600000D01*
X143649110Y-90641496D01*
X143649500Y-90648435D01*
X143649500Y-91310299D01*
X143641682Y-91353632D01*
X143630908Y-91382516D01*
X143624501Y-91442116D01*
X143624500Y-91442135D01*
X143624500Y-93537870D01*
X143624501Y-93537876D01*
X143630908Y-93597483D01*
X143681202Y-93732328D01*
X143681206Y-93732335D01*
X143767452Y-93847544D01*
X143767455Y-93847547D01*
X143882664Y-93933793D01*
X143882671Y-93933797D01*
X143913247Y-93945201D01*
X144017517Y-93984091D01*
X144077127Y-93990500D01*
X144822872Y-93990499D01*
X144882483Y-93984091D01*
X145017331Y-93933796D01*
X145132546Y-93847546D01*
X145218796Y-93732331D01*
X145269091Y-93597483D01*
X145275500Y-93537873D01*
X145275499Y-91524499D01*
X145295184Y-91457461D01*
X145347987Y-91411706D01*
X145399499Y-91400500D01*
X145400500Y-91400500D01*
X145467539Y-91420185D01*
X145513294Y-91472989D01*
X145524500Y-91524500D01*
X145524500Y-93537870D01*
X145524501Y-93537876D01*
X145530908Y-93597483D01*
X145581202Y-93732328D01*
X145581206Y-93732335D01*
X145667452Y-93847544D01*
X145667455Y-93847547D01*
X145782664Y-93933793D01*
X145782671Y-93933797D01*
X145813247Y-93945201D01*
X145917517Y-93984091D01*
X145977127Y-93990500D01*
X146722872Y-93990499D01*
X146782483Y-93984091D01*
X146917331Y-93933796D01*
X147032546Y-93847546D01*
X147118796Y-93732331D01*
X147169091Y-93597483D01*
X147175500Y-93537873D01*
X147175499Y-91524499D01*
X147195184Y-91457461D01*
X147247987Y-91411706D01*
X147299499Y-91400500D01*
X147517060Y-91400500D01*
X147584099Y-91420185D01*
X147604741Y-91436819D01*
X147963181Y-91795258D01*
X147996666Y-91856581D01*
X147999500Y-91882939D01*
X147999500Y-99026893D01*
X147979815Y-99093932D01*
X147927011Y-99139687D01*
X147857853Y-99149631D01*
X147794297Y-99120606D01*
X147790252Y-99116279D01*
X147787465Y-99116085D01*
X147247953Y-99655598D01*
X147235165Y-99574852D01*
X147177641Y-99461955D01*
X147088045Y-99372359D01*
X146975148Y-99314835D01*
X146894401Y-99302046D01*
X147430688Y-98765758D01*
X147430687Y-98765757D01*
X147342418Y-98711104D01*
X147342411Y-98711100D01*
X147152321Y-98637460D01*
X146951928Y-98600000D01*
X146748072Y-98600000D01*
X146547678Y-98637460D01*
X146357588Y-98711100D01*
X146357584Y-98711102D01*
X146269310Y-98765758D01*
X146805599Y-99302046D01*
X146724852Y-99314835D01*
X146611955Y-99372359D01*
X146522359Y-99461955D01*
X146464835Y-99574852D01*
X146452046Y-99655598D01*
X145912533Y-99116085D01*
X145910754Y-99118443D01*
X145817330Y-99306064D01*
X145815672Y-99305238D01*
X145778224Y-99353960D01*
X145712455Y-99377543D01*
X145644376Y-99361826D01*
X145595603Y-99311797D01*
X145585406Y-99285849D01*
X145576742Y-99253513D01*
X145576738Y-99253502D01*
X145519387Y-99130513D01*
X145480568Y-99047266D01*
X145350047Y-98860861D01*
X145350045Y-98860858D01*
X145286819Y-98797632D01*
X145253334Y-98736309D01*
X145250500Y-98709951D01*
X145250500Y-98374500D01*
X145270185Y-98307461D01*
X145322989Y-98261706D01*
X145374500Y-98250500D01*
X145874495Y-98250500D01*
X145890505Y-98252267D01*
X145890528Y-98252026D01*
X145898289Y-98252758D01*
X145898296Y-98252760D01*
X145970203Y-98250500D01*
X146000925Y-98250500D01*
X146008190Y-98249581D01*
X146014016Y-98249122D01*
X146062569Y-98247597D01*
X146082956Y-98241673D01*
X146101996Y-98237731D01*
X146123058Y-98235071D01*
X146168235Y-98217183D01*
X146173735Y-98215300D01*
X146220398Y-98201744D01*
X146238665Y-98190939D01*
X146256136Y-98182380D01*
X146275871Y-98174568D01*
X146315177Y-98146010D01*
X146320043Y-98142813D01*
X146361865Y-98118081D01*
X146376870Y-98103075D01*
X146391668Y-98090436D01*
X146399324Y-98084874D01*
X146408837Y-98077963D01*
X146439809Y-98040522D01*
X146443723Y-98036221D01*
X146749513Y-97730431D01*
X146762079Y-97720365D01*
X146761925Y-97720178D01*
X146767937Y-97715204D01*
X146767937Y-97715203D01*
X146767940Y-97715202D01*
X146817190Y-97662755D01*
X146838911Y-97641035D01*
X146843401Y-97635245D01*
X146847183Y-97630815D01*
X146880448Y-97595393D01*
X146890674Y-97576790D01*
X146901353Y-97560533D01*
X146914362Y-97543764D01*
X146933656Y-97499175D01*
X146936212Y-97493956D01*
X146959627Y-97451368D01*
X146964905Y-97430806D01*
X146971207Y-97412399D01*
X146979635Y-97392927D01*
X146987234Y-97344945D01*
X146988412Y-97339252D01*
X146989852Y-97333645D01*
X147025594Y-97273613D01*
X147030942Y-97269150D01*
X147032543Y-97267549D01*
X147032544Y-97267547D01*
X147032546Y-97267546D01*
X147118796Y-97152331D01*
X147169091Y-97017483D01*
X147175500Y-96957873D01*
X147175499Y-94862128D01*
X147169091Y-94802517D01*
X147167717Y-94798834D01*
X147118797Y-94667671D01*
X147118793Y-94667664D01*
X147032547Y-94552455D01*
X147032544Y-94552452D01*
X146917335Y-94466206D01*
X146917328Y-94466202D01*
X146782486Y-94415910D01*
X146782485Y-94415909D01*
X146782483Y-94415909D01*
X146722873Y-94409500D01*
X146722863Y-94409500D01*
X145977129Y-94409500D01*
X145977123Y-94409501D01*
X145917516Y-94415908D01*
X145782671Y-94466202D01*
X145782664Y-94466206D01*
X145667455Y-94552452D01*
X145667452Y-94552455D01*
X145581206Y-94667664D01*
X145581202Y-94667671D01*
X145530908Y-94802517D01*
X145525185Y-94855757D01*
X145524500Y-94862127D01*
X145524500Y-95898899D01*
X145524501Y-96036000D01*
X145504816Y-96103039D01*
X145452013Y-96148794D01*
X145400501Y-96160000D01*
X145399500Y-96160000D01*
X145332461Y-96140315D01*
X145286706Y-96087511D01*
X145275500Y-96036000D01*
X145275499Y-94862129D01*
X145275498Y-94862123D01*
X145275497Y-94862116D01*
X145269091Y-94802517D01*
X145267717Y-94798834D01*
X145218797Y-94667671D01*
X145218793Y-94667664D01*
X145132547Y-94552455D01*
X145132544Y-94552452D01*
X145017335Y-94466206D01*
X145017328Y-94466202D01*
X144882486Y-94415910D01*
X144882485Y-94415909D01*
X144882483Y-94415909D01*
X144822873Y-94409500D01*
X144822863Y-94409500D01*
X144077129Y-94409500D01*
X144077123Y-94409501D01*
X144017516Y-94415908D01*
X143882671Y-94466202D01*
X143882664Y-94466206D01*
X143767455Y-94552452D01*
X143767452Y-94552455D01*
X143681206Y-94667664D01*
X143681202Y-94667671D01*
X143630908Y-94802517D01*
X143625185Y-94855757D01*
X143624501Y-94862123D01*
X143624500Y-94862135D01*
X143624500Y-96957870D01*
X143624501Y-96957876D01*
X143630908Y-97017481D01*
X143641682Y-97046366D01*
X143649500Y-97089700D01*
X143649500Y-98538326D01*
X143629815Y-98605365D01*
X143596624Y-98639901D01*
X143510863Y-98699951D01*
X143349951Y-98860862D01*
X143219432Y-99047265D01*
X143219431Y-99047267D01*
X143123261Y-99253502D01*
X143123258Y-99253511D01*
X143064366Y-99473302D01*
X143064364Y-99473313D01*
X143044532Y-99699998D01*
X143044532Y-99700001D01*
X143064364Y-99926686D01*
X143064366Y-99926697D01*
X143123258Y-100146488D01*
X143123261Y-100146497D01*
X143195045Y-100300436D01*
X143219432Y-100352734D01*
X143307295Y-100478217D01*
X143327075Y-100506465D01*
X143349402Y-100572671D01*
X143349500Y-100577588D01*
X143349500Y-101190191D01*
X143349501Y-101190200D01*
X143358791Y-101230908D01*
X143359955Y-101237763D01*
X143364632Y-101279259D01*
X143378420Y-101318662D01*
X143380345Y-101325345D01*
X143389639Y-101366061D01*
X143407759Y-101403688D01*
X143410421Y-101410114D01*
X143424212Y-101449525D01*
X143446422Y-101484872D01*
X143449787Y-101490959D01*
X143467910Y-101528589D01*
X143493940Y-101561229D01*
X143497966Y-101566904D01*
X143520182Y-101602259D01*
X143520184Y-101602262D01*
X143774549Y-101856627D01*
X143808034Y-101917950D01*
X143803050Y-101987642D01*
X143761180Y-102043574D01*
X143642452Y-102132455D01*
X143556206Y-102247664D01*
X143556202Y-102247671D01*
X143505908Y-102382517D01*
X143499501Y-102442116D01*
X143499501Y-102442123D01*
X143499500Y-102442135D01*
X143499500Y-104337870D01*
X143499501Y-104337876D01*
X143505908Y-104397483D01*
X143556202Y-104532328D01*
X143556206Y-104532335D01*
X143642452Y-104647544D01*
X143642455Y-104647547D01*
X143757664Y-104733793D01*
X143757671Y-104733797D01*
X143892517Y-104784091D01*
X143892516Y-104784091D01*
X143899444Y-104784835D01*
X143952127Y-104790500D01*
X145847872Y-104790499D01*
X145907483Y-104784091D01*
X146042331Y-104733796D01*
X146157546Y-104647546D01*
X146243796Y-104532331D01*
X146294091Y-104397483D01*
X146300500Y-104337873D01*
X146300499Y-102442128D01*
X146294091Y-102382517D01*
X146293473Y-102380861D01*
X146243797Y-102247671D01*
X146243793Y-102247664D01*
X146157547Y-102132455D01*
X146157544Y-102132452D01*
X146042335Y-102046206D01*
X146042328Y-102046202D01*
X145907482Y-101995908D01*
X145907483Y-101995908D01*
X145847883Y-101989501D01*
X145847881Y-101989500D01*
X145847873Y-101989500D01*
X145847865Y-101989500D01*
X145824500Y-101989500D01*
X145757461Y-101969815D01*
X145711706Y-101917011D01*
X145700500Y-101865500D01*
X145700500Y-101759807D01*
X145700500Y-101759806D01*
X145691207Y-101719093D01*
X145690042Y-101712233D01*
X145685368Y-101670745D01*
X145672599Y-101634252D01*
X145671576Y-101631328D01*
X145669650Y-101624641D01*
X145660361Y-101583941D01*
X145642244Y-101546320D01*
X145639581Y-101539891D01*
X145625789Y-101500477D01*
X145614577Y-101482635D01*
X145603567Y-101465112D01*
X145600206Y-101459030D01*
X145595627Y-101449522D01*
X145582091Y-101421413D01*
X145582091Y-101421412D01*
X145582090Y-101421411D01*
X145556055Y-101388765D01*
X145552028Y-101383089D01*
X145529816Y-101347738D01*
X145402262Y-101220184D01*
X145113058Y-100930980D01*
X145079573Y-100869657D01*
X145084557Y-100799965D01*
X145126429Y-100744032D01*
X145129618Y-100741723D01*
X145189139Y-100700047D01*
X145350047Y-100539139D01*
X145480568Y-100352734D01*
X145576739Y-100146496D01*
X145576740Y-100146488D01*
X145576743Y-100146483D01*
X145585406Y-100114151D01*
X145621769Y-100054490D01*
X145684616Y-100023959D01*
X145753992Y-100032253D01*
X145807870Y-100076737D01*
X145816968Y-100094115D01*
X145817330Y-100093936D01*
X145910754Y-100281556D01*
X145910755Y-100281557D01*
X145912533Y-100283912D01*
X146452046Y-99744400D01*
X146464835Y-99825148D01*
X146522359Y-99938045D01*
X146611955Y-100027641D01*
X146724852Y-100085165D01*
X146805599Y-100097953D01*
X146269310Y-100634240D01*
X146269311Y-100634241D01*
X146357581Y-100688895D01*
X146357588Y-100688899D01*
X146547678Y-100762539D01*
X146748072Y-100800000D01*
X146951928Y-100800000D01*
X147152321Y-100762539D01*
X147342414Y-100688897D01*
X147430688Y-100634240D01*
X146894401Y-100097953D01*
X146975148Y-100085165D01*
X147088045Y-100027641D01*
X147177641Y-99938045D01*
X147235165Y-99825148D01*
X147247953Y-99744400D01*
X147787465Y-100283912D01*
X147789247Y-100281552D01*
X147789249Y-100281550D01*
X147880113Y-100099069D01*
X147880116Y-100099063D01*
X147935902Y-99902992D01*
X147935903Y-99902989D01*
X147954712Y-99700003D01*
X147954413Y-99696770D01*
X147954713Y-99695236D01*
X147954713Y-99694267D01*
X147954903Y-99694267D01*
X147967826Y-99628199D01*
X148016181Y-99577766D01*
X148084127Y-99561481D01*
X148150090Y-99584516D01*
X148165565Y-99597643D01*
X149297738Y-100729816D01*
X149333096Y-100752033D01*
X149338770Y-100756060D01*
X149371411Y-100782090D01*
X149371414Y-100782092D01*
X149409038Y-100800210D01*
X149415123Y-100803574D01*
X149450478Y-100825789D01*
X149489899Y-100839583D01*
X149496307Y-100842238D01*
X149533939Y-100860360D01*
X149574641Y-100869650D01*
X149581328Y-100871576D01*
X149620742Y-100885367D01*
X149620745Y-100885368D01*
X149662241Y-100890043D01*
X149669093Y-100891207D01*
X149709806Y-100900500D01*
X149755046Y-100900500D01*
X157513015Y-100900500D01*
X157580054Y-100920185D01*
X157590329Y-100927554D01*
X157613022Y-100945652D01*
X157618210Y-100950288D01*
X157863181Y-101195259D01*
X157896666Y-101256582D01*
X157899500Y-101282940D01*
X157899500Y-102129951D01*
X157879815Y-102196990D01*
X157863181Y-102217632D01*
X157699954Y-102380858D01*
X157569432Y-102567265D01*
X157569431Y-102567267D01*
X157542382Y-102625275D01*
X157496209Y-102677714D01*
X157429016Y-102696866D01*
X157362135Y-102676650D01*
X157317618Y-102625275D01*
X157290568Y-102567267D01*
X157290567Y-102567265D01*
X157202945Y-102442127D01*
X157160047Y-102380861D01*
X157160045Y-102380858D01*
X156999141Y-102219954D01*
X156812734Y-102089432D01*
X156812732Y-102089431D01*
X156606497Y-101993261D01*
X156606488Y-101993258D01*
X156386697Y-101934366D01*
X156386693Y-101934365D01*
X156386692Y-101934365D01*
X156386691Y-101934364D01*
X156386686Y-101934364D01*
X156160002Y-101914532D01*
X156159998Y-101914532D01*
X155933313Y-101934364D01*
X155933302Y-101934366D01*
X155713511Y-101993258D01*
X155713502Y-101993261D01*
X155507267Y-102089431D01*
X155507265Y-102089432D01*
X155320858Y-102219954D01*
X155159954Y-102380858D01*
X155029432Y-102567265D01*
X155029431Y-102567267D01*
X155002382Y-102625275D01*
X154956209Y-102677714D01*
X154889016Y-102696866D01*
X154822135Y-102676650D01*
X154777618Y-102625275D01*
X154750568Y-102567267D01*
X154750567Y-102567265D01*
X154662945Y-102442127D01*
X154620047Y-102380861D01*
X154620045Y-102380858D01*
X154459141Y-102219954D01*
X154272734Y-102089432D01*
X154272732Y-102089431D01*
X154066497Y-101993261D01*
X154066488Y-101993258D01*
X153846697Y-101934366D01*
X153846693Y-101934365D01*
X153846692Y-101934365D01*
X153846691Y-101934364D01*
X153846686Y-101934364D01*
X153620002Y-101914532D01*
X153619998Y-101914532D01*
X153393313Y-101934364D01*
X153393302Y-101934366D01*
X153173511Y-101993258D01*
X153173502Y-101993261D01*
X152967267Y-102089431D01*
X152967265Y-102089432D01*
X152780858Y-102219954D01*
X152619954Y-102380858D01*
X152489432Y-102567265D01*
X152489431Y-102567267D01*
X152462382Y-102625275D01*
X152416209Y-102677714D01*
X152349016Y-102696866D01*
X152282135Y-102676650D01*
X152237618Y-102625275D01*
X152210568Y-102567267D01*
X152210567Y-102567265D01*
X152122945Y-102442127D01*
X152080047Y-102380861D01*
X152080045Y-102380858D01*
X151919141Y-102219954D01*
X151732734Y-102089432D01*
X151732732Y-102089431D01*
X151526497Y-101993261D01*
X151526488Y-101993258D01*
X151306697Y-101934366D01*
X151306693Y-101934365D01*
X151306692Y-101934365D01*
X151306691Y-101934364D01*
X151306686Y-101934364D01*
X151080002Y-101914532D01*
X151079998Y-101914532D01*
X150853313Y-101934364D01*
X150853302Y-101934366D01*
X150633511Y-101993258D01*
X150633502Y-101993261D01*
X150427267Y-102089431D01*
X150427265Y-102089432D01*
X150240858Y-102219954D01*
X150079954Y-102380858D01*
X149949432Y-102567265D01*
X149949431Y-102567267D01*
X149853261Y-102773502D01*
X149853258Y-102773511D01*
X149794366Y-102993302D01*
X149794364Y-102993313D01*
X149774532Y-103219998D01*
X149774532Y-103220001D01*
X149794364Y-103446686D01*
X149794366Y-103446697D01*
X149818335Y-103536151D01*
X149816672Y-103606001D01*
X149807223Y-103627980D01*
X149790372Y-103658632D01*
X149785091Y-103679199D01*
X149778791Y-103697601D01*
X149770364Y-103717073D01*
X149762766Y-103765047D01*
X149761581Y-103770770D01*
X149749500Y-103817818D01*
X149749500Y-103839044D01*
X149747973Y-103858444D01*
X149744653Y-103879403D01*
X149749225Y-103927767D01*
X149749500Y-103933606D01*
X149749500Y-106406132D01*
X149729815Y-106473171D01*
X149677011Y-106518926D01*
X149607853Y-106528870D01*
X149576600Y-106520083D01*
X149391058Y-106440460D01*
X149191741Y-106399500D01*
X142965795Y-106399500D01*
X142898756Y-106379815D01*
X142878114Y-106363181D01*
X141066463Y-104551531D01*
X141005073Y-104486949D01*
X141005072Y-104486948D01*
X141005071Y-104486947D01*
X140977216Y-104467559D01*
X140954721Y-104451902D01*
X140950958Y-104449064D01*
X140903425Y-104410305D01*
X140903418Y-104410300D01*
X140872971Y-104394397D01*
X140866263Y-104390334D01*
X140838061Y-104370705D01*
X140838058Y-104370703D01*
X140838057Y-104370703D01*
X140838053Y-104370701D01*
X140781692Y-104346514D01*
X140777436Y-104344493D01*
X140723069Y-104316094D01*
X140723062Y-104316091D01*
X140723061Y-104316091D01*
X140717020Y-104314362D01*
X140690042Y-104306642D01*
X140682642Y-104304008D01*
X140651069Y-104290459D01*
X140651070Y-104290459D01*
X140590978Y-104278109D01*
X140586403Y-104276986D01*
X140527432Y-104260113D01*
X140527437Y-104260113D01*
X140493170Y-104257503D01*
X140485392Y-104256412D01*
X140451754Y-104249500D01*
X140451753Y-104249500D01*
X140390414Y-104249500D01*
X140385707Y-104249321D01*
X140380133Y-104248896D01*
X140324536Y-104244662D01*
X140305385Y-104247102D01*
X140290452Y-104249003D01*
X140282623Y-104249500D01*
X130692005Y-104249500D01*
X130624966Y-104229815D01*
X130579211Y-104177011D01*
X130568005Y-104125500D01*
X130568005Y-103914623D01*
X130568004Y-103914617D01*
X130568003Y-103914610D01*
X130561597Y-103855011D01*
X130546571Y-103814725D01*
X130511303Y-103720165D01*
X130511299Y-103720158D01*
X130425053Y-103604949D01*
X130425050Y-103604946D01*
X130309841Y-103518700D01*
X130309834Y-103518696D01*
X130174988Y-103468402D01*
X130174989Y-103468402D01*
X130115389Y-103461995D01*
X130115387Y-103461994D01*
X130115379Y-103461994D01*
X130115370Y-103461994D01*
X127419635Y-103461994D01*
X127419629Y-103461995D01*
X127360022Y-103468402D01*
X127225177Y-103518696D01*
X127225170Y-103518700D01*
X127109961Y-103604946D01*
X127109958Y-103604949D01*
X127023712Y-103720158D01*
X127023708Y-103720165D01*
X126973414Y-103855011D01*
X126967007Y-103914610D01*
X126967005Y-103914629D01*
X126967005Y-104405444D01*
X126947320Y-104472484D01*
X126894516Y-104518238D01*
X126825358Y-104528182D01*
X126768692Y-104504709D01*
X126757332Y-104496204D01*
X126757328Y-104496202D01*
X126622482Y-104445908D01*
X126622483Y-104445908D01*
X126562883Y-104439501D01*
X126562881Y-104439500D01*
X126562873Y-104439500D01*
X126562864Y-104439500D01*
X124767129Y-104439500D01*
X124767123Y-104439501D01*
X124707516Y-104445908D01*
X124572671Y-104496202D01*
X124572664Y-104496206D01*
X124457455Y-104582452D01*
X124457450Y-104582457D01*
X124455418Y-104585172D01*
X124452707Y-104587200D01*
X124451183Y-104588725D01*
X124450963Y-104588505D01*
X124399481Y-104627037D01*
X124329788Y-104632015D01*
X124268478Y-104598532D01*
X123086818Y-103416872D01*
X123053333Y-103355549D01*
X123050499Y-103329191D01*
X123050499Y-95838045D01*
X123050499Y-95130000D01*
X124344341Y-95130000D01*
X124364936Y-95365403D01*
X124364938Y-95365413D01*
X124426094Y-95593655D01*
X124426096Y-95593659D01*
X124426097Y-95593663D01*
X124487410Y-95725148D01*
X124525965Y-95807830D01*
X124525967Y-95807834D01*
X124634281Y-95962521D01*
X124661505Y-96001401D01*
X124828599Y-96168495D01*
X124925384Y-96236264D01*
X125022165Y-96304032D01*
X125022167Y-96304033D01*
X125022170Y-96304035D01*
X125236337Y-96403903D01*
X125236343Y-96403904D01*
X125236344Y-96403905D01*
X125291285Y-96418626D01*
X125464592Y-96465063D01*
X125652918Y-96481539D01*
X125699999Y-96485659D01*
X125700000Y-96485659D01*
X125700001Y-96485659D01*
X125746645Y-96481578D01*
X125935408Y-96465063D01*
X126163663Y-96403903D01*
X126377830Y-96304035D01*
X126571401Y-96168495D01*
X126578076Y-96161819D01*
X126639400Y-96128334D01*
X126665758Y-96125500D01*
X126950099Y-96125500D01*
X127017138Y-96145185D01*
X127062893Y-96197989D01*
X127065527Y-96204197D01*
X127140762Y-96395890D01*
X127140764Y-96395894D01*
X127157806Y-96425411D01*
X127275691Y-96629596D01*
X127324429Y-96690711D01*
X127443948Y-96840583D01*
X127630689Y-97013852D01*
X127641765Y-97024129D01*
X127864732Y-97176145D01*
X127864735Y-97176146D01*
X127864736Y-97176147D01*
X127894996Y-97190719D01*
X128107865Y-97293232D01*
X128365734Y-97372774D01*
X128365735Y-97372774D01*
X128365738Y-97372775D01*
X128632569Y-97412993D01*
X128632574Y-97412993D01*
X128632577Y-97412994D01*
X128632578Y-97412994D01*
X128902434Y-97412994D01*
X128902435Y-97412994D01*
X128902442Y-97412993D01*
X129169273Y-97372775D01*
X129169274Y-97372774D01*
X129169278Y-97372774D01*
X129427147Y-97293232D01*
X129619271Y-97200710D01*
X129670273Y-97176149D01*
X129670273Y-97176148D01*
X129670281Y-97176145D01*
X129893247Y-97024129D01*
X130091067Y-96840579D01*
X130245293Y-96647186D01*
X130302481Y-96607047D01*
X130342239Y-96600500D01*
X130637284Y-96600500D01*
X130726358Y-96602757D01*
X130726358Y-96602756D01*
X130726363Y-96602757D01*
X130786753Y-96591932D01*
X130791412Y-96591280D01*
X130833607Y-96586988D01*
X130852438Y-96585074D01*
X130885227Y-96574786D01*
X130892840Y-96572918D01*
X130926653Y-96566858D01*
X130983621Y-96544101D01*
X130988053Y-96542524D01*
X131046588Y-96524159D01*
X131076627Y-96507484D01*
X131083708Y-96504122D01*
X131115617Y-96491377D01*
X131166854Y-96457608D01*
X131170851Y-96455187D01*
X131224502Y-96425409D01*
X131250568Y-96403030D01*
X131256843Y-96398300D01*
X131261488Y-96395239D01*
X131285519Y-96379402D01*
X131328917Y-96336002D01*
X131332336Y-96332834D01*
X131378895Y-96292866D01*
X131399931Y-96265688D01*
X131405101Y-96259818D01*
X134582952Y-93081967D01*
X134644273Y-93048484D01*
X134680358Y-93046032D01*
X134800000Y-93055449D01*
X135051148Y-93035683D01*
X135296111Y-92976873D01*
X135528859Y-92880466D01*
X135743659Y-92748836D01*
X135935224Y-92585224D01*
X136013164Y-92493967D01*
X136071669Y-92455775D01*
X136107453Y-92450500D01*
X138492547Y-92450500D01*
X138559586Y-92470185D01*
X138586833Y-92493965D01*
X138646363Y-92563665D01*
X138664776Y-92585224D01*
X138856343Y-92748838D01*
X138856346Y-92748839D01*
X139071140Y-92880466D01*
X139213908Y-92939602D01*
X139303889Y-92976873D01*
X139548852Y-93035683D01*
X139800000Y-93055449D01*
X140051148Y-93035683D01*
X140296111Y-92976873D01*
X140528859Y-92880466D01*
X140743659Y-92748836D01*
X140935224Y-92585224D01*
X141098836Y-92393659D01*
X141230466Y-92178859D01*
X141326873Y-91946111D01*
X141385683Y-91701148D01*
X141405449Y-91450000D01*
X141385683Y-91198852D01*
X141326873Y-90953889D01*
X141320971Y-90939640D01*
X141230466Y-90721140D01*
X141098839Y-90506346D01*
X141098838Y-90506343D01*
X141041385Y-90439075D01*
X140935224Y-90314776D01*
X140791994Y-90192446D01*
X140743656Y-90151161D01*
X140743653Y-90151160D01*
X140528859Y-90019533D01*
X140296110Y-89923126D01*
X140051151Y-89864317D01*
X139800000Y-89844551D01*
X139548848Y-89864317D01*
X139303889Y-89923126D01*
X139071140Y-90019533D01*
X138856346Y-90151160D01*
X138856343Y-90151161D01*
X138664776Y-90314775D01*
X138645508Y-90337336D01*
X138586835Y-90406032D01*
X138528331Y-90444225D01*
X138492547Y-90449500D01*
X136107453Y-90449500D01*
X136040414Y-90429815D01*
X136013166Y-90406034D01*
X135935224Y-90314776D01*
X135878150Y-90266030D01*
X135743656Y-90151161D01*
X135743653Y-90151160D01*
X135528859Y-90019533D01*
X135296110Y-89923126D01*
X135051151Y-89864317D01*
X134837254Y-89847483D01*
X134800000Y-89844551D01*
X134799999Y-89844551D01*
X134548848Y-89864317D01*
X134303889Y-89923126D01*
X134071140Y-90019533D01*
X133856346Y-90151160D01*
X133856343Y-90151161D01*
X133664776Y-90314776D01*
X133501161Y-90506343D01*
X133501160Y-90506346D01*
X133369533Y-90721140D01*
X133273126Y-90953889D01*
X133214317Y-91198848D01*
X133194551Y-91450000D01*
X133203966Y-91569640D01*
X133189601Y-91638017D01*
X133168029Y-91667049D01*
X130348725Y-94486353D01*
X130287402Y-94519838D01*
X130217710Y-94514854D01*
X130164097Y-94475985D01*
X130091063Y-94384404D01*
X129893247Y-94200859D01*
X129781249Y-94124500D01*
X129670281Y-94048843D01*
X129670277Y-94048841D01*
X129670274Y-94048839D01*
X129670272Y-94048838D01*
X129461321Y-93948213D01*
X129409461Y-93901391D01*
X129391148Y-93833964D01*
X129412196Y-93767340D01*
X129465922Y-93722671D01*
X129515122Y-93712493D01*
X130112292Y-93712493D01*
X130112314Y-93712491D01*
X130137375Y-93709585D01*
X130137379Y-93709584D01*
X130239980Y-93664282D01*
X130239985Y-93664279D01*
X130319291Y-93584973D01*
X130319294Y-93584968D01*
X130364595Y-93482371D01*
X130364595Y-93482369D01*
X130367505Y-93457288D01*
X130367506Y-93457285D01*
X130367506Y-92362494D01*
X129368234Y-92362494D01*
X129390606Y-92314951D01*
X129421379Y-92153632D01*
X129411067Y-91989728D01*
X129369726Y-91862494D01*
X130367504Y-91862494D01*
X130367505Y-90767708D01*
X130367503Y-90767685D01*
X130364597Y-90742624D01*
X130364596Y-90742620D01*
X130319294Y-90640019D01*
X130319291Y-90640014D01*
X130239985Y-90560708D01*
X130239980Y-90560705D01*
X130137382Y-90515404D01*
X130112300Y-90512494D01*
X129017506Y-90512494D01*
X129017506Y-91508183D01*
X129008689Y-91503336D01*
X128849620Y-91462494D01*
X128726612Y-91462494D01*
X128604573Y-91477911D01*
X128517505Y-91512383D01*
X128517505Y-90512494D01*
X127422720Y-90512494D01*
X127422697Y-90512496D01*
X127397636Y-90515402D01*
X127397632Y-90515403D01*
X127295031Y-90560705D01*
X127295026Y-90560708D01*
X127215720Y-90640014D01*
X127215717Y-90640019D01*
X127170416Y-90742616D01*
X127170416Y-90742618D01*
X127167506Y-90767699D01*
X127167506Y-91862494D01*
X128166778Y-91862494D01*
X128144406Y-91910037D01*
X128113633Y-92071356D01*
X128123945Y-92235260D01*
X128165286Y-92362494D01*
X127167507Y-92362494D01*
X127167507Y-93457279D01*
X127167508Y-93457302D01*
X127170414Y-93482363D01*
X127170415Y-93482367D01*
X127215717Y-93584968D01*
X127215720Y-93584973D01*
X127295026Y-93664279D01*
X127295031Y-93664282D01*
X127397629Y-93709583D01*
X127422712Y-93712493D01*
X128019888Y-93712493D01*
X128086927Y-93732177D01*
X128132682Y-93784981D01*
X128142626Y-93854140D01*
X128113601Y-93917696D01*
X128073690Y-93948213D01*
X127864735Y-94048841D01*
X127864731Y-94048843D01*
X127785365Y-94102954D01*
X127718886Y-94124454D01*
X127715514Y-94124500D01*
X126655758Y-94124500D01*
X126588719Y-94104815D01*
X126575936Y-94094514D01*
X126575544Y-94094982D01*
X126571396Y-94091501D01*
X126391553Y-93965574D01*
X126347928Y-93910997D01*
X126340734Y-93841499D01*
X126372257Y-93779144D01*
X126432487Y-93743730D01*
X126462676Y-93739999D01*
X126594786Y-93739999D01*
X126594808Y-93739997D01*
X126619869Y-93737091D01*
X126619873Y-93737090D01*
X126722474Y-93691788D01*
X126722479Y-93691785D01*
X126801785Y-93612479D01*
X126801788Y-93612474D01*
X126847089Y-93509877D01*
X126847089Y-93509875D01*
X126849999Y-93484794D01*
X126850000Y-93484791D01*
X126850000Y-92840000D01*
X126133686Y-92840000D01*
X126159493Y-92799844D01*
X126200000Y-92661889D01*
X126200000Y-92518111D01*
X126159493Y-92380156D01*
X126133686Y-92340000D01*
X126849999Y-92340000D01*
X126849999Y-91695214D01*
X126849997Y-91695191D01*
X126847091Y-91670130D01*
X126847090Y-91670126D01*
X126801788Y-91567525D01*
X126801785Y-91567520D01*
X126722479Y-91488214D01*
X126722474Y-91488211D01*
X126619876Y-91442910D01*
X126594794Y-91440000D01*
X125950000Y-91440000D01*
X125950000Y-92154498D01*
X125842315Y-92105320D01*
X125735763Y-92090000D01*
X125664237Y-92090000D01*
X125557685Y-92105320D01*
X125450000Y-92154498D01*
X125450000Y-91440000D01*
X124805214Y-91440000D01*
X124805191Y-91440002D01*
X124780130Y-91442908D01*
X124780126Y-91442909D01*
X124677525Y-91488211D01*
X124677520Y-91488214D01*
X124598214Y-91567520D01*
X124598211Y-91567525D01*
X124552910Y-91670122D01*
X124552910Y-91670124D01*
X124550000Y-91695205D01*
X124550000Y-92340000D01*
X125266314Y-92340000D01*
X125240507Y-92380156D01*
X125200000Y-92518111D01*
X125200000Y-92661889D01*
X125240507Y-92799844D01*
X125266314Y-92840000D01*
X124550001Y-92840000D01*
X124550001Y-93484785D01*
X124550002Y-93484808D01*
X124552908Y-93509869D01*
X124552909Y-93509873D01*
X124598211Y-93612474D01*
X124598214Y-93612479D01*
X124677520Y-93691785D01*
X124677525Y-93691788D01*
X124780123Y-93737089D01*
X124805206Y-93739999D01*
X124937322Y-93739999D01*
X125004362Y-93759683D01*
X125050117Y-93812487D01*
X125060061Y-93881645D01*
X125031037Y-93945201D01*
X125008447Y-93965574D01*
X124828594Y-94091508D01*
X124661505Y-94258597D01*
X124525965Y-94452169D01*
X124525964Y-94452171D01*
X124426098Y-94666335D01*
X124426094Y-94666344D01*
X124364938Y-94894586D01*
X124364936Y-94894596D01*
X124344341Y-95129999D01*
X124344341Y-95130000D01*
X123050499Y-95130000D01*
X123050499Y-88607672D01*
X123070184Y-88540637D01*
X123122988Y-88494882D01*
X123192146Y-88484938D01*
X123255702Y-88513963D01*
X123258037Y-88516039D01*
X123363437Y-88612123D01*
X123363439Y-88612125D01*
X123552595Y-88729245D01*
X123552596Y-88729245D01*
X123552599Y-88729247D01*
X123760060Y-88809618D01*
X123978757Y-88850500D01*
X123978759Y-88850500D01*
X124201241Y-88850500D01*
X124201243Y-88850500D01*
X124419940Y-88809618D01*
X124627401Y-88729247D01*
X124816562Y-88612124D01*
X124980981Y-88462236D01*
X125065908Y-88349773D01*
X125122018Y-88308137D01*
X125164863Y-88300500D01*
X127314495Y-88300500D01*
X127330505Y-88302267D01*
X127330528Y-88302026D01*
X127338289Y-88302758D01*
X127338296Y-88302760D01*
X127410203Y-88300500D01*
X127440925Y-88300500D01*
X127448190Y-88299581D01*
X127454016Y-88299122D01*
X127502569Y-88297597D01*
X127522956Y-88291673D01*
X127541996Y-88287731D01*
X127563058Y-88285071D01*
X127608235Y-88267183D01*
X127613735Y-88265300D01*
X127660398Y-88251744D01*
X127678665Y-88240939D01*
X127696136Y-88232380D01*
X127715871Y-88224568D01*
X127755177Y-88196010D01*
X127760043Y-88192813D01*
X127801865Y-88168081D01*
X127816870Y-88153075D01*
X127831668Y-88140436D01*
X127832765Y-88139639D01*
X127848837Y-88127963D01*
X127879809Y-88090522D01*
X127883713Y-88086231D01*
X128069944Y-87900000D01*
X130740840Y-87900000D01*
X130781652Y-88034541D01*
X130874503Y-88208253D01*
X130874507Y-88208260D01*
X130999471Y-88360528D01*
X131151739Y-88485491D01*
X131325465Y-88578349D01*
X131460000Y-88619159D01*
X131460000Y-87900000D01*
X130740840Y-87900000D01*
X128069944Y-87900000D01*
X128290642Y-87679302D01*
X131356372Y-87679302D01*
X131385047Y-87792538D01*
X131448936Y-87890327D01*
X131541115Y-87962072D01*
X131651595Y-88000000D01*
X131739005Y-88000000D01*
X131825216Y-87985614D01*
X131927947Y-87930019D01*
X131955581Y-87900000D01*
X131960000Y-87900000D01*
X131960000Y-88619159D01*
X132094534Y-88578349D01*
X132268260Y-88485491D01*
X132420528Y-88360528D01*
X132545492Y-88208260D01*
X132545496Y-88208253D01*
X132638347Y-88034541D01*
X132679160Y-87900000D01*
X131960000Y-87900000D01*
X131955581Y-87900000D01*
X132007060Y-87844079D01*
X132053982Y-87737108D01*
X132063628Y-87620698D01*
X132034953Y-87507462D01*
X131971064Y-87409673D01*
X131878885Y-87337928D01*
X131768405Y-87300000D01*
X131680995Y-87300000D01*
X131594784Y-87314386D01*
X131492053Y-87369981D01*
X131412940Y-87455921D01*
X131366018Y-87562892D01*
X131356372Y-87679302D01*
X128290642Y-87679302D01*
X128569945Y-87399999D01*
X130740839Y-87399999D01*
X130740840Y-87400000D01*
X131460000Y-87400000D01*
X131460000Y-86680839D01*
X131960000Y-86680839D01*
X131960000Y-87400000D01*
X132679160Y-87400000D01*
X132679160Y-87399999D01*
X132638347Y-87265458D01*
X132545496Y-87091746D01*
X132545492Y-87091739D01*
X132420528Y-86939471D01*
X132268260Y-86814507D01*
X132268253Y-86814503D01*
X132094541Y-86721652D01*
X131960000Y-86680839D01*
X131460000Y-86680839D01*
X131459999Y-86680839D01*
X131325458Y-86721652D01*
X131151746Y-86814503D01*
X131151739Y-86814507D01*
X130999471Y-86939471D01*
X130874507Y-87091739D01*
X130874503Y-87091746D01*
X130781652Y-87265458D01*
X130740839Y-87399999D01*
X128569945Y-87399999D01*
X131319938Y-84650005D01*
X135394357Y-84650005D01*
X135414890Y-84897812D01*
X135414892Y-84897824D01*
X135475936Y-85138881D01*
X135575826Y-85366606D01*
X135711833Y-85574782D01*
X135711836Y-85574785D01*
X135880256Y-85757738D01*
X136076491Y-85910474D01*
X136295190Y-86028828D01*
X136530386Y-86109571D01*
X136775665Y-86150500D01*
X137024335Y-86150500D01*
X137269614Y-86109571D01*
X137504810Y-86028828D01*
X137723509Y-85910474D01*
X137919744Y-85757738D01*
X138088164Y-85574785D01*
X138224173Y-85366607D01*
X138324063Y-85138881D01*
X138385108Y-84897821D01*
X138405643Y-84650005D01*
X141894357Y-84650005D01*
X141914890Y-84897812D01*
X141914892Y-84897824D01*
X141975936Y-85138881D01*
X142075826Y-85366606D01*
X142211833Y-85574782D01*
X142211836Y-85574785D01*
X142380256Y-85757738D01*
X142576491Y-85910474D01*
X142795190Y-86028828D01*
X143030386Y-86109571D01*
X143275665Y-86150500D01*
X143524335Y-86150500D01*
X143769614Y-86109571D01*
X144004810Y-86028828D01*
X144223509Y-85910474D01*
X144419744Y-85757738D01*
X144588164Y-85574785D01*
X144724173Y-85366607D01*
X144824063Y-85138881D01*
X144885108Y-84897821D01*
X144905643Y-84650000D01*
X144885108Y-84402179D01*
X144824063Y-84161119D01*
X144746420Y-83984112D01*
X144724173Y-83933393D01*
X144588166Y-83725217D01*
X144566557Y-83701744D01*
X144419744Y-83542262D01*
X144223509Y-83389526D01*
X144223507Y-83389525D01*
X144223506Y-83389524D01*
X144004811Y-83271172D01*
X144004802Y-83271169D01*
X143769616Y-83190429D01*
X143524335Y-83149500D01*
X143275665Y-83149500D01*
X143030383Y-83190429D01*
X142795197Y-83271169D01*
X142795188Y-83271172D01*
X142576493Y-83389524D01*
X142519460Y-83433915D01*
X142380256Y-83542262D01*
X142380189Y-83542335D01*
X142211833Y-83725217D01*
X142075826Y-83933393D01*
X141975936Y-84161118D01*
X141914892Y-84402175D01*
X141914890Y-84402187D01*
X141894357Y-84649994D01*
X141894357Y-84650005D01*
X138405643Y-84650005D01*
X138405643Y-84650000D01*
X138385108Y-84402179D01*
X138324063Y-84161119D01*
X138246420Y-83984112D01*
X138224173Y-83933393D01*
X138088166Y-83725217D01*
X138066557Y-83701744D01*
X137919744Y-83542262D01*
X137723509Y-83389526D01*
X137723507Y-83389525D01*
X137723506Y-83389524D01*
X137504811Y-83271172D01*
X137504802Y-83271169D01*
X137269616Y-83190429D01*
X137024335Y-83149500D01*
X136775665Y-83149500D01*
X136530383Y-83190429D01*
X136295197Y-83271169D01*
X136295188Y-83271172D01*
X136076493Y-83389524D01*
X136019460Y-83433915D01*
X135880256Y-83542262D01*
X135880189Y-83542335D01*
X135711833Y-83725217D01*
X135575826Y-83933393D01*
X135475936Y-84161118D01*
X135414892Y-84402175D01*
X135414890Y-84402187D01*
X135394357Y-84649994D01*
X135394357Y-84650005D01*
X131319938Y-84650005D01*
X132133126Y-83836817D01*
X132194450Y-83803333D01*
X132220808Y-83800499D01*
X133597871Y-83800499D01*
X133597872Y-83800499D01*
X133657483Y-83794091D01*
X133792331Y-83743796D01*
X133907546Y-83657546D01*
X133993796Y-83542331D01*
X134044091Y-83407483D01*
X134050500Y-83347873D01*
X134050499Y-81452128D01*
X134044091Y-81392517D01*
X134038029Y-81376265D01*
X133993797Y-81257671D01*
X133993793Y-81257664D01*
X133907547Y-81142455D01*
X133907544Y-81142452D01*
X133792335Y-81056206D01*
X133792328Y-81056202D01*
X133657482Y-81005908D01*
X133657483Y-81005908D01*
X133597883Y-80999501D01*
X133597881Y-80999500D01*
X133597873Y-80999500D01*
X133597864Y-80999500D01*
X131702129Y-80999500D01*
X131702123Y-80999501D01*
X131642516Y-81005908D01*
X131507671Y-81056202D01*
X131507664Y-81056206D01*
X131392455Y-81142452D01*
X131392452Y-81142455D01*
X131306206Y-81257664D01*
X131306203Y-81257670D01*
X131277544Y-81334508D01*
X131235672Y-81390441D01*
X131170208Y-81414858D01*
X131101935Y-81400006D01*
X131070135Y-81375158D01*
X131061784Y-81366087D01*
X131061778Y-81366082D01*
X131061777Y-81366081D01*
X130878634Y-81223535D01*
X130878628Y-81223531D01*
X130674504Y-81113064D01*
X130674495Y-81113061D01*
X130454984Y-81037702D01*
X130264450Y-81005908D01*
X130226049Y-80999500D01*
X129993951Y-80999500D01*
X129879899Y-81018531D01*
X129765012Y-81037703D01*
X129760049Y-81038960D01*
X129759736Y-81037725D01*
X129695940Y-81040602D01*
X129637799Y-81007853D01*
X128779948Y-80150002D01*
X135595034Y-80150002D01*
X135614858Y-80376599D01*
X135614860Y-80376610D01*
X135673730Y-80596317D01*
X135673734Y-80596326D01*
X135769865Y-80802481D01*
X135769866Y-80802483D01*
X135820973Y-80875471D01*
X135820974Y-80875472D01*
X136374070Y-80322375D01*
X136376884Y-80335915D01*
X136446442Y-80470156D01*
X136549638Y-80580652D01*
X136678819Y-80659209D01*
X136730002Y-80673549D01*
X136174526Y-81229025D01*
X136174526Y-81229026D01*
X136247512Y-81280131D01*
X136247516Y-81280133D01*
X136453673Y-81376265D01*
X136453682Y-81376269D01*
X136673389Y-81435139D01*
X136673400Y-81435141D01*
X136899998Y-81454966D01*
X136900002Y-81454966D01*
X137126599Y-81435141D01*
X137126610Y-81435139D01*
X137346317Y-81376269D01*
X137346331Y-81376264D01*
X137552478Y-81280136D01*
X137625472Y-81229025D01*
X137071568Y-80675121D01*
X137188458Y-80624349D01*
X137305739Y-80528934D01*
X137392928Y-80405415D01*
X137423354Y-80319801D01*
X137979025Y-80875472D01*
X138030136Y-80802478D01*
X138126264Y-80596331D01*
X138126269Y-80596317D01*
X138185139Y-80376610D01*
X138185141Y-80376599D01*
X138204966Y-80150002D01*
X142095034Y-80150002D01*
X142114858Y-80376599D01*
X142114860Y-80376610D01*
X142173730Y-80596317D01*
X142173734Y-80596326D01*
X142269865Y-80802481D01*
X142269866Y-80802483D01*
X142320973Y-80875471D01*
X142320974Y-80875472D01*
X142874070Y-80322375D01*
X142876884Y-80335915D01*
X142946442Y-80470156D01*
X143049638Y-80580652D01*
X143178819Y-80659209D01*
X143230002Y-80673549D01*
X142674526Y-81229025D01*
X142674526Y-81229026D01*
X142747512Y-81280131D01*
X142747516Y-81280133D01*
X142953673Y-81376265D01*
X142953682Y-81376269D01*
X143173389Y-81435139D01*
X143173400Y-81435141D01*
X143399998Y-81454966D01*
X143400002Y-81454966D01*
X143626599Y-81435141D01*
X143626610Y-81435139D01*
X143846317Y-81376269D01*
X143846331Y-81376264D01*
X144052478Y-81280136D01*
X144125472Y-81229025D01*
X143571568Y-80675121D01*
X143688458Y-80624349D01*
X143805739Y-80528934D01*
X143892928Y-80405415D01*
X143923354Y-80319801D01*
X144479025Y-80875472D01*
X144530136Y-80802478D01*
X144626264Y-80596331D01*
X144626269Y-80596317D01*
X144685139Y-80376610D01*
X144685141Y-80376599D01*
X144704966Y-80150002D01*
X144704966Y-80149997D01*
X144685141Y-79923400D01*
X144685139Y-79923389D01*
X144626269Y-79703682D01*
X144626265Y-79703673D01*
X144530133Y-79497516D01*
X144530131Y-79497512D01*
X144479026Y-79424526D01*
X144479025Y-79424526D01*
X143925929Y-79977622D01*
X143923116Y-79964085D01*
X143853558Y-79829844D01*
X143750362Y-79719348D01*
X143621181Y-79640791D01*
X143569996Y-79626449D01*
X144125472Y-79070974D01*
X144125471Y-79070973D01*
X144052483Y-79019866D01*
X144052481Y-79019865D01*
X143846326Y-78923734D01*
X143846317Y-78923730D01*
X143626610Y-78864860D01*
X143626599Y-78864858D01*
X143400002Y-78845034D01*
X143399998Y-78845034D01*
X143173400Y-78864858D01*
X143173389Y-78864860D01*
X142953682Y-78923730D01*
X142953673Y-78923734D01*
X142747513Y-79019868D01*
X142674527Y-79070972D01*
X142674526Y-79070973D01*
X143228432Y-79624878D01*
X143111542Y-79675651D01*
X142994261Y-79771066D01*
X142907072Y-79894585D01*
X142876645Y-79980198D01*
X142320973Y-79424526D01*
X142320972Y-79424527D01*
X142269868Y-79497513D01*
X142173734Y-79703673D01*
X142173730Y-79703682D01*
X142114860Y-79923389D01*
X142114858Y-79923400D01*
X142095034Y-80149997D01*
X142095034Y-80150002D01*
X138204966Y-80150002D01*
X138204966Y-80149997D01*
X138185141Y-79923400D01*
X138185139Y-79923389D01*
X138126269Y-79703682D01*
X138126265Y-79703673D01*
X138030133Y-79497516D01*
X138030131Y-79497512D01*
X137979026Y-79424526D01*
X137979025Y-79424526D01*
X137425929Y-79977622D01*
X137423116Y-79964085D01*
X137353558Y-79829844D01*
X137250362Y-79719348D01*
X137121181Y-79640791D01*
X137069996Y-79626449D01*
X137625472Y-79070974D01*
X137625471Y-79070973D01*
X137552483Y-79019866D01*
X137552481Y-79019865D01*
X137346326Y-78923734D01*
X137346317Y-78923730D01*
X137126610Y-78864860D01*
X137126599Y-78864858D01*
X136900002Y-78845034D01*
X136899998Y-78845034D01*
X136673400Y-78864858D01*
X136673389Y-78864860D01*
X136453682Y-78923730D01*
X136453673Y-78923734D01*
X136247513Y-79019868D01*
X136174527Y-79070972D01*
X136174526Y-79070973D01*
X136728432Y-79624878D01*
X136611542Y-79675651D01*
X136494261Y-79771066D01*
X136407072Y-79894585D01*
X136376645Y-79980198D01*
X135820973Y-79424526D01*
X135820972Y-79424527D01*
X135769868Y-79497513D01*
X135673734Y-79703673D01*
X135673730Y-79703682D01*
X135614860Y-79923389D01*
X135614858Y-79923400D01*
X135595034Y-80149997D01*
X135595034Y-80150002D01*
X128779948Y-80150002D01*
X128380434Y-79750488D01*
X128370361Y-79737914D01*
X128370174Y-79738070D01*
X128365201Y-79732059D01*
X128312756Y-79682810D01*
X128291035Y-79661089D01*
X128285240Y-79656594D01*
X128280798Y-79652799D01*
X128245396Y-79619554D01*
X128245388Y-79619548D01*
X128226792Y-79609325D01*
X128210531Y-79598644D01*
X128193763Y-79585637D01*
X128170295Y-79575482D01*
X128149178Y-79566343D01*
X128143956Y-79563786D01*
X128101368Y-79540373D01*
X128101365Y-79540372D01*
X128080801Y-79535092D01*
X128062396Y-79528790D01*
X128042927Y-79520365D01*
X128042921Y-79520363D01*
X127994951Y-79512766D01*
X127989236Y-79511582D01*
X127972772Y-79507355D01*
X127942180Y-79499500D01*
X127942177Y-79499500D01*
X127920955Y-79499500D01*
X127901555Y-79497973D01*
X127880596Y-79494653D01*
X127880595Y-79494653D01*
X127856786Y-79496903D01*
X127832230Y-79499225D01*
X127826392Y-79499500D01*
X127083837Y-79499500D01*
X127016798Y-79479815D01*
X126977438Y-79437384D01*
X126976978Y-79437686D01*
X126975214Y-79434987D01*
X126974786Y-79434525D01*
X126974173Y-79433393D01*
X126838166Y-79225217D01*
X126816557Y-79201744D01*
X126669744Y-79042262D01*
X126473509Y-78889526D01*
X126473507Y-78889525D01*
X126473506Y-78889524D01*
X126254811Y-78771172D01*
X126254802Y-78771169D01*
X126019616Y-78690429D01*
X125774335Y-78649500D01*
X125525665Y-78649500D01*
X125280383Y-78690429D01*
X125045197Y-78771169D01*
X125045188Y-78771172D01*
X124826493Y-78889524D01*
X124630257Y-79042261D01*
X124461833Y-79225217D01*
X124325826Y-79433393D01*
X124325214Y-79434525D01*
X124324842Y-79434898D01*
X124323022Y-79437686D01*
X124322448Y-79437311D01*
X124275991Y-79484112D01*
X124216163Y-79499500D01*
X120583837Y-79499500D01*
X120516798Y-79479815D01*
X120477438Y-79437384D01*
X120476978Y-79437686D01*
X120475214Y-79434987D01*
X120474786Y-79434525D01*
X120474173Y-79433393D01*
X120338166Y-79225217D01*
X120316557Y-79201744D01*
X120169744Y-79042262D01*
X119973509Y-78889526D01*
X119973507Y-78889525D01*
X119973506Y-78889524D01*
X119754811Y-78771172D01*
X119754802Y-78771169D01*
X119519616Y-78690429D01*
X119274335Y-78649500D01*
X119025665Y-78649500D01*
X118780383Y-78690429D01*
X118545197Y-78771169D01*
X118545188Y-78771172D01*
X118326493Y-78889524D01*
X118130257Y-79042261D01*
X117961833Y-79225217D01*
X117825826Y-79433393D01*
X117725936Y-79661118D01*
X117664892Y-79902175D01*
X117664890Y-79902187D01*
X117644357Y-80149994D01*
X117644357Y-80150005D01*
X117664890Y-80397812D01*
X117664892Y-80397824D01*
X117725936Y-80638881D01*
X117825826Y-80866606D01*
X117961833Y-81074782D01*
X117961836Y-81074785D01*
X118130256Y-81257738D01*
X118326491Y-81410474D01*
X118545190Y-81528828D01*
X118780386Y-81609571D01*
X119025665Y-81650500D01*
X119274335Y-81650500D01*
X119519614Y-81609571D01*
X119754810Y-81528828D01*
X119973509Y-81410474D01*
X120169744Y-81257738D01*
X120338164Y-81074785D01*
X120474173Y-80866607D01*
X120474175Y-80866601D01*
X120474786Y-80865475D01*
X120475157Y-80865101D01*
X120476978Y-80862314D01*
X120477551Y-80862688D01*
X120524009Y-80815888D01*
X120583837Y-80800500D01*
X124216163Y-80800500D01*
X124283202Y-80820185D01*
X124322561Y-80862615D01*
X124323022Y-80862314D01*
X124324785Y-80865012D01*
X124325214Y-80865475D01*
X124325826Y-80866606D01*
X124461833Y-81074782D01*
X124461836Y-81074785D01*
X124630256Y-81257738D01*
X124826491Y-81410474D01*
X125045190Y-81528828D01*
X125280386Y-81609571D01*
X125525665Y-81650500D01*
X125774335Y-81650500D01*
X126019614Y-81609571D01*
X126254810Y-81528828D01*
X126473509Y-81410474D01*
X126669744Y-81257738D01*
X126838164Y-81074785D01*
X126974173Y-80866607D01*
X126974175Y-80866601D01*
X126974786Y-80865475D01*
X126975157Y-80865101D01*
X126976978Y-80862314D01*
X126977551Y-80862688D01*
X127024009Y-80815888D01*
X127083837Y-80800500D01*
X127539192Y-80800500D01*
X127606231Y-80820185D01*
X127626873Y-80836819D01*
X128721506Y-81931452D01*
X128754991Y-81992775D01*
X128754031Y-82049572D01*
X128723865Y-82168696D01*
X128704700Y-82399993D01*
X128704700Y-82400006D01*
X128723864Y-82631297D01*
X128723866Y-82631308D01*
X128780842Y-82856300D01*
X128874075Y-83068848D01*
X129001016Y-83263147D01*
X129001019Y-83263151D01*
X129001021Y-83263153D01*
X129158216Y-83433913D01*
X129158219Y-83433915D01*
X129158222Y-83433918D01*
X129341365Y-83576464D01*
X129341371Y-83576468D01*
X129341374Y-83576470D01*
X129545497Y-83686936D01*
X129657000Y-83725215D01*
X129765015Y-83762297D01*
X129765017Y-83762297D01*
X129765019Y-83762298D01*
X129993951Y-83800500D01*
X129993952Y-83800500D01*
X130030191Y-83800500D01*
X130097230Y-83820185D01*
X130142985Y-83872989D01*
X130152929Y-83942147D01*
X130123904Y-84005703D01*
X130117872Y-84012181D01*
X127166873Y-86963181D01*
X127105550Y-86996666D01*
X127079192Y-86999500D01*
X125164863Y-86999500D01*
X125097824Y-86979815D01*
X125065909Y-86950227D01*
X125052854Y-86932939D01*
X124980981Y-86837764D01*
X124980978Y-86837761D01*
X124980974Y-86837757D01*
X124816562Y-86687876D01*
X124816560Y-86687874D01*
X124627404Y-86570754D01*
X124627398Y-86570752D01*
X124419940Y-86490382D01*
X124201243Y-86449500D01*
X123978757Y-86449500D01*
X123760060Y-86490382D01*
X123628864Y-86541207D01*
X123552601Y-86570752D01*
X123552595Y-86570754D01*
X123363439Y-86687874D01*
X123363437Y-86687876D01*
X123258038Y-86783960D01*
X123195234Y-86814577D01*
X123125847Y-86806379D01*
X123071907Y-86761969D01*
X123050539Y-86695447D01*
X123050500Y-86692323D01*
X123050500Y-85424500D01*
X123070185Y-85357461D01*
X123122989Y-85311706D01*
X123174500Y-85300500D01*
X124216163Y-85300500D01*
X124283202Y-85320185D01*
X124322561Y-85362615D01*
X124323022Y-85362314D01*
X124324785Y-85365012D01*
X124325214Y-85365475D01*
X124325826Y-85366606D01*
X124461833Y-85574782D01*
X124461836Y-85574785D01*
X124630256Y-85757738D01*
X124826491Y-85910474D01*
X125045190Y-86028828D01*
X125280386Y-86109571D01*
X125525665Y-86150500D01*
X125774335Y-86150500D01*
X126019614Y-86109571D01*
X126254810Y-86028828D01*
X126473509Y-85910474D01*
X126669744Y-85757738D01*
X126838164Y-85574785D01*
X126974173Y-85366607D01*
X127074063Y-85138881D01*
X127135108Y-84897821D01*
X127155643Y-84650000D01*
X127135108Y-84402179D01*
X127074063Y-84161119D01*
X126996420Y-83984112D01*
X126974173Y-83933393D01*
X126838166Y-83725217D01*
X126816557Y-83701744D01*
X126669744Y-83542262D01*
X126473509Y-83389526D01*
X126473507Y-83389525D01*
X126473506Y-83389524D01*
X126254811Y-83271172D01*
X126254802Y-83271169D01*
X126019616Y-83190429D01*
X125774335Y-83149500D01*
X125525665Y-83149500D01*
X125280383Y-83190429D01*
X125045197Y-83271169D01*
X125045188Y-83271172D01*
X124826493Y-83389524D01*
X124769460Y-83433915D01*
X124630256Y-83542262D01*
X124630189Y-83542335D01*
X124461833Y-83725217D01*
X124325826Y-83933393D01*
X124325214Y-83934525D01*
X124324842Y-83934898D01*
X124323022Y-83937686D01*
X124322448Y-83937311D01*
X124275991Y-83984112D01*
X124216163Y-83999500D01*
X122473210Y-83999500D01*
X122449978Y-83997304D01*
X122441170Y-83995624D01*
X122441168Y-83995624D01*
X122431900Y-83996207D01*
X122381491Y-83999378D01*
X122377619Y-83999500D01*
X120583837Y-83999500D01*
X120516798Y-83979815D01*
X120477438Y-83937384D01*
X120476978Y-83937686D01*
X120475214Y-83934987D01*
X120474786Y-83934525D01*
X120474173Y-83933393D01*
X120338166Y-83725217D01*
X120316557Y-83701744D01*
X120169744Y-83542262D01*
X119973509Y-83389526D01*
X119973507Y-83389525D01*
X119973506Y-83389524D01*
X119754811Y-83271172D01*
X119754802Y-83271169D01*
X119519616Y-83190429D01*
X119274335Y-83149500D01*
X119025665Y-83149500D01*
X118780383Y-83190429D01*
X118545197Y-83271169D01*
X118545188Y-83271172D01*
X118326493Y-83389524D01*
X118269460Y-83433915D01*
X118130256Y-83542262D01*
X118130189Y-83542335D01*
X117961833Y-83725217D01*
X117825826Y-83933393D01*
X117725936Y-84161118D01*
X117664892Y-84402175D01*
X117664890Y-84402187D01*
X117644357Y-84649994D01*
X117644357Y-84650005D01*
X108900500Y-84650005D01*
X108900500Y-60724500D01*
X108920185Y-60657461D01*
X108972989Y-60611706D01*
X109024500Y-60600500D01*
X109042305Y-60600500D01*
X109042313Y-60600500D01*
X109725862Y-60562112D01*
X110021082Y-60528848D01*
X110406169Y-60485461D01*
X110406176Y-60485459D01*
X110406183Y-60485459D01*
X111081130Y-60370781D01*
X111081131Y-60370781D01*
X111081133Y-60370780D01*
X111081136Y-60370780D01*
X111748597Y-60218436D01*
X112406466Y-60028907D01*
X112406470Y-60028905D01*
X112406470Y-60028906D01*
X113052682Y-59802787D01*
X113445684Y-59639998D01*
X113685185Y-59540794D01*
X113685191Y-59540790D01*
X113685196Y-59540789D01*
X114302003Y-59243751D01*
X114321031Y-59233234D01*
X114901213Y-58912580D01*
X115480902Y-58548337D01*
X115480907Y-58548334D01*
X116039249Y-58152168D01*
X116039250Y-58152168D01*
X116574523Y-57725302D01*
X117084995Y-57269116D01*
X117084994Y-57269116D01*
X117085004Y-57269108D01*
X117569108Y-56785004D01*
X118025306Y-56274518D01*
X118452163Y-55739256D01*
X118452168Y-55739250D01*
X118452168Y-55739249D01*
X118848334Y-55180907D01*
X119164512Y-54677712D01*
X119212580Y-54601213D01*
X119543746Y-54002012D01*
X119543745Y-54002012D01*
X119543751Y-54002003D01*
X119840789Y-53385196D01*
X119855602Y-53349436D01*
X119972069Y-53068261D01*
X120102787Y-52752682D01*
X120199821Y-52475373D01*
X149195723Y-52475373D01*
X149225881Y-52775160D01*
X149225882Y-52775162D01*
X149295728Y-53068252D01*
X149295733Y-53068266D01*
X149404020Y-53349427D01*
X149404024Y-53349436D01*
X149548825Y-53613665D01*
X149548829Y-53613671D01*
X149727551Y-53856234D01*
X149727554Y-53856238D01*
X149937020Y-54072824D01*
X150004390Y-54126026D01*
X150173478Y-54259553D01*
X150173480Y-54259554D01*
X150173485Y-54259558D01*
X150432730Y-54413109D01*
X150710128Y-54530736D01*
X151000729Y-54610340D01*
X151299347Y-54650500D01*
X151299351Y-54650500D01*
X151525252Y-54650500D01*
X151689164Y-54639526D01*
X151750634Y-54635412D01*
X152045903Y-54575396D01*
X152330537Y-54476560D01*
X152599459Y-54340668D01*
X152847869Y-54170144D01*
X153071333Y-53968032D01*
X153265865Y-53737939D01*
X153427993Y-53483970D01*
X153554823Y-53210658D01*
X153644093Y-52922879D01*
X153694209Y-52625770D01*
X153704277Y-52324631D01*
X153674118Y-52024838D01*
X153604269Y-51731739D01*
X153495977Y-51450566D01*
X153351175Y-51186335D01*
X153172446Y-50943762D01*
X152962980Y-50727176D01*
X152839742Y-50629856D01*
X152726521Y-50540446D01*
X152726517Y-50540443D01*
X152726515Y-50540442D01*
X152467270Y-50386891D01*
X152189872Y-50269264D01*
X152189863Y-50269261D01*
X151899272Y-50189660D01*
X151824616Y-50179620D01*
X151600653Y-50149500D01*
X151374756Y-50149500D01*
X151374748Y-50149500D01*
X151149368Y-50164587D01*
X151149359Y-50164589D01*
X150854094Y-50224604D01*
X150569464Y-50323439D01*
X150569459Y-50323441D01*
X150300546Y-50459328D01*
X150052125Y-50629860D01*
X149828665Y-50831969D01*
X149634132Y-51062064D01*
X149472006Y-51316030D01*
X149472005Y-51316032D01*
X149345181Y-51589333D01*
X149345177Y-51589342D01*
X149345176Y-51589346D01*
X149255907Y-51877118D01*
X149205791Y-52174230D01*
X149195723Y-52475373D01*
X120199821Y-52475373D01*
X120328906Y-52106470D01*
X120328905Y-52106471D01*
X120328907Y-52106466D01*
X120518436Y-51448597D01*
X120670780Y-50781136D01*
X120785459Y-50106183D01*
X120862112Y-49425862D01*
X120900500Y-48742313D01*
X120900500Y-48724499D01*
X120920185Y-48657461D01*
X120972989Y-48611706D01*
X121024500Y-48600500D01*
X182075500Y-48600500D01*
X182142539Y-48620185D01*
G37*
%TD.AperFunction*%
%TD*%
M02*
