%TF.GenerationSoftware,KiCad,Pcbnew,7.0.6*%
%TF.CreationDate,2023-08-07T22:53:39+02:00*%
%TF.ProjectId,attiny85_time_switch,61747469-6e79-4383-955f-74696d655f73,1.0*%
%TF.SameCoordinates,Original*%
%TF.FileFunction,Drillmap*%
%TF.FilePolarity,Positive*%
%FSLAX45Y45*%
G04 Gerber Fmt 4.5, Leading zero omitted, Abs format (unit mm)*
G04 Created by KiCad (PCBNEW 7.0.6) date 2023-08-07 22:53:39*
%MOMM*%
%LPD*%
G01*
G04 APERTURE LIST*
%ADD10C,0.200000*%
%ADD11C,0.400000*%
G04 APERTURE END LIST*
D10*
D11*
X11070000Y-8935000D02*
X11470000Y-9335000D01*
X11470000Y-8935000D02*
X11070000Y-9335000D01*
X14945000Y-5040000D02*
X15345000Y-5440000D01*
X15345000Y-5040000D02*
X14945000Y-5440000D01*
X14945000Y-12810000D02*
X15345000Y-13210000D01*
X15345000Y-12810000D02*
X14945000Y-13210000D01*
X18840000Y-8935000D02*
X19240000Y-9335000D01*
X19240000Y-8935000D02*
X18840000Y-9335000D01*
D10*
X11120777Y-13731484D02*
X11120777Y-13531484D01*
X11120777Y-13531484D02*
X11168396Y-13531484D01*
X11168396Y-13531484D02*
X11196967Y-13541008D01*
X11196967Y-13541008D02*
X11216015Y-13560055D01*
X11216015Y-13560055D02*
X11225539Y-13579103D01*
X11225539Y-13579103D02*
X11235062Y-13617198D01*
X11235062Y-13617198D02*
X11235062Y-13645769D01*
X11235062Y-13645769D02*
X11225539Y-13683865D01*
X11225539Y-13683865D02*
X11216015Y-13702912D01*
X11216015Y-13702912D02*
X11196967Y-13721960D01*
X11196967Y-13721960D02*
X11168396Y-13731484D01*
X11168396Y-13731484D02*
X11120777Y-13731484D01*
X11320777Y-13731484D02*
X11320777Y-13598150D01*
X11320777Y-13636246D02*
X11330301Y-13617198D01*
X11330301Y-13617198D02*
X11339824Y-13607674D01*
X11339824Y-13607674D02*
X11358872Y-13598150D01*
X11358872Y-13598150D02*
X11377920Y-13598150D01*
X11444586Y-13731484D02*
X11444586Y-13598150D01*
X11444586Y-13531484D02*
X11435062Y-13541008D01*
X11435062Y-13541008D02*
X11444586Y-13550531D01*
X11444586Y-13550531D02*
X11454110Y-13541008D01*
X11454110Y-13541008D02*
X11444586Y-13531484D01*
X11444586Y-13531484D02*
X11444586Y-13550531D01*
X11568396Y-13731484D02*
X11549348Y-13721960D01*
X11549348Y-13721960D02*
X11539824Y-13702912D01*
X11539824Y-13702912D02*
X11539824Y-13531484D01*
X11673158Y-13731484D02*
X11654110Y-13721960D01*
X11654110Y-13721960D02*
X11644586Y-13702912D01*
X11644586Y-13702912D02*
X11644586Y-13531484D01*
X11901729Y-13731484D02*
X11901729Y-13531484D01*
X11901729Y-13531484D02*
X11968396Y-13674341D01*
X11968396Y-13674341D02*
X12035062Y-13531484D01*
X12035062Y-13531484D02*
X12035062Y-13731484D01*
X12216015Y-13731484D02*
X12216015Y-13626722D01*
X12216015Y-13626722D02*
X12206491Y-13607674D01*
X12206491Y-13607674D02*
X12187443Y-13598150D01*
X12187443Y-13598150D02*
X12149348Y-13598150D01*
X12149348Y-13598150D02*
X12130301Y-13607674D01*
X12216015Y-13721960D02*
X12196967Y-13731484D01*
X12196967Y-13731484D02*
X12149348Y-13731484D01*
X12149348Y-13731484D02*
X12130301Y-13721960D01*
X12130301Y-13721960D02*
X12120777Y-13702912D01*
X12120777Y-13702912D02*
X12120777Y-13683865D01*
X12120777Y-13683865D02*
X12130301Y-13664817D01*
X12130301Y-13664817D02*
X12149348Y-13655293D01*
X12149348Y-13655293D02*
X12196967Y-13655293D01*
X12196967Y-13655293D02*
X12216015Y-13645769D01*
X12311253Y-13598150D02*
X12311253Y-13798150D01*
X12311253Y-13607674D02*
X12330301Y-13598150D01*
X12330301Y-13598150D02*
X12368396Y-13598150D01*
X12368396Y-13598150D02*
X12387443Y-13607674D01*
X12387443Y-13607674D02*
X12396967Y-13617198D01*
X12396967Y-13617198D02*
X12406491Y-13636246D01*
X12406491Y-13636246D02*
X12406491Y-13693388D01*
X12406491Y-13693388D02*
X12396967Y-13712436D01*
X12396967Y-13712436D02*
X12387443Y-13721960D01*
X12387443Y-13721960D02*
X12368396Y-13731484D01*
X12368396Y-13731484D02*
X12330301Y-13731484D01*
X12330301Y-13731484D02*
X12311253Y-13721960D01*
X12492205Y-13712436D02*
X12501729Y-13721960D01*
X12501729Y-13721960D02*
X12492205Y-13731484D01*
X12492205Y-13731484D02*
X12482682Y-13721960D01*
X12482682Y-13721960D02*
X12492205Y-13712436D01*
X12492205Y-13712436D02*
X12492205Y-13731484D01*
X12492205Y-13607674D02*
X12501729Y-13617198D01*
X12501729Y-13617198D02*
X12492205Y-13626722D01*
X12492205Y-13626722D02*
X12482682Y-13617198D01*
X12482682Y-13617198D02*
X12492205Y-13607674D01*
X12492205Y-13607674D02*
X12492205Y-13626722D01*
X10660000Y-13960000D02*
X10860000Y-14160000D01*
X10860000Y-13960000D02*
X10660000Y-14160000D01*
X11206491Y-14018150D02*
X11206491Y-14151484D01*
X11158872Y-13941960D02*
X11111253Y-14084817D01*
X11111253Y-14084817D02*
X11235062Y-14084817D01*
X11311253Y-14132436D02*
X11320777Y-14141960D01*
X11320777Y-14141960D02*
X11311253Y-14151484D01*
X11311253Y-14151484D02*
X11301729Y-14141960D01*
X11301729Y-14141960D02*
X11311253Y-14132436D01*
X11311253Y-14132436D02*
X11311253Y-14151484D01*
X11444586Y-13951484D02*
X11463634Y-13951484D01*
X11463634Y-13951484D02*
X11482682Y-13961008D01*
X11482682Y-13961008D02*
X11492205Y-13970531D01*
X11492205Y-13970531D02*
X11501729Y-13989579D01*
X11501729Y-13989579D02*
X11511253Y-14027674D01*
X11511253Y-14027674D02*
X11511253Y-14075293D01*
X11511253Y-14075293D02*
X11501729Y-14113388D01*
X11501729Y-14113388D02*
X11492205Y-14132436D01*
X11492205Y-14132436D02*
X11482682Y-14141960D01*
X11482682Y-14141960D02*
X11463634Y-14151484D01*
X11463634Y-14151484D02*
X11444586Y-14151484D01*
X11444586Y-14151484D02*
X11425539Y-14141960D01*
X11425539Y-14141960D02*
X11416015Y-14132436D01*
X11416015Y-14132436D02*
X11406491Y-14113388D01*
X11406491Y-14113388D02*
X11396967Y-14075293D01*
X11396967Y-14075293D02*
X11396967Y-14027674D01*
X11396967Y-14027674D02*
X11406491Y-13989579D01*
X11406491Y-13989579D02*
X11416015Y-13970531D01*
X11416015Y-13970531D02*
X11425539Y-13961008D01*
X11425539Y-13961008D02*
X11444586Y-13951484D01*
X11635062Y-13951484D02*
X11654110Y-13951484D01*
X11654110Y-13951484D02*
X11673158Y-13961008D01*
X11673158Y-13961008D02*
X11682682Y-13970531D01*
X11682682Y-13970531D02*
X11692205Y-13989579D01*
X11692205Y-13989579D02*
X11701729Y-14027674D01*
X11701729Y-14027674D02*
X11701729Y-14075293D01*
X11701729Y-14075293D02*
X11692205Y-14113388D01*
X11692205Y-14113388D02*
X11682682Y-14132436D01*
X11682682Y-14132436D02*
X11673158Y-14141960D01*
X11673158Y-14141960D02*
X11654110Y-14151484D01*
X11654110Y-14151484D02*
X11635062Y-14151484D01*
X11635062Y-14151484D02*
X11616015Y-14141960D01*
X11616015Y-14141960D02*
X11606491Y-14132436D01*
X11606491Y-14132436D02*
X11596967Y-14113388D01*
X11596967Y-14113388D02*
X11587443Y-14075293D01*
X11587443Y-14075293D02*
X11587443Y-14027674D01*
X11587443Y-14027674D02*
X11596967Y-13989579D01*
X11596967Y-13989579D02*
X11606491Y-13970531D01*
X11606491Y-13970531D02*
X11616015Y-13961008D01*
X11616015Y-13961008D02*
X11635062Y-13951484D01*
X11825539Y-13951484D02*
X11844586Y-13951484D01*
X11844586Y-13951484D02*
X11863634Y-13961008D01*
X11863634Y-13961008D02*
X11873158Y-13970531D01*
X11873158Y-13970531D02*
X11882682Y-13989579D01*
X11882682Y-13989579D02*
X11892205Y-14027674D01*
X11892205Y-14027674D02*
X11892205Y-14075293D01*
X11892205Y-14075293D02*
X11882682Y-14113388D01*
X11882682Y-14113388D02*
X11873158Y-14132436D01*
X11873158Y-14132436D02*
X11863634Y-14141960D01*
X11863634Y-14141960D02*
X11844586Y-14151484D01*
X11844586Y-14151484D02*
X11825539Y-14151484D01*
X11825539Y-14151484D02*
X11806491Y-14141960D01*
X11806491Y-14141960D02*
X11796967Y-14132436D01*
X11796967Y-14132436D02*
X11787443Y-14113388D01*
X11787443Y-14113388D02*
X11777920Y-14075293D01*
X11777920Y-14075293D02*
X11777920Y-14027674D01*
X11777920Y-14027674D02*
X11787443Y-13989579D01*
X11787443Y-13989579D02*
X11796967Y-13970531D01*
X11796967Y-13970531D02*
X11806491Y-13961008D01*
X11806491Y-13961008D02*
X11825539Y-13951484D01*
X11977920Y-14151484D02*
X11977920Y-14018150D01*
X11977920Y-14037198D02*
X11987443Y-14027674D01*
X11987443Y-14027674D02*
X12006491Y-14018150D01*
X12006491Y-14018150D02*
X12035063Y-14018150D01*
X12035063Y-14018150D02*
X12054110Y-14027674D01*
X12054110Y-14027674D02*
X12063634Y-14046722D01*
X12063634Y-14046722D02*
X12063634Y-14151484D01*
X12063634Y-14046722D02*
X12073158Y-14027674D01*
X12073158Y-14027674D02*
X12092205Y-14018150D01*
X12092205Y-14018150D02*
X12120777Y-14018150D01*
X12120777Y-14018150D02*
X12139824Y-14027674D01*
X12139824Y-14027674D02*
X12149348Y-14046722D01*
X12149348Y-14046722D02*
X12149348Y-14151484D01*
X12244586Y-14151484D02*
X12244586Y-14018150D01*
X12244586Y-14037198D02*
X12254110Y-14027674D01*
X12254110Y-14027674D02*
X12273158Y-14018150D01*
X12273158Y-14018150D02*
X12301729Y-14018150D01*
X12301729Y-14018150D02*
X12320777Y-14027674D01*
X12320777Y-14027674D02*
X12330301Y-14046722D01*
X12330301Y-14046722D02*
X12330301Y-14151484D01*
X12330301Y-14046722D02*
X12339824Y-14027674D01*
X12339824Y-14027674D02*
X12358872Y-14018150D01*
X12358872Y-14018150D02*
X12387443Y-14018150D01*
X12387443Y-14018150D02*
X12406491Y-14027674D01*
X12406491Y-14027674D02*
X12416015Y-14046722D01*
X12416015Y-14046722D02*
X12416015Y-14151484D01*
X12806491Y-13941960D02*
X12635063Y-14199103D01*
X13063634Y-13951484D02*
X13082682Y-13951484D01*
X13082682Y-13951484D02*
X13101729Y-13961008D01*
X13101729Y-13961008D02*
X13111253Y-13970531D01*
X13111253Y-13970531D02*
X13120777Y-13989579D01*
X13120777Y-13989579D02*
X13130301Y-14027674D01*
X13130301Y-14027674D02*
X13130301Y-14075293D01*
X13130301Y-14075293D02*
X13120777Y-14113388D01*
X13120777Y-14113388D02*
X13111253Y-14132436D01*
X13111253Y-14132436D02*
X13101729Y-14141960D01*
X13101729Y-14141960D02*
X13082682Y-14151484D01*
X13082682Y-14151484D02*
X13063634Y-14151484D01*
X13063634Y-14151484D02*
X13044586Y-14141960D01*
X13044586Y-14141960D02*
X13035063Y-14132436D01*
X13035063Y-14132436D02*
X13025539Y-14113388D01*
X13025539Y-14113388D02*
X13016015Y-14075293D01*
X13016015Y-14075293D02*
X13016015Y-14027674D01*
X13016015Y-14027674D02*
X13025539Y-13989579D01*
X13025539Y-13989579D02*
X13035063Y-13970531D01*
X13035063Y-13970531D02*
X13044586Y-13961008D01*
X13044586Y-13961008D02*
X13063634Y-13951484D01*
X13216015Y-14132436D02*
X13225539Y-14141960D01*
X13225539Y-14141960D02*
X13216015Y-14151484D01*
X13216015Y-14151484D02*
X13206491Y-14141960D01*
X13206491Y-14141960D02*
X13216015Y-14132436D01*
X13216015Y-14132436D02*
X13216015Y-14151484D01*
X13416015Y-14151484D02*
X13301729Y-14151484D01*
X13358872Y-14151484D02*
X13358872Y-13951484D01*
X13358872Y-13951484D02*
X13339825Y-13980055D01*
X13339825Y-13980055D02*
X13320777Y-13999103D01*
X13320777Y-13999103D02*
X13301729Y-14008627D01*
X13596967Y-13951484D02*
X13501729Y-13951484D01*
X13501729Y-13951484D02*
X13492206Y-14046722D01*
X13492206Y-14046722D02*
X13501729Y-14037198D01*
X13501729Y-14037198D02*
X13520777Y-14027674D01*
X13520777Y-14027674D02*
X13568396Y-14027674D01*
X13568396Y-14027674D02*
X13587444Y-14037198D01*
X13587444Y-14037198D02*
X13596967Y-14046722D01*
X13596967Y-14046722D02*
X13606491Y-14065769D01*
X13606491Y-14065769D02*
X13606491Y-14113388D01*
X13606491Y-14113388D02*
X13596967Y-14132436D01*
X13596967Y-14132436D02*
X13587444Y-14141960D01*
X13587444Y-14141960D02*
X13568396Y-14151484D01*
X13568396Y-14151484D02*
X13520777Y-14151484D01*
X13520777Y-14151484D02*
X13501729Y-14141960D01*
X13501729Y-14141960D02*
X13492206Y-14132436D01*
X13673158Y-13951484D02*
X13806491Y-13951484D01*
X13806491Y-13951484D02*
X13720777Y-14151484D01*
X13977920Y-13951484D02*
X13882682Y-13951484D01*
X13882682Y-13951484D02*
X13873158Y-14046722D01*
X13873158Y-14046722D02*
X13882682Y-14037198D01*
X13882682Y-14037198D02*
X13901729Y-14027674D01*
X13901729Y-14027674D02*
X13949348Y-14027674D01*
X13949348Y-14027674D02*
X13968396Y-14037198D01*
X13968396Y-14037198D02*
X13977920Y-14046722D01*
X13977920Y-14046722D02*
X13987444Y-14065769D01*
X13987444Y-14065769D02*
X13987444Y-14113388D01*
X13987444Y-14113388D02*
X13977920Y-14132436D01*
X13977920Y-14132436D02*
X13968396Y-14141960D01*
X13968396Y-14141960D02*
X13949348Y-14151484D01*
X13949348Y-14151484D02*
X13901729Y-14151484D01*
X13901729Y-14151484D02*
X13882682Y-14141960D01*
X13882682Y-14141960D02*
X13873158Y-14132436D01*
X14063634Y-13951484D02*
X14063634Y-13989579D01*
X14139825Y-13951484D02*
X14139825Y-13989579D01*
X14435063Y-14227674D02*
X14425539Y-14218150D01*
X14425539Y-14218150D02*
X14406491Y-14189579D01*
X14406491Y-14189579D02*
X14396968Y-14170531D01*
X14396968Y-14170531D02*
X14387444Y-14141960D01*
X14387444Y-14141960D02*
X14377920Y-14094341D01*
X14377920Y-14094341D02*
X14377920Y-14056246D01*
X14377920Y-14056246D02*
X14387444Y-14008627D01*
X14387444Y-14008627D02*
X14396968Y-13980055D01*
X14396968Y-13980055D02*
X14406491Y-13961008D01*
X14406491Y-13961008D02*
X14425539Y-13932436D01*
X14425539Y-13932436D02*
X14435063Y-13922912D01*
X14596968Y-14018150D02*
X14596968Y-14151484D01*
X14549348Y-13941960D02*
X14501729Y-14084817D01*
X14501729Y-14084817D02*
X14625539Y-14084817D01*
X14854110Y-14151484D02*
X14854110Y-13951484D01*
X14939825Y-14151484D02*
X14939825Y-14046722D01*
X14939825Y-14046722D02*
X14930301Y-14027674D01*
X14930301Y-14027674D02*
X14911253Y-14018150D01*
X14911253Y-14018150D02*
X14882682Y-14018150D01*
X14882682Y-14018150D02*
X14863634Y-14027674D01*
X14863634Y-14027674D02*
X14854110Y-14037198D01*
X15063634Y-14151484D02*
X15044587Y-14141960D01*
X15044587Y-14141960D02*
X15035063Y-14132436D01*
X15035063Y-14132436D02*
X15025539Y-14113388D01*
X15025539Y-14113388D02*
X15025539Y-14056246D01*
X15025539Y-14056246D02*
X15035063Y-14037198D01*
X15035063Y-14037198D02*
X15044587Y-14027674D01*
X15044587Y-14027674D02*
X15063634Y-14018150D01*
X15063634Y-14018150D02*
X15092206Y-14018150D01*
X15092206Y-14018150D02*
X15111253Y-14027674D01*
X15111253Y-14027674D02*
X15120777Y-14037198D01*
X15120777Y-14037198D02*
X15130301Y-14056246D01*
X15130301Y-14056246D02*
X15130301Y-14113388D01*
X15130301Y-14113388D02*
X15120777Y-14132436D01*
X15120777Y-14132436D02*
X15111253Y-14141960D01*
X15111253Y-14141960D02*
X15092206Y-14151484D01*
X15092206Y-14151484D02*
X15063634Y-14151484D01*
X15244587Y-14151484D02*
X15225539Y-14141960D01*
X15225539Y-14141960D02*
X15216015Y-14122912D01*
X15216015Y-14122912D02*
X15216015Y-13951484D01*
X15396968Y-14141960D02*
X15377920Y-14151484D01*
X15377920Y-14151484D02*
X15339825Y-14151484D01*
X15339825Y-14151484D02*
X15320777Y-14141960D01*
X15320777Y-14141960D02*
X15311253Y-14122912D01*
X15311253Y-14122912D02*
X15311253Y-14046722D01*
X15311253Y-14046722D02*
X15320777Y-14027674D01*
X15320777Y-14027674D02*
X15339825Y-14018150D01*
X15339825Y-14018150D02*
X15377920Y-14018150D01*
X15377920Y-14018150D02*
X15396968Y-14027674D01*
X15396968Y-14027674D02*
X15406491Y-14046722D01*
X15406491Y-14046722D02*
X15406491Y-14065769D01*
X15406491Y-14065769D02*
X15311253Y-14084817D01*
X15482682Y-14141960D02*
X15501730Y-14151484D01*
X15501730Y-14151484D02*
X15539825Y-14151484D01*
X15539825Y-14151484D02*
X15558872Y-14141960D01*
X15558872Y-14141960D02*
X15568396Y-14122912D01*
X15568396Y-14122912D02*
X15568396Y-14113388D01*
X15568396Y-14113388D02*
X15558872Y-14094341D01*
X15558872Y-14094341D02*
X15539825Y-14084817D01*
X15539825Y-14084817D02*
X15511253Y-14084817D01*
X15511253Y-14084817D02*
X15492206Y-14075293D01*
X15492206Y-14075293D02*
X15482682Y-14056246D01*
X15482682Y-14056246D02*
X15482682Y-14046722D01*
X15482682Y-14046722D02*
X15492206Y-14027674D01*
X15492206Y-14027674D02*
X15511253Y-14018150D01*
X15511253Y-14018150D02*
X15539825Y-14018150D01*
X15539825Y-14018150D02*
X15558872Y-14027674D01*
X15635063Y-14227674D02*
X15644587Y-14218150D01*
X15644587Y-14218150D02*
X15663634Y-14189579D01*
X15663634Y-14189579D02*
X15673158Y-14170531D01*
X15673158Y-14170531D02*
X15682682Y-14141960D01*
X15682682Y-14141960D02*
X15692206Y-14094341D01*
X15692206Y-14094341D02*
X15692206Y-14056246D01*
X15692206Y-14056246D02*
X15682682Y-14008627D01*
X15682682Y-14008627D02*
X15673158Y-13980055D01*
X15673158Y-13980055D02*
X15663634Y-13961008D01*
X15663634Y-13961008D02*
X15644587Y-13932436D01*
X15644587Y-13932436D02*
X15635063Y-13922912D01*
X15996968Y-14227674D02*
X15987444Y-14218150D01*
X15987444Y-14218150D02*
X15968396Y-14189579D01*
X15968396Y-14189579D02*
X15958872Y-14170531D01*
X15958872Y-14170531D02*
X15949349Y-14141960D01*
X15949349Y-14141960D02*
X15939825Y-14094341D01*
X15939825Y-14094341D02*
X15939825Y-14056246D01*
X15939825Y-14056246D02*
X15949349Y-14008627D01*
X15949349Y-14008627D02*
X15958872Y-13980055D01*
X15958872Y-13980055D02*
X15968396Y-13961008D01*
X15968396Y-13961008D02*
X15987444Y-13932436D01*
X15987444Y-13932436D02*
X15996968Y-13922912D01*
X16073158Y-14018150D02*
X16073158Y-14151484D01*
X16073158Y-14037198D02*
X16082682Y-14027674D01*
X16082682Y-14027674D02*
X16101730Y-14018150D01*
X16101730Y-14018150D02*
X16130301Y-14018150D01*
X16130301Y-14018150D02*
X16149349Y-14027674D01*
X16149349Y-14027674D02*
X16158872Y-14046722D01*
X16158872Y-14046722D02*
X16158872Y-14151484D01*
X16282682Y-14151484D02*
X16263634Y-14141960D01*
X16263634Y-14141960D02*
X16254111Y-14132436D01*
X16254111Y-14132436D02*
X16244587Y-14113388D01*
X16244587Y-14113388D02*
X16244587Y-14056246D01*
X16244587Y-14056246D02*
X16254111Y-14037198D01*
X16254111Y-14037198D02*
X16263634Y-14027674D01*
X16263634Y-14027674D02*
X16282682Y-14018150D01*
X16282682Y-14018150D02*
X16311253Y-14018150D01*
X16311253Y-14018150D02*
X16330301Y-14027674D01*
X16330301Y-14027674D02*
X16339825Y-14037198D01*
X16339825Y-14037198D02*
X16349349Y-14056246D01*
X16349349Y-14056246D02*
X16349349Y-14113388D01*
X16349349Y-14113388D02*
X16339825Y-14132436D01*
X16339825Y-14132436D02*
X16330301Y-14141960D01*
X16330301Y-14141960D02*
X16311253Y-14151484D01*
X16311253Y-14151484D02*
X16282682Y-14151484D01*
X16406492Y-14018150D02*
X16482682Y-14018150D01*
X16435063Y-13951484D02*
X16435063Y-14122912D01*
X16435063Y-14122912D02*
X16444587Y-14141960D01*
X16444587Y-14141960D02*
X16463634Y-14151484D01*
X16463634Y-14151484D02*
X16482682Y-14151484D01*
X16701730Y-14018150D02*
X16701730Y-14218150D01*
X16701730Y-14027674D02*
X16720777Y-14018150D01*
X16720777Y-14018150D02*
X16758873Y-14018150D01*
X16758873Y-14018150D02*
X16777920Y-14027674D01*
X16777920Y-14027674D02*
X16787444Y-14037198D01*
X16787444Y-14037198D02*
X16796968Y-14056246D01*
X16796968Y-14056246D02*
X16796968Y-14113388D01*
X16796968Y-14113388D02*
X16787444Y-14132436D01*
X16787444Y-14132436D02*
X16777920Y-14141960D01*
X16777920Y-14141960D02*
X16758873Y-14151484D01*
X16758873Y-14151484D02*
X16720777Y-14151484D01*
X16720777Y-14151484D02*
X16701730Y-14141960D01*
X16911254Y-14151484D02*
X16892206Y-14141960D01*
X16892206Y-14141960D02*
X16882682Y-14122912D01*
X16882682Y-14122912D02*
X16882682Y-13951484D01*
X17073158Y-14151484D02*
X17073158Y-14046722D01*
X17073158Y-14046722D02*
X17063635Y-14027674D01*
X17063635Y-14027674D02*
X17044587Y-14018150D01*
X17044587Y-14018150D02*
X17006492Y-14018150D01*
X17006492Y-14018150D02*
X16987444Y-14027674D01*
X17073158Y-14141960D02*
X17054111Y-14151484D01*
X17054111Y-14151484D02*
X17006492Y-14151484D01*
X17006492Y-14151484D02*
X16987444Y-14141960D01*
X16987444Y-14141960D02*
X16977920Y-14122912D01*
X16977920Y-14122912D02*
X16977920Y-14103865D01*
X16977920Y-14103865D02*
X16987444Y-14084817D01*
X16987444Y-14084817D02*
X17006492Y-14075293D01*
X17006492Y-14075293D02*
X17054111Y-14075293D01*
X17054111Y-14075293D02*
X17073158Y-14065769D01*
X17139825Y-14018150D02*
X17216015Y-14018150D01*
X17168396Y-13951484D02*
X17168396Y-14122912D01*
X17168396Y-14122912D02*
X17177920Y-14141960D01*
X17177920Y-14141960D02*
X17196968Y-14151484D01*
X17196968Y-14151484D02*
X17216015Y-14151484D01*
X17358873Y-14141960D02*
X17339825Y-14151484D01*
X17339825Y-14151484D02*
X17301730Y-14151484D01*
X17301730Y-14151484D02*
X17282682Y-14141960D01*
X17282682Y-14141960D02*
X17273158Y-14122912D01*
X17273158Y-14122912D02*
X17273158Y-14046722D01*
X17273158Y-14046722D02*
X17282682Y-14027674D01*
X17282682Y-14027674D02*
X17301730Y-14018150D01*
X17301730Y-14018150D02*
X17339825Y-14018150D01*
X17339825Y-14018150D02*
X17358873Y-14027674D01*
X17358873Y-14027674D02*
X17368396Y-14046722D01*
X17368396Y-14046722D02*
X17368396Y-14065769D01*
X17368396Y-14065769D02*
X17273158Y-14084817D01*
X17539825Y-14151484D02*
X17539825Y-13951484D01*
X17539825Y-14141960D02*
X17520777Y-14151484D01*
X17520777Y-14151484D02*
X17482682Y-14151484D01*
X17482682Y-14151484D02*
X17463635Y-14141960D01*
X17463635Y-14141960D02*
X17454111Y-14132436D01*
X17454111Y-14132436D02*
X17444587Y-14113388D01*
X17444587Y-14113388D02*
X17444587Y-14056246D01*
X17444587Y-14056246D02*
X17454111Y-14037198D01*
X17454111Y-14037198D02*
X17463635Y-14027674D01*
X17463635Y-14027674D02*
X17482682Y-14018150D01*
X17482682Y-14018150D02*
X17520777Y-14018150D01*
X17520777Y-14018150D02*
X17539825Y-14027674D01*
X17616016Y-14227674D02*
X17625539Y-14218150D01*
X17625539Y-14218150D02*
X17644587Y-14189579D01*
X17644587Y-14189579D02*
X17654111Y-14170531D01*
X17654111Y-14170531D02*
X17663635Y-14141960D01*
X17663635Y-14141960D02*
X17673158Y-14094341D01*
X17673158Y-14094341D02*
X17673158Y-14056246D01*
X17673158Y-14056246D02*
X17663635Y-14008627D01*
X17663635Y-14008627D02*
X17654111Y-13980055D01*
X17654111Y-13980055D02*
X17644587Y-13961008D01*
X17644587Y-13961008D02*
X17625539Y-13932436D01*
X17625539Y-13932436D02*
X17616016Y-13922912D01*
M02*
