%TF.GenerationSoftware,KiCad,Pcbnew,7.0.6*%
%TF.CreationDate,2023-08-07T22:53:29+02:00*%
%TF.ProjectId,attiny85_time_switch,61747469-6e79-4383-955f-74696d655f73,1.0*%
%TF.SameCoordinates,Original*%
%TF.FileFunction,Copper,L2,Bot*%
%TF.FilePolarity,Positive*%
%FSLAX46Y46*%
G04 Gerber Fmt 4.6, Leading zero omitted, Abs format (unit mm)*
G04 Created by KiCad (PCBNEW 7.0.6) date 2023-08-07 22:53:29*
%MOMM*%
%LPD*%
G01*
G04 APERTURE LIST*
%TA.AperFunction,ComponentPad*%
%ADD10C,1.400000*%
%TD*%
%TA.AperFunction,ComponentPad*%
%ADD11O,1.400000X1.400000*%
%TD*%
%TA.AperFunction,ComponentPad*%
%ADD12R,1.700000X1.700000*%
%TD*%
%TA.AperFunction,ComponentPad*%
%ADD13O,1.700000X1.700000*%
%TD*%
%TA.AperFunction,ComponentPad*%
%ADD14R,2.600000X2.600000*%
%TD*%
%TA.AperFunction,ComponentPad*%
%ADD15C,2.600000*%
%TD*%
%TA.AperFunction,ComponentPad*%
%ADD16R,1.800000X1.800000*%
%TD*%
%TA.AperFunction,ComponentPad*%
%ADD17C,1.800000*%
%TD*%
%TA.AperFunction,ComponentPad*%
%ADD18R,1.600000X1.600000*%
%TD*%
%TA.AperFunction,ComponentPad*%
%ADD19O,1.600000X1.600000*%
%TD*%
%TA.AperFunction,ComponentPad*%
%ADD20C,2.200000*%
%TD*%
%TA.AperFunction,ComponentPad*%
%ADD21O,1.800000X1.800000*%
%TD*%
%TA.AperFunction,ComponentPad*%
%ADD22C,1.600000*%
%TD*%
%TA.AperFunction,ComponentPad*%
%ADD23C,2.000000*%
%TD*%
%TA.AperFunction,ViaPad*%
%ADD24C,0.800000*%
%TD*%
%TA.AperFunction,Conductor*%
%ADD25C,0.300000*%
%TD*%
%TA.AperFunction,Conductor*%
%ADD26C,0.600000*%
%TD*%
%TA.AperFunction,Conductor*%
%ADD27C,0.250000*%
%TD*%
G04 APERTURE END LIST*
D10*
%TO.P,R1,1*%
%TO.N,Net-(Q2-Pad3)*%
X170200000Y-108410000D03*
D11*
%TO.P,R1,2*%
%TO.N,ADC_BATTERY*%
X170200000Y-100790000D03*
%TD*%
D12*
%TO.P,J8,1,Pin_1*%
%TO.N,Net-(J4-Pin_1)*%
X125665000Y-105790000D03*
D13*
%TO.P,J8,2,Pin_2*%
%TO.N,Net-(J4-Pin_2)*%
X125665000Y-108330000D03*
%TD*%
D14*
%TO.P,J4,1,Pin_1*%
%TO.N,Net-(J4-Pin_1)*%
X128767506Y-105262494D03*
D15*
%TO.P,J4,2,Pin_2*%
%TO.N,Net-(J4-Pin_2)*%
X128767506Y-108762494D03*
%TD*%
D16*
%TO.P,D2,1,K*%
%TO.N,Net-(D2-K)*%
X132650000Y-82400000D03*
D17*
%TO.P,D2,2,A*%
%TO.N,Net-(D2-A)*%
X130110000Y-82400000D03*
%TD*%
D18*
%TO.P,U1,1,~{RESET}/PB5*%
%TO.N,RESET*%
X158700000Y-95600000D03*
D19*
%TO.P,U1,2,XTAL1/PB3*%
%TO.N,12V_24V_SEL*%
X156160000Y-95600000D03*
%TO.P,U1,3,XTAL2/PB4*%
%TO.N,FEATURE_SELECT*%
X153620000Y-95600000D03*
%TO.P,U1,4,GND*%
%TO.N,GND*%
X151080000Y-95600000D03*
%TO.P,U1,5,AREF/PB0*%
%TO.N,MOSI*%
X151080000Y-103220000D03*
%TO.P,U1,6,PB1*%
%TO.N,MISO*%
X153620000Y-103220000D03*
%TO.P,U1,7,PB2*%
%TO.N,ADC_BATTERY*%
X156160000Y-103220000D03*
%TO.P,U1,8,VCC*%
%TO.N,VDD_MCU*%
X158700000Y-103220000D03*
%TD*%
D20*
%TO.P,F1,1*%
%TO.N,VIN*%
X139800000Y-91450000D03*
X134800000Y-91450000D03*
%TO.P,F1,2*%
%TO.N,Net-(J4-Pin_2)*%
X139800000Y-108350000D03*
X134800000Y-108350000D03*
%TD*%
D10*
%TO.P,R7,1*%
%TO.N,Net-(J6-Pin_3)*%
X172800000Y-100790000D03*
D11*
%TO.P,R7,2*%
%TO.N,GND*%
X172800000Y-108410000D03*
%TD*%
D16*
%TO.P,D1,1,K*%
%TO.N,Net-(D1-K)*%
X144900000Y-103390000D03*
D21*
%TO.P,D1,2,A*%
%TO.N,VIN*%
X144900000Y-111010000D03*
%TD*%
D12*
%TO.P,J5,1,Pin_1*%
%TO.N,VDD_MCU*%
X172400000Y-93940000D03*
D13*
%TO.P,J5,2,Pin_2*%
%TO.N,12V_24V_SEL*%
X172400000Y-91400000D03*
%TO.P,J5,3,Pin_3*%
%TO.N,GND*%
X172400000Y-88860000D03*
%TD*%
D22*
%TO.P,C4,1*%
%TO.N,ADC_BATTERY*%
X167200000Y-100890000D03*
%TO.P,C4,2*%
%TO.N,GND*%
X167200000Y-105890000D03*
%TD*%
%TO.P,C7,1*%
%TO.N,Net-(C7-Pad1)*%
X163600000Y-105890000D03*
%TO.P,C7,2*%
%TO.N,MISO*%
X163600000Y-100890000D03*
%TD*%
D10*
%TO.P,R3,1*%
%TO.N,MOSI*%
X148290000Y-110700000D03*
D11*
%TO.P,R3,2*%
%TO.N,GND*%
X155910000Y-110700000D03*
%TD*%
D10*
%TO.P,R6,1*%
%TO.N,Net-(D2-K)*%
X124090000Y-87650000D03*
D11*
%TO.P,R6,2*%
%TO.N,GND*%
X131710000Y-87650000D03*
%TD*%
D23*
%TO.P,SW1,1,1*%
%TO.N,GND*%
X136900000Y-80150000D03*
X143400000Y-80150000D03*
%TO.P,SW1,2,2*%
%TO.N,RESET*%
X136900000Y-84650000D03*
X143400000Y-84650000D03*
%TD*%
D10*
%TO.P,R2,1*%
%TO.N,Net-(J6-Pin_1)*%
X175400000Y-100790000D03*
D11*
%TO.P,R2,2*%
%TO.N,GND*%
X175400000Y-108410000D03*
%TD*%
D12*
%TO.P,J2,1,Pin_1*%
%TO.N,MISO*%
X151910006Y-91399994D03*
D13*
%TO.P,J2,2,Pin_2*%
%TO.N,VDD_MCU*%
X151910006Y-88859994D03*
%TO.P,J2,3,Pin_3*%
%TO.N,ADC_BATTERY*%
X154450006Y-91399994D03*
%TO.P,J2,4,Pin_4*%
%TO.N,MOSI*%
X154450006Y-88859994D03*
%TO.P,J2,5,Pin_5*%
%TO.N,RESET*%
X156990006Y-91399994D03*
%TO.P,J2,6,Pin_6*%
%TO.N,GND*%
X156990006Y-88859994D03*
%TD*%
D23*
%TO.P,SW2,1,1*%
%TO.N,Net-(J4-Pin_1)*%
X125650000Y-84650000D03*
X119150000Y-84650000D03*
%TO.P,SW2,2,2*%
%TO.N,Net-(D2-A)*%
X125650000Y-80150000D03*
X119150000Y-80150000D03*
%TD*%
D22*
%TO.P,C5,1*%
%TO.N,RESET*%
X163150000Y-94910000D03*
%TO.P,C5,2*%
%TO.N,GND*%
X168150000Y-94910000D03*
%TD*%
D10*
%TO.P,R5,1*%
%TO.N,VIN*%
X166990000Y-111100000D03*
D11*
%TO.P,R5,2*%
%TO.N,Net-(C7-Pad1)*%
X174610000Y-111100000D03*
%TD*%
D14*
%TO.P,J1,1,Pin_1*%
%TO.N,GND*%
X128767506Y-92112494D03*
D15*
%TO.P,J1,2,Pin_2*%
%TO.N,VIN*%
X128767506Y-95612494D03*
%TD*%
D22*
%TO.P,C6,1*%
%TO.N,VDD_MCU*%
X158900000Y-109650000D03*
%TO.P,C6,2*%
%TO.N,GND*%
X158900000Y-112150000D03*
%TD*%
D12*
%TO.P,J3,1,Pin_1*%
%TO.N,VDD_MCU*%
X162860000Y-88890000D03*
D13*
%TO.P,J3,2,Pin_2*%
%TO.N,FEATURE_SELECT*%
X165400000Y-88890000D03*
%TO.P,J3,3,Pin_3*%
%TO.N,GND*%
X167940000Y-88890000D03*
%TD*%
D12*
%TO.P,J7,1,Pin_1*%
%TO.N,GND*%
X125700000Y-92590000D03*
D13*
%TO.P,J7,2,Pin_2*%
%TO.N,VIN*%
X125700000Y-95130000D03*
%TD*%
D22*
%TO.P,C3,1*%
%TO.N,VDD_MCU*%
X159400000Y-106500000D03*
%TO.P,C3,2*%
%TO.N,GND*%
X154400000Y-106500000D03*
%TD*%
D12*
%TO.P,J6,1,Pin_1*%
%TO.N,Net-(J6-Pin_1)*%
X176400000Y-93940000D03*
D13*
%TO.P,J6,2,Pin_2*%
%TO.N,ADC_BATTERY*%
X176400000Y-91400000D03*
%TO.P,J6,3,Pin_3*%
%TO.N,Net-(J6-Pin_3)*%
X176400000Y-88860000D03*
%TD*%
D10*
%TO.P,R4,1*%
%TO.N,VDD_MCU*%
X170670000Y-97910000D03*
D11*
%TO.P,R4,2*%
%TO.N,RESET*%
X163050000Y-97910000D03*
%TD*%
D22*
%TO.P,C2,1*%
%TO.N,Net-(D1-K)*%
X144350000Y-99700000D03*
%TO.P,C2,2*%
%TO.N,GND*%
X146850000Y-99700000D03*
%TD*%
%TO.P,C1,1*%
%TO.N,VDD_MCU*%
X144350000Y-88700000D03*
%TO.P,C1,2*%
%TO.N,GND*%
X146850000Y-88700000D03*
%TD*%
D24*
%TO.N,ADC_BATTERY*%
X156100000Y-98400000D03*
%TO.N,MISO*%
X153650000Y-98350000D03*
%TD*%
D25*
%TO.N,ADC_BATTERY*%
X174300000Y-91890000D02*
X174790000Y-91400000D01*
X163600000Y-104500000D02*
X157440000Y-104500000D01*
X167200000Y-99800000D02*
X167200000Y-100890000D01*
X167200000Y-100900000D02*
X163600000Y-104500000D01*
X166800000Y-99400000D02*
X167200000Y-99800000D01*
X157440000Y-104500000D02*
X156160000Y-103220000D01*
X156100000Y-98400000D02*
X157100000Y-99400000D01*
X167200000Y-100890000D02*
X170100000Y-100890000D01*
X174300000Y-96690000D02*
X174300000Y-91890000D01*
X157100000Y-99400000D02*
X166800000Y-99400000D01*
X174790000Y-91400000D02*
X176400000Y-91400000D01*
X170200000Y-100790000D02*
X174300000Y-96690000D01*
X167200000Y-100890000D02*
X167200000Y-100900000D01*
%TO.N,RESET*%
X154650000Y-84650000D02*
X143400000Y-84650000D01*
X163050000Y-95010000D02*
X163150000Y-94910000D01*
X143400000Y-84650000D02*
X136900000Y-84650000D01*
X155650000Y-85650000D02*
X154650000Y-84650000D01*
X163150000Y-94910000D02*
X162860000Y-95200000D01*
X162860000Y-95200000D02*
X159100000Y-95200000D01*
X163050000Y-97910000D02*
X163050000Y-95010000D01*
X159100000Y-95200000D02*
X158700000Y-95600000D01*
X155650000Y-90150000D02*
X155650000Y-85650000D01*
X156940000Y-91440000D02*
X155650000Y-90150000D01*
D26*
%TO.N,VIN*%
X144900000Y-108050000D02*
X144900000Y-111010000D01*
X139800000Y-91450000D02*
X139800000Y-102950000D01*
X139800000Y-102950000D02*
X144900000Y-108050000D01*
D25*
%TO.N,MOSI*%
X151080000Y-103220000D02*
X152300000Y-102000000D01*
X153200006Y-93399994D02*
X153200006Y-90099994D01*
X152300000Y-102000000D02*
X152300000Y-94300000D01*
X152300000Y-94300000D02*
X153200006Y-93399994D01*
X153200006Y-90099994D02*
X154400000Y-88900000D01*
D27*
%TO.N,Net-(C7-Pad1)*%
X164690000Y-105890000D02*
X163600000Y-105890000D01*
X169900000Y-111100000D02*
X164690000Y-105890000D01*
X174610000Y-111100000D02*
X169900000Y-111100000D01*
D25*
%TO.N,12V_24V_SEL*%
X156160000Y-95600000D02*
X158660000Y-93100000D01*
X158660000Y-93100000D02*
X165600000Y-93100000D01*
X167300000Y-91400000D02*
X172400000Y-91400000D01*
X165600000Y-93100000D02*
X167300000Y-91400000D01*
%TO.N,MISO*%
X163600000Y-100890000D02*
X153630000Y-100890000D01*
X153620000Y-100900000D02*
X153620000Y-103220000D01*
X153620000Y-103220000D02*
X153620000Y-98380000D01*
X153630000Y-100890000D02*
X153620000Y-100900000D01*
X153620000Y-98380000D02*
X153650000Y-98350000D01*
%TO.N,FEATURE_SELECT*%
X165400000Y-88890000D02*
X162790000Y-91500000D01*
X157200000Y-93400000D02*
X155820000Y-93400000D01*
X162790000Y-91500000D02*
X159100000Y-91500000D01*
X155820000Y-93400000D02*
X153620000Y-95600000D01*
X159100000Y-91500000D02*
X157200000Y-93400000D01*
%TD*%
%TA.AperFunction,Conductor*%
%TO.N,GND*%
G36*
X171209317Y-92070185D02*
G01*
X171243853Y-92103377D01*
X171361501Y-92271396D01*
X171361506Y-92271402D01*
X171483430Y-92393326D01*
X171516915Y-92454649D01*
X171511931Y-92524341D01*
X171470059Y-92580274D01*
X171439083Y-92597189D01*
X171307669Y-92646203D01*
X171307664Y-92646206D01*
X171192455Y-92732452D01*
X171192452Y-92732455D01*
X171106206Y-92847664D01*
X171106202Y-92847671D01*
X171055908Y-92982517D01*
X171051575Y-93022823D01*
X171049501Y-93042123D01*
X171049500Y-93042135D01*
X171049500Y-94837870D01*
X171049501Y-94837876D01*
X171055908Y-94897483D01*
X171106202Y-95032328D01*
X171106206Y-95032335D01*
X171192452Y-95147544D01*
X171192455Y-95147547D01*
X171307664Y-95233793D01*
X171307671Y-95233797D01*
X171442517Y-95284091D01*
X171442516Y-95284091D01*
X171449444Y-95284835D01*
X171502127Y-95290500D01*
X173297872Y-95290499D01*
X173357483Y-95284091D01*
X173482166Y-95237587D01*
X173551859Y-95232603D01*
X173613182Y-95266088D01*
X173646666Y-95327411D01*
X173649500Y-95353769D01*
X173649500Y-96369191D01*
X173629815Y-96436230D01*
X173613181Y-96456872D01*
X172086542Y-97983510D01*
X172025219Y-98016995D01*
X171955527Y-98012011D01*
X171899594Y-97970139D01*
X171875390Y-97907270D01*
X171855115Y-97688464D01*
X171855114Y-97688462D01*
X171851884Y-97677111D01*
X171794229Y-97474472D01*
X171794224Y-97474461D01*
X171695061Y-97275316D01*
X171695056Y-97275308D01*
X171560979Y-97097761D01*
X171396562Y-96947876D01*
X171396560Y-96947874D01*
X171207404Y-96830754D01*
X171207398Y-96830752D01*
X170999940Y-96750382D01*
X170781243Y-96709500D01*
X170558757Y-96709500D01*
X170340060Y-96750382D01*
X170283801Y-96772177D01*
X170132601Y-96830752D01*
X170132595Y-96830754D01*
X169943439Y-96947874D01*
X169943437Y-96947876D01*
X169779020Y-97097761D01*
X169644943Y-97275308D01*
X169644938Y-97275316D01*
X169545775Y-97474461D01*
X169545769Y-97474476D01*
X169484885Y-97688462D01*
X169484884Y-97688464D01*
X169464356Y-97909999D01*
X169464356Y-97910000D01*
X169484884Y-98131535D01*
X169484885Y-98131537D01*
X169545769Y-98345523D01*
X169545775Y-98345538D01*
X169644938Y-98544683D01*
X169644943Y-98544691D01*
X169779020Y-98722238D01*
X169943437Y-98872123D01*
X169943439Y-98872125D01*
X170132595Y-98989245D01*
X170132596Y-98989245D01*
X170132599Y-98989247D01*
X170340060Y-99069618D01*
X170558757Y-99110500D01*
X170558759Y-99110500D01*
X170660191Y-99110500D01*
X170727230Y-99130185D01*
X170772985Y-99182989D01*
X170782929Y-99252147D01*
X170753904Y-99315703D01*
X170747872Y-99322181D01*
X170500105Y-99569947D01*
X170438782Y-99603432D01*
X170389640Y-99604154D01*
X170311243Y-99589500D01*
X170088757Y-99589500D01*
X169870060Y-99630382D01*
X169749586Y-99677054D01*
X169662601Y-99710752D01*
X169662595Y-99710754D01*
X169473439Y-99827874D01*
X169473437Y-99827876D01*
X169309020Y-99977761D01*
X169174944Y-100155307D01*
X169174944Y-100155308D01*
X169174942Y-100155311D01*
X169167243Y-100170771D01*
X169119744Y-100222007D01*
X169056244Y-100239500D01*
X168396683Y-100239500D01*
X168329644Y-100219815D01*
X168295108Y-100186623D01*
X168200045Y-100050858D01*
X168039140Y-99889953D01*
X167900339Y-99792764D01*
X167856714Y-99738187D01*
X167849640Y-99705006D01*
X167848818Y-99705137D01*
X167847597Y-99697431D01*
X167841677Y-99677054D01*
X167837731Y-99658003D01*
X167835071Y-99636942D01*
X167817186Y-99591772D01*
X167815297Y-99586252D01*
X167801743Y-99539599D01*
X167790941Y-99521335D01*
X167782379Y-99503858D01*
X167781351Y-99501262D01*
X167774568Y-99484129D01*
X167746014Y-99444828D01*
X167742810Y-99439950D01*
X167718082Y-99398137D01*
X167718081Y-99398135D01*
X167703074Y-99383128D01*
X167690435Y-99368330D01*
X167677961Y-99351160D01*
X167640528Y-99320194D01*
X167636206Y-99316260D01*
X167320434Y-99000488D01*
X167310361Y-98987914D01*
X167310174Y-98988070D01*
X167305201Y-98982059D01*
X167252756Y-98932810D01*
X167231035Y-98911089D01*
X167225240Y-98906594D01*
X167220798Y-98902799D01*
X167185396Y-98869554D01*
X167185388Y-98869548D01*
X167166792Y-98859325D01*
X167150531Y-98848644D01*
X167133763Y-98835637D01*
X167110295Y-98825482D01*
X167089178Y-98816343D01*
X167083956Y-98813786D01*
X167041368Y-98790373D01*
X167041365Y-98790372D01*
X167020801Y-98785092D01*
X167002396Y-98778790D01*
X166982927Y-98770365D01*
X166982921Y-98770363D01*
X166934951Y-98762766D01*
X166929236Y-98761582D01*
X166912772Y-98757355D01*
X166882180Y-98749500D01*
X166882177Y-98749500D01*
X166860955Y-98749500D01*
X166841555Y-98747973D01*
X166820596Y-98744653D01*
X166820595Y-98744653D01*
X166796786Y-98746903D01*
X166772230Y-98749225D01*
X166766392Y-98749500D01*
X164169418Y-98749500D01*
X164102379Y-98729815D01*
X164056624Y-98677011D01*
X164046680Y-98607853D01*
X164070463Y-98550775D01*
X164075053Y-98544696D01*
X164075056Y-98544691D01*
X164075058Y-98544689D01*
X164174229Y-98345528D01*
X164235115Y-98131536D01*
X164255643Y-97910000D01*
X164235115Y-97688464D01*
X164174229Y-97474472D01*
X164174224Y-97474461D01*
X164075061Y-97275316D01*
X164075056Y-97275308D01*
X163940979Y-97097761D01*
X163776562Y-96947876D01*
X163776558Y-96947872D01*
X163759220Y-96937137D01*
X163712586Y-96885109D01*
X163700500Y-96831712D01*
X163700500Y-96167236D01*
X163720185Y-96100197D01*
X163772096Y-96054854D01*
X163802734Y-96040568D01*
X163989139Y-95910047D01*
X164150047Y-95749139D01*
X164280568Y-95562734D01*
X164376739Y-95356496D01*
X164435635Y-95136692D01*
X164455468Y-94910002D01*
X166845034Y-94910002D01*
X166864858Y-95136599D01*
X166864860Y-95136610D01*
X166923730Y-95356317D01*
X166923734Y-95356326D01*
X167019865Y-95562481D01*
X167019866Y-95562483D01*
X167070973Y-95635471D01*
X167070974Y-95635472D01*
X167752046Y-94954399D01*
X167764835Y-95035148D01*
X167822359Y-95148045D01*
X167911955Y-95237641D01*
X168024852Y-95295165D01*
X168105599Y-95307953D01*
X167424526Y-95989025D01*
X167424526Y-95989026D01*
X167497512Y-96040131D01*
X167497516Y-96040133D01*
X167703673Y-96136265D01*
X167703682Y-96136269D01*
X167923389Y-96195139D01*
X167923400Y-96195141D01*
X168149998Y-96214966D01*
X168150002Y-96214966D01*
X168376599Y-96195141D01*
X168376610Y-96195139D01*
X168596317Y-96136269D01*
X168596331Y-96136264D01*
X168802478Y-96040136D01*
X168875472Y-95989025D01*
X168194401Y-95307953D01*
X168275148Y-95295165D01*
X168388045Y-95237641D01*
X168477641Y-95148045D01*
X168535165Y-95035148D01*
X168547953Y-94954400D01*
X169229025Y-95635472D01*
X169280136Y-95562478D01*
X169376264Y-95356331D01*
X169376269Y-95356317D01*
X169435139Y-95136610D01*
X169435141Y-95136599D01*
X169454966Y-94910002D01*
X169454966Y-94909997D01*
X169435141Y-94683400D01*
X169435139Y-94683389D01*
X169376269Y-94463682D01*
X169376265Y-94463673D01*
X169280133Y-94257516D01*
X169280131Y-94257512D01*
X169229026Y-94184526D01*
X169229025Y-94184526D01*
X168547953Y-94865598D01*
X168535165Y-94784852D01*
X168477641Y-94671955D01*
X168388045Y-94582359D01*
X168275148Y-94524835D01*
X168194400Y-94512046D01*
X168875472Y-93830974D01*
X168875471Y-93830973D01*
X168802483Y-93779866D01*
X168802481Y-93779865D01*
X168596326Y-93683734D01*
X168596317Y-93683730D01*
X168376610Y-93624860D01*
X168376599Y-93624858D01*
X168150002Y-93605034D01*
X168149998Y-93605034D01*
X167923400Y-93624858D01*
X167923389Y-93624860D01*
X167703682Y-93683730D01*
X167703673Y-93683734D01*
X167497513Y-93779868D01*
X167424527Y-93830972D01*
X167424526Y-93830973D01*
X168105600Y-94512046D01*
X168024852Y-94524835D01*
X167911955Y-94582359D01*
X167822359Y-94671955D01*
X167764835Y-94784852D01*
X167752046Y-94865599D01*
X167070973Y-94184526D01*
X167070972Y-94184527D01*
X167019868Y-94257513D01*
X166923734Y-94463673D01*
X166923730Y-94463682D01*
X166864860Y-94683389D01*
X166864858Y-94683400D01*
X166845034Y-94909997D01*
X166845034Y-94910002D01*
X164455468Y-94910002D01*
X164455468Y-94910000D01*
X164454119Y-94894586D01*
X164435635Y-94683313D01*
X164435635Y-94683308D01*
X164386468Y-94499812D01*
X164376741Y-94463511D01*
X164376738Y-94463502D01*
X164371453Y-94452169D01*
X164280568Y-94257266D01*
X164150047Y-94070861D01*
X164150045Y-94070858D01*
X164041368Y-93962181D01*
X164007883Y-93900858D01*
X164012867Y-93831166D01*
X164054739Y-93775233D01*
X164120203Y-93750816D01*
X164129049Y-93750500D01*
X165514495Y-93750500D01*
X165530505Y-93752267D01*
X165530528Y-93752026D01*
X165538289Y-93752758D01*
X165538296Y-93752760D01*
X165610203Y-93750500D01*
X165640925Y-93750500D01*
X165648190Y-93749581D01*
X165654016Y-93749122D01*
X165702569Y-93747597D01*
X165722956Y-93741673D01*
X165741996Y-93737731D01*
X165763058Y-93735071D01*
X165808235Y-93717183D01*
X165813735Y-93715300D01*
X165860398Y-93701744D01*
X165878665Y-93690939D01*
X165896136Y-93682380D01*
X165915871Y-93674568D01*
X165955177Y-93646010D01*
X165960043Y-93642813D01*
X166001865Y-93618081D01*
X166016870Y-93603075D01*
X166031668Y-93590436D01*
X166048837Y-93577963D01*
X166079809Y-93540522D01*
X166083713Y-93536231D01*
X167533126Y-92086819D01*
X167594450Y-92053334D01*
X167620808Y-92050500D01*
X171142278Y-92050500D01*
X171209317Y-92070185D01*
G37*
%TD.AperFunction*%
%TA.AperFunction,Conductor*%
G36*
X182142539Y-48620185D02*
G01*
X182188294Y-48672989D01*
X182199500Y-48724500D01*
X182199500Y-48742313D01*
X182237888Y-49425862D01*
X182314541Y-50106183D01*
X182429220Y-50781136D01*
X182581564Y-51448597D01*
X182771093Y-52106466D01*
X182771095Y-52106471D01*
X182771094Y-52106470D01*
X182997213Y-52752682D01*
X183127931Y-53068261D01*
X183244398Y-53349436D01*
X183259211Y-53385196D01*
X183556249Y-54002003D01*
X183556254Y-54002012D01*
X183887420Y-54601213D01*
X183935488Y-54677712D01*
X184251666Y-55180907D01*
X184647832Y-55739249D01*
X184647832Y-55739250D01*
X184647837Y-55739256D01*
X185074694Y-56274518D01*
X185530892Y-56785004D01*
X186014996Y-57269108D01*
X186015005Y-57269116D01*
X186525477Y-57725302D01*
X187060750Y-58152168D01*
X187060751Y-58152168D01*
X187619093Y-58548334D01*
X187619098Y-58548337D01*
X188198787Y-58912580D01*
X188778968Y-59233234D01*
X188797997Y-59243751D01*
X189414804Y-59540789D01*
X189414808Y-59540790D01*
X189414815Y-59540794D01*
X189654315Y-59639998D01*
X190047318Y-59802787D01*
X190693530Y-60028906D01*
X190693529Y-60028905D01*
X190693534Y-60028907D01*
X191351403Y-60218436D01*
X192018864Y-60370780D01*
X192018866Y-60370780D01*
X192018869Y-60370781D01*
X192018870Y-60370781D01*
X192693817Y-60485459D01*
X192693823Y-60485459D01*
X192693831Y-60485461D01*
X193078917Y-60528848D01*
X193374138Y-60562112D01*
X194057687Y-60600500D01*
X194075500Y-60600500D01*
X194142539Y-60620185D01*
X194188294Y-60672989D01*
X194199500Y-60724500D01*
X194199500Y-121775500D01*
X194179815Y-121842539D01*
X194127011Y-121888294D01*
X194075500Y-121899500D01*
X194057687Y-121899500D01*
X193374138Y-121937888D01*
X193078917Y-121971151D01*
X192693831Y-122014539D01*
X192693823Y-122014540D01*
X192693817Y-122014541D01*
X192018870Y-122129219D01*
X192018869Y-122129219D01*
X192018866Y-122129219D01*
X192018864Y-122129220D01*
X191351403Y-122281564D01*
X190693534Y-122471093D01*
X190693529Y-122471094D01*
X190693530Y-122471094D01*
X190047318Y-122697213D01*
X189654315Y-122860001D01*
X189414815Y-122959206D01*
X189414808Y-122959209D01*
X189414804Y-122959211D01*
X188797997Y-123256249D01*
X188797987Y-123256254D01*
X188797988Y-123256254D01*
X188198787Y-123587420D01*
X187684462Y-123910591D01*
X187619093Y-123951666D01*
X187060751Y-124347832D01*
X187060750Y-124347832D01*
X186525477Y-124774698D01*
X186057835Y-125192608D01*
X186014996Y-125230892D01*
X185530892Y-125714996D01*
X185530883Y-125715005D01*
X185530884Y-125715005D01*
X185074698Y-126225477D01*
X184647832Y-126760750D01*
X184647832Y-126760751D01*
X184251666Y-127319093D01*
X184251663Y-127319098D01*
X183887420Y-127898787D01*
X183698592Y-128240446D01*
X183556249Y-128497997D01*
X183369236Y-128886335D01*
X183259206Y-129114815D01*
X183244395Y-129150572D01*
X182997213Y-129747318D01*
X182771094Y-130393530D01*
X182771093Y-130393534D01*
X182581564Y-131051403D01*
X182429220Y-131718864D01*
X182314541Y-132393817D01*
X182237888Y-133074138D01*
X182199500Y-133757687D01*
X182199500Y-133757695D01*
X182199500Y-133775500D01*
X182179815Y-133842539D01*
X182127011Y-133888294D01*
X182075500Y-133899500D01*
X121024500Y-133899500D01*
X120957461Y-133879815D01*
X120911706Y-133827011D01*
X120900500Y-133775500D01*
X120900500Y-133757695D01*
X120900500Y-133757687D01*
X120862112Y-133074138D01*
X120785459Y-132393817D01*
X120670780Y-131718864D01*
X120518436Y-131051403D01*
X120328907Y-130393534D01*
X120328906Y-130393530D01*
X120252570Y-130175373D01*
X149195723Y-130175373D01*
X149225881Y-130475160D01*
X149225882Y-130475162D01*
X149295728Y-130768252D01*
X149295733Y-130768266D01*
X149404020Y-131049427D01*
X149404024Y-131049436D01*
X149548825Y-131313665D01*
X149548829Y-131313671D01*
X149667229Y-131474364D01*
X149727554Y-131556238D01*
X149727561Y-131556245D01*
X149937019Y-131772823D01*
X150173478Y-131959553D01*
X150173480Y-131959554D01*
X150173485Y-131959558D01*
X150432730Y-132113109D01*
X150710128Y-132230736D01*
X151000729Y-132310340D01*
X151299347Y-132350500D01*
X151299351Y-132350500D01*
X151525252Y-132350500D01*
X151689164Y-132339526D01*
X151750634Y-132335412D01*
X152045903Y-132275396D01*
X152330537Y-132176560D01*
X152599459Y-132040668D01*
X152847869Y-131870144D01*
X153071333Y-131668032D01*
X153265865Y-131437939D01*
X153427993Y-131183970D01*
X153554823Y-130910658D01*
X153644093Y-130622879D01*
X153694209Y-130325770D01*
X153704277Y-130024631D01*
X153674118Y-129724838D01*
X153604269Y-129431739D01*
X153495977Y-129150566D01*
X153351175Y-128886335D01*
X153172446Y-128643762D01*
X152962980Y-128427176D01*
X152839742Y-128329856D01*
X152726521Y-128240446D01*
X152726517Y-128240443D01*
X152726515Y-128240442D01*
X152467270Y-128086891D01*
X152189872Y-127969264D01*
X152189863Y-127969261D01*
X151899272Y-127889660D01*
X151824616Y-127879620D01*
X151600653Y-127849500D01*
X151374756Y-127849500D01*
X151374748Y-127849500D01*
X151149368Y-127864587D01*
X151149359Y-127864589D01*
X150854094Y-127924604D01*
X150569464Y-128023439D01*
X150569459Y-128023441D01*
X150300546Y-128159328D01*
X150052125Y-128329860D01*
X149828665Y-128531969D01*
X149634132Y-128762064D01*
X149472006Y-129016030D01*
X149472005Y-129016032D01*
X149345181Y-129289333D01*
X149345177Y-129289342D01*
X149345176Y-129289346D01*
X149255907Y-129577118D01*
X149205791Y-129874230D01*
X149195723Y-130175373D01*
X120252570Y-130175373D01*
X120102787Y-129747318D01*
X119855605Y-129150572D01*
X119840794Y-129114815D01*
X119730764Y-128886335D01*
X119543751Y-128497997D01*
X119401408Y-128240446D01*
X119212580Y-127898787D01*
X118848337Y-127319098D01*
X118848334Y-127319093D01*
X118452168Y-126760751D01*
X118452168Y-126760750D01*
X118025302Y-126225477D01*
X117569116Y-125715005D01*
X117569108Y-125714996D01*
X117085004Y-125230892D01*
X117042164Y-125192608D01*
X116574523Y-124774698D01*
X116039250Y-124347832D01*
X116039249Y-124347832D01*
X115480907Y-123951666D01*
X115415537Y-123910591D01*
X114901213Y-123587420D01*
X114302012Y-123256254D01*
X114302003Y-123256249D01*
X113685196Y-122959211D01*
X113685191Y-122959209D01*
X113685185Y-122959206D01*
X113445684Y-122860001D01*
X113052682Y-122697213D01*
X112406470Y-122471094D01*
X112406466Y-122471093D01*
X111748597Y-122281564D01*
X111081136Y-122129220D01*
X111081133Y-122129219D01*
X111081131Y-122129219D01*
X111081130Y-122129219D01*
X110406183Y-122014541D01*
X110406176Y-122014540D01*
X110406169Y-122014539D01*
X110021082Y-121971151D01*
X109725862Y-121937888D01*
X109042313Y-121899500D01*
X109042305Y-121899500D01*
X109024500Y-121899500D01*
X108957461Y-121879815D01*
X108911706Y-121827011D01*
X108900500Y-121775500D01*
X108900500Y-108330000D01*
X124309341Y-108330000D01*
X124329936Y-108565403D01*
X124329938Y-108565413D01*
X124391094Y-108793655D01*
X124391096Y-108793659D01*
X124391097Y-108793663D01*
X124415287Y-108845538D01*
X124490965Y-109007830D01*
X124490967Y-109007834D01*
X124576089Y-109129400D01*
X124626505Y-109201401D01*
X124793599Y-109368495D01*
X124871880Y-109423308D01*
X124987165Y-109504032D01*
X124987167Y-109504033D01*
X124987170Y-109504035D01*
X125201337Y-109603903D01*
X125201343Y-109603904D01*
X125201344Y-109603905D01*
X125256285Y-109618626D01*
X125429592Y-109665063D01*
X125617918Y-109681539D01*
X125664999Y-109685659D01*
X125665000Y-109685659D01*
X125665001Y-109685659D01*
X125704234Y-109682226D01*
X125900408Y-109665063D01*
X126128663Y-109603903D01*
X126342830Y-109504035D01*
X126536401Y-109368495D01*
X126703495Y-109201401D01*
X126782572Y-109088466D01*
X126837149Y-109044842D01*
X126906647Y-109037648D01*
X126969002Y-109069171D01*
X127004416Y-109129400D01*
X127005038Y-109131997D01*
X127042170Y-109294682D01*
X127042172Y-109294689D01*
X127140762Y-109545890D01*
X127140764Y-109545894D01*
X127169276Y-109595278D01*
X127275691Y-109779596D01*
X127371312Y-109899500D01*
X127443948Y-109990583D01*
X127605999Y-110140943D01*
X127641765Y-110174129D01*
X127864732Y-110326145D01*
X128107865Y-110443232D01*
X128365734Y-110522774D01*
X128365735Y-110522774D01*
X128365738Y-110522775D01*
X128632569Y-110562993D01*
X128632574Y-110562993D01*
X128632577Y-110562994D01*
X128632578Y-110562994D01*
X128902434Y-110562994D01*
X128902435Y-110562994D01*
X128964097Y-110553700D01*
X129169273Y-110522775D01*
X129169274Y-110522774D01*
X129169278Y-110522774D01*
X129427147Y-110443232D01*
X129670281Y-110326145D01*
X129893247Y-110174129D01*
X130091067Y-109990579D01*
X130259321Y-109779596D01*
X130394249Y-109545892D01*
X130492840Y-109294689D01*
X130552889Y-109031597D01*
X130566847Y-108845342D01*
X130573055Y-108762498D01*
X130573055Y-108762489D01*
X130554840Y-108519431D01*
X130552889Y-108493391D01*
X130520161Y-108350000D01*
X133194551Y-108350000D01*
X133214317Y-108601151D01*
X133273126Y-108846110D01*
X133369533Y-109078859D01*
X133501160Y-109293653D01*
X133501161Y-109293656D01*
X133556604Y-109358571D01*
X133664776Y-109485224D01*
X133763589Y-109569618D01*
X133856343Y-109648838D01*
X133856345Y-109648838D01*
X133858242Y-109650001D01*
X134071140Y-109780466D01*
X134259141Y-109858338D01*
X134303889Y-109876873D01*
X134548852Y-109935683D01*
X134800000Y-109955449D01*
X135051148Y-109935683D01*
X135296111Y-109876873D01*
X135528859Y-109780466D01*
X135743659Y-109648836D01*
X135935224Y-109485224D01*
X136098836Y-109293659D01*
X136230466Y-109078859D01*
X136326873Y-108846111D01*
X136385683Y-108601148D01*
X136405449Y-108350000D01*
X138194551Y-108350000D01*
X138195682Y-108364365D01*
X138214317Y-108601151D01*
X138273126Y-108846110D01*
X138369533Y-109078859D01*
X138501160Y-109293653D01*
X138501161Y-109293656D01*
X138556604Y-109358571D01*
X138664776Y-109485224D01*
X138763589Y-109569618D01*
X138856343Y-109648838D01*
X138856345Y-109648838D01*
X138858242Y-109650001D01*
X139071140Y-109780466D01*
X139259141Y-109858338D01*
X139303889Y-109876873D01*
X139548852Y-109935683D01*
X139800000Y-109955449D01*
X140051148Y-109935683D01*
X140296111Y-109876873D01*
X140528859Y-109780466D01*
X140743659Y-109648836D01*
X140935224Y-109485224D01*
X141098836Y-109293659D01*
X141230466Y-109078859D01*
X141326873Y-108846111D01*
X141385683Y-108601148D01*
X141405449Y-108350000D01*
X141385683Y-108098852D01*
X141326873Y-107853889D01*
X141314758Y-107824641D01*
X141230466Y-107621140D01*
X141098839Y-107406346D01*
X141098838Y-107406343D01*
X141034660Y-107331201D01*
X140935224Y-107214776D01*
X140804670Y-107103272D01*
X140743656Y-107051161D01*
X140743653Y-107051160D01*
X140528859Y-106919533D01*
X140296110Y-106823126D01*
X140051151Y-106764317D01*
X139800000Y-106744551D01*
X139548848Y-106764317D01*
X139303889Y-106823126D01*
X139071140Y-106919533D01*
X138856346Y-107051160D01*
X138856343Y-107051161D01*
X138664776Y-107214776D01*
X138501161Y-107406343D01*
X138501160Y-107406346D01*
X138369533Y-107621140D01*
X138273126Y-107853889D01*
X138214317Y-108098848D01*
X138202164Y-108253268D01*
X138194551Y-108350000D01*
X136405449Y-108350000D01*
X136385683Y-108098852D01*
X136326873Y-107853889D01*
X136314758Y-107824641D01*
X136230466Y-107621140D01*
X136098839Y-107406346D01*
X136098838Y-107406343D01*
X136034660Y-107331201D01*
X135935224Y-107214776D01*
X135804670Y-107103272D01*
X135743656Y-107051161D01*
X135743653Y-107051160D01*
X135528859Y-106919533D01*
X135296110Y-106823126D01*
X135051151Y-106764317D01*
X134837254Y-106747483D01*
X134800000Y-106744551D01*
X134799999Y-106744551D01*
X134548848Y-106764317D01*
X134303889Y-106823126D01*
X134071140Y-106919533D01*
X133856346Y-107051160D01*
X133856343Y-107051161D01*
X133664776Y-107214776D01*
X133501161Y-107406343D01*
X133501160Y-107406346D01*
X133369533Y-107621140D01*
X133273126Y-107853889D01*
X133214317Y-108098848D01*
X133194551Y-108350000D01*
X130520161Y-108350000D01*
X130492840Y-108230299D01*
X130394249Y-107979096D01*
X130259321Y-107745392D01*
X130091067Y-107534409D01*
X130091066Y-107534408D01*
X130091063Y-107534404D01*
X129893247Y-107350859D01*
X129872440Y-107336673D01*
X129803169Y-107289444D01*
X129758869Y-107235418D01*
X129750810Y-107166015D01*
X129781553Y-107103272D01*
X129841337Y-107067110D01*
X129873023Y-107062993D01*
X130115377Y-107062993D01*
X130115378Y-107062993D01*
X130174989Y-107056585D01*
X130309837Y-107006290D01*
X130425052Y-106920040D01*
X130511302Y-106804825D01*
X130561597Y-106669977D01*
X130568006Y-106610367D01*
X130568005Y-103914622D01*
X130561597Y-103855011D01*
X130546571Y-103814725D01*
X130511303Y-103720165D01*
X130511299Y-103720158D01*
X130425053Y-103604949D01*
X130425050Y-103604946D01*
X130309841Y-103518700D01*
X130309834Y-103518696D01*
X130174988Y-103468402D01*
X130174989Y-103468402D01*
X130115389Y-103461995D01*
X130115387Y-103461994D01*
X130115379Y-103461994D01*
X130115370Y-103461994D01*
X127419635Y-103461994D01*
X127419629Y-103461995D01*
X127360022Y-103468402D01*
X127225177Y-103518696D01*
X127225170Y-103518700D01*
X127109961Y-103604946D01*
X127109958Y-103604949D01*
X127023712Y-103720158D01*
X127023708Y-103720165D01*
X126973414Y-103855011D01*
X126967007Y-103914610D01*
X126967005Y-103914629D01*
X126967005Y-104405444D01*
X126947320Y-104472484D01*
X126894516Y-104518238D01*
X126825358Y-104528182D01*
X126768692Y-104504709D01*
X126757332Y-104496204D01*
X126757328Y-104496202D01*
X126622482Y-104445908D01*
X126622483Y-104445908D01*
X126562883Y-104439501D01*
X126562881Y-104439500D01*
X126562873Y-104439500D01*
X126562864Y-104439500D01*
X124767129Y-104439500D01*
X124767123Y-104439501D01*
X124707516Y-104445908D01*
X124572671Y-104496202D01*
X124572664Y-104496206D01*
X124457455Y-104582452D01*
X124457452Y-104582455D01*
X124371206Y-104697664D01*
X124371202Y-104697671D01*
X124320908Y-104832517D01*
X124314501Y-104892116D01*
X124314500Y-104892135D01*
X124314500Y-106687870D01*
X124314501Y-106687876D01*
X124320908Y-106747483D01*
X124371202Y-106882328D01*
X124371206Y-106882335D01*
X124457452Y-106997544D01*
X124457455Y-106997547D01*
X124572664Y-107083793D01*
X124572671Y-107083797D01*
X124704081Y-107132810D01*
X124760015Y-107174681D01*
X124784432Y-107240145D01*
X124769580Y-107308418D01*
X124748430Y-107336673D01*
X124626503Y-107458600D01*
X124490965Y-107652169D01*
X124490964Y-107652171D01*
X124391098Y-107866335D01*
X124391094Y-107866344D01*
X124329938Y-108094586D01*
X124329936Y-108094596D01*
X124309341Y-108329999D01*
X124309341Y-108330000D01*
X108900500Y-108330000D01*
X108900500Y-95130000D01*
X124344341Y-95130000D01*
X124364936Y-95365403D01*
X124364938Y-95365413D01*
X124426094Y-95593655D01*
X124426096Y-95593659D01*
X124426097Y-95593663D01*
X124445593Y-95635472D01*
X124525965Y-95807830D01*
X124525967Y-95807834D01*
X124615071Y-95935086D01*
X124661505Y-96001401D01*
X124828599Y-96168495D01*
X124925384Y-96236264D01*
X125022165Y-96304032D01*
X125022167Y-96304033D01*
X125022170Y-96304035D01*
X125236337Y-96403903D01*
X125236343Y-96403904D01*
X125236344Y-96403905D01*
X125291285Y-96418626D01*
X125464592Y-96465063D01*
X125652918Y-96481539D01*
X125699999Y-96485659D01*
X125700000Y-96485659D01*
X125700001Y-96485659D01*
X125739234Y-96482226D01*
X125935408Y-96465063D01*
X126163663Y-96403903D01*
X126377830Y-96304035D01*
X126571401Y-96168495D01*
X126738495Y-96001401D01*
X126782570Y-95938455D01*
X126837145Y-95894831D01*
X126906643Y-95887637D01*
X126968998Y-95919159D01*
X127004413Y-95979389D01*
X127005035Y-95981986D01*
X127042170Y-96144682D01*
X127042172Y-96144689D01*
X127140506Y-96395239D01*
X127140763Y-96395892D01*
X127275691Y-96629596D01*
X127355868Y-96730134D01*
X127443948Y-96840583D01*
X127590430Y-96976497D01*
X127641765Y-97024129D01*
X127864732Y-97176145D01*
X128107865Y-97293232D01*
X128365734Y-97372774D01*
X128365735Y-97372774D01*
X128365738Y-97372775D01*
X128632569Y-97412993D01*
X128632574Y-97412993D01*
X128632577Y-97412994D01*
X128632578Y-97412994D01*
X128902434Y-97412994D01*
X128902435Y-97412994D01*
X128902442Y-97412993D01*
X129169273Y-97372775D01*
X129169274Y-97372774D01*
X129169278Y-97372774D01*
X129427147Y-97293232D01*
X129670281Y-97176145D01*
X129893247Y-97024129D01*
X130091067Y-96840579D01*
X130259321Y-96629596D01*
X130394249Y-96395892D01*
X130492840Y-96144689D01*
X130552889Y-95881597D01*
X130573055Y-95612494D01*
X130571643Y-95593655D01*
X130554539Y-95365408D01*
X130552889Y-95343391D01*
X130492840Y-95080299D01*
X130394249Y-94829096D01*
X130259321Y-94595392D01*
X130091067Y-94384409D01*
X130091066Y-94384408D01*
X130091063Y-94384404D01*
X129893247Y-94200859D01*
X129869291Y-94184526D01*
X129802437Y-94138945D01*
X129758137Y-94084919D01*
X129750078Y-94015516D01*
X129780821Y-93952773D01*
X129840605Y-93916611D01*
X129872291Y-93912494D01*
X130115334Y-93912494D01*
X130115350Y-93912493D01*
X130174878Y-93906092D01*
X130174885Y-93906090D01*
X130309592Y-93855848D01*
X130309599Y-93855844D01*
X130424693Y-93769684D01*
X130424696Y-93769681D01*
X130510856Y-93654587D01*
X130510860Y-93654580D01*
X130561102Y-93519873D01*
X130561104Y-93519866D01*
X130567505Y-93460338D01*
X130567506Y-93460321D01*
X130567506Y-92362494D01*
X129368234Y-92362494D01*
X129390606Y-92314951D01*
X129421379Y-92153632D01*
X129411067Y-91989728D01*
X129369726Y-91862494D01*
X130567506Y-91862494D01*
X130567506Y-91449999D01*
X133194551Y-91449999D01*
X133214317Y-91701151D01*
X133273126Y-91946110D01*
X133369533Y-92178859D01*
X133501160Y-92393653D01*
X133501161Y-92393656D01*
X133546436Y-92446666D01*
X133664776Y-92585224D01*
X133791892Y-92693791D01*
X133856343Y-92748838D01*
X133856345Y-92748838D01*
X133867465Y-92755653D01*
X134071140Y-92880466D01*
X134261874Y-92959470D01*
X134303889Y-92976873D01*
X134548852Y-93035683D01*
X134800000Y-93055449D01*
X135051148Y-93035683D01*
X135296111Y-92976873D01*
X135528859Y-92880466D01*
X135743659Y-92748836D01*
X135935224Y-92585224D01*
X136098836Y-92393659D01*
X136230466Y-92178859D01*
X136326873Y-91946111D01*
X136385683Y-91701148D01*
X136405449Y-91450000D01*
X138194551Y-91450000D01*
X138214317Y-91701151D01*
X138273126Y-91946110D01*
X138369533Y-92178859D01*
X138501160Y-92393653D01*
X138501161Y-92393656D01*
X138546436Y-92446666D01*
X138664776Y-92585224D01*
X138856341Y-92748836D01*
X138940289Y-92800279D01*
X138987165Y-92852091D01*
X138999500Y-92906007D01*
X138999500Y-103040191D01*
X138999501Y-103040200D01*
X139008791Y-103080908D01*
X139009955Y-103087763D01*
X139014632Y-103129259D01*
X139028420Y-103168662D01*
X139030345Y-103175345D01*
X139039639Y-103216061D01*
X139057759Y-103253688D01*
X139060421Y-103260114D01*
X139074212Y-103299525D01*
X139096422Y-103334872D01*
X139099787Y-103340959D01*
X139117910Y-103378589D01*
X139143940Y-103411229D01*
X139147966Y-103416904D01*
X139170182Y-103452259D01*
X139170184Y-103452262D01*
X144063181Y-108345259D01*
X144096666Y-108406582D01*
X144099500Y-108432940D01*
X144099500Y-109797718D01*
X144079815Y-109864757D01*
X144051662Y-109895571D01*
X143948222Y-109976081D01*
X143948219Y-109976084D01*
X143791016Y-110146852D01*
X143664075Y-110341151D01*
X143570842Y-110553699D01*
X143513866Y-110778691D01*
X143513864Y-110778702D01*
X143494700Y-111009993D01*
X143494700Y-111010006D01*
X143513864Y-111241297D01*
X143513866Y-111241308D01*
X143570842Y-111466300D01*
X143664075Y-111678848D01*
X143791016Y-111873147D01*
X143791019Y-111873151D01*
X143791021Y-111873153D01*
X143948216Y-112043913D01*
X143948219Y-112043915D01*
X143948222Y-112043918D01*
X144131365Y-112186464D01*
X144131371Y-112186468D01*
X144131374Y-112186470D01*
X144335497Y-112296936D01*
X144449487Y-112336068D01*
X144555015Y-112372297D01*
X144555017Y-112372297D01*
X144555019Y-112372298D01*
X144783951Y-112410500D01*
X144783952Y-112410500D01*
X145016048Y-112410500D01*
X145016049Y-112410500D01*
X145244981Y-112372298D01*
X145464503Y-112296936D01*
X145668626Y-112186470D01*
X145851784Y-112043913D01*
X146008979Y-111873153D01*
X146135924Y-111678849D01*
X146229157Y-111466300D01*
X146286134Y-111241305D01*
X146294899Y-111135528D01*
X146305300Y-111010006D01*
X146305300Y-111009993D01*
X146286135Y-110778702D01*
X146286133Y-110778691D01*
X146266206Y-110700000D01*
X147084356Y-110700000D01*
X147104884Y-110921535D01*
X147104885Y-110921537D01*
X147165769Y-111135523D01*
X147165775Y-111135538D01*
X147264938Y-111334683D01*
X147264943Y-111334691D01*
X147399020Y-111512238D01*
X147563437Y-111662123D01*
X147563439Y-111662125D01*
X147752595Y-111779245D01*
X147752596Y-111779245D01*
X147752599Y-111779247D01*
X147960060Y-111859618D01*
X148178757Y-111900500D01*
X148178759Y-111900500D01*
X148401241Y-111900500D01*
X148401243Y-111900500D01*
X148619940Y-111859618D01*
X148827401Y-111779247D01*
X149016562Y-111662124D01*
X149180981Y-111512236D01*
X149315058Y-111334689D01*
X149414229Y-111135528D01*
X149467016Y-110950000D01*
X154733505Y-110950000D01*
X154786239Y-111135349D01*
X154885368Y-111334425D01*
X155019391Y-111511900D01*
X155183738Y-111661721D01*
X155372820Y-111778797D01*
X155372822Y-111778798D01*
X155580195Y-111859135D01*
X155660000Y-111874052D01*
X155660000Y-110950000D01*
X154733505Y-110950000D01*
X149467016Y-110950000D01*
X149475115Y-110921536D01*
X149492928Y-110729302D01*
X155556372Y-110729302D01*
X155585047Y-110842538D01*
X155648936Y-110940327D01*
X155741115Y-111012072D01*
X155851595Y-111050000D01*
X155939005Y-111050000D01*
X156025216Y-111035614D01*
X156127947Y-110980019D01*
X156155581Y-110950000D01*
X156160000Y-110950000D01*
X156160000Y-111874052D01*
X156239804Y-111859135D01*
X156447177Y-111778798D01*
X156447179Y-111778797D01*
X156636261Y-111661721D01*
X156800608Y-111511900D01*
X156934631Y-111334425D01*
X157033760Y-111135349D01*
X157086495Y-110950000D01*
X156160000Y-110950000D01*
X156155581Y-110950000D01*
X156207060Y-110894079D01*
X156253982Y-110787108D01*
X156263628Y-110670698D01*
X156234953Y-110557462D01*
X156171064Y-110459673D01*
X156078885Y-110387928D01*
X155968405Y-110350000D01*
X155880995Y-110350000D01*
X155794784Y-110364386D01*
X155692053Y-110419981D01*
X155612940Y-110505921D01*
X155566018Y-110612892D01*
X155556372Y-110729302D01*
X149492928Y-110729302D01*
X149495643Y-110700000D01*
X149475115Y-110478464D01*
X149467016Y-110450000D01*
X154733505Y-110450000D01*
X155660000Y-110450000D01*
X155660000Y-109525946D01*
X156160000Y-109525946D01*
X156160000Y-110450000D01*
X157086495Y-110450000D01*
X157033760Y-110264650D01*
X156934631Y-110065574D01*
X156800608Y-109888099D01*
X156636261Y-109738278D01*
X156493690Y-109650001D01*
X157594532Y-109650001D01*
X157614364Y-109876686D01*
X157614366Y-109876697D01*
X157673258Y-110096488D01*
X157673261Y-110096497D01*
X157769431Y-110302732D01*
X157769432Y-110302734D01*
X157899954Y-110489141D01*
X158060858Y-110650045D01*
X158081462Y-110664472D01*
X158247266Y-110780568D01*
X158262975Y-110787893D01*
X158315414Y-110834064D01*
X158334567Y-110901257D01*
X158314352Y-110968138D01*
X158262979Y-111012656D01*
X158247512Y-111019868D01*
X158174527Y-111070972D01*
X158174526Y-111070973D01*
X158855600Y-111752046D01*
X158774852Y-111764835D01*
X158661955Y-111822359D01*
X158572359Y-111911955D01*
X158514835Y-112024852D01*
X158502046Y-112105598D01*
X157820973Y-111424526D01*
X157769868Y-111497513D01*
X157673734Y-111703673D01*
X157673730Y-111703682D01*
X157614860Y-111923389D01*
X157614858Y-111923400D01*
X157595034Y-112149997D01*
X157595034Y-112150002D01*
X157614858Y-112376599D01*
X157614860Y-112376610D01*
X157673730Y-112596317D01*
X157673734Y-112596326D01*
X157769865Y-112802481D01*
X157769866Y-112802483D01*
X157820973Y-112875471D01*
X157820973Y-112875472D01*
X158502045Y-112194399D01*
X158514835Y-112275148D01*
X158572359Y-112388045D01*
X158661955Y-112477641D01*
X158774852Y-112535165D01*
X158855599Y-112547953D01*
X158174526Y-113229025D01*
X158174526Y-113229026D01*
X158247512Y-113280131D01*
X158247516Y-113280133D01*
X158453673Y-113376265D01*
X158453682Y-113376269D01*
X158673389Y-113435139D01*
X158673400Y-113435141D01*
X158899998Y-113454966D01*
X158900002Y-113454966D01*
X159126599Y-113435141D01*
X159126610Y-113435139D01*
X159346317Y-113376269D01*
X159346331Y-113376264D01*
X159552478Y-113280136D01*
X159625472Y-113229025D01*
X158944401Y-112547953D01*
X159025148Y-112535165D01*
X159138045Y-112477641D01*
X159227641Y-112388045D01*
X159285165Y-112275148D01*
X159297953Y-112194400D01*
X159979025Y-112875472D01*
X160030136Y-112802478D01*
X160126264Y-112596331D01*
X160126269Y-112596317D01*
X160185139Y-112376610D01*
X160185141Y-112376599D01*
X160204966Y-112150002D01*
X160204966Y-112149997D01*
X160185141Y-111923400D01*
X160185139Y-111923389D01*
X160126269Y-111703682D01*
X160126265Y-111703673D01*
X160030133Y-111497516D01*
X160030131Y-111497512D01*
X159979026Y-111424526D01*
X159979025Y-111424526D01*
X159297953Y-112105598D01*
X159285165Y-112024852D01*
X159227641Y-111911955D01*
X159138045Y-111822359D01*
X159025148Y-111764835D01*
X158944400Y-111752046D01*
X159625472Y-111070974D01*
X159625471Y-111070973D01*
X159552483Y-111019866D01*
X159552481Y-111019865D01*
X159537023Y-111012657D01*
X159484584Y-110966484D01*
X159465432Y-110899290D01*
X159485648Y-110832409D01*
X159537023Y-110787893D01*
X159552734Y-110780568D01*
X159739139Y-110650047D01*
X159900047Y-110489139D01*
X160030568Y-110302734D01*
X160126739Y-110096496D01*
X160185635Y-109876692D01*
X160205468Y-109650000D01*
X160205366Y-109648839D01*
X160196360Y-109545892D01*
X160185635Y-109423308D01*
X160126739Y-109203504D01*
X160030568Y-108997266D01*
X159900047Y-108810861D01*
X159900045Y-108810858D01*
X159739141Y-108649954D01*
X159552734Y-108519432D01*
X159552732Y-108519431D01*
X159346497Y-108423261D01*
X159346488Y-108423258D01*
X159126697Y-108364366D01*
X159126693Y-108364365D01*
X159126692Y-108364365D01*
X159126691Y-108364364D01*
X159126686Y-108364364D01*
X158900002Y-108344532D01*
X158899998Y-108344532D01*
X158673313Y-108364364D01*
X158673302Y-108364366D01*
X158453511Y-108423258D01*
X158453502Y-108423261D01*
X158247267Y-108519431D01*
X158247265Y-108519432D01*
X158060858Y-108649954D01*
X157899954Y-108810858D01*
X157769432Y-108997265D01*
X157769431Y-108997267D01*
X157673261Y-109203502D01*
X157673258Y-109203511D01*
X157614366Y-109423302D01*
X157614364Y-109423313D01*
X157594532Y-109649998D01*
X157594532Y-109650001D01*
X156493690Y-109650001D01*
X156447179Y-109621202D01*
X156447177Y-109621201D01*
X156239799Y-109540864D01*
X156160000Y-109525946D01*
X155660000Y-109525946D01*
X155580200Y-109540864D01*
X155372822Y-109621201D01*
X155372820Y-109621202D01*
X155183738Y-109738278D01*
X155019391Y-109888099D01*
X154885368Y-110065574D01*
X154786239Y-110264650D01*
X154733505Y-110450000D01*
X149467016Y-110450000D01*
X149414229Y-110264472D01*
X149413861Y-110263733D01*
X149315061Y-110065316D01*
X149315056Y-110065308D01*
X149180979Y-109887761D01*
X149016562Y-109737876D01*
X149016560Y-109737874D01*
X148827404Y-109620754D01*
X148827398Y-109620752D01*
X148619940Y-109540382D01*
X148401243Y-109499500D01*
X148178757Y-109499500D01*
X147960060Y-109540382D01*
X147847335Y-109584052D01*
X147752601Y-109620752D01*
X147752595Y-109620754D01*
X147563439Y-109737874D01*
X147563437Y-109737876D01*
X147399020Y-109887761D01*
X147264943Y-110065308D01*
X147264938Y-110065316D01*
X147165775Y-110264461D01*
X147165769Y-110264476D01*
X147104885Y-110478462D01*
X147104884Y-110478464D01*
X147084356Y-110699999D01*
X147084356Y-110700000D01*
X146266206Y-110700000D01*
X146229157Y-110553699D01*
X146135924Y-110341151D01*
X146008983Y-110146852D01*
X146008980Y-110146849D01*
X146008979Y-110146847D01*
X145851784Y-109976087D01*
X145851779Y-109976083D01*
X145851777Y-109976081D01*
X145748338Y-109895571D01*
X145707525Y-109838861D01*
X145700500Y-109797718D01*
X145700500Y-107959807D01*
X145700500Y-107959806D01*
X145691207Y-107919093D01*
X145690042Y-107912233D01*
X145687874Y-107892991D01*
X145685368Y-107870745D01*
X145679470Y-107853889D01*
X145671576Y-107831328D01*
X145669650Y-107824641D01*
X145660361Y-107783941D01*
X145642244Y-107746320D01*
X145639581Y-107739891D01*
X145625789Y-107700477D01*
X145614577Y-107682635D01*
X145603567Y-107665112D01*
X145600206Y-107659030D01*
X145582091Y-107621412D01*
X145582090Y-107621411D01*
X145556055Y-107588765D01*
X145552028Y-107583089D01*
X145549475Y-107579026D01*
X145529816Y-107547738D01*
X145402262Y-107420184D01*
X144482080Y-106500002D01*
X153095034Y-106500002D01*
X153114858Y-106726599D01*
X153114860Y-106726610D01*
X153173730Y-106946317D01*
X153173734Y-106946326D01*
X153269865Y-107152481D01*
X153269866Y-107152483D01*
X153320973Y-107225471D01*
X153320973Y-107225472D01*
X154002046Y-106544399D01*
X154014835Y-106625148D01*
X154072359Y-106738045D01*
X154161955Y-106827641D01*
X154274852Y-106885165D01*
X154355599Y-106897953D01*
X153674526Y-107579025D01*
X153674526Y-107579026D01*
X153747512Y-107630131D01*
X153747516Y-107630133D01*
X153953673Y-107726265D01*
X153953682Y-107726269D01*
X154173389Y-107785139D01*
X154173400Y-107785141D01*
X154399998Y-107804966D01*
X154400002Y-107804966D01*
X154626599Y-107785141D01*
X154626610Y-107785139D01*
X154846317Y-107726269D01*
X154846331Y-107726264D01*
X155052478Y-107630136D01*
X155125472Y-107579025D01*
X154444401Y-106897953D01*
X154525148Y-106885165D01*
X154638045Y-106827641D01*
X154727641Y-106738045D01*
X154785165Y-106625148D01*
X154797953Y-106544400D01*
X155479025Y-107225472D01*
X155530136Y-107152478D01*
X155626264Y-106946331D01*
X155626269Y-106946317D01*
X155685139Y-106726610D01*
X155685141Y-106726599D01*
X155704966Y-106500002D01*
X155704966Y-106499997D01*
X155685141Y-106273400D01*
X155685139Y-106273389D01*
X155626269Y-106053682D01*
X155626265Y-106053673D01*
X155530133Y-105847516D01*
X155530131Y-105847512D01*
X155479026Y-105774526D01*
X155479025Y-105774526D01*
X154797953Y-106455598D01*
X154785165Y-106374852D01*
X154727641Y-106261955D01*
X154638045Y-106172359D01*
X154525148Y-106114835D01*
X154444400Y-106102046D01*
X155125472Y-105420974D01*
X155125471Y-105420973D01*
X155052483Y-105369866D01*
X155052481Y-105369865D01*
X154846326Y-105273734D01*
X154846317Y-105273730D01*
X154626610Y-105214860D01*
X154626599Y-105214858D01*
X154400002Y-105195034D01*
X154399998Y-105195034D01*
X154173400Y-105214858D01*
X154173389Y-105214860D01*
X153953682Y-105273730D01*
X153953673Y-105273734D01*
X153747513Y-105369868D01*
X153674527Y-105420972D01*
X153674526Y-105420973D01*
X154355600Y-106102046D01*
X154274852Y-106114835D01*
X154161955Y-106172359D01*
X154072359Y-106261955D01*
X154014835Y-106374852D01*
X154002046Y-106455598D01*
X153320973Y-105774526D01*
X153269868Y-105847513D01*
X153173734Y-106053673D01*
X153173730Y-106053682D01*
X153114860Y-106273389D01*
X153114858Y-106273400D01*
X153095034Y-106499997D01*
X153095034Y-106500002D01*
X144482080Y-106500002D01*
X142319948Y-104337870D01*
X143499500Y-104337870D01*
X143499501Y-104337876D01*
X143505908Y-104397483D01*
X143556202Y-104532328D01*
X143556206Y-104532335D01*
X143642452Y-104647544D01*
X143642455Y-104647547D01*
X143757664Y-104733793D01*
X143757671Y-104733797D01*
X143892517Y-104784091D01*
X143892516Y-104784091D01*
X143899444Y-104784835D01*
X143952127Y-104790500D01*
X145847872Y-104790499D01*
X145907483Y-104784091D01*
X146042331Y-104733796D01*
X146157546Y-104647546D01*
X146243796Y-104532331D01*
X146294091Y-104397483D01*
X146300500Y-104337873D01*
X146300499Y-102442128D01*
X146294091Y-102382517D01*
X146293473Y-102380861D01*
X146243797Y-102247671D01*
X146243793Y-102247664D01*
X146157547Y-102132455D01*
X146157544Y-102132452D01*
X146042335Y-102046206D01*
X146042328Y-102046202D01*
X145907482Y-101995908D01*
X145907483Y-101995908D01*
X145847883Y-101989501D01*
X145847881Y-101989500D01*
X145847873Y-101989500D01*
X145847864Y-101989500D01*
X143952129Y-101989500D01*
X143952123Y-101989501D01*
X143892516Y-101995908D01*
X143757671Y-102046202D01*
X143757664Y-102046206D01*
X143642455Y-102132452D01*
X143642452Y-102132455D01*
X143556206Y-102247664D01*
X143556202Y-102247671D01*
X143505908Y-102382517D01*
X143499501Y-102442116D01*
X143499501Y-102442123D01*
X143499500Y-102442135D01*
X143499500Y-104337870D01*
X142319948Y-104337870D01*
X140636819Y-102654741D01*
X140603334Y-102593418D01*
X140600500Y-102567060D01*
X140600500Y-99700001D01*
X143044532Y-99700001D01*
X143064364Y-99926686D01*
X143064366Y-99926697D01*
X143123258Y-100146488D01*
X143123261Y-100146497D01*
X143219431Y-100352732D01*
X143219432Y-100352734D01*
X143349954Y-100539141D01*
X143510858Y-100700045D01*
X143510861Y-100700047D01*
X143697266Y-100830568D01*
X143903504Y-100926739D01*
X144123308Y-100985635D01*
X144285230Y-100999801D01*
X144349998Y-101005468D01*
X144350000Y-101005468D01*
X144350002Y-101005468D01*
X144406672Y-101000509D01*
X144576692Y-100985635D01*
X144796496Y-100926739D01*
X145002734Y-100830568D01*
X145189139Y-100700047D01*
X145350047Y-100539139D01*
X145480568Y-100352734D01*
X145487893Y-100337023D01*
X145534062Y-100284586D01*
X145601254Y-100265432D01*
X145668136Y-100285645D01*
X145712657Y-100337023D01*
X145719865Y-100352481D01*
X145719866Y-100352483D01*
X145770973Y-100425471D01*
X145770974Y-100425472D01*
X146452046Y-99744399D01*
X146464835Y-99825148D01*
X146522359Y-99938045D01*
X146611955Y-100027641D01*
X146724852Y-100085165D01*
X146805599Y-100097953D01*
X146124526Y-100779025D01*
X146124526Y-100779026D01*
X146197512Y-100830131D01*
X146197516Y-100830133D01*
X146403673Y-100926265D01*
X146403682Y-100926269D01*
X146623389Y-100985139D01*
X146623400Y-100985141D01*
X146849998Y-101004966D01*
X146850002Y-101004966D01*
X147076599Y-100985141D01*
X147076610Y-100985139D01*
X147296317Y-100926269D01*
X147296331Y-100926264D01*
X147502478Y-100830136D01*
X147575472Y-100779025D01*
X146894401Y-100097953D01*
X146975148Y-100085165D01*
X147088045Y-100027641D01*
X147177641Y-99938045D01*
X147235165Y-99825148D01*
X147247953Y-99744400D01*
X147929025Y-100425472D01*
X147980136Y-100352478D01*
X148076264Y-100146331D01*
X148076269Y-100146317D01*
X148135139Y-99926610D01*
X148135141Y-99926599D01*
X148154966Y-99700002D01*
X148154966Y-99699997D01*
X148135141Y-99473400D01*
X148135139Y-99473389D01*
X148076269Y-99253682D01*
X148076265Y-99253673D01*
X147980133Y-99047516D01*
X147980131Y-99047512D01*
X147929026Y-98974526D01*
X147929025Y-98974526D01*
X147247953Y-99655598D01*
X147235165Y-99574852D01*
X147177641Y-99461955D01*
X147088045Y-99372359D01*
X146975148Y-99314835D01*
X146894400Y-99302046D01*
X147575472Y-98620974D01*
X147575471Y-98620973D01*
X147502483Y-98569866D01*
X147502481Y-98569865D01*
X147296326Y-98473734D01*
X147296317Y-98473730D01*
X147076610Y-98414860D01*
X147076599Y-98414858D01*
X146850002Y-98395034D01*
X146849998Y-98395034D01*
X146623400Y-98414858D01*
X146623389Y-98414860D01*
X146403682Y-98473730D01*
X146403673Y-98473734D01*
X146197513Y-98569868D01*
X146124527Y-98620972D01*
X146124526Y-98620973D01*
X146805600Y-99302046D01*
X146724852Y-99314835D01*
X146611955Y-99372359D01*
X146522359Y-99461955D01*
X146464835Y-99574852D01*
X146452046Y-99655599D01*
X145770973Y-98974526D01*
X145770972Y-98974527D01*
X145719868Y-99047512D01*
X145712656Y-99062979D01*
X145666482Y-99115417D01*
X145599288Y-99134567D01*
X145532407Y-99114350D01*
X145487893Y-99062976D01*
X145480568Y-99047266D01*
X145356134Y-98869554D01*
X145350045Y-98860858D01*
X145189141Y-98699954D01*
X145002734Y-98569432D01*
X145002732Y-98569431D01*
X144796497Y-98473261D01*
X144796488Y-98473258D01*
X144576697Y-98414366D01*
X144576693Y-98414365D01*
X144576692Y-98414365D01*
X144576691Y-98414364D01*
X144576686Y-98414364D01*
X144350002Y-98394532D01*
X144349998Y-98394532D01*
X144123313Y-98414364D01*
X144123302Y-98414366D01*
X143903511Y-98473258D01*
X143903502Y-98473261D01*
X143697267Y-98569431D01*
X143697265Y-98569432D01*
X143510858Y-98699954D01*
X143349954Y-98860858D01*
X143219432Y-99047265D01*
X143219431Y-99047267D01*
X143123261Y-99253502D01*
X143123258Y-99253511D01*
X143064366Y-99473302D01*
X143064364Y-99473313D01*
X143044532Y-99699998D01*
X143044532Y-99700001D01*
X140600500Y-99700001D01*
X140600500Y-92906007D01*
X140620185Y-92838968D01*
X140659709Y-92800280D01*
X140743659Y-92748836D01*
X140935224Y-92585224D01*
X141098836Y-92393659D01*
X141230466Y-92178859D01*
X141326873Y-91946111D01*
X141385683Y-91701148D01*
X141405449Y-91450000D01*
X141385683Y-91198852D01*
X141326873Y-90953889D01*
X141313678Y-90922034D01*
X141230466Y-90721140D01*
X141098839Y-90506346D01*
X141098838Y-90506343D01*
X141044320Y-90442511D01*
X140935224Y-90314776D01*
X140785718Y-90187086D01*
X140743656Y-90151161D01*
X140743653Y-90151160D01*
X140528859Y-90019533D01*
X140296110Y-89923126D01*
X140051151Y-89864317D01*
X139800000Y-89844551D01*
X139548848Y-89864317D01*
X139303889Y-89923126D01*
X139071140Y-90019533D01*
X138856346Y-90151160D01*
X138856343Y-90151161D01*
X138664776Y-90314776D01*
X138501161Y-90506343D01*
X138501160Y-90506346D01*
X138369533Y-90721140D01*
X138273126Y-90953889D01*
X138214317Y-91198848D01*
X138194551Y-91450000D01*
X136405449Y-91450000D01*
X136385683Y-91198852D01*
X136326873Y-90953889D01*
X136313678Y-90922034D01*
X136230466Y-90721140D01*
X136098839Y-90506346D01*
X136098838Y-90506343D01*
X136044320Y-90442511D01*
X135935224Y-90314776D01*
X135785718Y-90187086D01*
X135743656Y-90151161D01*
X135743653Y-90151160D01*
X135528859Y-90019533D01*
X135296110Y-89923126D01*
X135051151Y-89864317D01*
X134837254Y-89847483D01*
X134800000Y-89844551D01*
X134799999Y-89844551D01*
X134548848Y-89864317D01*
X134303889Y-89923126D01*
X134071140Y-90019533D01*
X133856346Y-90151160D01*
X133856343Y-90151161D01*
X133664776Y-90314776D01*
X133501161Y-90506343D01*
X133501160Y-90506346D01*
X133369533Y-90721140D01*
X133273126Y-90953889D01*
X133214317Y-91198848D01*
X133194551Y-91449999D01*
X130567506Y-91449999D01*
X130567506Y-90764666D01*
X130567505Y-90764649D01*
X130561104Y-90705121D01*
X130561102Y-90705114D01*
X130510860Y-90570407D01*
X130510856Y-90570400D01*
X130424696Y-90455306D01*
X130424693Y-90455303D01*
X130309599Y-90369143D01*
X130309592Y-90369139D01*
X130174885Y-90318897D01*
X130174878Y-90318895D01*
X130115350Y-90312494D01*
X129017506Y-90312494D01*
X129017506Y-91508183D01*
X129008689Y-91503336D01*
X128849620Y-91462494D01*
X128726612Y-91462494D01*
X128604573Y-91477911D01*
X128517506Y-91512383D01*
X128517506Y-90312494D01*
X127419661Y-90312494D01*
X127360133Y-90318895D01*
X127360126Y-90318897D01*
X127225419Y-90369139D01*
X127225412Y-90369143D01*
X127110318Y-90455303D01*
X127110315Y-90455306D01*
X127024155Y-90570400D01*
X127024151Y-90570407D01*
X126973909Y-90705114D01*
X126973907Y-90705121D01*
X126967506Y-90764649D01*
X126967505Y-90764666D01*
X126967505Y-91183479D01*
X126947820Y-91250519D01*
X126895016Y-91296273D01*
X126825858Y-91306217D01*
X126800172Y-91299661D01*
X126657379Y-91246403D01*
X126657372Y-91246401D01*
X126597844Y-91240000D01*
X125950000Y-91240000D01*
X125950000Y-92154498D01*
X125842315Y-92105320D01*
X125735763Y-92090000D01*
X125664237Y-92090000D01*
X125557685Y-92105320D01*
X125449999Y-92154498D01*
X125450000Y-91240000D01*
X124802155Y-91240000D01*
X124742627Y-91246401D01*
X124742620Y-91246403D01*
X124607913Y-91296645D01*
X124607906Y-91296649D01*
X124492812Y-91382809D01*
X124492809Y-91382812D01*
X124406649Y-91497906D01*
X124406645Y-91497913D01*
X124356403Y-91632620D01*
X124356401Y-91632627D01*
X124350000Y-91692155D01*
X124350000Y-92340000D01*
X125266314Y-92340000D01*
X125240507Y-92380156D01*
X125200000Y-92518111D01*
X125200000Y-92661889D01*
X125240507Y-92799844D01*
X125266314Y-92840000D01*
X124350000Y-92840000D01*
X124350000Y-93487844D01*
X124356401Y-93547372D01*
X124356403Y-93547379D01*
X124406645Y-93682086D01*
X124406649Y-93682093D01*
X124492809Y-93797187D01*
X124492812Y-93797190D01*
X124607906Y-93883350D01*
X124607913Y-93883354D01*
X124739470Y-93932421D01*
X124795403Y-93974292D01*
X124819821Y-94039756D01*
X124804970Y-94108029D01*
X124783819Y-94136284D01*
X124661503Y-94258600D01*
X124525965Y-94452169D01*
X124525964Y-94452171D01*
X124426098Y-94666335D01*
X124426094Y-94666344D01*
X124364938Y-94894586D01*
X124364936Y-94894596D01*
X124344341Y-95129999D01*
X124344341Y-95130000D01*
X108900500Y-95130000D01*
X108900500Y-91425373D01*
X110445723Y-91425373D01*
X110475881Y-91725160D01*
X110475882Y-91725162D01*
X110545728Y-92018252D01*
X110545730Y-92018259D01*
X110545731Y-92018261D01*
X110554955Y-92042211D01*
X110654020Y-92299427D01*
X110654024Y-92299436D01*
X110798825Y-92563665D01*
X110798829Y-92563671D01*
X110945155Y-92762266D01*
X110977554Y-92806238D01*
X111187020Y-93022824D01*
X111228334Y-93055449D01*
X111423478Y-93209553D01*
X111423480Y-93209554D01*
X111423485Y-93209558D01*
X111682730Y-93363109D01*
X111960128Y-93480736D01*
X112250729Y-93560340D01*
X112549347Y-93600500D01*
X112549351Y-93600500D01*
X112775252Y-93600500D01*
X112939164Y-93589526D01*
X113000634Y-93585412D01*
X113295903Y-93525396D01*
X113580537Y-93426560D01*
X113849459Y-93290668D01*
X114097869Y-93120144D01*
X114321333Y-92918032D01*
X114515865Y-92687939D01*
X114677993Y-92433970D01*
X114804823Y-92160658D01*
X114894093Y-91872879D01*
X114944209Y-91575770D01*
X114954277Y-91274631D01*
X114924118Y-90974838D01*
X114854269Y-90681739D01*
X114745977Y-90400566D01*
X114601175Y-90136335D01*
X114547583Y-90063600D01*
X114515115Y-90019533D01*
X114422446Y-89893762D01*
X114212980Y-89677176D01*
X114084107Y-89575406D01*
X113976521Y-89490446D01*
X113976517Y-89490443D01*
X113976515Y-89490442D01*
X113717270Y-89336891D01*
X113439872Y-89219264D01*
X113439863Y-89219261D01*
X113149272Y-89139660D01*
X113043297Y-89125408D01*
X112850653Y-89099500D01*
X112624756Y-89099500D01*
X112624748Y-89099500D01*
X112399368Y-89114587D01*
X112399359Y-89114589D01*
X112104094Y-89174604D01*
X111819464Y-89273439D01*
X111819459Y-89273441D01*
X111550546Y-89409328D01*
X111302125Y-89579860D01*
X111078665Y-89781969D01*
X110884132Y-90012064D01*
X110722006Y-90266030D01*
X110722005Y-90266032D01*
X110600163Y-90528597D01*
X110595177Y-90539342D01*
X110595176Y-90539346D01*
X110505907Y-90827118D01*
X110473029Y-91022034D01*
X110455791Y-91124230D01*
X110447080Y-91384798D01*
X110445723Y-91425373D01*
X108900500Y-91425373D01*
X108900500Y-87650000D01*
X122884357Y-87650000D01*
X122904884Y-87871535D01*
X122904885Y-87871537D01*
X122965769Y-88085523D01*
X122965775Y-88085538D01*
X123064938Y-88284683D01*
X123064943Y-88284691D01*
X123199020Y-88462238D01*
X123363437Y-88612123D01*
X123363439Y-88612125D01*
X123552595Y-88729245D01*
X123552596Y-88729245D01*
X123552599Y-88729247D01*
X123760060Y-88809618D01*
X123978757Y-88850500D01*
X123978759Y-88850500D01*
X124201241Y-88850500D01*
X124201243Y-88850500D01*
X124419940Y-88809618D01*
X124627401Y-88729247D01*
X124816562Y-88612124D01*
X124968842Y-88473302D01*
X124980979Y-88462238D01*
X124981235Y-88461900D01*
X125115058Y-88284689D01*
X125214229Y-88085528D01*
X125267016Y-87900000D01*
X130533505Y-87900000D01*
X130586239Y-88085349D01*
X130685368Y-88284425D01*
X130819391Y-88461900D01*
X130983738Y-88611721D01*
X131172820Y-88728797D01*
X131172822Y-88728798D01*
X131380195Y-88809135D01*
X131460000Y-88824052D01*
X131460000Y-87900000D01*
X130533505Y-87900000D01*
X125267016Y-87900000D01*
X125275115Y-87871536D01*
X125292928Y-87679302D01*
X131356372Y-87679302D01*
X131385047Y-87792538D01*
X131448936Y-87890327D01*
X131541115Y-87962072D01*
X131651595Y-88000000D01*
X131739005Y-88000000D01*
X131825216Y-87985614D01*
X131927947Y-87930019D01*
X131955581Y-87900000D01*
X131960000Y-87900000D01*
X131960000Y-88824052D01*
X132039804Y-88809135D01*
X132247177Y-88728798D01*
X132247179Y-88728797D01*
X132293686Y-88700001D01*
X143044532Y-88700001D01*
X143064364Y-88926686D01*
X143064366Y-88926697D01*
X143123258Y-89146488D01*
X143123261Y-89146497D01*
X143219431Y-89352732D01*
X143219432Y-89352734D01*
X143349954Y-89539141D01*
X143510858Y-89700045D01*
X143510861Y-89700047D01*
X143697266Y-89830568D01*
X143903504Y-89926739D01*
X143903509Y-89926740D01*
X143903511Y-89926741D01*
X143956415Y-89940916D01*
X144123308Y-89985635D01*
X144285230Y-89999801D01*
X144349998Y-90005468D01*
X144350000Y-90005468D01*
X144350002Y-90005468D01*
X144406672Y-90000509D01*
X144576692Y-89985635D01*
X144796496Y-89926739D01*
X145002734Y-89830568D01*
X145189139Y-89700047D01*
X145350047Y-89539139D01*
X145480568Y-89352734D01*
X145487893Y-89337023D01*
X145534062Y-89284586D01*
X145601254Y-89265432D01*
X145668136Y-89285645D01*
X145712657Y-89337023D01*
X145719865Y-89352481D01*
X145719866Y-89352483D01*
X145770973Y-89425471D01*
X145770974Y-89425472D01*
X146452046Y-88744399D01*
X146464835Y-88825148D01*
X146522359Y-88938045D01*
X146611955Y-89027641D01*
X146724852Y-89085165D01*
X146805599Y-89097953D01*
X146124526Y-89779025D01*
X146124526Y-89779026D01*
X146197512Y-89830131D01*
X146197516Y-89830133D01*
X146403673Y-89926265D01*
X146403682Y-89926269D01*
X146623389Y-89985139D01*
X146623400Y-89985141D01*
X146849998Y-90004966D01*
X146850002Y-90004966D01*
X147076599Y-89985141D01*
X147076610Y-89985139D01*
X147296317Y-89926269D01*
X147296331Y-89926264D01*
X147502478Y-89830136D01*
X147575472Y-89779025D01*
X146894401Y-89097953D01*
X146975148Y-89085165D01*
X147088045Y-89027641D01*
X147177641Y-88938045D01*
X147235165Y-88825148D01*
X147247953Y-88744400D01*
X147929025Y-89425472D01*
X147980136Y-89352478D01*
X148076264Y-89146331D01*
X148076269Y-89146317D01*
X148135139Y-88926610D01*
X148135141Y-88926599D01*
X148154966Y-88700002D01*
X148154966Y-88699997D01*
X148135141Y-88473400D01*
X148135139Y-88473389D01*
X148076269Y-88253682D01*
X148076265Y-88253673D01*
X147980133Y-88047516D01*
X147980131Y-88047512D01*
X147929026Y-87974526D01*
X147929025Y-87974526D01*
X147247953Y-88655598D01*
X147235165Y-88574852D01*
X147177641Y-88461955D01*
X147088045Y-88372359D01*
X146975148Y-88314835D01*
X146894400Y-88302046D01*
X147575472Y-87620974D01*
X147575471Y-87620973D01*
X147502483Y-87569866D01*
X147502481Y-87569865D01*
X147296326Y-87473734D01*
X147296317Y-87473730D01*
X147076610Y-87414860D01*
X147076599Y-87414858D01*
X146850002Y-87395034D01*
X146849998Y-87395034D01*
X146623400Y-87414858D01*
X146623389Y-87414860D01*
X146403682Y-87473730D01*
X146403673Y-87473734D01*
X146197513Y-87569868D01*
X146124527Y-87620972D01*
X146124526Y-87620973D01*
X146805600Y-88302046D01*
X146724852Y-88314835D01*
X146611955Y-88372359D01*
X146522359Y-88461955D01*
X146464835Y-88574852D01*
X146452046Y-88655599D01*
X145770973Y-87974526D01*
X145770972Y-87974527D01*
X145719868Y-88047512D01*
X145712656Y-88062979D01*
X145666482Y-88115417D01*
X145599288Y-88134567D01*
X145532407Y-88114350D01*
X145487893Y-88062976D01*
X145480568Y-88047266D01*
X145350047Y-87860861D01*
X145350045Y-87860858D01*
X145189141Y-87699954D01*
X145002734Y-87569432D01*
X145002732Y-87569431D01*
X144796497Y-87473261D01*
X144796488Y-87473258D01*
X144576697Y-87414366D01*
X144576693Y-87414365D01*
X144576692Y-87414365D01*
X144576691Y-87414364D01*
X144576686Y-87414364D01*
X144350002Y-87394532D01*
X144349998Y-87394532D01*
X144123313Y-87414364D01*
X144123302Y-87414366D01*
X143903511Y-87473258D01*
X143903502Y-87473261D01*
X143697267Y-87569431D01*
X143697265Y-87569432D01*
X143510858Y-87699954D01*
X143349954Y-87860858D01*
X143219432Y-88047265D01*
X143219431Y-88047267D01*
X143123261Y-88253502D01*
X143123258Y-88253511D01*
X143064366Y-88473302D01*
X143064364Y-88473313D01*
X143044532Y-88699998D01*
X143044532Y-88700001D01*
X132293686Y-88700001D01*
X132436261Y-88611721D01*
X132600608Y-88461900D01*
X132734631Y-88284425D01*
X132833760Y-88085349D01*
X132886495Y-87900000D01*
X131960000Y-87900000D01*
X131955581Y-87900000D01*
X132007060Y-87844079D01*
X132053982Y-87737108D01*
X132063628Y-87620698D01*
X132034953Y-87507462D01*
X131971064Y-87409673D01*
X131878885Y-87337928D01*
X131768405Y-87300000D01*
X131680995Y-87300000D01*
X131594784Y-87314386D01*
X131492053Y-87369981D01*
X131412940Y-87455921D01*
X131366018Y-87562892D01*
X131356372Y-87679302D01*
X125292928Y-87679302D01*
X125295643Y-87650000D01*
X125292501Y-87616097D01*
X125275115Y-87428464D01*
X125275114Y-87428462D01*
X125271243Y-87414858D01*
X125267016Y-87400000D01*
X130533505Y-87400000D01*
X131459999Y-87400000D01*
X131460000Y-86475946D01*
X131960000Y-86475946D01*
X131960000Y-87400000D01*
X132886495Y-87400000D01*
X132833760Y-87214650D01*
X132734631Y-87015574D01*
X132600608Y-86838099D01*
X132436261Y-86688278D01*
X132247179Y-86571202D01*
X132247177Y-86571201D01*
X132039799Y-86490864D01*
X131960000Y-86475946D01*
X131460000Y-86475946D01*
X131380200Y-86490864D01*
X131172822Y-86571201D01*
X131172820Y-86571202D01*
X130983738Y-86688278D01*
X130819391Y-86838099D01*
X130685368Y-87015574D01*
X130586239Y-87214650D01*
X130533505Y-87400000D01*
X125267016Y-87400000D01*
X125214229Y-87214472D01*
X125115189Y-87015574D01*
X125115061Y-87015316D01*
X125115056Y-87015308D01*
X124980979Y-86837761D01*
X124816562Y-86687876D01*
X124816560Y-86687874D01*
X124627404Y-86570754D01*
X124627398Y-86570752D01*
X124419940Y-86490382D01*
X124201243Y-86449500D01*
X123978757Y-86449500D01*
X123760060Y-86490382D01*
X123628864Y-86541207D01*
X123552601Y-86570752D01*
X123552595Y-86570754D01*
X123363439Y-86687874D01*
X123363437Y-86687876D01*
X123199020Y-86837761D01*
X123064943Y-87015308D01*
X123064938Y-87015316D01*
X122965775Y-87214461D01*
X122965769Y-87214476D01*
X122904885Y-87428462D01*
X122904884Y-87428464D01*
X122884357Y-87649999D01*
X122884357Y-87650000D01*
X108900500Y-87650000D01*
X108900500Y-84650005D01*
X117644357Y-84650005D01*
X117664890Y-84897812D01*
X117664892Y-84897824D01*
X117725936Y-85138881D01*
X117825826Y-85366606D01*
X117961833Y-85574782D01*
X117961836Y-85574785D01*
X118130256Y-85757738D01*
X118326491Y-85910474D01*
X118545190Y-86028828D01*
X118780386Y-86109571D01*
X119025665Y-86150500D01*
X119274335Y-86150500D01*
X119519614Y-86109571D01*
X119754810Y-86028828D01*
X119973509Y-85910474D01*
X120169744Y-85757738D01*
X120338164Y-85574785D01*
X120474173Y-85366607D01*
X120574063Y-85138881D01*
X120635108Y-84897821D01*
X120655643Y-84650005D01*
X124144357Y-84650005D01*
X124164890Y-84897812D01*
X124164892Y-84897824D01*
X124225936Y-85138881D01*
X124325826Y-85366606D01*
X124461833Y-85574782D01*
X124461836Y-85574785D01*
X124630256Y-85757738D01*
X124826491Y-85910474D01*
X125045190Y-86028828D01*
X125280386Y-86109571D01*
X125525665Y-86150500D01*
X125774335Y-86150500D01*
X126019614Y-86109571D01*
X126254810Y-86028828D01*
X126473509Y-85910474D01*
X126669744Y-85757738D01*
X126838164Y-85574785D01*
X126974173Y-85366607D01*
X127074063Y-85138881D01*
X127135108Y-84897821D01*
X127155643Y-84650005D01*
X135394357Y-84650005D01*
X135414890Y-84897812D01*
X135414892Y-84897824D01*
X135475936Y-85138881D01*
X135575826Y-85366606D01*
X135711833Y-85574782D01*
X135711836Y-85574785D01*
X135880256Y-85757738D01*
X136076491Y-85910474D01*
X136295190Y-86028828D01*
X136530386Y-86109571D01*
X136775665Y-86150500D01*
X137024335Y-86150500D01*
X137269614Y-86109571D01*
X137504810Y-86028828D01*
X137723509Y-85910474D01*
X137919744Y-85757738D01*
X138088164Y-85574785D01*
X138224173Y-85366607D01*
X138224175Y-85366601D01*
X138224786Y-85365475D01*
X138225157Y-85365101D01*
X138226978Y-85362314D01*
X138227551Y-85362688D01*
X138274009Y-85315888D01*
X138333837Y-85300500D01*
X141966163Y-85300500D01*
X142033202Y-85320185D01*
X142072561Y-85362615D01*
X142073022Y-85362314D01*
X142074785Y-85365012D01*
X142075214Y-85365475D01*
X142075826Y-85366606D01*
X142211833Y-85574782D01*
X142211836Y-85574785D01*
X142380256Y-85757738D01*
X142576491Y-85910474D01*
X142795190Y-86028828D01*
X143030386Y-86109571D01*
X143275665Y-86150500D01*
X143524335Y-86150500D01*
X143769614Y-86109571D01*
X144004810Y-86028828D01*
X144223509Y-85910474D01*
X144419744Y-85757738D01*
X144588164Y-85574785D01*
X144724173Y-85366607D01*
X144724175Y-85366601D01*
X144724786Y-85365475D01*
X144725157Y-85365101D01*
X144726978Y-85362314D01*
X144727551Y-85362688D01*
X144774009Y-85315888D01*
X144833837Y-85300500D01*
X154329192Y-85300500D01*
X154396231Y-85320185D01*
X154416873Y-85336819D01*
X154963181Y-85883127D01*
X154996666Y-85944450D01*
X154999500Y-85970808D01*
X154999500Y-87447489D01*
X154979815Y-87514528D01*
X154927011Y-87560283D01*
X154857853Y-87570227D01*
X154843407Y-87567264D01*
X154685419Y-87524932D01*
X154685409Y-87524930D01*
X154450007Y-87504335D01*
X154450005Y-87504335D01*
X154214602Y-87524930D01*
X154214592Y-87524932D01*
X153986350Y-87586088D01*
X153986341Y-87586092D01*
X153772177Y-87685958D01*
X153772175Y-87685959D01*
X153578603Y-87821499D01*
X153411511Y-87988591D01*
X153281581Y-88174152D01*
X153227004Y-88217777D01*
X153157506Y-88224971D01*
X153095151Y-88193448D01*
X153078431Y-88174152D01*
X152948500Y-87988591D01*
X152781408Y-87821500D01*
X152781401Y-87821495D01*
X152587840Y-87685961D01*
X152587836Y-87685959D01*
X152580322Y-87682455D01*
X152373669Y-87586091D01*
X152373665Y-87586090D01*
X152373661Y-87586088D01*
X152145419Y-87524932D01*
X152145409Y-87524930D01*
X151910007Y-87504335D01*
X151910005Y-87504335D01*
X151674602Y-87524930D01*
X151674592Y-87524932D01*
X151446350Y-87586088D01*
X151446341Y-87586092D01*
X151232177Y-87685958D01*
X151232175Y-87685959D01*
X151038603Y-87821499D01*
X150871511Y-87988591D01*
X150735971Y-88182163D01*
X150735970Y-88182165D01*
X150636104Y-88396329D01*
X150636100Y-88396338D01*
X150574944Y-88624580D01*
X150574942Y-88624590D01*
X150554347Y-88859993D01*
X150554347Y-88859994D01*
X150574942Y-89095397D01*
X150574944Y-89095407D01*
X150636100Y-89323649D01*
X150636102Y-89323653D01*
X150636103Y-89323657D01*
X150733153Y-89531781D01*
X150735971Y-89537824D01*
X150735973Y-89537828D01*
X150833546Y-89677176D01*
X150849559Y-89700045D01*
X150871507Y-89731389D01*
X150871512Y-89731396D01*
X150993436Y-89853320D01*
X151026921Y-89914643D01*
X151021937Y-89984335D01*
X150980065Y-90040268D01*
X150949089Y-90057183D01*
X150817675Y-90106197D01*
X150817670Y-90106200D01*
X150702461Y-90192446D01*
X150702458Y-90192449D01*
X150616212Y-90307658D01*
X150616208Y-90307665D01*
X150565914Y-90442511D01*
X150559507Y-90502110D01*
X150559506Y-90502129D01*
X150559506Y-92297864D01*
X150559507Y-92297870D01*
X150565914Y-92357477D01*
X150616208Y-92492322D01*
X150616212Y-92492329D01*
X150702458Y-92607538D01*
X150702461Y-92607541D01*
X150817670Y-92693787D01*
X150817677Y-92693791D01*
X150952523Y-92744085D01*
X150952522Y-92744085D01*
X150959450Y-92744829D01*
X151012133Y-92750494D01*
X152425506Y-92750493D01*
X152492545Y-92770178D01*
X152538300Y-92822981D01*
X152549506Y-92874493D01*
X152549506Y-93079185D01*
X152529821Y-93146224D01*
X152513187Y-93166866D01*
X151900484Y-93779568D01*
X151887910Y-93789643D01*
X151888065Y-93789830D01*
X151882059Y-93794798D01*
X151857647Y-93820795D01*
X151832809Y-93847244D01*
X151821949Y-93858104D01*
X151811088Y-93868965D01*
X151811078Y-93868977D01*
X151806587Y-93874765D01*
X151802801Y-93879197D01*
X151769552Y-93914606D01*
X151759322Y-93933213D01*
X151748646Y-93949464D01*
X151735640Y-93966232D01*
X151735636Y-93966238D01*
X151716348Y-94010811D01*
X151713777Y-94016058D01*
X151690372Y-94058630D01*
X151690372Y-94058631D01*
X151685091Y-94079199D01*
X151678791Y-94097601D01*
X151670364Y-94117073D01*
X151662766Y-94165047D01*
X151661581Y-94170770D01*
X151649500Y-94217818D01*
X151649500Y-94239044D01*
X151647973Y-94258440D01*
X151647381Y-94262183D01*
X151647047Y-94264292D01*
X151617115Y-94327425D01*
X151557801Y-94364354D01*
X151492480Y-94364664D01*
X151330000Y-94321126D01*
X151330000Y-95284314D01*
X151318045Y-95272359D01*
X151205148Y-95214835D01*
X151111481Y-95200000D01*
X151048519Y-95200000D01*
X150954852Y-95214835D01*
X150841955Y-95272359D01*
X150830000Y-95284314D01*
X150830000Y-94321127D01*
X150633671Y-94373734D01*
X150427517Y-94469865D01*
X150241179Y-94600342D01*
X150080342Y-94761179D01*
X149949865Y-94947517D01*
X149853734Y-95153673D01*
X149853730Y-95153682D01*
X149801127Y-95349999D01*
X149801128Y-95350000D01*
X150764314Y-95350000D01*
X150752359Y-95361955D01*
X150694835Y-95474852D01*
X150675014Y-95600000D01*
X150694835Y-95725148D01*
X150752359Y-95838045D01*
X150764314Y-95850000D01*
X149801128Y-95850000D01*
X149853730Y-96046317D01*
X149853734Y-96046326D01*
X149949865Y-96252482D01*
X150080342Y-96438820D01*
X150241179Y-96599657D01*
X150427517Y-96730134D01*
X150633673Y-96826265D01*
X150633682Y-96826269D01*
X150829999Y-96878872D01*
X150830000Y-96878871D01*
X150830000Y-95915686D01*
X150841955Y-95927641D01*
X150954852Y-95985165D01*
X151048519Y-96000000D01*
X151111481Y-96000000D01*
X151205148Y-95985165D01*
X151318045Y-95927641D01*
X151330000Y-95915686D01*
X151330000Y-96878871D01*
X151493406Y-96835087D01*
X151563256Y-96836750D01*
X151621119Y-96875912D01*
X151648623Y-96940141D01*
X151649500Y-96954862D01*
X151649500Y-101679191D01*
X151629815Y-101746230D01*
X151613185Y-101766867D01*
X151510808Y-101869245D01*
X151466937Y-101913116D01*
X151405614Y-101946600D01*
X151347163Y-101945209D01*
X151306697Y-101934366D01*
X151306693Y-101934365D01*
X151306692Y-101934365D01*
X151306691Y-101934364D01*
X151306686Y-101934364D01*
X151080002Y-101914532D01*
X151079998Y-101914532D01*
X150853313Y-101934364D01*
X150853302Y-101934366D01*
X150633511Y-101993258D01*
X150633502Y-101993261D01*
X150427267Y-102089431D01*
X150427265Y-102089432D01*
X150240858Y-102219954D01*
X150079954Y-102380858D01*
X149949432Y-102567265D01*
X149949431Y-102567267D01*
X149853261Y-102773502D01*
X149853258Y-102773511D01*
X149794366Y-102993302D01*
X149794364Y-102993313D01*
X149774532Y-103219998D01*
X149774532Y-103220001D01*
X149794364Y-103446686D01*
X149794366Y-103446697D01*
X149853258Y-103666488D01*
X149853261Y-103666497D01*
X149949431Y-103872732D01*
X149949432Y-103872734D01*
X150079954Y-104059141D01*
X150240858Y-104220045D01*
X150240861Y-104220047D01*
X150427266Y-104350568D01*
X150633504Y-104446739D01*
X150853308Y-104505635D01*
X150997361Y-104518238D01*
X151079998Y-104525468D01*
X151080000Y-104525468D01*
X151080002Y-104525468D01*
X151136673Y-104520509D01*
X151306692Y-104505635D01*
X151526496Y-104446739D01*
X151732734Y-104350568D01*
X151919139Y-104220047D01*
X152080047Y-104059139D01*
X152210568Y-103872734D01*
X152237618Y-103814724D01*
X152283790Y-103762285D01*
X152350983Y-103743133D01*
X152417865Y-103763348D01*
X152462381Y-103814724D01*
X152476517Y-103845038D01*
X152489429Y-103872728D01*
X152489432Y-103872734D01*
X152619954Y-104059141D01*
X152780858Y-104220045D01*
X152780861Y-104220047D01*
X152967266Y-104350568D01*
X153173504Y-104446739D01*
X153393308Y-104505635D01*
X153537361Y-104518238D01*
X153619998Y-104525468D01*
X153620000Y-104525468D01*
X153620002Y-104525468D01*
X153676673Y-104520509D01*
X153846692Y-104505635D01*
X154066496Y-104446739D01*
X154272734Y-104350568D01*
X154459139Y-104220047D01*
X154620047Y-104059139D01*
X154750568Y-103872734D01*
X154777618Y-103814724D01*
X154823790Y-103762285D01*
X154890983Y-103743133D01*
X154957865Y-103763348D01*
X155002381Y-103814724D01*
X155016517Y-103845038D01*
X155029429Y-103872728D01*
X155029432Y-103872734D01*
X155159954Y-104059141D01*
X155320858Y-104220045D01*
X155320861Y-104220047D01*
X155507266Y-104350568D01*
X155713504Y-104446739D01*
X155933308Y-104505635D01*
X156077361Y-104518238D01*
X156159998Y-104525468D01*
X156160000Y-104525468D01*
X156160002Y-104525468D01*
X156191421Y-104522719D01*
X156386692Y-104505635D01*
X156421881Y-104496206D01*
X156427162Y-104494791D01*
X156497012Y-104496452D01*
X156546938Y-104526884D01*
X156919564Y-104899510D01*
X156929635Y-104912080D01*
X156929822Y-104911926D01*
X156934796Y-104917937D01*
X156934798Y-104917940D01*
X156963345Y-104944748D01*
X156987243Y-104967190D01*
X157008967Y-104988913D01*
X157014757Y-104993405D01*
X157019197Y-104997197D01*
X157048498Y-105024711D01*
X157054607Y-105030448D01*
X157054609Y-105030449D01*
X157073205Y-105040672D01*
X157089470Y-105051357D01*
X157106232Y-105064360D01*
X157106235Y-105064361D01*
X157106236Y-105064362D01*
X157150823Y-105083656D01*
X157156059Y-105086221D01*
X157198632Y-105109627D01*
X157214340Y-105113659D01*
X157219186Y-105114904D01*
X157237598Y-105121207D01*
X157257073Y-105129635D01*
X157305071Y-105137237D01*
X157310740Y-105138411D01*
X157357823Y-105150500D01*
X157379051Y-105150500D01*
X157398448Y-105152026D01*
X157419403Y-105155345D01*
X157419404Y-105155346D01*
X157419404Y-105155345D01*
X157419405Y-105155346D01*
X157467760Y-105150775D01*
X157473599Y-105150500D01*
X158666656Y-105150500D01*
X158733695Y-105170185D01*
X158779450Y-105222989D01*
X158789394Y-105292147D01*
X158760369Y-105355703D01*
X158737779Y-105376075D01*
X158560858Y-105499954D01*
X158399954Y-105660858D01*
X158269432Y-105847265D01*
X158269431Y-105847267D01*
X158173261Y-106053502D01*
X158173258Y-106053511D01*
X158114366Y-106273302D01*
X158114364Y-106273313D01*
X158094532Y-106499998D01*
X158094532Y-106500001D01*
X158114364Y-106726686D01*
X158114366Y-106726697D01*
X158173258Y-106946488D01*
X158173261Y-106946497D01*
X158269431Y-107152732D01*
X158269432Y-107152734D01*
X158399954Y-107339141D01*
X158560858Y-107500045D01*
X158560861Y-107500047D01*
X158747266Y-107630568D01*
X158953504Y-107726739D01*
X159173308Y-107785635D01*
X159335230Y-107799801D01*
X159399998Y-107805468D01*
X159400000Y-107805468D01*
X159400002Y-107805468D01*
X159456673Y-107800509D01*
X159626692Y-107785635D01*
X159846496Y-107726739D01*
X160052734Y-107630568D01*
X160239139Y-107500047D01*
X160400047Y-107339139D01*
X160530568Y-107152734D01*
X160626739Y-106946496D01*
X160685635Y-106726692D01*
X160705468Y-106500000D01*
X160685635Y-106273308D01*
X160626739Y-106053504D01*
X160530568Y-105847266D01*
X160400047Y-105660861D01*
X160400045Y-105660858D01*
X160239141Y-105499954D01*
X160062221Y-105376075D01*
X160018596Y-105321499D01*
X160011402Y-105252000D01*
X160042924Y-105189645D01*
X160103154Y-105154231D01*
X160133344Y-105150500D01*
X162315250Y-105150500D01*
X162382289Y-105170185D01*
X162428044Y-105222989D01*
X162437988Y-105292147D01*
X162427632Y-105326905D01*
X162386261Y-105415625D01*
X162374535Y-105440773D01*
X162373262Y-105443502D01*
X162373258Y-105443511D01*
X162314366Y-105663302D01*
X162314364Y-105663313D01*
X162294532Y-105889998D01*
X162294532Y-105890001D01*
X162314364Y-106116686D01*
X162314366Y-106116697D01*
X162373258Y-106336488D01*
X162373261Y-106336497D01*
X162469431Y-106542732D01*
X162469432Y-106542734D01*
X162599954Y-106729141D01*
X162760858Y-106890045D01*
X162760861Y-106890047D01*
X162947266Y-107020568D01*
X163153504Y-107116739D01*
X163373308Y-107175635D01*
X163535230Y-107189801D01*
X163599998Y-107195468D01*
X163600000Y-107195468D01*
X163600002Y-107195468D01*
X163656673Y-107190509D01*
X163826692Y-107175635D01*
X164046496Y-107116739D01*
X164252734Y-107020568D01*
X164439139Y-106890047D01*
X164534618Y-106794567D01*
X164595939Y-106761084D01*
X164665631Y-106766068D01*
X164709979Y-106794569D01*
X167844988Y-109929578D01*
X167878473Y-109990901D01*
X167873489Y-110060593D01*
X167831617Y-110116526D01*
X167766153Y-110140943D01*
X167697880Y-110126091D01*
X167692030Y-110122686D01*
X167527404Y-110020754D01*
X167527398Y-110020752D01*
X167319940Y-109940382D01*
X167101243Y-109899500D01*
X166878757Y-109899500D01*
X166660060Y-109940382D01*
X166567903Y-109976084D01*
X166452601Y-110020752D01*
X166452595Y-110020754D01*
X166263439Y-110137874D01*
X166263437Y-110137876D01*
X166099020Y-110287761D01*
X165964943Y-110465308D01*
X165964938Y-110465316D01*
X165865775Y-110664461D01*
X165865769Y-110664476D01*
X165804885Y-110878462D01*
X165804884Y-110878464D01*
X165784356Y-111099999D01*
X165784356Y-111100000D01*
X165804884Y-111321535D01*
X165804885Y-111321537D01*
X165865769Y-111535523D01*
X165865775Y-111535538D01*
X165964938Y-111734683D01*
X165964943Y-111734691D01*
X166099020Y-111912238D01*
X166263437Y-112062123D01*
X166263439Y-112062125D01*
X166452595Y-112179245D01*
X166452596Y-112179245D01*
X166452599Y-112179247D01*
X166660060Y-112259618D01*
X166878757Y-112300500D01*
X166878759Y-112300500D01*
X167101241Y-112300500D01*
X167101243Y-112300500D01*
X167319940Y-112259618D01*
X167527401Y-112179247D01*
X167716562Y-112062124D01*
X167880981Y-111912236D01*
X168015058Y-111734689D01*
X168114229Y-111535528D01*
X168175115Y-111321536D01*
X168195643Y-111100000D01*
X168175115Y-110878464D01*
X168114229Y-110664472D01*
X168114224Y-110664461D01*
X168015061Y-110465316D01*
X168015056Y-110465308D01*
X167963796Y-110397429D01*
X167939104Y-110332067D01*
X167953669Y-110263733D01*
X168002867Y-110214120D01*
X168071076Y-110198982D01*
X168136643Y-110223124D01*
X168150431Y-110235021D01*
X169399194Y-111483784D01*
X169409019Y-111496048D01*
X169409240Y-111495866D01*
X169414210Y-111501873D01*
X169414213Y-111501876D01*
X169414214Y-111501877D01*
X169464651Y-111549241D01*
X169485530Y-111570120D01*
X169491004Y-111574366D01*
X169495442Y-111578156D01*
X169529418Y-111610062D01*
X169529422Y-111610064D01*
X169546973Y-111619713D01*
X169563231Y-111630392D01*
X169579064Y-111642674D01*
X169601015Y-111652172D01*
X169621837Y-111661183D01*
X169627081Y-111663752D01*
X169667908Y-111686197D01*
X169687312Y-111691179D01*
X169705710Y-111697478D01*
X169724105Y-111705438D01*
X169770129Y-111712726D01*
X169775832Y-111713907D01*
X169820981Y-111725500D01*
X169841016Y-111725500D01*
X169860413Y-111727026D01*
X169880196Y-111730160D01*
X169926583Y-111725775D01*
X169932422Y-111725500D01*
X173516258Y-111725500D01*
X173583297Y-111745185D01*
X173615212Y-111774773D01*
X173719020Y-111912238D01*
X173883437Y-112062123D01*
X173883439Y-112062125D01*
X174072595Y-112179245D01*
X174072596Y-112179245D01*
X174072599Y-112179247D01*
X174280060Y-112259618D01*
X174498757Y-112300500D01*
X174498759Y-112300500D01*
X174721241Y-112300500D01*
X174721243Y-112300500D01*
X174939940Y-112259618D01*
X175147401Y-112179247D01*
X175336562Y-112062124D01*
X175500981Y-111912236D01*
X175635058Y-111734689D01*
X175734229Y-111535528D01*
X175795115Y-111321536D01*
X175815643Y-111100000D01*
X175795115Y-110878464D01*
X175734229Y-110664472D01*
X175734224Y-110664461D01*
X175635061Y-110465316D01*
X175635056Y-110465308D01*
X175500979Y-110287761D01*
X175336562Y-110137876D01*
X175336560Y-110137874D01*
X175147404Y-110020754D01*
X175147398Y-110020752D01*
X174939940Y-109940382D01*
X174721243Y-109899500D01*
X174498757Y-109899500D01*
X174280060Y-109940382D01*
X174187903Y-109976084D01*
X174072601Y-110020752D01*
X174072595Y-110020754D01*
X173883439Y-110137874D01*
X173883437Y-110137876D01*
X173719020Y-110287761D01*
X173615212Y-110425227D01*
X173559103Y-110466863D01*
X173516258Y-110474500D01*
X170210452Y-110474500D01*
X170143413Y-110454815D01*
X170122771Y-110438181D01*
X168094590Y-108410000D01*
X168994356Y-108410000D01*
X169014884Y-108631535D01*
X169014885Y-108631537D01*
X169075769Y-108845523D01*
X169075775Y-108845538D01*
X169174938Y-109044683D01*
X169174943Y-109044691D01*
X169309020Y-109222238D01*
X169461088Y-109360866D01*
X169469460Y-109368498D01*
X169473437Y-109372123D01*
X169473439Y-109372125D01*
X169662595Y-109489245D01*
X169662596Y-109489245D01*
X169662599Y-109489247D01*
X169870060Y-109569618D01*
X170088757Y-109610500D01*
X170088759Y-109610500D01*
X170311241Y-109610500D01*
X170311243Y-109610500D01*
X170529940Y-109569618D01*
X170737401Y-109489247D01*
X170926562Y-109372124D01*
X171090981Y-109222236D01*
X171225058Y-109044689D01*
X171324229Y-108845528D01*
X171377016Y-108660000D01*
X171380994Y-108646020D01*
X171418273Y-108586926D01*
X171481583Y-108557369D01*
X171550822Y-108566731D01*
X171604009Y-108612041D01*
X171619527Y-108646020D01*
X171676240Y-108845350D01*
X171775368Y-109044425D01*
X171909391Y-109221900D01*
X172073738Y-109371721D01*
X172262820Y-109488797D01*
X172262822Y-109488798D01*
X172470195Y-109569135D01*
X172550000Y-109584052D01*
X172550000Y-108658938D01*
X172631115Y-108722072D01*
X172741595Y-108760000D01*
X172829005Y-108760000D01*
X172915216Y-108745614D01*
X173017947Y-108690019D01*
X173050000Y-108655200D01*
X173050000Y-109584052D01*
X173129804Y-109569135D01*
X173337177Y-109488798D01*
X173337179Y-109488797D01*
X173526261Y-109371721D01*
X173690608Y-109221900D01*
X173824631Y-109044425D01*
X173923760Y-108845349D01*
X173980732Y-108645107D01*
X174018011Y-108586013D01*
X174081320Y-108556455D01*
X174150560Y-108565816D01*
X174203747Y-108611126D01*
X174219265Y-108645106D01*
X174276236Y-108845342D01*
X174276239Y-108845348D01*
X174375368Y-109044425D01*
X174509391Y-109221900D01*
X174673738Y-109371721D01*
X174862820Y-109488797D01*
X174862822Y-109488798D01*
X175070195Y-109569135D01*
X175150000Y-109584052D01*
X175150000Y-108658938D01*
X175231115Y-108722072D01*
X175341595Y-108760000D01*
X175429005Y-108760000D01*
X175515216Y-108745614D01*
X175617947Y-108690019D01*
X175645581Y-108660000D01*
X175650000Y-108660000D01*
X175650000Y-109584052D01*
X175729804Y-109569135D01*
X175937177Y-109488798D01*
X175937179Y-109488797D01*
X176126261Y-109371721D01*
X176290608Y-109221900D01*
X176424631Y-109044425D01*
X176523760Y-108845349D01*
X176576495Y-108660000D01*
X175650000Y-108660000D01*
X175645581Y-108660000D01*
X175697060Y-108604079D01*
X175743982Y-108497108D01*
X175753628Y-108380698D01*
X175724953Y-108267462D01*
X175661064Y-108169673D01*
X175568885Y-108097928D01*
X175458405Y-108060000D01*
X175370995Y-108060000D01*
X175284784Y-108074386D01*
X175182053Y-108129981D01*
X175150000Y-108164799D01*
X175150000Y-107235946D01*
X175650000Y-107235946D01*
X175650000Y-108160000D01*
X176576495Y-108160000D01*
X176523760Y-107974650D01*
X176424631Y-107775574D01*
X176290608Y-107598099D01*
X176126261Y-107448278D01*
X175937179Y-107331202D01*
X175937177Y-107331201D01*
X175729799Y-107250864D01*
X175650000Y-107235946D01*
X175150000Y-107235946D01*
X175070200Y-107250864D01*
X174862822Y-107331201D01*
X174862820Y-107331202D01*
X174673738Y-107448278D01*
X174509391Y-107598099D01*
X174375368Y-107775574D01*
X174276239Y-107974651D01*
X174276236Y-107974657D01*
X174219265Y-108174893D01*
X174181986Y-108233987D01*
X174118676Y-108263544D01*
X174049437Y-108254182D01*
X173996250Y-108208872D01*
X173980732Y-108174892D01*
X173923760Y-107974650D01*
X173824631Y-107775574D01*
X173690608Y-107598099D01*
X173526261Y-107448278D01*
X173337179Y-107331202D01*
X173337177Y-107331201D01*
X173129799Y-107250864D01*
X173050000Y-107235946D01*
X173050000Y-108161061D01*
X172968885Y-108097928D01*
X172858405Y-108060000D01*
X172770995Y-108060000D01*
X172684784Y-108074386D01*
X172582053Y-108129981D01*
X172550000Y-108164799D01*
X172550000Y-107235946D01*
X172470200Y-107250864D01*
X172262822Y-107331201D01*
X172262820Y-107331202D01*
X172073738Y-107448278D01*
X171909391Y-107598099D01*
X171775368Y-107775574D01*
X171676240Y-107974649D01*
X171619527Y-108173979D01*
X171582247Y-108233072D01*
X171518938Y-108262630D01*
X171449698Y-108253268D01*
X171396512Y-108207959D01*
X171380994Y-108173979D01*
X171325544Y-107979093D01*
X171324229Y-107974472D01*
X171324224Y-107974461D01*
X171225061Y-107775316D01*
X171225056Y-107775308D01*
X171090979Y-107597761D01*
X170926562Y-107447876D01*
X170926560Y-107447874D01*
X170737404Y-107330754D01*
X170737398Y-107330752D01*
X170529940Y-107250382D01*
X170311243Y-107209500D01*
X170088757Y-107209500D01*
X169870060Y-107250382D01*
X169769222Y-107289447D01*
X169662601Y-107330752D01*
X169662595Y-107330754D01*
X169473439Y-107447874D01*
X169473437Y-107447876D01*
X169309020Y-107597761D01*
X169174943Y-107775308D01*
X169174938Y-107775316D01*
X169075775Y-107974461D01*
X169075769Y-107974476D01*
X169014885Y-108188462D01*
X169014884Y-108188464D01*
X168994356Y-108409999D01*
X168994356Y-108410000D01*
X168094590Y-108410000D01*
X167689636Y-108005046D01*
X167089733Y-107405142D01*
X167056249Y-107343821D01*
X167061233Y-107274129D01*
X167103105Y-107218196D01*
X167168569Y-107193779D01*
X167188228Y-107193935D01*
X167200004Y-107194965D01*
X167426599Y-107175141D01*
X167426610Y-107175139D01*
X167646317Y-107116269D01*
X167646331Y-107116264D01*
X167852478Y-107020136D01*
X167925472Y-106969025D01*
X167244400Y-106287953D01*
X167325148Y-106275165D01*
X167438045Y-106217641D01*
X167527641Y-106128045D01*
X167585165Y-106015148D01*
X167597953Y-105934399D01*
X168279025Y-106615472D01*
X168330136Y-106542478D01*
X168426264Y-106336331D01*
X168426269Y-106336317D01*
X168485139Y-106116610D01*
X168485141Y-106116599D01*
X168504966Y-105890002D01*
X168504966Y-105889997D01*
X168485141Y-105663400D01*
X168485139Y-105663389D01*
X168426269Y-105443682D01*
X168426265Y-105443673D01*
X168330133Y-105237516D01*
X168330131Y-105237512D01*
X168279025Y-105164526D01*
X167597953Y-105845598D01*
X167585165Y-105764852D01*
X167527641Y-105651955D01*
X167438045Y-105562359D01*
X167325148Y-105504835D01*
X167244399Y-105492045D01*
X167925472Y-104810973D01*
X167852483Y-104759866D01*
X167852481Y-104759865D01*
X167646326Y-104663734D01*
X167646317Y-104663730D01*
X167426610Y-104604860D01*
X167426599Y-104604858D01*
X167200002Y-104585034D01*
X167199998Y-104585034D01*
X166973400Y-104604858D01*
X166973389Y-104604860D01*
X166753682Y-104663730D01*
X166753673Y-104663734D01*
X166547513Y-104759868D01*
X166474526Y-104810973D01*
X167155598Y-105492046D01*
X167074852Y-105504835D01*
X166961955Y-105562359D01*
X166872359Y-105651955D01*
X166814835Y-105764852D01*
X166802046Y-105845599D01*
X166120973Y-105164526D01*
X166069868Y-105237513D01*
X165973734Y-105443673D01*
X165973730Y-105443682D01*
X165914860Y-105663389D01*
X165914858Y-105663400D01*
X165895034Y-105889997D01*
X165895034Y-105890002D01*
X165896064Y-105901776D01*
X165882297Y-105970276D01*
X165833682Y-106020459D01*
X165765653Y-106036392D01*
X165699809Y-106013016D01*
X165684855Y-106000264D01*
X165190803Y-105506212D01*
X165180980Y-105493950D01*
X165180759Y-105494134D01*
X165175786Y-105488123D01*
X165175785Y-105488122D01*
X165125364Y-105440773D01*
X165114919Y-105430328D01*
X165104475Y-105419883D01*
X165098986Y-105415625D01*
X165094561Y-105411847D01*
X165060582Y-105379938D01*
X165060580Y-105379936D01*
X165060577Y-105379935D01*
X165043029Y-105370288D01*
X165026763Y-105359604D01*
X165010933Y-105347325D01*
X164968168Y-105328818D01*
X164962922Y-105326248D01*
X164922093Y-105303803D01*
X164922092Y-105303802D01*
X164902693Y-105298822D01*
X164884281Y-105292518D01*
X164865898Y-105284562D01*
X164865892Y-105284560D01*
X164819874Y-105277272D01*
X164814152Y-105276087D01*
X164789818Y-105269840D01*
X164729780Y-105234102D01*
X164719079Y-105220858D01*
X164673207Y-105155346D01*
X164623006Y-105083650D01*
X164600045Y-105050858D01*
X164439143Y-104889956D01*
X164378361Y-104847396D01*
X164334737Y-104792819D01*
X164327544Y-104723320D01*
X164359066Y-104660966D01*
X164361774Y-104658170D01*
X166820948Y-102198995D01*
X166882269Y-102165512D01*
X166940720Y-102166903D01*
X166973308Y-102175635D01*
X167135230Y-102189801D01*
X167199998Y-102195468D01*
X167200000Y-102195468D01*
X167200002Y-102195468D01*
X167256673Y-102190509D01*
X167426692Y-102175635D01*
X167646496Y-102116739D01*
X167852734Y-102020568D01*
X168039139Y-101890047D01*
X168200047Y-101729139D01*
X168295107Y-101593377D01*
X168349685Y-101549752D01*
X168396683Y-101540500D01*
X169200653Y-101540500D01*
X169267692Y-101560185D01*
X169299606Y-101589771D01*
X169309021Y-101602239D01*
X169473437Y-101752123D01*
X169473439Y-101752125D01*
X169662595Y-101869245D01*
X169662596Y-101869245D01*
X169662599Y-101869247D01*
X169870060Y-101949618D01*
X170088757Y-101990500D01*
X170088759Y-101990500D01*
X170311241Y-101990500D01*
X170311243Y-101990500D01*
X170529940Y-101949618D01*
X170737401Y-101869247D01*
X170926562Y-101752124D01*
X171090981Y-101602236D01*
X171225058Y-101424689D01*
X171324229Y-101225528D01*
X171380734Y-101026932D01*
X171418013Y-100967839D01*
X171481323Y-100938282D01*
X171550562Y-100947644D01*
X171603749Y-100992954D01*
X171619266Y-101026933D01*
X171675769Y-101225523D01*
X171675775Y-101225538D01*
X171774938Y-101424683D01*
X171774943Y-101424691D01*
X171909020Y-101602238D01*
X172073437Y-101752123D01*
X172073439Y-101752125D01*
X172262595Y-101869245D01*
X172262596Y-101869245D01*
X172262599Y-101869247D01*
X172470060Y-101949618D01*
X172688757Y-101990500D01*
X172688759Y-101990500D01*
X172911241Y-101990500D01*
X172911243Y-101990500D01*
X173129940Y-101949618D01*
X173337401Y-101869247D01*
X173526562Y-101752124D01*
X173690981Y-101602236D01*
X173825058Y-101424689D01*
X173924229Y-101225528D01*
X173980734Y-101026932D01*
X174018013Y-100967839D01*
X174081323Y-100938282D01*
X174150562Y-100947644D01*
X174203749Y-100992954D01*
X174219266Y-101026933D01*
X174275769Y-101225523D01*
X174275775Y-101225538D01*
X174374938Y-101424683D01*
X174374943Y-101424691D01*
X174509020Y-101602238D01*
X174673437Y-101752123D01*
X174673439Y-101752125D01*
X174862595Y-101869245D01*
X174862596Y-101869245D01*
X174862599Y-101869247D01*
X175070060Y-101949618D01*
X175288757Y-101990500D01*
X175288759Y-101990500D01*
X175511241Y-101990500D01*
X175511243Y-101990500D01*
X175729940Y-101949618D01*
X175937401Y-101869247D01*
X176126562Y-101752124D01*
X176290981Y-101602236D01*
X176425058Y-101424689D01*
X176524229Y-101225528D01*
X176585115Y-101011536D01*
X176605643Y-100790000D01*
X176585115Y-100568464D01*
X176524229Y-100354472D01*
X176524224Y-100354461D01*
X176425061Y-100155316D01*
X176425056Y-100155308D01*
X176290979Y-99977761D01*
X176126562Y-99827876D01*
X176126560Y-99827874D01*
X175937404Y-99710754D01*
X175937398Y-99710752D01*
X175922566Y-99705006D01*
X175729940Y-99630382D01*
X175511243Y-99589500D01*
X175288757Y-99589500D01*
X175070060Y-99630382D01*
X174949586Y-99677054D01*
X174862601Y-99710752D01*
X174862595Y-99710754D01*
X174673439Y-99827874D01*
X174673437Y-99827876D01*
X174509020Y-99977761D01*
X174374943Y-100155308D01*
X174374938Y-100155316D01*
X174275775Y-100354461D01*
X174275769Y-100354476D01*
X174219266Y-100553066D01*
X174181987Y-100612160D01*
X174118677Y-100641717D01*
X174049438Y-100632355D01*
X173996251Y-100587045D01*
X173980734Y-100553066D01*
X173924230Y-100354476D01*
X173924229Y-100354472D01*
X173924224Y-100354461D01*
X173825061Y-100155316D01*
X173825056Y-100155308D01*
X173690979Y-99977761D01*
X173526562Y-99827876D01*
X173526560Y-99827874D01*
X173337404Y-99710754D01*
X173337398Y-99710752D01*
X173322566Y-99705006D01*
X173129940Y-99630382D01*
X172911243Y-99589500D01*
X172688757Y-99589500D01*
X172676550Y-99591782D01*
X172629380Y-99600599D01*
X172559865Y-99593567D01*
X172505187Y-99550069D01*
X172482705Y-99483915D01*
X172499558Y-99416109D01*
X172518911Y-99391033D01*
X174699513Y-97210431D01*
X174712079Y-97200365D01*
X174711925Y-97200178D01*
X174717937Y-97195204D01*
X174717937Y-97195203D01*
X174717940Y-97195202D01*
X174767190Y-97142755D01*
X174788912Y-97121034D01*
X174793402Y-97115244D01*
X174797184Y-97110814D01*
X174830448Y-97075393D01*
X174840674Y-97056789D01*
X174851347Y-97040541D01*
X174864363Y-97023763D01*
X174883651Y-96979187D01*
X174886224Y-96973936D01*
X174900553Y-96947872D01*
X174909627Y-96931368D01*
X174914904Y-96910808D01*
X174921206Y-96892403D01*
X174929636Y-96872926D01*
X174936315Y-96830752D01*
X174937235Y-96824945D01*
X174938417Y-96819234D01*
X174950500Y-96772177D01*
X174950500Y-96750954D01*
X174952027Y-96731555D01*
X174955347Y-96710595D01*
X174950775Y-96662227D01*
X174950500Y-96656389D01*
X174950500Y-95196893D01*
X174970185Y-95129854D01*
X175022989Y-95084099D01*
X175092147Y-95074155D01*
X175155703Y-95103180D01*
X175173765Y-95122581D01*
X175192453Y-95147544D01*
X175192454Y-95147546D01*
X175192455Y-95147547D01*
X175307664Y-95233793D01*
X175307671Y-95233797D01*
X175442517Y-95284091D01*
X175442516Y-95284091D01*
X175449444Y-95284835D01*
X175502127Y-95290500D01*
X177297872Y-95290499D01*
X177357483Y-95284091D01*
X177492331Y-95233796D01*
X177607546Y-95147546D01*
X177693796Y-95032331D01*
X177744091Y-94897483D01*
X177750500Y-94837873D01*
X177750499Y-93042128D01*
X177744091Y-92982517D01*
X177721533Y-92922037D01*
X177693797Y-92847671D01*
X177693793Y-92847664D01*
X177607547Y-92732455D01*
X177607544Y-92732452D01*
X177492335Y-92646206D01*
X177492328Y-92646202D01*
X177360917Y-92597189D01*
X177304983Y-92555318D01*
X177280566Y-92489853D01*
X177295418Y-92421580D01*
X177316563Y-92393332D01*
X177438495Y-92271401D01*
X177574035Y-92077830D01*
X177673903Y-91863663D01*
X177735063Y-91635408D01*
X177753439Y-91425373D01*
X188145723Y-91425373D01*
X188175881Y-91725160D01*
X188175882Y-91725162D01*
X188245728Y-92018252D01*
X188245730Y-92018259D01*
X188245731Y-92018261D01*
X188254955Y-92042211D01*
X188354020Y-92299427D01*
X188354024Y-92299436D01*
X188498825Y-92563665D01*
X188498829Y-92563671D01*
X188645155Y-92762266D01*
X188677554Y-92806238D01*
X188887020Y-93022824D01*
X188928334Y-93055449D01*
X189123478Y-93209553D01*
X189123480Y-93209554D01*
X189123485Y-93209558D01*
X189382730Y-93363109D01*
X189660128Y-93480736D01*
X189950729Y-93560340D01*
X190249347Y-93600500D01*
X190249351Y-93600500D01*
X190475252Y-93600500D01*
X190639164Y-93589526D01*
X190700634Y-93585412D01*
X190995903Y-93525396D01*
X191280537Y-93426560D01*
X191549459Y-93290668D01*
X191797869Y-93120144D01*
X192021333Y-92918032D01*
X192215865Y-92687939D01*
X192377993Y-92433970D01*
X192504823Y-92160658D01*
X192594093Y-91872879D01*
X192644209Y-91575770D01*
X192654277Y-91274631D01*
X192624118Y-90974838D01*
X192554269Y-90681739D01*
X192445977Y-90400566D01*
X192301175Y-90136335D01*
X192247583Y-90063600D01*
X192215115Y-90019533D01*
X192122446Y-89893762D01*
X191912980Y-89677176D01*
X191784107Y-89575406D01*
X191676521Y-89490446D01*
X191676517Y-89490443D01*
X191676515Y-89490442D01*
X191417270Y-89336891D01*
X191139872Y-89219264D01*
X191139863Y-89219261D01*
X190849272Y-89139660D01*
X190743297Y-89125408D01*
X190550653Y-89099500D01*
X190324756Y-89099500D01*
X190324748Y-89099500D01*
X190099368Y-89114587D01*
X190099359Y-89114589D01*
X189804094Y-89174604D01*
X189519464Y-89273439D01*
X189519459Y-89273441D01*
X189250546Y-89409328D01*
X189002125Y-89579860D01*
X188778665Y-89781969D01*
X188584132Y-90012064D01*
X188422006Y-90266030D01*
X188422005Y-90266032D01*
X188300163Y-90528597D01*
X188295177Y-90539342D01*
X188295176Y-90539346D01*
X188205907Y-90827118D01*
X188173029Y-91022034D01*
X188155791Y-91124230D01*
X188147080Y-91384798D01*
X188145723Y-91425373D01*
X177753439Y-91425373D01*
X177755659Y-91400000D01*
X177735063Y-91164592D01*
X177681259Y-90963791D01*
X177673905Y-90936344D01*
X177673904Y-90936343D01*
X177673903Y-90936337D01*
X177574035Y-90722171D01*
X177574030Y-90722163D01*
X177438494Y-90528597D01*
X177271402Y-90361506D01*
X177271396Y-90361501D01*
X177085842Y-90231575D01*
X177042217Y-90176998D01*
X177035023Y-90107500D01*
X177066546Y-90045145D01*
X177085842Y-90028425D01*
X177147658Y-89985141D01*
X177271401Y-89898495D01*
X177438495Y-89731401D01*
X177574035Y-89537830D01*
X177673903Y-89323663D01*
X177735063Y-89095408D01*
X177755659Y-88860000D01*
X177755658Y-88859994D01*
X177744180Y-88728797D01*
X177735063Y-88624592D01*
X177673903Y-88396337D01*
X177574035Y-88182171D01*
X177574030Y-88182163D01*
X177438494Y-87988597D01*
X177271402Y-87821506D01*
X177271395Y-87821501D01*
X177271386Y-87821495D01*
X177121296Y-87716400D01*
X177077834Y-87685967D01*
X177077830Y-87685965D01*
X177000703Y-87650000D01*
X176863663Y-87586097D01*
X176863659Y-87586096D01*
X176863655Y-87586094D01*
X176635413Y-87524938D01*
X176635403Y-87524936D01*
X176400001Y-87504341D01*
X176399999Y-87504341D01*
X176164596Y-87524936D01*
X176164586Y-87524938D01*
X175936344Y-87586094D01*
X175936335Y-87586098D01*
X175722171Y-87685964D01*
X175722169Y-87685965D01*
X175528597Y-87821505D01*
X175361505Y-87988597D01*
X175225965Y-88182169D01*
X175225964Y-88182171D01*
X175126098Y-88396335D01*
X175126094Y-88396344D01*
X175064938Y-88624586D01*
X175064936Y-88624596D01*
X175044341Y-88859999D01*
X175044341Y-88860000D01*
X175064936Y-89095403D01*
X175064938Y-89095413D01*
X175126094Y-89323655D01*
X175126096Y-89323659D01*
X175126097Y-89323663D01*
X175219790Y-89524587D01*
X175225965Y-89537830D01*
X175225967Y-89537834D01*
X175323536Y-89677176D01*
X175361501Y-89731396D01*
X175361506Y-89731402D01*
X175528597Y-89898493D01*
X175528603Y-89898498D01*
X175714158Y-90028425D01*
X175757783Y-90083002D01*
X175764977Y-90152500D01*
X175733454Y-90214855D01*
X175714158Y-90231575D01*
X175528597Y-90361505D01*
X175361506Y-90528596D01*
X175243854Y-90696623D01*
X175189277Y-90740248D01*
X175142279Y-90749500D01*
X174875506Y-90749500D01*
X174859495Y-90747732D01*
X174859473Y-90747974D01*
X174851706Y-90747239D01*
X174779783Y-90749500D01*
X174749075Y-90749500D01*
X174749071Y-90749500D01*
X174749060Y-90749501D01*
X174741804Y-90750417D01*
X174735986Y-90750875D01*
X174687433Y-90752401D01*
X174672873Y-90756630D01*
X174667040Y-90758325D01*
X174647996Y-90762269D01*
X174626942Y-90764929D01*
X174626940Y-90764929D01*
X174581781Y-90782808D01*
X174576255Y-90784700D01*
X174529601Y-90798254D01*
X174511325Y-90809063D01*
X174493860Y-90817619D01*
X174474124Y-90825433D01*
X174434824Y-90853986D01*
X174429942Y-90857193D01*
X174388136Y-90881917D01*
X174373124Y-90896929D01*
X174358336Y-90909558D01*
X174341167Y-90922032D01*
X174341165Y-90922034D01*
X174310194Y-90959470D01*
X174306262Y-90963791D01*
X173952894Y-91317158D01*
X173891571Y-91350643D01*
X173821879Y-91345659D01*
X173765946Y-91303787D01*
X173741685Y-91240284D01*
X173738060Y-91198848D01*
X173735063Y-91164592D01*
X173681259Y-90963791D01*
X173673905Y-90936344D01*
X173673904Y-90936343D01*
X173673903Y-90936337D01*
X173574035Y-90722171D01*
X173574030Y-90722163D01*
X173438494Y-90528597D01*
X173271402Y-90361506D01*
X173271401Y-90361505D01*
X173085405Y-90231269D01*
X173041781Y-90176692D01*
X173034588Y-90107193D01*
X173066110Y-90044839D01*
X173085405Y-90028119D01*
X173271082Y-89898105D01*
X173438105Y-89731082D01*
X173573600Y-89537578D01*
X173673429Y-89323492D01*
X173673432Y-89323486D01*
X173730636Y-89110000D01*
X172833686Y-89110000D01*
X172859493Y-89069844D01*
X172900000Y-88931889D01*
X172900000Y-88788111D01*
X172859493Y-88650156D01*
X172833686Y-88610000D01*
X173730636Y-88610000D01*
X173730635Y-88609999D01*
X173673432Y-88396513D01*
X173673429Y-88396507D01*
X173573600Y-88182422D01*
X173573599Y-88182420D01*
X173438113Y-87988926D01*
X173438108Y-87988920D01*
X173271082Y-87821894D01*
X173077578Y-87686399D01*
X172863492Y-87586570D01*
X172863486Y-87586567D01*
X172650000Y-87529364D01*
X172650000Y-88424498D01*
X172542315Y-88375320D01*
X172435763Y-88360000D01*
X172364237Y-88360000D01*
X172257685Y-88375320D01*
X172150000Y-88424498D01*
X172150000Y-87529364D01*
X172149999Y-87529364D01*
X171936513Y-87586567D01*
X171936507Y-87586570D01*
X171722422Y-87686399D01*
X171722420Y-87686400D01*
X171528926Y-87821886D01*
X171528920Y-87821891D01*
X171361891Y-87988920D01*
X171361886Y-87988926D01*
X171226400Y-88182420D01*
X171226399Y-88182422D01*
X171126570Y-88396507D01*
X171126567Y-88396513D01*
X171069364Y-88609999D01*
X171069364Y-88610000D01*
X171966314Y-88610000D01*
X171940507Y-88650156D01*
X171900000Y-88788111D01*
X171900000Y-88931889D01*
X171940507Y-89069844D01*
X171966314Y-89110000D01*
X171069364Y-89110000D01*
X171126567Y-89323486D01*
X171126570Y-89323492D01*
X171226399Y-89537578D01*
X171361894Y-89731082D01*
X171528917Y-89898105D01*
X171714595Y-90028119D01*
X171758219Y-90082696D01*
X171765412Y-90152195D01*
X171733890Y-90214549D01*
X171714595Y-90231269D01*
X171528594Y-90361508D01*
X171361506Y-90528596D01*
X171243854Y-90696623D01*
X171189277Y-90740248D01*
X171142279Y-90749500D01*
X167385505Y-90749500D01*
X167369494Y-90747732D01*
X167369472Y-90747974D01*
X167361705Y-90747240D01*
X167361704Y-90747240D01*
X167289797Y-90749500D01*
X167259075Y-90749500D01*
X167259071Y-90749500D01*
X167259061Y-90749501D01*
X167251793Y-90750419D01*
X167245976Y-90750876D01*
X167197436Y-90752402D01*
X167197425Y-90752404D01*
X167177049Y-90758323D01*
X167158008Y-90762266D01*
X167136953Y-90764926D01*
X167136937Y-90764930D01*
X167091771Y-90782812D01*
X167086244Y-90784704D01*
X167039599Y-90798256D01*
X167021327Y-90809062D01*
X167003861Y-90817619D01*
X166984128Y-90825432D01*
X166944830Y-90853983D01*
X166939953Y-90857186D01*
X166933428Y-90861046D01*
X166898132Y-90881920D01*
X166883126Y-90896926D01*
X166868336Y-90909558D01*
X166851167Y-90922032D01*
X166851165Y-90922034D01*
X166820194Y-90959470D01*
X166816261Y-90963791D01*
X166078903Y-91701151D01*
X165366873Y-92413181D01*
X165305550Y-92446666D01*
X165279192Y-92449500D01*
X159369807Y-92449500D01*
X159302768Y-92429815D01*
X159257013Y-92377011D01*
X159247069Y-92307853D01*
X159276094Y-92244297D01*
X159282126Y-92237819D01*
X159333126Y-92186819D01*
X159394449Y-92153334D01*
X159420807Y-92150500D01*
X162704495Y-92150500D01*
X162720505Y-92152267D01*
X162720528Y-92152026D01*
X162728289Y-92152758D01*
X162728296Y-92152760D01*
X162800203Y-92150500D01*
X162830925Y-92150500D01*
X162838190Y-92149581D01*
X162844016Y-92149122D01*
X162892569Y-92147597D01*
X162912956Y-92141673D01*
X162931996Y-92137731D01*
X162953058Y-92135071D01*
X162998235Y-92117183D01*
X163003735Y-92115300D01*
X163050398Y-92101744D01*
X163068665Y-92090939D01*
X163086136Y-92082380D01*
X163105871Y-92074568D01*
X163145177Y-92046010D01*
X163150043Y-92042813D01*
X163191865Y-92018081D01*
X163206870Y-92003075D01*
X163221668Y-91990436D01*
X163222643Y-91989728D01*
X163238837Y-91977963D01*
X163269809Y-91940522D01*
X163273723Y-91936221D01*
X164972238Y-90237706D01*
X165033559Y-90204223D01*
X165092006Y-90205613D01*
X165164592Y-90225063D01*
X165341034Y-90240500D01*
X165399999Y-90245659D01*
X165400000Y-90245659D01*
X165400001Y-90245659D01*
X165458966Y-90240500D01*
X165635408Y-90225063D01*
X165863663Y-90163903D01*
X166077830Y-90064035D01*
X166271401Y-89928495D01*
X166438495Y-89761401D01*
X166568730Y-89575405D01*
X166623307Y-89531781D01*
X166692805Y-89524587D01*
X166755160Y-89556110D01*
X166771879Y-89575405D01*
X166901890Y-89761078D01*
X167068917Y-89928105D01*
X167262421Y-90063600D01*
X167476507Y-90163429D01*
X167476516Y-90163433D01*
X167690000Y-90220634D01*
X167690000Y-89325501D01*
X167797685Y-89374680D01*
X167904237Y-89390000D01*
X167975763Y-89390000D01*
X168082315Y-89374680D01*
X168190000Y-89325501D01*
X168190000Y-90220633D01*
X168403483Y-90163433D01*
X168403492Y-90163429D01*
X168617578Y-90063600D01*
X168811082Y-89928105D01*
X168978105Y-89761082D01*
X169113600Y-89567578D01*
X169213429Y-89353492D01*
X169213432Y-89353486D01*
X169270636Y-89140000D01*
X168373686Y-89140000D01*
X168399493Y-89099844D01*
X168440000Y-88961889D01*
X168440000Y-88818111D01*
X168399493Y-88680156D01*
X168373686Y-88640000D01*
X169270636Y-88640000D01*
X169270635Y-88639999D01*
X169213432Y-88426513D01*
X169213429Y-88426507D01*
X169113600Y-88212422D01*
X169113599Y-88212420D01*
X168978113Y-88018926D01*
X168978108Y-88018920D01*
X168811082Y-87851894D01*
X168617578Y-87716399D01*
X168403492Y-87616570D01*
X168403486Y-87616567D01*
X168190000Y-87559364D01*
X168190000Y-88454498D01*
X168082315Y-88405320D01*
X167975763Y-88390000D01*
X167904237Y-88390000D01*
X167797685Y-88405320D01*
X167690000Y-88454498D01*
X167690000Y-87559364D01*
X167689999Y-87559364D01*
X167476513Y-87616567D01*
X167476507Y-87616570D01*
X167262422Y-87716399D01*
X167262420Y-87716400D01*
X167068926Y-87851886D01*
X167068920Y-87851891D01*
X166901891Y-88018920D01*
X166901890Y-88018922D01*
X166771880Y-88204595D01*
X166717303Y-88248219D01*
X166647804Y-88255412D01*
X166585450Y-88223890D01*
X166568730Y-88204594D01*
X166438494Y-88018597D01*
X166271402Y-87851506D01*
X166271395Y-87851501D01*
X166260795Y-87844079D01*
X166194518Y-87797671D01*
X166077834Y-87715967D01*
X166077830Y-87715965D01*
X166043492Y-87699953D01*
X165863663Y-87616097D01*
X165863659Y-87616096D01*
X165863655Y-87616094D01*
X165635413Y-87554938D01*
X165635403Y-87554936D01*
X165400001Y-87534341D01*
X165399999Y-87534341D01*
X165164596Y-87554936D01*
X165164586Y-87554938D01*
X164936344Y-87616094D01*
X164936335Y-87616098D01*
X164722171Y-87715964D01*
X164722169Y-87715965D01*
X164528600Y-87851503D01*
X164406673Y-87973430D01*
X164345350Y-88006914D01*
X164275658Y-88001930D01*
X164219725Y-87960058D01*
X164202810Y-87929081D01*
X164153797Y-87797671D01*
X164153793Y-87797664D01*
X164067547Y-87682455D01*
X164067544Y-87682452D01*
X163952335Y-87596206D01*
X163952328Y-87596202D01*
X163817482Y-87545908D01*
X163817483Y-87545908D01*
X163757883Y-87539501D01*
X163757881Y-87539500D01*
X163757873Y-87539500D01*
X163757864Y-87539500D01*
X161962129Y-87539500D01*
X161962123Y-87539501D01*
X161902516Y-87545908D01*
X161767671Y-87596202D01*
X161767664Y-87596206D01*
X161652455Y-87682452D01*
X161652452Y-87682455D01*
X161566206Y-87797664D01*
X161566202Y-87797671D01*
X161515908Y-87932517D01*
X161509501Y-87992116D01*
X161509500Y-87992135D01*
X161509500Y-89787870D01*
X161509501Y-89787876D01*
X161515908Y-89847483D01*
X161566202Y-89982328D01*
X161566206Y-89982335D01*
X161652452Y-90097544D01*
X161652455Y-90097547D01*
X161767664Y-90183793D01*
X161767671Y-90183797D01*
X161902517Y-90234091D01*
X161902516Y-90234091D01*
X161909444Y-90234835D01*
X161962127Y-90240500D01*
X162830192Y-90240499D01*
X162897231Y-90260183D01*
X162942986Y-90312987D01*
X162952930Y-90382146D01*
X162923905Y-90445702D01*
X162917873Y-90452180D01*
X162556873Y-90813181D01*
X162495550Y-90846666D01*
X162469192Y-90849500D01*
X159185506Y-90849500D01*
X159169495Y-90847732D01*
X159169473Y-90847974D01*
X159161706Y-90847239D01*
X159089783Y-90849500D01*
X159059075Y-90849500D01*
X159059071Y-90849500D01*
X159059060Y-90849501D01*
X159051804Y-90850417D01*
X159045986Y-90850875D01*
X158997432Y-90852401D01*
X158997431Y-90852401D01*
X158977041Y-90858325D01*
X158957996Y-90862269D01*
X158936942Y-90864929D01*
X158891774Y-90882811D01*
X158886248Y-90884703D01*
X158839602Y-90898255D01*
X158839595Y-90898258D01*
X158821329Y-90909061D01*
X158803861Y-90917619D01*
X158784128Y-90925432D01*
X158744830Y-90953983D01*
X158739953Y-90957186D01*
X158732293Y-90961717D01*
X158698132Y-90981920D01*
X158683126Y-90996926D01*
X158668336Y-91009558D01*
X158651167Y-91022032D01*
X158651165Y-91022034D01*
X158620194Y-91059470D01*
X158616262Y-91063791D01*
X158517173Y-91162879D01*
X158455850Y-91196364D01*
X158386158Y-91191380D01*
X158330225Y-91149508D01*
X158309717Y-91107291D01*
X158263911Y-90936338D01*
X158263910Y-90936335D01*
X158263909Y-90936331D01*
X158164041Y-90722165D01*
X158163324Y-90721140D01*
X158028500Y-90528591D01*
X157861408Y-90361500D01*
X157861407Y-90361499D01*
X157679450Y-90234091D01*
X157675411Y-90231263D01*
X157631787Y-90176686D01*
X157624594Y-90107187D01*
X157656116Y-90044833D01*
X157675411Y-90028113D01*
X157861088Y-89898099D01*
X158028111Y-89731076D01*
X158163606Y-89537572D01*
X158263435Y-89323486D01*
X158263438Y-89323480D01*
X158320642Y-89109994D01*
X157423692Y-89109994D01*
X157449499Y-89069838D01*
X157490006Y-88931883D01*
X157490006Y-88788105D01*
X157449499Y-88650150D01*
X157423692Y-88609994D01*
X158320642Y-88609994D01*
X158320641Y-88609993D01*
X158263438Y-88396507D01*
X158263435Y-88396501D01*
X158163606Y-88182416D01*
X158163605Y-88182414D01*
X158028119Y-87988920D01*
X158028114Y-87988914D01*
X157861088Y-87821888D01*
X157667584Y-87686393D01*
X157453498Y-87586564D01*
X157453492Y-87586561D01*
X157240006Y-87529358D01*
X157240006Y-88424492D01*
X157132321Y-88375314D01*
X157025769Y-88359994D01*
X156954243Y-88359994D01*
X156847691Y-88375314D01*
X156740006Y-88424492D01*
X156740006Y-87529358D01*
X156740005Y-87529358D01*
X156526519Y-87586561D01*
X156526513Y-87586564D01*
X156476903Y-87609697D01*
X156407826Y-87620188D01*
X156344042Y-87591667D01*
X156305803Y-87533190D01*
X156300500Y-87497314D01*
X156300500Y-85735503D01*
X156302268Y-85719491D01*
X156302026Y-85719469D01*
X156302760Y-85711706D01*
X156300500Y-85639782D01*
X156300500Y-85609077D01*
X156300500Y-85609075D01*
X156299579Y-85601792D01*
X156299123Y-85595987D01*
X156298457Y-85574782D01*
X156297598Y-85547431D01*
X156291676Y-85527050D01*
X156287731Y-85507995D01*
X156285072Y-85486949D01*
X156285071Y-85486948D01*
X156285071Y-85486942D01*
X156267189Y-85441779D01*
X156265300Y-85436259D01*
X156263044Y-85428494D01*
X156251745Y-85389602D01*
X156251142Y-85388583D01*
X156240936Y-85371324D01*
X156232378Y-85353855D01*
X156224568Y-85334129D01*
X156196006Y-85294818D01*
X156192818Y-85289964D01*
X156168081Y-85248135D01*
X156153074Y-85233128D01*
X156140435Y-85218330D01*
X156127961Y-85201160D01*
X156090528Y-85170194D01*
X156086206Y-85166260D01*
X155170434Y-84250488D01*
X155160361Y-84237914D01*
X155160174Y-84238070D01*
X155155201Y-84232059D01*
X155102756Y-84182810D01*
X155081035Y-84161089D01*
X155075240Y-84156594D01*
X155070798Y-84152799D01*
X155035396Y-84119554D01*
X155035388Y-84119548D01*
X155016792Y-84109325D01*
X155000531Y-84098644D01*
X154983763Y-84085637D01*
X154960295Y-84075482D01*
X154939178Y-84066343D01*
X154933956Y-84063786D01*
X154891368Y-84040373D01*
X154891365Y-84040372D01*
X154870801Y-84035092D01*
X154852396Y-84028790D01*
X154832927Y-84020365D01*
X154832921Y-84020363D01*
X154784951Y-84012766D01*
X154779236Y-84011582D01*
X154762772Y-84007355D01*
X154732180Y-83999500D01*
X154732177Y-83999500D01*
X154710955Y-83999500D01*
X154691555Y-83997973D01*
X154670596Y-83994653D01*
X154670595Y-83994653D01*
X154646786Y-83996903D01*
X154622230Y-83999225D01*
X154616392Y-83999500D01*
X144833837Y-83999500D01*
X144766798Y-83979815D01*
X144727438Y-83937384D01*
X144726978Y-83937686D01*
X144725214Y-83934987D01*
X144724786Y-83934525D01*
X144724173Y-83933393D01*
X144588166Y-83725217D01*
X144566557Y-83701744D01*
X144419744Y-83542262D01*
X144223509Y-83389526D01*
X144223507Y-83389525D01*
X144223506Y-83389524D01*
X144004811Y-83271172D01*
X144004802Y-83271169D01*
X143769616Y-83190429D01*
X143524335Y-83149500D01*
X143275665Y-83149500D01*
X143030383Y-83190429D01*
X142795197Y-83271169D01*
X142795188Y-83271172D01*
X142576493Y-83389524D01*
X142519460Y-83433915D01*
X142380256Y-83542262D01*
X142380189Y-83542335D01*
X142211833Y-83725217D01*
X142075826Y-83933393D01*
X142075214Y-83934525D01*
X142074842Y-83934898D01*
X142073022Y-83937686D01*
X142072448Y-83937311D01*
X142025991Y-83984112D01*
X141966163Y-83999500D01*
X138333837Y-83999500D01*
X138266798Y-83979815D01*
X138227438Y-83937384D01*
X138226978Y-83937686D01*
X138225214Y-83934987D01*
X138224786Y-83934525D01*
X138224173Y-83933393D01*
X138088166Y-83725217D01*
X138066557Y-83701744D01*
X137919744Y-83542262D01*
X137723509Y-83389526D01*
X137723507Y-83389525D01*
X137723506Y-83389524D01*
X137504811Y-83271172D01*
X137504802Y-83271169D01*
X137269616Y-83190429D01*
X137024335Y-83149500D01*
X136775665Y-83149500D01*
X136530383Y-83190429D01*
X136295197Y-83271169D01*
X136295188Y-83271172D01*
X136076493Y-83389524D01*
X136019460Y-83433915D01*
X135880256Y-83542262D01*
X135880189Y-83542335D01*
X135711833Y-83725217D01*
X135575826Y-83933393D01*
X135475936Y-84161118D01*
X135414892Y-84402175D01*
X135414890Y-84402187D01*
X135394357Y-84649994D01*
X135394357Y-84650005D01*
X127155643Y-84650005D01*
X127155643Y-84650000D01*
X127135108Y-84402179D01*
X127135107Y-84402175D01*
X127074063Y-84161118D01*
X126974173Y-83933393D01*
X126838166Y-83725217D01*
X126816557Y-83701744D01*
X126669744Y-83542262D01*
X126473509Y-83389526D01*
X126473507Y-83389525D01*
X126473506Y-83389524D01*
X126254811Y-83271172D01*
X126254802Y-83271169D01*
X126019616Y-83190429D01*
X125774335Y-83149500D01*
X125525665Y-83149500D01*
X125280383Y-83190429D01*
X125045197Y-83271169D01*
X125045188Y-83271172D01*
X124826493Y-83389524D01*
X124769460Y-83433915D01*
X124630256Y-83542262D01*
X124630189Y-83542335D01*
X124461833Y-83725217D01*
X124325826Y-83933393D01*
X124225936Y-84161118D01*
X124164892Y-84402175D01*
X124164890Y-84402187D01*
X124144357Y-84649994D01*
X124144357Y-84650005D01*
X120655643Y-84650005D01*
X120655643Y-84650000D01*
X120635108Y-84402179D01*
X120635107Y-84402175D01*
X120574063Y-84161118D01*
X120474173Y-83933393D01*
X120338166Y-83725217D01*
X120316557Y-83701744D01*
X120169744Y-83542262D01*
X119973509Y-83389526D01*
X119973507Y-83389525D01*
X119973506Y-83389524D01*
X119754811Y-83271172D01*
X119754802Y-83271169D01*
X119519616Y-83190429D01*
X119274335Y-83149500D01*
X119025665Y-83149500D01*
X118780383Y-83190429D01*
X118545197Y-83271169D01*
X118545188Y-83271172D01*
X118326493Y-83389524D01*
X118269460Y-83433915D01*
X118130256Y-83542262D01*
X118130189Y-83542335D01*
X117961833Y-83725217D01*
X117825826Y-83933393D01*
X117725936Y-84161118D01*
X117664892Y-84402175D01*
X117664890Y-84402187D01*
X117644357Y-84649994D01*
X117644357Y-84650005D01*
X108900500Y-84650005D01*
X108900500Y-82400006D01*
X128704700Y-82400006D01*
X128723864Y-82631297D01*
X128723866Y-82631308D01*
X128780842Y-82856300D01*
X128874075Y-83068848D01*
X129001016Y-83263147D01*
X129001019Y-83263151D01*
X129001021Y-83263153D01*
X129158216Y-83433913D01*
X129158219Y-83433915D01*
X129158222Y-83433918D01*
X129341365Y-83576464D01*
X129341371Y-83576468D01*
X129341374Y-83576470D01*
X129545497Y-83686936D01*
X129657000Y-83725215D01*
X129765015Y-83762297D01*
X129765017Y-83762297D01*
X129765019Y-83762298D01*
X129993951Y-83800500D01*
X129993952Y-83800500D01*
X130226048Y-83800500D01*
X130226049Y-83800500D01*
X130454981Y-83762298D01*
X130674503Y-83686936D01*
X130878626Y-83576470D01*
X131061784Y-83433913D01*
X131070130Y-83424846D01*
X131130010Y-83388854D01*
X131199849Y-83390949D01*
X131257468Y-83430469D01*
X131277544Y-83465491D01*
X131306203Y-83542330D01*
X131306206Y-83542335D01*
X131392452Y-83657544D01*
X131392455Y-83657547D01*
X131507664Y-83743793D01*
X131507671Y-83743797D01*
X131642517Y-83794091D01*
X131642516Y-83794091D01*
X131649444Y-83794835D01*
X131702127Y-83800500D01*
X133597872Y-83800499D01*
X133657483Y-83794091D01*
X133792331Y-83743796D01*
X133907546Y-83657546D01*
X133993796Y-83542331D01*
X134044091Y-83407483D01*
X134050500Y-83347873D01*
X134050499Y-81452128D01*
X134044091Y-81392517D01*
X134034233Y-81366087D01*
X133993797Y-81257671D01*
X133993793Y-81257664D01*
X133907547Y-81142455D01*
X133907544Y-81142452D01*
X133792335Y-81056206D01*
X133792328Y-81056202D01*
X133657482Y-81005908D01*
X133657483Y-81005908D01*
X133597883Y-80999501D01*
X133597881Y-80999500D01*
X133597873Y-80999500D01*
X133597864Y-80999500D01*
X131702129Y-80999500D01*
X131702123Y-80999501D01*
X131642516Y-81005908D01*
X131507671Y-81056202D01*
X131507664Y-81056206D01*
X131392455Y-81142452D01*
X131392452Y-81142455D01*
X131306206Y-81257664D01*
X131306203Y-81257670D01*
X131277544Y-81334508D01*
X131235672Y-81390441D01*
X131170208Y-81414858D01*
X131101935Y-81400006D01*
X131070135Y-81375158D01*
X131061784Y-81366087D01*
X131061778Y-81366082D01*
X131061777Y-81366081D01*
X130878634Y-81223535D01*
X130878628Y-81223531D01*
X130674504Y-81113064D01*
X130674495Y-81113061D01*
X130454984Y-81037702D01*
X130264450Y-81005908D01*
X130226049Y-80999500D01*
X129993951Y-80999500D01*
X129955550Y-81005908D01*
X129765015Y-81037702D01*
X129545504Y-81113061D01*
X129545495Y-81113064D01*
X129341371Y-81223531D01*
X129341365Y-81223535D01*
X129158222Y-81366081D01*
X129158219Y-81366084D01*
X129158216Y-81366086D01*
X129158216Y-81366087D01*
X129117741Y-81410055D01*
X129001016Y-81536852D01*
X128874075Y-81731151D01*
X128780842Y-81943699D01*
X128723866Y-82168691D01*
X128723864Y-82168702D01*
X128704700Y-82399993D01*
X128704700Y-82400006D01*
X108900500Y-82400006D01*
X108900500Y-80150005D01*
X117644357Y-80150005D01*
X117664890Y-80397812D01*
X117664892Y-80397824D01*
X117725936Y-80638881D01*
X117825826Y-80866606D01*
X117961833Y-81074782D01*
X117961836Y-81074785D01*
X118130256Y-81257738D01*
X118326491Y-81410474D01*
X118326493Y-81410475D01*
X118544332Y-81528364D01*
X118545190Y-81528828D01*
X118764141Y-81603994D01*
X118778964Y-81609083D01*
X118780386Y-81609571D01*
X119025665Y-81650500D01*
X119274335Y-81650500D01*
X119519614Y-81609571D01*
X119754810Y-81528828D01*
X119973509Y-81410474D01*
X120169744Y-81257738D01*
X120338164Y-81074785D01*
X120474173Y-80866607D01*
X120574063Y-80638881D01*
X120635108Y-80397821D01*
X120640238Y-80335915D01*
X120655643Y-80150005D01*
X124144357Y-80150005D01*
X124164890Y-80397812D01*
X124164892Y-80397824D01*
X124225936Y-80638881D01*
X124325826Y-80866606D01*
X124461833Y-81074782D01*
X124461836Y-81074785D01*
X124630256Y-81257738D01*
X124826491Y-81410474D01*
X124826493Y-81410475D01*
X125044332Y-81528364D01*
X125045190Y-81528828D01*
X125264141Y-81603994D01*
X125278964Y-81609083D01*
X125280386Y-81609571D01*
X125525665Y-81650500D01*
X125774335Y-81650500D01*
X126019614Y-81609571D01*
X126254810Y-81528828D01*
X126473509Y-81410474D01*
X126669744Y-81257738D01*
X126838164Y-81074785D01*
X126974173Y-80866607D01*
X127074063Y-80638881D01*
X127135108Y-80397821D01*
X127140238Y-80335915D01*
X127155643Y-80150005D01*
X135394859Y-80150005D01*
X135415385Y-80397729D01*
X135415387Y-80397738D01*
X135476412Y-80638717D01*
X135576266Y-80866364D01*
X135676564Y-81019882D01*
X136374070Y-80322375D01*
X136376884Y-80335915D01*
X136446442Y-80470156D01*
X136549638Y-80580652D01*
X136678819Y-80659209D01*
X136730002Y-80673549D01*
X136029942Y-81373609D01*
X136076768Y-81410055D01*
X136076770Y-81410056D01*
X136295385Y-81528364D01*
X136295396Y-81528369D01*
X136530506Y-81609083D01*
X136775707Y-81650000D01*
X137024293Y-81650000D01*
X137269493Y-81609083D01*
X137504603Y-81528369D01*
X137504614Y-81528364D01*
X137723228Y-81410057D01*
X137723231Y-81410055D01*
X137770056Y-81373609D01*
X137071568Y-80675121D01*
X137188458Y-80624349D01*
X137305739Y-80528934D01*
X137392928Y-80405415D01*
X137423354Y-80319802D01*
X138123434Y-81019882D01*
X138223731Y-80866369D01*
X138323587Y-80638717D01*
X138384612Y-80397738D01*
X138384614Y-80397729D01*
X138405141Y-80150005D01*
X141894859Y-80150005D01*
X141915385Y-80397729D01*
X141915387Y-80397738D01*
X141976412Y-80638717D01*
X142076266Y-80866364D01*
X142176564Y-81019882D01*
X142874070Y-80322376D01*
X142876884Y-80335915D01*
X142946442Y-80470156D01*
X143049638Y-80580652D01*
X143178819Y-80659209D01*
X143230002Y-80673549D01*
X142529942Y-81373609D01*
X142576768Y-81410055D01*
X142576770Y-81410056D01*
X142795385Y-81528364D01*
X142795396Y-81528369D01*
X143030506Y-81609083D01*
X143275707Y-81650000D01*
X143524293Y-81650000D01*
X143769493Y-81609083D01*
X144004603Y-81528369D01*
X144004614Y-81528364D01*
X144223228Y-81410057D01*
X144223231Y-81410055D01*
X144270056Y-81373609D01*
X143571568Y-80675121D01*
X143688458Y-80624349D01*
X143805739Y-80528934D01*
X143892928Y-80405415D01*
X143923354Y-80319802D01*
X144623434Y-81019882D01*
X144723731Y-80866369D01*
X144823587Y-80638717D01*
X144884612Y-80397738D01*
X144884614Y-80397729D01*
X144905141Y-80150005D01*
X144905141Y-80149994D01*
X144884614Y-79902270D01*
X144884612Y-79902261D01*
X144823587Y-79661282D01*
X144723731Y-79433630D01*
X144623434Y-79280116D01*
X143925929Y-79977622D01*
X143923116Y-79964085D01*
X143853558Y-79829844D01*
X143750362Y-79719348D01*
X143621181Y-79640791D01*
X143569997Y-79626450D01*
X144270057Y-78926390D01*
X144270056Y-78926389D01*
X144223229Y-78889943D01*
X144004614Y-78771635D01*
X144004603Y-78771630D01*
X143769493Y-78690916D01*
X143524293Y-78650000D01*
X143275707Y-78650000D01*
X143030506Y-78690916D01*
X142795396Y-78771630D01*
X142795390Y-78771632D01*
X142576761Y-78889949D01*
X142529942Y-78926388D01*
X142529942Y-78926390D01*
X143228431Y-79624878D01*
X143111542Y-79675651D01*
X142994261Y-79771066D01*
X142907072Y-79894585D01*
X142876645Y-79980197D01*
X142176564Y-79280116D01*
X142076267Y-79433632D01*
X141976412Y-79661282D01*
X141915387Y-79902261D01*
X141915385Y-79902270D01*
X141894859Y-80149994D01*
X141894859Y-80150005D01*
X138405141Y-80150005D01*
X138405141Y-80149994D01*
X138384614Y-79902270D01*
X138384612Y-79902261D01*
X138323587Y-79661282D01*
X138223731Y-79433630D01*
X138123434Y-79280116D01*
X137425929Y-79977622D01*
X137423116Y-79964085D01*
X137353558Y-79829844D01*
X137250362Y-79719348D01*
X137121181Y-79640791D01*
X137069997Y-79626450D01*
X137770057Y-78926390D01*
X137770056Y-78926389D01*
X137723229Y-78889943D01*
X137504614Y-78771635D01*
X137504603Y-78771630D01*
X137269493Y-78690916D01*
X137024293Y-78650000D01*
X136775707Y-78650000D01*
X136530506Y-78690916D01*
X136295396Y-78771630D01*
X136295390Y-78771632D01*
X136076761Y-78889949D01*
X136029942Y-78926388D01*
X136029942Y-78926390D01*
X136728431Y-79624878D01*
X136611542Y-79675651D01*
X136494261Y-79771066D01*
X136407072Y-79894585D01*
X136376645Y-79980196D01*
X135676563Y-79280116D01*
X135576267Y-79433632D01*
X135476412Y-79661282D01*
X135415387Y-79902261D01*
X135415385Y-79902270D01*
X135394859Y-80149994D01*
X135394859Y-80150005D01*
X127155643Y-80150005D01*
X127155643Y-80149994D01*
X127135109Y-79902187D01*
X127135107Y-79902175D01*
X127074063Y-79661118D01*
X126974173Y-79433393D01*
X126838166Y-79225217D01*
X126816557Y-79201744D01*
X126669744Y-79042262D01*
X126473509Y-78889526D01*
X126473507Y-78889525D01*
X126473506Y-78889524D01*
X126254811Y-78771172D01*
X126254802Y-78771169D01*
X126019616Y-78690429D01*
X125774335Y-78649500D01*
X125525665Y-78649500D01*
X125280383Y-78690429D01*
X125045197Y-78771169D01*
X125045188Y-78771172D01*
X124826493Y-78889524D01*
X124630257Y-79042261D01*
X124461833Y-79225217D01*
X124325826Y-79433393D01*
X124225936Y-79661118D01*
X124164892Y-79902175D01*
X124164890Y-79902187D01*
X124144357Y-80149994D01*
X124144357Y-80150005D01*
X120655643Y-80150005D01*
X120655643Y-80149994D01*
X120635109Y-79902187D01*
X120635107Y-79902175D01*
X120574063Y-79661118D01*
X120474173Y-79433393D01*
X120338166Y-79225217D01*
X120316557Y-79201744D01*
X120169744Y-79042262D01*
X119973509Y-78889526D01*
X119973507Y-78889525D01*
X119973506Y-78889524D01*
X119754811Y-78771172D01*
X119754802Y-78771169D01*
X119519616Y-78690429D01*
X119274335Y-78649500D01*
X119025665Y-78649500D01*
X118780383Y-78690429D01*
X118545197Y-78771169D01*
X118545188Y-78771172D01*
X118326493Y-78889524D01*
X118130257Y-79042261D01*
X117961833Y-79225217D01*
X117825826Y-79433393D01*
X117725936Y-79661118D01*
X117664892Y-79902175D01*
X117664890Y-79902187D01*
X117644357Y-80149994D01*
X117644357Y-80150005D01*
X108900500Y-80150005D01*
X108900500Y-60724500D01*
X108920185Y-60657461D01*
X108972989Y-60611706D01*
X109024500Y-60600500D01*
X109042305Y-60600500D01*
X109042313Y-60600500D01*
X109725862Y-60562112D01*
X110021082Y-60528848D01*
X110406169Y-60485461D01*
X110406176Y-60485459D01*
X110406183Y-60485459D01*
X111081130Y-60370781D01*
X111081131Y-60370781D01*
X111081133Y-60370780D01*
X111081136Y-60370780D01*
X111748597Y-60218436D01*
X112406466Y-60028907D01*
X112406470Y-60028905D01*
X112406470Y-60028906D01*
X113052682Y-59802787D01*
X113445684Y-59639998D01*
X113685185Y-59540794D01*
X113685191Y-59540790D01*
X113685196Y-59540789D01*
X114302003Y-59243751D01*
X114321031Y-59233234D01*
X114901213Y-58912580D01*
X115480902Y-58548337D01*
X115480907Y-58548334D01*
X116039249Y-58152168D01*
X116039250Y-58152168D01*
X116574523Y-57725302D01*
X117084995Y-57269116D01*
X117084994Y-57269116D01*
X117085004Y-57269108D01*
X117569108Y-56785004D01*
X118025306Y-56274518D01*
X118452163Y-55739256D01*
X118452168Y-55739250D01*
X118452168Y-55739249D01*
X118848334Y-55180907D01*
X119164512Y-54677712D01*
X119212580Y-54601213D01*
X119543746Y-54002012D01*
X119543745Y-54002012D01*
X119543751Y-54002003D01*
X119840789Y-53385196D01*
X119855602Y-53349436D01*
X119972069Y-53068261D01*
X120102787Y-52752682D01*
X120199821Y-52475373D01*
X149195723Y-52475373D01*
X149225881Y-52775160D01*
X149225882Y-52775162D01*
X149295728Y-53068252D01*
X149295733Y-53068266D01*
X149404020Y-53349427D01*
X149404024Y-53349436D01*
X149548825Y-53613665D01*
X149548829Y-53613671D01*
X149727551Y-53856234D01*
X149727554Y-53856238D01*
X149937020Y-54072824D01*
X150004390Y-54126026D01*
X150173478Y-54259553D01*
X150173480Y-54259554D01*
X150173485Y-54259558D01*
X150432730Y-54413109D01*
X150710128Y-54530736D01*
X151000729Y-54610340D01*
X151299347Y-54650500D01*
X151299351Y-54650500D01*
X151525252Y-54650500D01*
X151689164Y-54639526D01*
X151750634Y-54635412D01*
X152045903Y-54575396D01*
X152330537Y-54476560D01*
X152599459Y-54340668D01*
X152847869Y-54170144D01*
X153071333Y-53968032D01*
X153265865Y-53737939D01*
X153427993Y-53483970D01*
X153554823Y-53210658D01*
X153644093Y-52922879D01*
X153694209Y-52625770D01*
X153704277Y-52324631D01*
X153674118Y-52024838D01*
X153604269Y-51731739D01*
X153495977Y-51450566D01*
X153351175Y-51186335D01*
X153172446Y-50943762D01*
X152962980Y-50727176D01*
X152839742Y-50629856D01*
X152726521Y-50540446D01*
X152726517Y-50540443D01*
X152726515Y-50540442D01*
X152467270Y-50386891D01*
X152189872Y-50269264D01*
X152189863Y-50269261D01*
X151899272Y-50189660D01*
X151824616Y-50179620D01*
X151600653Y-50149500D01*
X151374756Y-50149500D01*
X151374748Y-50149500D01*
X151149368Y-50164587D01*
X151149359Y-50164589D01*
X150854094Y-50224604D01*
X150569464Y-50323439D01*
X150569459Y-50323441D01*
X150300546Y-50459328D01*
X150052125Y-50629860D01*
X149828665Y-50831969D01*
X149634132Y-51062064D01*
X149472006Y-51316030D01*
X149472005Y-51316032D01*
X149345181Y-51589333D01*
X149345177Y-51589342D01*
X149345176Y-51589346D01*
X149255907Y-51877118D01*
X149205791Y-52174230D01*
X149195723Y-52475373D01*
X120199821Y-52475373D01*
X120328906Y-52106470D01*
X120328905Y-52106471D01*
X120328907Y-52106466D01*
X120518436Y-51448597D01*
X120670780Y-50781136D01*
X120785459Y-50106183D01*
X120862112Y-49425862D01*
X120900500Y-48742313D01*
X120900500Y-48724499D01*
X120920185Y-48657461D01*
X120972989Y-48611706D01*
X121024500Y-48600500D01*
X182075500Y-48600500D01*
X182142539Y-48620185D01*
G37*
%TD.AperFunction*%
%TD*%
M02*
