%TF.GenerationSoftware,KiCad,Pcbnew,7.0.6*%
%TF.CreationDate,2023-08-07T22:53:29+02:00*%
%TF.ProjectId,attiny85_time_switch,61747469-6e79-4383-955f-74696d655f73,1.0*%
%TF.SameCoordinates,Original*%
%TF.FileFunction,Soldermask,Top*%
%TF.FilePolarity,Negative*%
%FSLAX46Y46*%
G04 Gerber Fmt 4.6, Leading zero omitted, Abs format (unit mm)*
G04 Created by KiCad (PCBNEW 7.0.6) date 2023-08-07 22:53:29*
%MOMM*%
%LPD*%
G01*
G04 APERTURE LIST*
%ADD10C,4.000000*%
%ADD11C,1.400000*%
%ADD12O,1.400000X1.400000*%
%ADD13R,1.700000X1.700000*%
%ADD14O,1.700000X1.700000*%
%ADD15R,2.600000X2.600000*%
%ADD16C,2.600000*%
%ADD17R,1.800000X1.800000*%
%ADD18C,1.800000*%
%ADD19R,1.600000X1.600000*%
%ADD20O,1.600000X1.600000*%
%ADD21C,2.200000*%
%ADD22O,1.800000X1.800000*%
%ADD23C,1.600000*%
%ADD24R,1.220000X0.650000*%
%ADD25C,2.000000*%
%ADD26R,0.650000X2.000000*%
G04 APERTURE END LIST*
D10*
%TO.C,Case1*%
X112700000Y-91350000D03*
X151450000Y-52400000D03*
X151450000Y-130100000D03*
X190400000Y-91350000D03*
%TD*%
D11*
%TO.C,R1*%
X170200000Y-108410000D03*
D12*
X170200000Y-100790000D03*
%TD*%
D13*
%TO.C,J8*%
X125665000Y-105790000D03*
D14*
X125665000Y-108330000D03*
%TD*%
D15*
%TO.C,J4*%
X128767506Y-105262494D03*
D16*
X128767506Y-108762494D03*
%TD*%
D17*
%TO.C,D2*%
X132650000Y-82400000D03*
D18*
X130110000Y-82400000D03*
%TD*%
D19*
%TO.C,U1*%
X158700000Y-95600000D03*
D20*
X156160000Y-95600000D03*
X153620000Y-95600000D03*
X151080000Y-95600000D03*
X151080000Y-103220000D03*
X153620000Y-103220000D03*
X156160000Y-103220000D03*
X158700000Y-103220000D03*
%TD*%
D21*
%TO.C,F1*%
X139800000Y-91450000D03*
X134800000Y-91450000D03*
X139800000Y-108350000D03*
X134800000Y-108350000D03*
%TD*%
D11*
%TO.C,R7*%
X172800000Y-100790000D03*
D12*
X172800000Y-108410000D03*
%TD*%
D17*
%TO.C,D1*%
X144900000Y-103390000D03*
D22*
X144900000Y-111010000D03*
%TD*%
D13*
%TO.C,J5*%
X172400000Y-93940000D03*
D14*
X172400000Y-91400000D03*
X172400000Y-88860000D03*
%TD*%
D23*
%TO.C,C4*%
X167200000Y-100890000D03*
X167200000Y-105890000D03*
%TD*%
%TO.C,C7*%
X163600000Y-105890000D03*
X163600000Y-100890000D03*
%TD*%
D11*
%TO.C,R3*%
X148290000Y-110700000D03*
D12*
X155910000Y-110700000D03*
%TD*%
D11*
%TO.C,R6*%
X124090000Y-87650000D03*
D12*
X131710000Y-87650000D03*
%TD*%
D24*
%TO.C,Q2*%
X162280000Y-108950000D03*
X162280000Y-110850000D03*
X164900000Y-109900000D03*
%TD*%
%TO.C,Q1*%
X151710000Y-108350000D03*
X151710000Y-106450000D03*
X149090000Y-107400000D03*
%TD*%
D25*
%TO.C,SW1*%
X136900000Y-80150000D03*
X143400000Y-80150000D03*
X136900000Y-84650000D03*
X143400000Y-84650000D03*
%TD*%
D11*
%TO.C,R2*%
X175400000Y-100790000D03*
D12*
X175400000Y-108410000D03*
%TD*%
D13*
%TO.C,J2*%
X151910006Y-91399994D03*
D14*
X151910006Y-88859994D03*
X154450006Y-91399994D03*
X154450006Y-88859994D03*
X156990006Y-91399994D03*
X156990006Y-88859994D03*
%TD*%
D25*
%TO.C,SW2*%
X125650000Y-84650000D03*
X119150000Y-84650000D03*
X125650000Y-80150000D03*
X119150000Y-80150000D03*
%TD*%
D26*
%TO.C,U2*%
X144450000Y-95910000D03*
X145400000Y-95910000D03*
X146350000Y-95910000D03*
X146350000Y-92490000D03*
X144450000Y-92490000D03*
%TD*%
D23*
%TO.C,C5*%
X163150000Y-94910000D03*
X168150000Y-94910000D03*
%TD*%
D11*
%TO.C,R5*%
X166990000Y-111100000D03*
D12*
X174610000Y-111100000D03*
%TD*%
D15*
%TO.C,J1*%
X128767506Y-92112494D03*
D16*
X128767506Y-95612494D03*
%TD*%
D23*
%TO.C,C6*%
X158900000Y-109650000D03*
X158900000Y-112150000D03*
%TD*%
D13*
%TO.C,J3*%
X162860000Y-88890000D03*
D14*
X165400000Y-88890000D03*
X167940000Y-88890000D03*
%TD*%
D13*
%TO.C,J7*%
X125700000Y-92590000D03*
D14*
X125700000Y-95130000D03*
%TD*%
D23*
%TO.C,C3*%
X159400000Y-106500000D03*
X154400000Y-106500000D03*
%TD*%
D13*
%TO.C,J6*%
X176400000Y-93940000D03*
D14*
X176400000Y-91400000D03*
X176400000Y-88860000D03*
%TD*%
D11*
%TO.C,R4*%
X170670000Y-97910000D03*
D12*
X163050000Y-97910000D03*
%TD*%
D23*
%TO.C,C2*%
X144350000Y-99700000D03*
X146850000Y-99700000D03*
%TD*%
%TO.C,C1*%
X144350000Y-88700000D03*
X146850000Y-88700000D03*
%TD*%
M02*
