%TF.GenerationSoftware,KiCad,Pcbnew,7.0.6*%
%TF.CreationDate,2023-08-07T22:53:29+02:00*%
%TF.ProjectId,attiny85_time_switch,61747469-6e79-4383-955f-74696d655f73,1.0*%
%TF.SameCoordinates,Original*%
%TF.FileFunction,Legend,Bot*%
%TF.FilePolarity,Positive*%
%FSLAX46Y46*%
G04 Gerber Fmt 4.6, Leading zero omitted, Abs format (unit mm)*
G04 Created by KiCad (PCBNEW 7.0.6) date 2023-08-07 22:53:29*
%MOMM*%
%LPD*%
G01*
G04 APERTURE LIST*
%ADD10C,0.200000*%
%ADD11C,4.000000*%
%ADD12C,1.400000*%
%ADD13O,1.400000X1.400000*%
%ADD14R,1.700000X1.700000*%
%ADD15O,1.700000X1.700000*%
%ADD16R,2.600000X2.600000*%
%ADD17C,2.600000*%
%ADD18R,1.800000X1.800000*%
%ADD19C,1.800000*%
%ADD20R,1.600000X1.600000*%
%ADD21O,1.600000X1.600000*%
%ADD22C,2.200000*%
%ADD23O,1.800000X1.800000*%
%ADD24C,1.600000*%
%ADD25C,2.000000*%
G04 APERTURE END LIST*
D10*
X180644618Y-131967213D02*
X180644618Y-132681498D01*
X180644618Y-132681498D02*
X180692237Y-132824355D01*
X180692237Y-132824355D02*
X180787475Y-132919594D01*
X180787475Y-132919594D02*
X180930332Y-132967213D01*
X180930332Y-132967213D02*
X181025570Y-132967213D01*
X179692237Y-132967213D02*
X180168427Y-132967213D01*
X180168427Y-132967213D02*
X180168427Y-131967213D01*
X178787475Y-132871974D02*
X178835094Y-132919594D01*
X178835094Y-132919594D02*
X178977951Y-132967213D01*
X178977951Y-132967213D02*
X179073189Y-132967213D01*
X179073189Y-132967213D02*
X179216046Y-132919594D01*
X179216046Y-132919594D02*
X179311284Y-132824355D01*
X179311284Y-132824355D02*
X179358903Y-132729117D01*
X179358903Y-132729117D02*
X179406522Y-132538641D01*
X179406522Y-132538641D02*
X179406522Y-132395784D01*
X179406522Y-132395784D02*
X179358903Y-132205308D01*
X179358903Y-132205308D02*
X179311284Y-132110070D01*
X179311284Y-132110070D02*
X179216046Y-132014832D01*
X179216046Y-132014832D02*
X179073189Y-131967213D01*
X179073189Y-131967213D02*
X178977951Y-131967213D01*
X178977951Y-131967213D02*
X178835094Y-132014832D01*
X178835094Y-132014832D02*
X178787475Y-132062451D01*
X178073189Y-131967213D02*
X178073189Y-132681498D01*
X178073189Y-132681498D02*
X178120808Y-132824355D01*
X178120808Y-132824355D02*
X178216046Y-132919594D01*
X178216046Y-132919594D02*
X178358903Y-132967213D01*
X178358903Y-132967213D02*
X178454141Y-132967213D01*
X177120808Y-132967213D02*
X177596998Y-132967213D01*
X177596998Y-132967213D02*
X177596998Y-131967213D01*
X176216046Y-132871974D02*
X176263665Y-132919594D01*
X176263665Y-132919594D02*
X176406522Y-132967213D01*
X176406522Y-132967213D02*
X176501760Y-132967213D01*
X176501760Y-132967213D02*
X176644617Y-132919594D01*
X176644617Y-132919594D02*
X176739855Y-132824355D01*
X176739855Y-132824355D02*
X176787474Y-132729117D01*
X176787474Y-132729117D02*
X176835093Y-132538641D01*
X176835093Y-132538641D02*
X176835093Y-132395784D01*
X176835093Y-132395784D02*
X176787474Y-132205308D01*
X176787474Y-132205308D02*
X176739855Y-132110070D01*
X176739855Y-132110070D02*
X176644617Y-132014832D01*
X176644617Y-132014832D02*
X176501760Y-131967213D01*
X176501760Y-131967213D02*
X176406522Y-131967213D01*
X176406522Y-131967213D02*
X176263665Y-132014832D01*
X176263665Y-132014832D02*
X176216046Y-132062451D01*
X175501760Y-131967213D02*
X175501760Y-132681498D01*
X175501760Y-132681498D02*
X175549379Y-132824355D01*
X175549379Y-132824355D02*
X175644617Y-132919594D01*
X175644617Y-132919594D02*
X175787474Y-132967213D01*
X175787474Y-132967213D02*
X175882712Y-132967213D01*
X174549379Y-132967213D02*
X175025569Y-132967213D01*
X175025569Y-132967213D02*
X175025569Y-131967213D01*
X173644617Y-132871974D02*
X173692236Y-132919594D01*
X173692236Y-132919594D02*
X173835093Y-132967213D01*
X173835093Y-132967213D02*
X173930331Y-132967213D01*
X173930331Y-132967213D02*
X174073188Y-132919594D01*
X174073188Y-132919594D02*
X174168426Y-132824355D01*
X174168426Y-132824355D02*
X174216045Y-132729117D01*
X174216045Y-132729117D02*
X174263664Y-132538641D01*
X174263664Y-132538641D02*
X174263664Y-132395784D01*
X174263664Y-132395784D02*
X174216045Y-132205308D01*
X174216045Y-132205308D02*
X174168426Y-132110070D01*
X174168426Y-132110070D02*
X174073188Y-132014832D01*
X174073188Y-132014832D02*
X173930331Y-131967213D01*
X173930331Y-131967213D02*
X173835093Y-131967213D01*
X173835093Y-131967213D02*
X173692236Y-132014832D01*
X173692236Y-132014832D02*
X173644617Y-132062451D01*
X172930331Y-131967213D02*
X172930331Y-132681498D01*
X172930331Y-132681498D02*
X172977950Y-132824355D01*
X172977950Y-132824355D02*
X173073188Y-132919594D01*
X173073188Y-132919594D02*
X173216045Y-132967213D01*
X173216045Y-132967213D02*
X173311283Y-132967213D01*
X171977950Y-132967213D02*
X172454140Y-132967213D01*
X172454140Y-132967213D02*
X172454140Y-131967213D01*
X171073188Y-132871974D02*
X171120807Y-132919594D01*
X171120807Y-132919594D02*
X171263664Y-132967213D01*
X171263664Y-132967213D02*
X171358902Y-132967213D01*
X171358902Y-132967213D02*
X171501759Y-132919594D01*
X171501759Y-132919594D02*
X171596997Y-132824355D01*
X171596997Y-132824355D02*
X171644616Y-132729117D01*
X171644616Y-132729117D02*
X171692235Y-132538641D01*
X171692235Y-132538641D02*
X171692235Y-132395784D01*
X171692235Y-132395784D02*
X171644616Y-132205308D01*
X171644616Y-132205308D02*
X171596997Y-132110070D01*
X171596997Y-132110070D02*
X171501759Y-132014832D01*
X171501759Y-132014832D02*
X171358902Y-131967213D01*
X171358902Y-131967213D02*
X171263664Y-131967213D01*
X171263664Y-131967213D02*
X171120807Y-132014832D01*
X171120807Y-132014832D02*
X171073188Y-132062451D01*
%LPC*%
D11*
%TO.C,Case1*%
X112700000Y-91350000D03*
X151450000Y-52400000D03*
X151450000Y-130100000D03*
X190400000Y-91350000D03*
%TD*%
D12*
%TO.C,R1*%
X170200000Y-108410000D03*
D13*
X170200000Y-100790000D03*
%TD*%
D14*
%TO.C,J8*%
X125665000Y-105790000D03*
D15*
X125665000Y-108330000D03*
%TD*%
D16*
%TO.C,J4*%
X128767506Y-105262494D03*
D17*
X128767506Y-108762494D03*
%TD*%
D18*
%TO.C,D2*%
X132650000Y-82400000D03*
D19*
X130110000Y-82400000D03*
%TD*%
D20*
%TO.C,U1*%
X158700000Y-95600000D03*
D21*
X156160000Y-95600000D03*
X153620000Y-95600000D03*
X151080000Y-95600000D03*
X151080000Y-103220000D03*
X153620000Y-103220000D03*
X156160000Y-103220000D03*
X158700000Y-103220000D03*
%TD*%
D22*
%TO.C,F1*%
X139800000Y-91450000D03*
X134800000Y-91450000D03*
X139800000Y-108350000D03*
X134800000Y-108350000D03*
%TD*%
D12*
%TO.C,R7*%
X172800000Y-100790000D03*
D13*
X172800000Y-108410000D03*
%TD*%
D18*
%TO.C,D1*%
X144900000Y-103390000D03*
D23*
X144900000Y-111010000D03*
%TD*%
D14*
%TO.C,J5*%
X172400000Y-93940000D03*
D15*
X172400000Y-91400000D03*
X172400000Y-88860000D03*
%TD*%
D24*
%TO.C,C4*%
X167200000Y-100890000D03*
X167200000Y-105890000D03*
%TD*%
%TO.C,C7*%
X163600000Y-105890000D03*
X163600000Y-100890000D03*
%TD*%
D12*
%TO.C,R3*%
X148290000Y-110700000D03*
D13*
X155910000Y-110700000D03*
%TD*%
D12*
%TO.C,R6*%
X124090000Y-87650000D03*
D13*
X131710000Y-87650000D03*
%TD*%
D25*
%TO.C,SW1*%
X136900000Y-80150000D03*
X143400000Y-80150000D03*
X136900000Y-84650000D03*
X143400000Y-84650000D03*
%TD*%
D12*
%TO.C,R2*%
X175400000Y-100790000D03*
D13*
X175400000Y-108410000D03*
%TD*%
D14*
%TO.C,J2*%
X151910006Y-91399994D03*
D15*
X151910006Y-88859994D03*
X154450006Y-91399994D03*
X154450006Y-88859994D03*
X156990006Y-91399994D03*
X156990006Y-88859994D03*
%TD*%
D25*
%TO.C,SW2*%
X125650000Y-84650000D03*
X119150000Y-84650000D03*
X125650000Y-80150000D03*
X119150000Y-80150000D03*
%TD*%
D24*
%TO.C,C5*%
X163150000Y-94910000D03*
X168150000Y-94910000D03*
%TD*%
D12*
%TO.C,R5*%
X166990000Y-111100000D03*
D13*
X174610000Y-111100000D03*
%TD*%
D16*
%TO.C,J1*%
X128767506Y-92112494D03*
D17*
X128767506Y-95612494D03*
%TD*%
D24*
%TO.C,C6*%
X158900000Y-109650000D03*
X158900000Y-112150000D03*
%TD*%
D14*
%TO.C,J3*%
X162860000Y-88890000D03*
D15*
X165400000Y-88890000D03*
X167940000Y-88890000D03*
%TD*%
D14*
%TO.C,J7*%
X125700000Y-92590000D03*
D15*
X125700000Y-95130000D03*
%TD*%
D24*
%TO.C,C3*%
X159400000Y-106500000D03*
X154400000Y-106500000D03*
%TD*%
D14*
%TO.C,J6*%
X176400000Y-93940000D03*
D15*
X176400000Y-91400000D03*
X176400000Y-88860000D03*
%TD*%
D12*
%TO.C,R4*%
X170670000Y-97910000D03*
D13*
X163050000Y-97910000D03*
%TD*%
D24*
%TO.C,C2*%
X144350000Y-99700000D03*
X146850000Y-99700000D03*
%TD*%
%TO.C,C1*%
X144350000Y-88700000D03*
X146850000Y-88700000D03*
%TD*%
%LPD*%
M02*
