M48
; DRILL file {KiCad 7.0.6} date Mon Aug  7 22:53:37 2023
; FORMAT={-:-/ absolute / metric / decimal}
; #@! TF.CreationDate,2023-08-07T22:53:37+02:00
; #@! TF.GenerationSoftware,Kicad,Pcbnew,7.0.6
; #@! TF.FileFunction,Plated,1,2,PTH
FMAT,2
METRIC
; #@! TA.AperFunction,Plated,PTH,ViaDrill
T1C0.400
; #@! TA.AperFunction,Plated,PTH,ComponentDrill
T2C0.700
; #@! TA.AperFunction,Plated,PTH,ComponentDrill
T3C0.800
; #@! TA.AperFunction,Plated,PTH,ComponentDrill
T4C0.900
; #@! TA.AperFunction,Plated,PTH,ComponentDrill
T5C1.000
; #@! TA.AperFunction,Plated,PTH,ComponentDrill
T6C1.100
; #@! TA.AperFunction,Plated,PTH,ComponentDrill
T7C1.300
%
G90
G05
T1
X153.65Y-98.35
X156.1Y-98.4
T2
X124.09Y-87.65
X131.71Y-87.65
X148.29Y-110.7
X155.91Y-110.7
X163.05Y-97.91
X166.99Y-111.1
X170.2Y-100.79
X170.2Y-108.41
X170.67Y-97.91
X172.8Y-100.79
X172.8Y-108.41
X174.61Y-111.1
X175.4Y-100.79
X175.4Y-108.41
T3
X144.35Y-88.7
X144.35Y-99.7
X146.85Y-88.7
X146.85Y-99.7
X151.08Y-95.6
X151.08Y-103.22
X153.62Y-95.6
X153.62Y-103.22
X154.4Y-106.5
X156.16Y-95.6
X156.16Y-103.22
X158.7Y-95.6
X158.7Y-103.22
X158.9Y-109.65
X158.9Y-112.15
X159.4Y-106.5
X163.15Y-94.91
X163.6Y-100.89
X163.6Y-105.89
X167.2Y-100.89
X167.2Y-105.89
X168.15Y-94.91
T4
X130.11Y-82.4
X132.65Y-82.4
X144.9Y-103.39
X144.9Y-111.01
T5
X125.665Y-105.79
X125.665Y-108.33
X125.7Y-92.59
X125.7Y-95.13
X151.91Y-88.86
X151.91Y-91.4
X154.45Y-88.86
X154.45Y-91.4
X156.99Y-88.86
X156.99Y-91.4
X162.86Y-88.89
X165.4Y-88.89
X167.94Y-88.89
X172.4Y-88.86
X172.4Y-91.4
X172.4Y-93.94
X176.4Y-88.86
X176.4Y-91.4
X176.4Y-93.94
T6
X119.15Y-80.15
X119.15Y-84.65
X125.65Y-80.15
X125.65Y-84.65
X136.9Y-80.15
X136.9Y-84.65
X143.4Y-80.15
X143.4Y-84.65
T7
X128.768Y-92.112
X128.768Y-95.612
X128.768Y-105.262
X128.768Y-108.762
X134.8Y-91.45
X134.8Y-108.35
X139.8Y-91.45
X139.8Y-108.35
T0
M30
